M48
;DRILL file {KiCad (5.0.2)-1} date 17.03.2019 11:04:56
;FORMAT={-:-/ absolute / metric / decimal}
FMAT,2
METRIC,TZ
T1C1.000
T2C2.700
T3C3.200
%
G90
G05
T1
X84.308Y-184.929
X84.308Y-187.469
X86.848Y-184.929
X86.848Y-187.469
X89.388Y-184.929
X89.388Y-187.469
X91.928Y-184.929
X91.928Y-187.469
X94.468Y-184.929
X94.468Y-187.469
X97.008Y-184.929
X97.008Y-187.469
X99.548Y-184.929
X99.548Y-187.469
X102.088Y-184.929
X102.088Y-187.469
X104.628Y-184.929
X104.628Y-187.469
X107.168Y-184.929
X107.168Y-187.469
X109.708Y-184.929
X109.708Y-187.469
X112.248Y-184.929
X112.248Y-187.469
X114.788Y-184.929
X114.788Y-187.469
X117.328Y-184.929
X117.328Y-187.469
X119.868Y-184.929
X119.868Y-187.469
X122.408Y-184.929
X122.408Y-187.469
X124.948Y-184.929
X124.948Y-187.469
X127.488Y-184.929
X127.488Y-187.469
X130.028Y-184.929
X130.028Y-187.469
X132.568Y-184.929
X132.568Y-187.469
X127.534Y-130.461
X130.074Y-130.461
X132.614Y-130.461
X84.32Y-130.464
X86.86Y-130.464
X89.4Y-130.464
X81.768Y-191.787
X84.308Y-191.787
X86.848Y-191.787
X89.388Y-191.787
X91.928Y-191.787
X94.468Y-191.787
X97.008Y-191.787
X99.548Y-191.787
X102.088Y-191.787
X104.628Y-191.787
X107.168Y-191.787
X109.708Y-191.787
X112.248Y-191.787
X114.788Y-191.787
X117.328Y-191.787
X119.868Y-191.787
X122.408Y-191.787
X124.948Y-191.787
X127.488Y-191.787
X130.028Y-191.787
T2
X137.454Y-163.201
X137.434Y-186.191
X137.434Y-137.191
X79.45Y-163.15
X79.45Y-137.144
X79.45Y-186.191
T3
X142.904Y-133.641
X142.914Y-188.681
T0
M30
