G04 #@! TF.GenerationSoftware,KiCad,Pcbnew,(5.0.2)-1*
G04 #@! TF.CreationDate,2019-03-17T11:04:46+01:00*
G04 #@! TF.ProjectId,iC880A_Adapter_V1.1,69433838-3041-45f4-9164-61707465725f,rev?*
G04 #@! TF.SameCoordinates,Original*
G04 #@! TF.FileFunction,Soldermask,Top*
G04 #@! TF.FilePolarity,Negative*
%FSLAX46Y46*%
G04 Gerber Fmt 4.6, Leading zero omitted, Abs format (unit mm)*
G04 Created by KiCad (PCBNEW (5.0.2)-1) date 17.03.2019 11:04:46*
%MOMM*%
%LPD*%
G01*
G04 APERTURE LIST*
%ADD10C,0.100000*%
G04 APERTURE END LIST*
D10*
G36*
X130138363Y-190892199D02*
X130204547Y-190898717D01*
X130317773Y-190933064D01*
X130374387Y-190950237D01*
X130513007Y-191024332D01*
X130530911Y-191033902D01*
X130566649Y-191063232D01*
X130668106Y-191146494D01*
X130751368Y-191247951D01*
X130780698Y-191283689D01*
X130780699Y-191283691D01*
X130864363Y-191440213D01*
X130864363Y-191440214D01*
X130915883Y-191610053D01*
X130933279Y-191786680D01*
X130915883Y-191963307D01*
X130881536Y-192076533D01*
X130864363Y-192133147D01*
X130790268Y-192271767D01*
X130780698Y-192289671D01*
X130751368Y-192325409D01*
X130668106Y-192426866D01*
X130566649Y-192510128D01*
X130530911Y-192539458D01*
X130530909Y-192539459D01*
X130374387Y-192623123D01*
X130317773Y-192640296D01*
X130204547Y-192674643D01*
X130138362Y-192681162D01*
X130072180Y-192687680D01*
X129983660Y-192687680D01*
X129917478Y-192681162D01*
X129851293Y-192674643D01*
X129738067Y-192640296D01*
X129681453Y-192623123D01*
X129524931Y-192539459D01*
X129524929Y-192539458D01*
X129489191Y-192510128D01*
X129387734Y-192426866D01*
X129304472Y-192325409D01*
X129275142Y-192289671D01*
X129265572Y-192271767D01*
X129191477Y-192133147D01*
X129174304Y-192076533D01*
X129139957Y-191963307D01*
X129122561Y-191786680D01*
X129139957Y-191610053D01*
X129191477Y-191440214D01*
X129191477Y-191440213D01*
X129275141Y-191283691D01*
X129275142Y-191283689D01*
X129304472Y-191247951D01*
X129387734Y-191146494D01*
X129489191Y-191063232D01*
X129524929Y-191033902D01*
X129542833Y-191024332D01*
X129681453Y-190950237D01*
X129738067Y-190933064D01*
X129851293Y-190898717D01*
X129917477Y-190892199D01*
X129983660Y-190885680D01*
X130072180Y-190885680D01*
X130138363Y-190892199D01*
X130138363Y-190892199D01*
G37*
G36*
X102198363Y-190892199D02*
X102264547Y-190898717D01*
X102377773Y-190933064D01*
X102434387Y-190950237D01*
X102573007Y-191024332D01*
X102590911Y-191033902D01*
X102626649Y-191063232D01*
X102728106Y-191146494D01*
X102811368Y-191247951D01*
X102840698Y-191283689D01*
X102840699Y-191283691D01*
X102924363Y-191440213D01*
X102924363Y-191440214D01*
X102975883Y-191610053D01*
X102993279Y-191786680D01*
X102975883Y-191963307D01*
X102941536Y-192076533D01*
X102924363Y-192133147D01*
X102850268Y-192271767D01*
X102840698Y-192289671D01*
X102811368Y-192325409D01*
X102728106Y-192426866D01*
X102626649Y-192510128D01*
X102590911Y-192539458D01*
X102590909Y-192539459D01*
X102434387Y-192623123D01*
X102377773Y-192640296D01*
X102264547Y-192674643D01*
X102198362Y-192681162D01*
X102132180Y-192687680D01*
X102043660Y-192687680D01*
X101977478Y-192681162D01*
X101911293Y-192674643D01*
X101798067Y-192640296D01*
X101741453Y-192623123D01*
X101584931Y-192539459D01*
X101584929Y-192539458D01*
X101549191Y-192510128D01*
X101447734Y-192426866D01*
X101364472Y-192325409D01*
X101335142Y-192289671D01*
X101325572Y-192271767D01*
X101251477Y-192133147D01*
X101234304Y-192076533D01*
X101199957Y-191963307D01*
X101182561Y-191786680D01*
X101199957Y-191610053D01*
X101251477Y-191440214D01*
X101251477Y-191440213D01*
X101335141Y-191283691D01*
X101335142Y-191283689D01*
X101364472Y-191247951D01*
X101447734Y-191146494D01*
X101549191Y-191063232D01*
X101584929Y-191033902D01*
X101602833Y-191024332D01*
X101741453Y-190950237D01*
X101798067Y-190933064D01*
X101911293Y-190898717D01*
X101977477Y-190892199D01*
X102043660Y-190885680D01*
X102132180Y-190885680D01*
X102198363Y-190892199D01*
X102198363Y-190892199D01*
G37*
G36*
X125058363Y-190892199D02*
X125124547Y-190898717D01*
X125237773Y-190933064D01*
X125294387Y-190950237D01*
X125433007Y-191024332D01*
X125450911Y-191033902D01*
X125486649Y-191063232D01*
X125588106Y-191146494D01*
X125671368Y-191247951D01*
X125700698Y-191283689D01*
X125700699Y-191283691D01*
X125784363Y-191440213D01*
X125784363Y-191440214D01*
X125835883Y-191610053D01*
X125853279Y-191786680D01*
X125835883Y-191963307D01*
X125801536Y-192076533D01*
X125784363Y-192133147D01*
X125710268Y-192271767D01*
X125700698Y-192289671D01*
X125671368Y-192325409D01*
X125588106Y-192426866D01*
X125486649Y-192510128D01*
X125450911Y-192539458D01*
X125450909Y-192539459D01*
X125294387Y-192623123D01*
X125237773Y-192640296D01*
X125124547Y-192674643D01*
X125058362Y-192681162D01*
X124992180Y-192687680D01*
X124903660Y-192687680D01*
X124837478Y-192681162D01*
X124771293Y-192674643D01*
X124658067Y-192640296D01*
X124601453Y-192623123D01*
X124444931Y-192539459D01*
X124444929Y-192539458D01*
X124409191Y-192510128D01*
X124307734Y-192426866D01*
X124224472Y-192325409D01*
X124195142Y-192289671D01*
X124185572Y-192271767D01*
X124111477Y-192133147D01*
X124094304Y-192076533D01*
X124059957Y-191963307D01*
X124042561Y-191786680D01*
X124059957Y-191610053D01*
X124111477Y-191440214D01*
X124111477Y-191440213D01*
X124195141Y-191283691D01*
X124195142Y-191283689D01*
X124224472Y-191247951D01*
X124307734Y-191146494D01*
X124409191Y-191063232D01*
X124444929Y-191033902D01*
X124462833Y-191024332D01*
X124601453Y-190950237D01*
X124658067Y-190933064D01*
X124771293Y-190898717D01*
X124837477Y-190892199D01*
X124903660Y-190885680D01*
X124992180Y-190885680D01*
X125058363Y-190892199D01*
X125058363Y-190892199D01*
G37*
G36*
X122518363Y-190892199D02*
X122584547Y-190898717D01*
X122697773Y-190933064D01*
X122754387Y-190950237D01*
X122893007Y-191024332D01*
X122910911Y-191033902D01*
X122946649Y-191063232D01*
X123048106Y-191146494D01*
X123131368Y-191247951D01*
X123160698Y-191283689D01*
X123160699Y-191283691D01*
X123244363Y-191440213D01*
X123244363Y-191440214D01*
X123295883Y-191610053D01*
X123313279Y-191786680D01*
X123295883Y-191963307D01*
X123261536Y-192076533D01*
X123244363Y-192133147D01*
X123170268Y-192271767D01*
X123160698Y-192289671D01*
X123131368Y-192325409D01*
X123048106Y-192426866D01*
X122946649Y-192510128D01*
X122910911Y-192539458D01*
X122910909Y-192539459D01*
X122754387Y-192623123D01*
X122697773Y-192640296D01*
X122584547Y-192674643D01*
X122518362Y-192681162D01*
X122452180Y-192687680D01*
X122363660Y-192687680D01*
X122297478Y-192681162D01*
X122231293Y-192674643D01*
X122118067Y-192640296D01*
X122061453Y-192623123D01*
X121904931Y-192539459D01*
X121904929Y-192539458D01*
X121869191Y-192510128D01*
X121767734Y-192426866D01*
X121684472Y-192325409D01*
X121655142Y-192289671D01*
X121645572Y-192271767D01*
X121571477Y-192133147D01*
X121554304Y-192076533D01*
X121519957Y-191963307D01*
X121502561Y-191786680D01*
X121519957Y-191610053D01*
X121571477Y-191440214D01*
X121571477Y-191440213D01*
X121655141Y-191283691D01*
X121655142Y-191283689D01*
X121684472Y-191247951D01*
X121767734Y-191146494D01*
X121869191Y-191063232D01*
X121904929Y-191033902D01*
X121922833Y-191024332D01*
X122061453Y-190950237D01*
X122118067Y-190933064D01*
X122231293Y-190898717D01*
X122297477Y-190892199D01*
X122363660Y-190885680D01*
X122452180Y-190885680D01*
X122518363Y-190892199D01*
X122518363Y-190892199D01*
G37*
G36*
X119978363Y-190892199D02*
X120044547Y-190898717D01*
X120157773Y-190933064D01*
X120214387Y-190950237D01*
X120353007Y-191024332D01*
X120370911Y-191033902D01*
X120406649Y-191063232D01*
X120508106Y-191146494D01*
X120591368Y-191247951D01*
X120620698Y-191283689D01*
X120620699Y-191283691D01*
X120704363Y-191440213D01*
X120704363Y-191440214D01*
X120755883Y-191610053D01*
X120773279Y-191786680D01*
X120755883Y-191963307D01*
X120721536Y-192076533D01*
X120704363Y-192133147D01*
X120630268Y-192271767D01*
X120620698Y-192289671D01*
X120591368Y-192325409D01*
X120508106Y-192426866D01*
X120406649Y-192510128D01*
X120370911Y-192539458D01*
X120370909Y-192539459D01*
X120214387Y-192623123D01*
X120157773Y-192640296D01*
X120044547Y-192674643D01*
X119978362Y-192681162D01*
X119912180Y-192687680D01*
X119823660Y-192687680D01*
X119757478Y-192681162D01*
X119691293Y-192674643D01*
X119578067Y-192640296D01*
X119521453Y-192623123D01*
X119364931Y-192539459D01*
X119364929Y-192539458D01*
X119329191Y-192510128D01*
X119227734Y-192426866D01*
X119144472Y-192325409D01*
X119115142Y-192289671D01*
X119105572Y-192271767D01*
X119031477Y-192133147D01*
X119014304Y-192076533D01*
X118979957Y-191963307D01*
X118962561Y-191786680D01*
X118979957Y-191610053D01*
X119031477Y-191440214D01*
X119031477Y-191440213D01*
X119115141Y-191283691D01*
X119115142Y-191283689D01*
X119144472Y-191247951D01*
X119227734Y-191146494D01*
X119329191Y-191063232D01*
X119364929Y-191033902D01*
X119382833Y-191024332D01*
X119521453Y-190950237D01*
X119578067Y-190933064D01*
X119691293Y-190898717D01*
X119757477Y-190892199D01*
X119823660Y-190885680D01*
X119912180Y-190885680D01*
X119978363Y-190892199D01*
X119978363Y-190892199D01*
G37*
G36*
X117438363Y-190892199D02*
X117504547Y-190898717D01*
X117617773Y-190933064D01*
X117674387Y-190950237D01*
X117813007Y-191024332D01*
X117830911Y-191033902D01*
X117866649Y-191063232D01*
X117968106Y-191146494D01*
X118051368Y-191247951D01*
X118080698Y-191283689D01*
X118080699Y-191283691D01*
X118164363Y-191440213D01*
X118164363Y-191440214D01*
X118215883Y-191610053D01*
X118233279Y-191786680D01*
X118215883Y-191963307D01*
X118181536Y-192076533D01*
X118164363Y-192133147D01*
X118090268Y-192271767D01*
X118080698Y-192289671D01*
X118051368Y-192325409D01*
X117968106Y-192426866D01*
X117866649Y-192510128D01*
X117830911Y-192539458D01*
X117830909Y-192539459D01*
X117674387Y-192623123D01*
X117617773Y-192640296D01*
X117504547Y-192674643D01*
X117438362Y-192681162D01*
X117372180Y-192687680D01*
X117283660Y-192687680D01*
X117217478Y-192681162D01*
X117151293Y-192674643D01*
X117038067Y-192640296D01*
X116981453Y-192623123D01*
X116824931Y-192539459D01*
X116824929Y-192539458D01*
X116789191Y-192510128D01*
X116687734Y-192426866D01*
X116604472Y-192325409D01*
X116575142Y-192289671D01*
X116565572Y-192271767D01*
X116491477Y-192133147D01*
X116474304Y-192076533D01*
X116439957Y-191963307D01*
X116422561Y-191786680D01*
X116439957Y-191610053D01*
X116491477Y-191440214D01*
X116491477Y-191440213D01*
X116575141Y-191283691D01*
X116575142Y-191283689D01*
X116604472Y-191247951D01*
X116687734Y-191146494D01*
X116789191Y-191063232D01*
X116824929Y-191033902D01*
X116842833Y-191024332D01*
X116981453Y-190950237D01*
X117038067Y-190933064D01*
X117151293Y-190898717D01*
X117217477Y-190892199D01*
X117283660Y-190885680D01*
X117372180Y-190885680D01*
X117438363Y-190892199D01*
X117438363Y-190892199D01*
G37*
G36*
X114898363Y-190892199D02*
X114964547Y-190898717D01*
X115077773Y-190933064D01*
X115134387Y-190950237D01*
X115273007Y-191024332D01*
X115290911Y-191033902D01*
X115326649Y-191063232D01*
X115428106Y-191146494D01*
X115511368Y-191247951D01*
X115540698Y-191283689D01*
X115540699Y-191283691D01*
X115624363Y-191440213D01*
X115624363Y-191440214D01*
X115675883Y-191610053D01*
X115693279Y-191786680D01*
X115675883Y-191963307D01*
X115641536Y-192076533D01*
X115624363Y-192133147D01*
X115550268Y-192271767D01*
X115540698Y-192289671D01*
X115511368Y-192325409D01*
X115428106Y-192426866D01*
X115326649Y-192510128D01*
X115290911Y-192539458D01*
X115290909Y-192539459D01*
X115134387Y-192623123D01*
X115077773Y-192640296D01*
X114964547Y-192674643D01*
X114898362Y-192681162D01*
X114832180Y-192687680D01*
X114743660Y-192687680D01*
X114677478Y-192681162D01*
X114611293Y-192674643D01*
X114498067Y-192640296D01*
X114441453Y-192623123D01*
X114284931Y-192539459D01*
X114284929Y-192539458D01*
X114249191Y-192510128D01*
X114147734Y-192426866D01*
X114064472Y-192325409D01*
X114035142Y-192289671D01*
X114025572Y-192271767D01*
X113951477Y-192133147D01*
X113934304Y-192076533D01*
X113899957Y-191963307D01*
X113882561Y-191786680D01*
X113899957Y-191610053D01*
X113951477Y-191440214D01*
X113951477Y-191440213D01*
X114035141Y-191283691D01*
X114035142Y-191283689D01*
X114064472Y-191247951D01*
X114147734Y-191146494D01*
X114249191Y-191063232D01*
X114284929Y-191033902D01*
X114302833Y-191024332D01*
X114441453Y-190950237D01*
X114498067Y-190933064D01*
X114611293Y-190898717D01*
X114677477Y-190892199D01*
X114743660Y-190885680D01*
X114832180Y-190885680D01*
X114898363Y-190892199D01*
X114898363Y-190892199D01*
G37*
G36*
X112358363Y-190892199D02*
X112424547Y-190898717D01*
X112537773Y-190933064D01*
X112594387Y-190950237D01*
X112733007Y-191024332D01*
X112750911Y-191033902D01*
X112786649Y-191063232D01*
X112888106Y-191146494D01*
X112971368Y-191247951D01*
X113000698Y-191283689D01*
X113000699Y-191283691D01*
X113084363Y-191440213D01*
X113084363Y-191440214D01*
X113135883Y-191610053D01*
X113153279Y-191786680D01*
X113135883Y-191963307D01*
X113101536Y-192076533D01*
X113084363Y-192133147D01*
X113010268Y-192271767D01*
X113000698Y-192289671D01*
X112971368Y-192325409D01*
X112888106Y-192426866D01*
X112786649Y-192510128D01*
X112750911Y-192539458D01*
X112750909Y-192539459D01*
X112594387Y-192623123D01*
X112537773Y-192640296D01*
X112424547Y-192674643D01*
X112358362Y-192681162D01*
X112292180Y-192687680D01*
X112203660Y-192687680D01*
X112137478Y-192681162D01*
X112071293Y-192674643D01*
X111958067Y-192640296D01*
X111901453Y-192623123D01*
X111744931Y-192539459D01*
X111744929Y-192539458D01*
X111709191Y-192510128D01*
X111607734Y-192426866D01*
X111524472Y-192325409D01*
X111495142Y-192289671D01*
X111485572Y-192271767D01*
X111411477Y-192133147D01*
X111394304Y-192076533D01*
X111359957Y-191963307D01*
X111342561Y-191786680D01*
X111359957Y-191610053D01*
X111411477Y-191440214D01*
X111411477Y-191440213D01*
X111495141Y-191283691D01*
X111495142Y-191283689D01*
X111524472Y-191247951D01*
X111607734Y-191146494D01*
X111709191Y-191063232D01*
X111744929Y-191033902D01*
X111762833Y-191024332D01*
X111901453Y-190950237D01*
X111958067Y-190933064D01*
X112071293Y-190898717D01*
X112137477Y-190892199D01*
X112203660Y-190885680D01*
X112292180Y-190885680D01*
X112358363Y-190892199D01*
X112358363Y-190892199D01*
G37*
G36*
X109818363Y-190892199D02*
X109884547Y-190898717D01*
X109997773Y-190933064D01*
X110054387Y-190950237D01*
X110193007Y-191024332D01*
X110210911Y-191033902D01*
X110246649Y-191063232D01*
X110348106Y-191146494D01*
X110431368Y-191247951D01*
X110460698Y-191283689D01*
X110460699Y-191283691D01*
X110544363Y-191440213D01*
X110544363Y-191440214D01*
X110595883Y-191610053D01*
X110613279Y-191786680D01*
X110595883Y-191963307D01*
X110561536Y-192076533D01*
X110544363Y-192133147D01*
X110470268Y-192271767D01*
X110460698Y-192289671D01*
X110431368Y-192325409D01*
X110348106Y-192426866D01*
X110246649Y-192510128D01*
X110210911Y-192539458D01*
X110210909Y-192539459D01*
X110054387Y-192623123D01*
X109997773Y-192640296D01*
X109884547Y-192674643D01*
X109818362Y-192681162D01*
X109752180Y-192687680D01*
X109663660Y-192687680D01*
X109597478Y-192681162D01*
X109531293Y-192674643D01*
X109418067Y-192640296D01*
X109361453Y-192623123D01*
X109204931Y-192539459D01*
X109204929Y-192539458D01*
X109169191Y-192510128D01*
X109067734Y-192426866D01*
X108984472Y-192325409D01*
X108955142Y-192289671D01*
X108945572Y-192271767D01*
X108871477Y-192133147D01*
X108854304Y-192076533D01*
X108819957Y-191963307D01*
X108802561Y-191786680D01*
X108819957Y-191610053D01*
X108871477Y-191440214D01*
X108871477Y-191440213D01*
X108955141Y-191283691D01*
X108955142Y-191283689D01*
X108984472Y-191247951D01*
X109067734Y-191146494D01*
X109169191Y-191063232D01*
X109204929Y-191033902D01*
X109222833Y-191024332D01*
X109361453Y-190950237D01*
X109418067Y-190933064D01*
X109531293Y-190898717D01*
X109597477Y-190892199D01*
X109663660Y-190885680D01*
X109752180Y-190885680D01*
X109818363Y-190892199D01*
X109818363Y-190892199D01*
G37*
G36*
X107278363Y-190892199D02*
X107344547Y-190898717D01*
X107457773Y-190933064D01*
X107514387Y-190950237D01*
X107653007Y-191024332D01*
X107670911Y-191033902D01*
X107706649Y-191063232D01*
X107808106Y-191146494D01*
X107891368Y-191247951D01*
X107920698Y-191283689D01*
X107920699Y-191283691D01*
X108004363Y-191440213D01*
X108004363Y-191440214D01*
X108055883Y-191610053D01*
X108073279Y-191786680D01*
X108055883Y-191963307D01*
X108021536Y-192076533D01*
X108004363Y-192133147D01*
X107930268Y-192271767D01*
X107920698Y-192289671D01*
X107891368Y-192325409D01*
X107808106Y-192426866D01*
X107706649Y-192510128D01*
X107670911Y-192539458D01*
X107670909Y-192539459D01*
X107514387Y-192623123D01*
X107457773Y-192640296D01*
X107344547Y-192674643D01*
X107278362Y-192681162D01*
X107212180Y-192687680D01*
X107123660Y-192687680D01*
X107057478Y-192681162D01*
X106991293Y-192674643D01*
X106878067Y-192640296D01*
X106821453Y-192623123D01*
X106664931Y-192539459D01*
X106664929Y-192539458D01*
X106629191Y-192510128D01*
X106527734Y-192426866D01*
X106444472Y-192325409D01*
X106415142Y-192289671D01*
X106405572Y-192271767D01*
X106331477Y-192133147D01*
X106314304Y-192076533D01*
X106279957Y-191963307D01*
X106262561Y-191786680D01*
X106279957Y-191610053D01*
X106331477Y-191440214D01*
X106331477Y-191440213D01*
X106415141Y-191283691D01*
X106415142Y-191283689D01*
X106444472Y-191247951D01*
X106527734Y-191146494D01*
X106629191Y-191063232D01*
X106664929Y-191033902D01*
X106682833Y-191024332D01*
X106821453Y-190950237D01*
X106878067Y-190933064D01*
X106991293Y-190898717D01*
X107057477Y-190892199D01*
X107123660Y-190885680D01*
X107212180Y-190885680D01*
X107278363Y-190892199D01*
X107278363Y-190892199D01*
G37*
G36*
X104738363Y-190892199D02*
X104804547Y-190898717D01*
X104917773Y-190933064D01*
X104974387Y-190950237D01*
X105113007Y-191024332D01*
X105130911Y-191033902D01*
X105166649Y-191063232D01*
X105268106Y-191146494D01*
X105351368Y-191247951D01*
X105380698Y-191283689D01*
X105380699Y-191283691D01*
X105464363Y-191440213D01*
X105464363Y-191440214D01*
X105515883Y-191610053D01*
X105533279Y-191786680D01*
X105515883Y-191963307D01*
X105481536Y-192076533D01*
X105464363Y-192133147D01*
X105390268Y-192271767D01*
X105380698Y-192289671D01*
X105351368Y-192325409D01*
X105268106Y-192426866D01*
X105166649Y-192510128D01*
X105130911Y-192539458D01*
X105130909Y-192539459D01*
X104974387Y-192623123D01*
X104917773Y-192640296D01*
X104804547Y-192674643D01*
X104738362Y-192681162D01*
X104672180Y-192687680D01*
X104583660Y-192687680D01*
X104517478Y-192681162D01*
X104451293Y-192674643D01*
X104338067Y-192640296D01*
X104281453Y-192623123D01*
X104124931Y-192539459D01*
X104124929Y-192539458D01*
X104089191Y-192510128D01*
X103987734Y-192426866D01*
X103904472Y-192325409D01*
X103875142Y-192289671D01*
X103865572Y-192271767D01*
X103791477Y-192133147D01*
X103774304Y-192076533D01*
X103739957Y-191963307D01*
X103722561Y-191786680D01*
X103739957Y-191610053D01*
X103791477Y-191440214D01*
X103791477Y-191440213D01*
X103875141Y-191283691D01*
X103875142Y-191283689D01*
X103904472Y-191247951D01*
X103987734Y-191146494D01*
X104089191Y-191063232D01*
X104124929Y-191033902D01*
X104142833Y-191024332D01*
X104281453Y-190950237D01*
X104338067Y-190933064D01*
X104451293Y-190898717D01*
X104517477Y-190892199D01*
X104583660Y-190885680D01*
X104672180Y-190885680D01*
X104738363Y-190892199D01*
X104738363Y-190892199D01*
G37*
G36*
X99658363Y-190892199D02*
X99724547Y-190898717D01*
X99837773Y-190933064D01*
X99894387Y-190950237D01*
X100033007Y-191024332D01*
X100050911Y-191033902D01*
X100086649Y-191063232D01*
X100188106Y-191146494D01*
X100271368Y-191247951D01*
X100300698Y-191283689D01*
X100300699Y-191283691D01*
X100384363Y-191440213D01*
X100384363Y-191440214D01*
X100435883Y-191610053D01*
X100453279Y-191786680D01*
X100435883Y-191963307D01*
X100401536Y-192076533D01*
X100384363Y-192133147D01*
X100310268Y-192271767D01*
X100300698Y-192289671D01*
X100271368Y-192325409D01*
X100188106Y-192426866D01*
X100086649Y-192510128D01*
X100050911Y-192539458D01*
X100050909Y-192539459D01*
X99894387Y-192623123D01*
X99837773Y-192640296D01*
X99724547Y-192674643D01*
X99658362Y-192681162D01*
X99592180Y-192687680D01*
X99503660Y-192687680D01*
X99437478Y-192681162D01*
X99371293Y-192674643D01*
X99258067Y-192640296D01*
X99201453Y-192623123D01*
X99044931Y-192539459D01*
X99044929Y-192539458D01*
X99009191Y-192510128D01*
X98907734Y-192426866D01*
X98824472Y-192325409D01*
X98795142Y-192289671D01*
X98785572Y-192271767D01*
X98711477Y-192133147D01*
X98694304Y-192076533D01*
X98659957Y-191963307D01*
X98642561Y-191786680D01*
X98659957Y-191610053D01*
X98711477Y-191440214D01*
X98711477Y-191440213D01*
X98795141Y-191283691D01*
X98795142Y-191283689D01*
X98824472Y-191247951D01*
X98907734Y-191146494D01*
X99009191Y-191063232D01*
X99044929Y-191033902D01*
X99062833Y-191024332D01*
X99201453Y-190950237D01*
X99258067Y-190933064D01*
X99371293Y-190898717D01*
X99437477Y-190892199D01*
X99503660Y-190885680D01*
X99592180Y-190885680D01*
X99658363Y-190892199D01*
X99658363Y-190892199D01*
G37*
G36*
X97118363Y-190892199D02*
X97184547Y-190898717D01*
X97297773Y-190933064D01*
X97354387Y-190950237D01*
X97493007Y-191024332D01*
X97510911Y-191033902D01*
X97546649Y-191063232D01*
X97648106Y-191146494D01*
X97731368Y-191247951D01*
X97760698Y-191283689D01*
X97760699Y-191283691D01*
X97844363Y-191440213D01*
X97844363Y-191440214D01*
X97895883Y-191610053D01*
X97913279Y-191786680D01*
X97895883Y-191963307D01*
X97861536Y-192076533D01*
X97844363Y-192133147D01*
X97770268Y-192271767D01*
X97760698Y-192289671D01*
X97731368Y-192325409D01*
X97648106Y-192426866D01*
X97546649Y-192510128D01*
X97510911Y-192539458D01*
X97510909Y-192539459D01*
X97354387Y-192623123D01*
X97297773Y-192640296D01*
X97184547Y-192674643D01*
X97118362Y-192681162D01*
X97052180Y-192687680D01*
X96963660Y-192687680D01*
X96897478Y-192681162D01*
X96831293Y-192674643D01*
X96718067Y-192640296D01*
X96661453Y-192623123D01*
X96504931Y-192539459D01*
X96504929Y-192539458D01*
X96469191Y-192510128D01*
X96367734Y-192426866D01*
X96284472Y-192325409D01*
X96255142Y-192289671D01*
X96245572Y-192271767D01*
X96171477Y-192133147D01*
X96154304Y-192076533D01*
X96119957Y-191963307D01*
X96102561Y-191786680D01*
X96119957Y-191610053D01*
X96171477Y-191440214D01*
X96171477Y-191440213D01*
X96255141Y-191283691D01*
X96255142Y-191283689D01*
X96284472Y-191247951D01*
X96367734Y-191146494D01*
X96469191Y-191063232D01*
X96504929Y-191033902D01*
X96522833Y-191024332D01*
X96661453Y-190950237D01*
X96718067Y-190933064D01*
X96831293Y-190898717D01*
X96897477Y-190892199D01*
X96963660Y-190885680D01*
X97052180Y-190885680D01*
X97118363Y-190892199D01*
X97118363Y-190892199D01*
G37*
G36*
X94578363Y-190892199D02*
X94644547Y-190898717D01*
X94757773Y-190933064D01*
X94814387Y-190950237D01*
X94953007Y-191024332D01*
X94970911Y-191033902D01*
X95006649Y-191063232D01*
X95108106Y-191146494D01*
X95191368Y-191247951D01*
X95220698Y-191283689D01*
X95220699Y-191283691D01*
X95304363Y-191440213D01*
X95304363Y-191440214D01*
X95355883Y-191610053D01*
X95373279Y-191786680D01*
X95355883Y-191963307D01*
X95321536Y-192076533D01*
X95304363Y-192133147D01*
X95230268Y-192271767D01*
X95220698Y-192289671D01*
X95191368Y-192325409D01*
X95108106Y-192426866D01*
X95006649Y-192510128D01*
X94970911Y-192539458D01*
X94970909Y-192539459D01*
X94814387Y-192623123D01*
X94757773Y-192640296D01*
X94644547Y-192674643D01*
X94578362Y-192681162D01*
X94512180Y-192687680D01*
X94423660Y-192687680D01*
X94357478Y-192681162D01*
X94291293Y-192674643D01*
X94178067Y-192640296D01*
X94121453Y-192623123D01*
X93964931Y-192539459D01*
X93964929Y-192539458D01*
X93929191Y-192510128D01*
X93827734Y-192426866D01*
X93744472Y-192325409D01*
X93715142Y-192289671D01*
X93705572Y-192271767D01*
X93631477Y-192133147D01*
X93614304Y-192076533D01*
X93579957Y-191963307D01*
X93562561Y-191786680D01*
X93579957Y-191610053D01*
X93631477Y-191440214D01*
X93631477Y-191440213D01*
X93715141Y-191283691D01*
X93715142Y-191283689D01*
X93744472Y-191247951D01*
X93827734Y-191146494D01*
X93929191Y-191063232D01*
X93964929Y-191033902D01*
X93982833Y-191024332D01*
X94121453Y-190950237D01*
X94178067Y-190933064D01*
X94291293Y-190898717D01*
X94357477Y-190892199D01*
X94423660Y-190885680D01*
X94512180Y-190885680D01*
X94578363Y-190892199D01*
X94578363Y-190892199D01*
G37*
G36*
X92038363Y-190892199D02*
X92104547Y-190898717D01*
X92217773Y-190933064D01*
X92274387Y-190950237D01*
X92413007Y-191024332D01*
X92430911Y-191033902D01*
X92466649Y-191063232D01*
X92568106Y-191146494D01*
X92651368Y-191247951D01*
X92680698Y-191283689D01*
X92680699Y-191283691D01*
X92764363Y-191440213D01*
X92764363Y-191440214D01*
X92815883Y-191610053D01*
X92833279Y-191786680D01*
X92815883Y-191963307D01*
X92781536Y-192076533D01*
X92764363Y-192133147D01*
X92690268Y-192271767D01*
X92680698Y-192289671D01*
X92651368Y-192325409D01*
X92568106Y-192426866D01*
X92466649Y-192510128D01*
X92430911Y-192539458D01*
X92430909Y-192539459D01*
X92274387Y-192623123D01*
X92217773Y-192640296D01*
X92104547Y-192674643D01*
X92038362Y-192681162D01*
X91972180Y-192687680D01*
X91883660Y-192687680D01*
X91817478Y-192681162D01*
X91751293Y-192674643D01*
X91638067Y-192640296D01*
X91581453Y-192623123D01*
X91424931Y-192539459D01*
X91424929Y-192539458D01*
X91389191Y-192510128D01*
X91287734Y-192426866D01*
X91204472Y-192325409D01*
X91175142Y-192289671D01*
X91165572Y-192271767D01*
X91091477Y-192133147D01*
X91074304Y-192076533D01*
X91039957Y-191963307D01*
X91022561Y-191786680D01*
X91039957Y-191610053D01*
X91091477Y-191440214D01*
X91091477Y-191440213D01*
X91175141Y-191283691D01*
X91175142Y-191283689D01*
X91204472Y-191247951D01*
X91287734Y-191146494D01*
X91389191Y-191063232D01*
X91424929Y-191033902D01*
X91442833Y-191024332D01*
X91581453Y-190950237D01*
X91638067Y-190933064D01*
X91751293Y-190898717D01*
X91817477Y-190892199D01*
X91883660Y-190885680D01*
X91972180Y-190885680D01*
X92038363Y-190892199D01*
X92038363Y-190892199D01*
G37*
G36*
X89498363Y-190892199D02*
X89564547Y-190898717D01*
X89677773Y-190933064D01*
X89734387Y-190950237D01*
X89873007Y-191024332D01*
X89890911Y-191033902D01*
X89926649Y-191063232D01*
X90028106Y-191146494D01*
X90111368Y-191247951D01*
X90140698Y-191283689D01*
X90140699Y-191283691D01*
X90224363Y-191440213D01*
X90224363Y-191440214D01*
X90275883Y-191610053D01*
X90293279Y-191786680D01*
X90275883Y-191963307D01*
X90241536Y-192076533D01*
X90224363Y-192133147D01*
X90150268Y-192271767D01*
X90140698Y-192289671D01*
X90111368Y-192325409D01*
X90028106Y-192426866D01*
X89926649Y-192510128D01*
X89890911Y-192539458D01*
X89890909Y-192539459D01*
X89734387Y-192623123D01*
X89677773Y-192640296D01*
X89564547Y-192674643D01*
X89498362Y-192681162D01*
X89432180Y-192687680D01*
X89343660Y-192687680D01*
X89277478Y-192681162D01*
X89211293Y-192674643D01*
X89098067Y-192640296D01*
X89041453Y-192623123D01*
X88884931Y-192539459D01*
X88884929Y-192539458D01*
X88849191Y-192510128D01*
X88747734Y-192426866D01*
X88664472Y-192325409D01*
X88635142Y-192289671D01*
X88625572Y-192271767D01*
X88551477Y-192133147D01*
X88534304Y-192076533D01*
X88499957Y-191963307D01*
X88482561Y-191786680D01*
X88499957Y-191610053D01*
X88551477Y-191440214D01*
X88551477Y-191440213D01*
X88635141Y-191283691D01*
X88635142Y-191283689D01*
X88664472Y-191247951D01*
X88747734Y-191146494D01*
X88849191Y-191063232D01*
X88884929Y-191033902D01*
X88902833Y-191024332D01*
X89041453Y-190950237D01*
X89098067Y-190933064D01*
X89211293Y-190898717D01*
X89277477Y-190892199D01*
X89343660Y-190885680D01*
X89432180Y-190885680D01*
X89498363Y-190892199D01*
X89498363Y-190892199D01*
G37*
G36*
X86958363Y-190892199D02*
X87024547Y-190898717D01*
X87137773Y-190933064D01*
X87194387Y-190950237D01*
X87333007Y-191024332D01*
X87350911Y-191033902D01*
X87386649Y-191063232D01*
X87488106Y-191146494D01*
X87571368Y-191247951D01*
X87600698Y-191283689D01*
X87600699Y-191283691D01*
X87684363Y-191440213D01*
X87684363Y-191440214D01*
X87735883Y-191610053D01*
X87753279Y-191786680D01*
X87735883Y-191963307D01*
X87701536Y-192076533D01*
X87684363Y-192133147D01*
X87610268Y-192271767D01*
X87600698Y-192289671D01*
X87571368Y-192325409D01*
X87488106Y-192426866D01*
X87386649Y-192510128D01*
X87350911Y-192539458D01*
X87350909Y-192539459D01*
X87194387Y-192623123D01*
X87137773Y-192640296D01*
X87024547Y-192674643D01*
X86958362Y-192681162D01*
X86892180Y-192687680D01*
X86803660Y-192687680D01*
X86737478Y-192681162D01*
X86671293Y-192674643D01*
X86558067Y-192640296D01*
X86501453Y-192623123D01*
X86344931Y-192539459D01*
X86344929Y-192539458D01*
X86309191Y-192510128D01*
X86207734Y-192426866D01*
X86124472Y-192325409D01*
X86095142Y-192289671D01*
X86085572Y-192271767D01*
X86011477Y-192133147D01*
X85994304Y-192076533D01*
X85959957Y-191963307D01*
X85942561Y-191786680D01*
X85959957Y-191610053D01*
X86011477Y-191440214D01*
X86011477Y-191440213D01*
X86095141Y-191283691D01*
X86095142Y-191283689D01*
X86124472Y-191247951D01*
X86207734Y-191146494D01*
X86309191Y-191063232D01*
X86344929Y-191033902D01*
X86362833Y-191024332D01*
X86501453Y-190950237D01*
X86558067Y-190933064D01*
X86671293Y-190898717D01*
X86737477Y-190892199D01*
X86803660Y-190885680D01*
X86892180Y-190885680D01*
X86958363Y-190892199D01*
X86958363Y-190892199D01*
G37*
G36*
X84418363Y-190892199D02*
X84484547Y-190898717D01*
X84597773Y-190933064D01*
X84654387Y-190950237D01*
X84793007Y-191024332D01*
X84810911Y-191033902D01*
X84846649Y-191063232D01*
X84948106Y-191146494D01*
X85031368Y-191247951D01*
X85060698Y-191283689D01*
X85060699Y-191283691D01*
X85144363Y-191440213D01*
X85144363Y-191440214D01*
X85195883Y-191610053D01*
X85213279Y-191786680D01*
X85195883Y-191963307D01*
X85161536Y-192076533D01*
X85144363Y-192133147D01*
X85070268Y-192271767D01*
X85060698Y-192289671D01*
X85031368Y-192325409D01*
X84948106Y-192426866D01*
X84846649Y-192510128D01*
X84810911Y-192539458D01*
X84810909Y-192539459D01*
X84654387Y-192623123D01*
X84597773Y-192640296D01*
X84484547Y-192674643D01*
X84418362Y-192681162D01*
X84352180Y-192687680D01*
X84263660Y-192687680D01*
X84197478Y-192681162D01*
X84131293Y-192674643D01*
X84018067Y-192640296D01*
X83961453Y-192623123D01*
X83804931Y-192539459D01*
X83804929Y-192539458D01*
X83769191Y-192510128D01*
X83667734Y-192426866D01*
X83584472Y-192325409D01*
X83555142Y-192289671D01*
X83545572Y-192271767D01*
X83471477Y-192133147D01*
X83454304Y-192076533D01*
X83419957Y-191963307D01*
X83402561Y-191786680D01*
X83419957Y-191610053D01*
X83471477Y-191440214D01*
X83471477Y-191440213D01*
X83555141Y-191283691D01*
X83555142Y-191283689D01*
X83584472Y-191247951D01*
X83667734Y-191146494D01*
X83769191Y-191063232D01*
X83804929Y-191033902D01*
X83822833Y-191024332D01*
X83961453Y-190950237D01*
X84018067Y-190933064D01*
X84131293Y-190898717D01*
X84197477Y-190892199D01*
X84263660Y-190885680D01*
X84352180Y-190885680D01*
X84418363Y-190892199D01*
X84418363Y-190892199D01*
G37*
G36*
X82668920Y-192687680D02*
X80866920Y-192687680D01*
X80866920Y-190885680D01*
X82668920Y-190885680D01*
X82668920Y-192687680D01*
X82668920Y-192687680D01*
G37*
G36*
X127598363Y-190892199D02*
X127664547Y-190898717D01*
X127777773Y-190933064D01*
X127834387Y-190950237D01*
X127973007Y-191024332D01*
X127990911Y-191033902D01*
X128026649Y-191063232D01*
X128128106Y-191146494D01*
X128211368Y-191247951D01*
X128240698Y-191283689D01*
X128240699Y-191283691D01*
X128324363Y-191440213D01*
X128324363Y-191440214D01*
X128375883Y-191610053D01*
X128393279Y-191786680D01*
X128375883Y-191963307D01*
X128341536Y-192076533D01*
X128324363Y-192133147D01*
X128250268Y-192271767D01*
X128240698Y-192289671D01*
X128211368Y-192325409D01*
X128128106Y-192426866D01*
X128026649Y-192510128D01*
X127990911Y-192539458D01*
X127990909Y-192539459D01*
X127834387Y-192623123D01*
X127777773Y-192640296D01*
X127664547Y-192674643D01*
X127598362Y-192681162D01*
X127532180Y-192687680D01*
X127443660Y-192687680D01*
X127377478Y-192681162D01*
X127311293Y-192674643D01*
X127198067Y-192640296D01*
X127141453Y-192623123D01*
X126984931Y-192539459D01*
X126984929Y-192539458D01*
X126949191Y-192510128D01*
X126847734Y-192426866D01*
X126764472Y-192325409D01*
X126735142Y-192289671D01*
X126725572Y-192271767D01*
X126651477Y-192133147D01*
X126634304Y-192076533D01*
X126599957Y-191963307D01*
X126582561Y-191786680D01*
X126599957Y-191610053D01*
X126651477Y-191440214D01*
X126651477Y-191440213D01*
X126735141Y-191283691D01*
X126735142Y-191283689D01*
X126764472Y-191247951D01*
X126847734Y-191146494D01*
X126949191Y-191063232D01*
X126984929Y-191033902D01*
X127002833Y-191024332D01*
X127141453Y-190950237D01*
X127198067Y-190933064D01*
X127311293Y-190898717D01*
X127377477Y-190892199D01*
X127443660Y-190885680D01*
X127532180Y-190885680D01*
X127598363Y-190892199D01*
X127598363Y-190892199D01*
G37*
G36*
X143289256Y-187072298D02*
X143395579Y-187093447D01*
X143696042Y-187217903D01*
X143787818Y-187279226D01*
X143966454Y-187398587D01*
X144196413Y-187628546D01*
X144196415Y-187628549D01*
X144377097Y-187898958D01*
X144501553Y-188199421D01*
X144522578Y-188305123D01*
X144565000Y-188518389D01*
X144565000Y-188843611D01*
X144501553Y-189162578D01*
X144377098Y-189463040D01*
X144196413Y-189733454D01*
X143966454Y-189963413D01*
X143966451Y-189963415D01*
X143696042Y-190144097D01*
X143395579Y-190268553D01*
X143289256Y-190289702D01*
X143076611Y-190332000D01*
X142751389Y-190332000D01*
X142538744Y-190289702D01*
X142432421Y-190268553D01*
X142131958Y-190144097D01*
X141861549Y-189963415D01*
X141861546Y-189963413D01*
X141631587Y-189733454D01*
X141450902Y-189463040D01*
X141326447Y-189162578D01*
X141263000Y-188843611D01*
X141263000Y-188518389D01*
X141305422Y-188305123D01*
X141326447Y-188199421D01*
X141450903Y-187898958D01*
X141631585Y-187628549D01*
X141631587Y-187628546D01*
X141861546Y-187398587D01*
X142040182Y-187279226D01*
X142131958Y-187217903D01*
X142432421Y-187093447D01*
X142538744Y-187072298D01*
X142751389Y-187030000D01*
X143076611Y-187030000D01*
X143289256Y-187072298D01*
X143289256Y-187072298D01*
G37*
G36*
X109818362Y-186574198D02*
X109884547Y-186580717D01*
X109997773Y-186615064D01*
X110054387Y-186632237D01*
X110193007Y-186706332D01*
X110210911Y-186715902D01*
X110246649Y-186745232D01*
X110348106Y-186828494D01*
X110431368Y-186929951D01*
X110460698Y-186965689D01*
X110460699Y-186965691D01*
X110544363Y-187122213D01*
X110544363Y-187122214D01*
X110595883Y-187292053D01*
X110613279Y-187468680D01*
X110595883Y-187645307D01*
X110561536Y-187758533D01*
X110544363Y-187815147D01*
X110499564Y-187898958D01*
X110460698Y-187971671D01*
X110431368Y-188007409D01*
X110348106Y-188108866D01*
X110246649Y-188192128D01*
X110210911Y-188221458D01*
X110210909Y-188221459D01*
X110054387Y-188305123D01*
X109997773Y-188322296D01*
X109884547Y-188356643D01*
X109818362Y-188363162D01*
X109752180Y-188369680D01*
X109663660Y-188369680D01*
X109597478Y-188363162D01*
X109531293Y-188356643D01*
X109418067Y-188322296D01*
X109361453Y-188305123D01*
X109204931Y-188221459D01*
X109204929Y-188221458D01*
X109169191Y-188192128D01*
X109067734Y-188108866D01*
X108984472Y-188007409D01*
X108955142Y-187971671D01*
X108916276Y-187898958D01*
X108871477Y-187815147D01*
X108854304Y-187758533D01*
X108819957Y-187645307D01*
X108802561Y-187468680D01*
X108819957Y-187292053D01*
X108871477Y-187122214D01*
X108871477Y-187122213D01*
X108955141Y-186965691D01*
X108955142Y-186965689D01*
X108984472Y-186929951D01*
X109067734Y-186828494D01*
X109169191Y-186745232D01*
X109204929Y-186715902D01*
X109222833Y-186706332D01*
X109361453Y-186632237D01*
X109418067Y-186615064D01*
X109531293Y-186580717D01*
X109597478Y-186574198D01*
X109663660Y-186567680D01*
X109752180Y-186567680D01*
X109818362Y-186574198D01*
X109818362Y-186574198D01*
G37*
G36*
X84418362Y-186574198D02*
X84484547Y-186580717D01*
X84597773Y-186615064D01*
X84654387Y-186632237D01*
X84793007Y-186706332D01*
X84810911Y-186715902D01*
X84846649Y-186745232D01*
X84948106Y-186828494D01*
X85031368Y-186929951D01*
X85060698Y-186965689D01*
X85060699Y-186965691D01*
X85144363Y-187122213D01*
X85144363Y-187122214D01*
X85195883Y-187292053D01*
X85213279Y-187468680D01*
X85195883Y-187645307D01*
X85161536Y-187758533D01*
X85144363Y-187815147D01*
X85099564Y-187898958D01*
X85060698Y-187971671D01*
X85031368Y-188007409D01*
X84948106Y-188108866D01*
X84846649Y-188192128D01*
X84810911Y-188221458D01*
X84810909Y-188221459D01*
X84654387Y-188305123D01*
X84597773Y-188322296D01*
X84484547Y-188356643D01*
X84418362Y-188363162D01*
X84352180Y-188369680D01*
X84263660Y-188369680D01*
X84197478Y-188363162D01*
X84131293Y-188356643D01*
X84018067Y-188322296D01*
X83961453Y-188305123D01*
X83804931Y-188221459D01*
X83804929Y-188221458D01*
X83769191Y-188192128D01*
X83667734Y-188108866D01*
X83584472Y-188007409D01*
X83555142Y-187971671D01*
X83516276Y-187898958D01*
X83471477Y-187815147D01*
X83454304Y-187758533D01*
X83419957Y-187645307D01*
X83402561Y-187468680D01*
X83419957Y-187292053D01*
X83471477Y-187122214D01*
X83471477Y-187122213D01*
X83555141Y-186965691D01*
X83555142Y-186965689D01*
X83584472Y-186929951D01*
X83667734Y-186828494D01*
X83769191Y-186745232D01*
X83804929Y-186715902D01*
X83822833Y-186706332D01*
X83961453Y-186632237D01*
X84018067Y-186615064D01*
X84131293Y-186580717D01*
X84197478Y-186574198D01*
X84263660Y-186567680D01*
X84352180Y-186567680D01*
X84418362Y-186574198D01*
X84418362Y-186574198D01*
G37*
G36*
X104738362Y-186574198D02*
X104804547Y-186580717D01*
X104917773Y-186615064D01*
X104974387Y-186632237D01*
X105113007Y-186706332D01*
X105130911Y-186715902D01*
X105166649Y-186745232D01*
X105268106Y-186828494D01*
X105351368Y-186929951D01*
X105380698Y-186965689D01*
X105380699Y-186965691D01*
X105464363Y-187122213D01*
X105464363Y-187122214D01*
X105515883Y-187292053D01*
X105533279Y-187468680D01*
X105515883Y-187645307D01*
X105481536Y-187758533D01*
X105464363Y-187815147D01*
X105419564Y-187898958D01*
X105380698Y-187971671D01*
X105351368Y-188007409D01*
X105268106Y-188108866D01*
X105166649Y-188192128D01*
X105130911Y-188221458D01*
X105130909Y-188221459D01*
X104974387Y-188305123D01*
X104917773Y-188322296D01*
X104804547Y-188356643D01*
X104738362Y-188363162D01*
X104672180Y-188369680D01*
X104583660Y-188369680D01*
X104517478Y-188363162D01*
X104451293Y-188356643D01*
X104338067Y-188322296D01*
X104281453Y-188305123D01*
X104124931Y-188221459D01*
X104124929Y-188221458D01*
X104089191Y-188192128D01*
X103987734Y-188108866D01*
X103904472Y-188007409D01*
X103875142Y-187971671D01*
X103836276Y-187898958D01*
X103791477Y-187815147D01*
X103774304Y-187758533D01*
X103739957Y-187645307D01*
X103722561Y-187468680D01*
X103739957Y-187292053D01*
X103791477Y-187122214D01*
X103791477Y-187122213D01*
X103875141Y-186965691D01*
X103875142Y-186965689D01*
X103904472Y-186929951D01*
X103987734Y-186828494D01*
X104089191Y-186745232D01*
X104124929Y-186715902D01*
X104142833Y-186706332D01*
X104281453Y-186632237D01*
X104338067Y-186615064D01*
X104451293Y-186580717D01*
X104517478Y-186574198D01*
X104583660Y-186567680D01*
X104672180Y-186567680D01*
X104738362Y-186574198D01*
X104738362Y-186574198D01*
G37*
G36*
X102198362Y-186574198D02*
X102264547Y-186580717D01*
X102377773Y-186615064D01*
X102434387Y-186632237D01*
X102573007Y-186706332D01*
X102590911Y-186715902D01*
X102626649Y-186745232D01*
X102728106Y-186828494D01*
X102811368Y-186929951D01*
X102840698Y-186965689D01*
X102840699Y-186965691D01*
X102924363Y-187122213D01*
X102924363Y-187122214D01*
X102975883Y-187292053D01*
X102993279Y-187468680D01*
X102975883Y-187645307D01*
X102941536Y-187758533D01*
X102924363Y-187815147D01*
X102879564Y-187898958D01*
X102840698Y-187971671D01*
X102811368Y-188007409D01*
X102728106Y-188108866D01*
X102626649Y-188192128D01*
X102590911Y-188221458D01*
X102590909Y-188221459D01*
X102434387Y-188305123D01*
X102377773Y-188322296D01*
X102264547Y-188356643D01*
X102198362Y-188363162D01*
X102132180Y-188369680D01*
X102043660Y-188369680D01*
X101977478Y-188363162D01*
X101911293Y-188356643D01*
X101798067Y-188322296D01*
X101741453Y-188305123D01*
X101584931Y-188221459D01*
X101584929Y-188221458D01*
X101549191Y-188192128D01*
X101447734Y-188108866D01*
X101364472Y-188007409D01*
X101335142Y-187971671D01*
X101296276Y-187898958D01*
X101251477Y-187815147D01*
X101234304Y-187758533D01*
X101199957Y-187645307D01*
X101182561Y-187468680D01*
X101199957Y-187292053D01*
X101251477Y-187122214D01*
X101251477Y-187122213D01*
X101335141Y-186965691D01*
X101335142Y-186965689D01*
X101364472Y-186929951D01*
X101447734Y-186828494D01*
X101549191Y-186745232D01*
X101584929Y-186715902D01*
X101602833Y-186706332D01*
X101741453Y-186632237D01*
X101798067Y-186615064D01*
X101911293Y-186580717D01*
X101977478Y-186574198D01*
X102043660Y-186567680D01*
X102132180Y-186567680D01*
X102198362Y-186574198D01*
X102198362Y-186574198D01*
G37*
G36*
X99658362Y-186574198D02*
X99724547Y-186580717D01*
X99837773Y-186615064D01*
X99894387Y-186632237D01*
X100033007Y-186706332D01*
X100050911Y-186715902D01*
X100086649Y-186745232D01*
X100188106Y-186828494D01*
X100271368Y-186929951D01*
X100300698Y-186965689D01*
X100300699Y-186965691D01*
X100384363Y-187122213D01*
X100384363Y-187122214D01*
X100435883Y-187292053D01*
X100453279Y-187468680D01*
X100435883Y-187645307D01*
X100401536Y-187758533D01*
X100384363Y-187815147D01*
X100339564Y-187898958D01*
X100300698Y-187971671D01*
X100271368Y-188007409D01*
X100188106Y-188108866D01*
X100086649Y-188192128D01*
X100050911Y-188221458D01*
X100050909Y-188221459D01*
X99894387Y-188305123D01*
X99837773Y-188322296D01*
X99724547Y-188356643D01*
X99658362Y-188363162D01*
X99592180Y-188369680D01*
X99503660Y-188369680D01*
X99437478Y-188363162D01*
X99371293Y-188356643D01*
X99258067Y-188322296D01*
X99201453Y-188305123D01*
X99044931Y-188221459D01*
X99044929Y-188221458D01*
X99009191Y-188192128D01*
X98907734Y-188108866D01*
X98824472Y-188007409D01*
X98795142Y-187971671D01*
X98756276Y-187898958D01*
X98711477Y-187815147D01*
X98694304Y-187758533D01*
X98659957Y-187645307D01*
X98642561Y-187468680D01*
X98659957Y-187292053D01*
X98711477Y-187122214D01*
X98711477Y-187122213D01*
X98795141Y-186965691D01*
X98795142Y-186965689D01*
X98824472Y-186929951D01*
X98907734Y-186828494D01*
X99009191Y-186745232D01*
X99044929Y-186715902D01*
X99062833Y-186706332D01*
X99201453Y-186632237D01*
X99258067Y-186615064D01*
X99371293Y-186580717D01*
X99437478Y-186574198D01*
X99503660Y-186567680D01*
X99592180Y-186567680D01*
X99658362Y-186574198D01*
X99658362Y-186574198D01*
G37*
G36*
X97118362Y-186574198D02*
X97184547Y-186580717D01*
X97297773Y-186615064D01*
X97354387Y-186632237D01*
X97493007Y-186706332D01*
X97510911Y-186715902D01*
X97546649Y-186745232D01*
X97648106Y-186828494D01*
X97731368Y-186929951D01*
X97760698Y-186965689D01*
X97760699Y-186965691D01*
X97844363Y-187122213D01*
X97844363Y-187122214D01*
X97895883Y-187292053D01*
X97913279Y-187468680D01*
X97895883Y-187645307D01*
X97861536Y-187758533D01*
X97844363Y-187815147D01*
X97799564Y-187898958D01*
X97760698Y-187971671D01*
X97731368Y-188007409D01*
X97648106Y-188108866D01*
X97546649Y-188192128D01*
X97510911Y-188221458D01*
X97510909Y-188221459D01*
X97354387Y-188305123D01*
X97297773Y-188322296D01*
X97184547Y-188356643D01*
X97118362Y-188363162D01*
X97052180Y-188369680D01*
X96963660Y-188369680D01*
X96897478Y-188363162D01*
X96831293Y-188356643D01*
X96718067Y-188322296D01*
X96661453Y-188305123D01*
X96504931Y-188221459D01*
X96504929Y-188221458D01*
X96469191Y-188192128D01*
X96367734Y-188108866D01*
X96284472Y-188007409D01*
X96255142Y-187971671D01*
X96216276Y-187898958D01*
X96171477Y-187815147D01*
X96154304Y-187758533D01*
X96119957Y-187645307D01*
X96102561Y-187468680D01*
X96119957Y-187292053D01*
X96171477Y-187122214D01*
X96171477Y-187122213D01*
X96255141Y-186965691D01*
X96255142Y-186965689D01*
X96284472Y-186929951D01*
X96367734Y-186828494D01*
X96469191Y-186745232D01*
X96504929Y-186715902D01*
X96522833Y-186706332D01*
X96661453Y-186632237D01*
X96718067Y-186615064D01*
X96831293Y-186580717D01*
X96897478Y-186574198D01*
X96963660Y-186567680D01*
X97052180Y-186567680D01*
X97118362Y-186574198D01*
X97118362Y-186574198D01*
G37*
G36*
X94578362Y-186574198D02*
X94644547Y-186580717D01*
X94757773Y-186615064D01*
X94814387Y-186632237D01*
X94953007Y-186706332D01*
X94970911Y-186715902D01*
X95006649Y-186745232D01*
X95108106Y-186828494D01*
X95191368Y-186929951D01*
X95220698Y-186965689D01*
X95220699Y-186965691D01*
X95304363Y-187122213D01*
X95304363Y-187122214D01*
X95355883Y-187292053D01*
X95373279Y-187468680D01*
X95355883Y-187645307D01*
X95321536Y-187758533D01*
X95304363Y-187815147D01*
X95259564Y-187898958D01*
X95220698Y-187971671D01*
X95191368Y-188007409D01*
X95108106Y-188108866D01*
X95006649Y-188192128D01*
X94970911Y-188221458D01*
X94970909Y-188221459D01*
X94814387Y-188305123D01*
X94757773Y-188322296D01*
X94644547Y-188356643D01*
X94578362Y-188363162D01*
X94512180Y-188369680D01*
X94423660Y-188369680D01*
X94357478Y-188363162D01*
X94291293Y-188356643D01*
X94178067Y-188322296D01*
X94121453Y-188305123D01*
X93964931Y-188221459D01*
X93964929Y-188221458D01*
X93929191Y-188192128D01*
X93827734Y-188108866D01*
X93744472Y-188007409D01*
X93715142Y-187971671D01*
X93676276Y-187898958D01*
X93631477Y-187815147D01*
X93614304Y-187758533D01*
X93579957Y-187645307D01*
X93562561Y-187468680D01*
X93579957Y-187292053D01*
X93631477Y-187122214D01*
X93631477Y-187122213D01*
X93715141Y-186965691D01*
X93715142Y-186965689D01*
X93744472Y-186929951D01*
X93827734Y-186828494D01*
X93929191Y-186745232D01*
X93964929Y-186715902D01*
X93982833Y-186706332D01*
X94121453Y-186632237D01*
X94178067Y-186615064D01*
X94291293Y-186580717D01*
X94357478Y-186574198D01*
X94423660Y-186567680D01*
X94512180Y-186567680D01*
X94578362Y-186574198D01*
X94578362Y-186574198D01*
G37*
G36*
X92038362Y-186574198D02*
X92104547Y-186580717D01*
X92217773Y-186615064D01*
X92274387Y-186632237D01*
X92413007Y-186706332D01*
X92430911Y-186715902D01*
X92466649Y-186745232D01*
X92568106Y-186828494D01*
X92651368Y-186929951D01*
X92680698Y-186965689D01*
X92680699Y-186965691D01*
X92764363Y-187122213D01*
X92764363Y-187122214D01*
X92815883Y-187292053D01*
X92833279Y-187468680D01*
X92815883Y-187645307D01*
X92781536Y-187758533D01*
X92764363Y-187815147D01*
X92719564Y-187898958D01*
X92680698Y-187971671D01*
X92651368Y-188007409D01*
X92568106Y-188108866D01*
X92466649Y-188192128D01*
X92430911Y-188221458D01*
X92430909Y-188221459D01*
X92274387Y-188305123D01*
X92217773Y-188322296D01*
X92104547Y-188356643D01*
X92038362Y-188363162D01*
X91972180Y-188369680D01*
X91883660Y-188369680D01*
X91817478Y-188363162D01*
X91751293Y-188356643D01*
X91638067Y-188322296D01*
X91581453Y-188305123D01*
X91424931Y-188221459D01*
X91424929Y-188221458D01*
X91389191Y-188192128D01*
X91287734Y-188108866D01*
X91204472Y-188007409D01*
X91175142Y-187971671D01*
X91136276Y-187898958D01*
X91091477Y-187815147D01*
X91074304Y-187758533D01*
X91039957Y-187645307D01*
X91022561Y-187468680D01*
X91039957Y-187292053D01*
X91091477Y-187122214D01*
X91091477Y-187122213D01*
X91175141Y-186965691D01*
X91175142Y-186965689D01*
X91204472Y-186929951D01*
X91287734Y-186828494D01*
X91389191Y-186745232D01*
X91424929Y-186715902D01*
X91442833Y-186706332D01*
X91581453Y-186632237D01*
X91638067Y-186615064D01*
X91751293Y-186580717D01*
X91817478Y-186574198D01*
X91883660Y-186567680D01*
X91972180Y-186567680D01*
X92038362Y-186574198D01*
X92038362Y-186574198D01*
G37*
G36*
X89498362Y-186574198D02*
X89564547Y-186580717D01*
X89677773Y-186615064D01*
X89734387Y-186632237D01*
X89873007Y-186706332D01*
X89890911Y-186715902D01*
X89926649Y-186745232D01*
X90028106Y-186828494D01*
X90111368Y-186929951D01*
X90140698Y-186965689D01*
X90140699Y-186965691D01*
X90224363Y-187122213D01*
X90224363Y-187122214D01*
X90275883Y-187292053D01*
X90293279Y-187468680D01*
X90275883Y-187645307D01*
X90241536Y-187758533D01*
X90224363Y-187815147D01*
X90179564Y-187898958D01*
X90140698Y-187971671D01*
X90111368Y-188007409D01*
X90028106Y-188108866D01*
X89926649Y-188192128D01*
X89890911Y-188221458D01*
X89890909Y-188221459D01*
X89734387Y-188305123D01*
X89677773Y-188322296D01*
X89564547Y-188356643D01*
X89498362Y-188363162D01*
X89432180Y-188369680D01*
X89343660Y-188369680D01*
X89277478Y-188363162D01*
X89211293Y-188356643D01*
X89098067Y-188322296D01*
X89041453Y-188305123D01*
X88884931Y-188221459D01*
X88884929Y-188221458D01*
X88849191Y-188192128D01*
X88747734Y-188108866D01*
X88664472Y-188007409D01*
X88635142Y-187971671D01*
X88596276Y-187898958D01*
X88551477Y-187815147D01*
X88534304Y-187758533D01*
X88499957Y-187645307D01*
X88482561Y-187468680D01*
X88499957Y-187292053D01*
X88551477Y-187122214D01*
X88551477Y-187122213D01*
X88635141Y-186965691D01*
X88635142Y-186965689D01*
X88664472Y-186929951D01*
X88747734Y-186828494D01*
X88849191Y-186745232D01*
X88884929Y-186715902D01*
X88902833Y-186706332D01*
X89041453Y-186632237D01*
X89098067Y-186615064D01*
X89211293Y-186580717D01*
X89277478Y-186574198D01*
X89343660Y-186567680D01*
X89432180Y-186567680D01*
X89498362Y-186574198D01*
X89498362Y-186574198D01*
G37*
G36*
X86958362Y-186574198D02*
X87024547Y-186580717D01*
X87137773Y-186615064D01*
X87194387Y-186632237D01*
X87333007Y-186706332D01*
X87350911Y-186715902D01*
X87386649Y-186745232D01*
X87488106Y-186828494D01*
X87571368Y-186929951D01*
X87600698Y-186965689D01*
X87600699Y-186965691D01*
X87684363Y-187122213D01*
X87684363Y-187122214D01*
X87735883Y-187292053D01*
X87753279Y-187468680D01*
X87735883Y-187645307D01*
X87701536Y-187758533D01*
X87684363Y-187815147D01*
X87639564Y-187898958D01*
X87600698Y-187971671D01*
X87571368Y-188007409D01*
X87488106Y-188108866D01*
X87386649Y-188192128D01*
X87350911Y-188221458D01*
X87350909Y-188221459D01*
X87194387Y-188305123D01*
X87137773Y-188322296D01*
X87024547Y-188356643D01*
X86958362Y-188363162D01*
X86892180Y-188369680D01*
X86803660Y-188369680D01*
X86737478Y-188363162D01*
X86671293Y-188356643D01*
X86558067Y-188322296D01*
X86501453Y-188305123D01*
X86344931Y-188221459D01*
X86344929Y-188221458D01*
X86309191Y-188192128D01*
X86207734Y-188108866D01*
X86124472Y-188007409D01*
X86095142Y-187971671D01*
X86056276Y-187898958D01*
X86011477Y-187815147D01*
X85994304Y-187758533D01*
X85959957Y-187645307D01*
X85942561Y-187468680D01*
X85959957Y-187292053D01*
X86011477Y-187122214D01*
X86011477Y-187122213D01*
X86095141Y-186965691D01*
X86095142Y-186965689D01*
X86124472Y-186929951D01*
X86207734Y-186828494D01*
X86309191Y-186745232D01*
X86344929Y-186715902D01*
X86362833Y-186706332D01*
X86501453Y-186632237D01*
X86558067Y-186615064D01*
X86671293Y-186580717D01*
X86737478Y-186574198D01*
X86803660Y-186567680D01*
X86892180Y-186567680D01*
X86958362Y-186574198D01*
X86958362Y-186574198D01*
G37*
G36*
X112358362Y-186574198D02*
X112424547Y-186580717D01*
X112537773Y-186615064D01*
X112594387Y-186632237D01*
X112733007Y-186706332D01*
X112750911Y-186715902D01*
X112786649Y-186745232D01*
X112888106Y-186828494D01*
X112971368Y-186929951D01*
X113000698Y-186965689D01*
X113000699Y-186965691D01*
X113084363Y-187122213D01*
X113084363Y-187122214D01*
X113135883Y-187292053D01*
X113153279Y-187468680D01*
X113135883Y-187645307D01*
X113101536Y-187758533D01*
X113084363Y-187815147D01*
X113039564Y-187898958D01*
X113000698Y-187971671D01*
X112971368Y-188007409D01*
X112888106Y-188108866D01*
X112786649Y-188192128D01*
X112750911Y-188221458D01*
X112750909Y-188221459D01*
X112594387Y-188305123D01*
X112537773Y-188322296D01*
X112424547Y-188356643D01*
X112358362Y-188363162D01*
X112292180Y-188369680D01*
X112203660Y-188369680D01*
X112137478Y-188363162D01*
X112071293Y-188356643D01*
X111958067Y-188322296D01*
X111901453Y-188305123D01*
X111744931Y-188221459D01*
X111744929Y-188221458D01*
X111709191Y-188192128D01*
X111607734Y-188108866D01*
X111524472Y-188007409D01*
X111495142Y-187971671D01*
X111456276Y-187898958D01*
X111411477Y-187815147D01*
X111394304Y-187758533D01*
X111359957Y-187645307D01*
X111342561Y-187468680D01*
X111359957Y-187292053D01*
X111411477Y-187122214D01*
X111411477Y-187122213D01*
X111495141Y-186965691D01*
X111495142Y-186965689D01*
X111524472Y-186929951D01*
X111607734Y-186828494D01*
X111709191Y-186745232D01*
X111744929Y-186715902D01*
X111762833Y-186706332D01*
X111901453Y-186632237D01*
X111958067Y-186615064D01*
X112071293Y-186580717D01*
X112137478Y-186574198D01*
X112203660Y-186567680D01*
X112292180Y-186567680D01*
X112358362Y-186574198D01*
X112358362Y-186574198D01*
G37*
G36*
X127598362Y-186574198D02*
X127664547Y-186580717D01*
X127777773Y-186615064D01*
X127834387Y-186632237D01*
X127973007Y-186706332D01*
X127990911Y-186715902D01*
X128026649Y-186745232D01*
X128128106Y-186828494D01*
X128211368Y-186929951D01*
X128240698Y-186965689D01*
X128240699Y-186965691D01*
X128324363Y-187122213D01*
X128324363Y-187122214D01*
X128375883Y-187292053D01*
X128393279Y-187468680D01*
X128375883Y-187645307D01*
X128341536Y-187758533D01*
X128324363Y-187815147D01*
X128279564Y-187898958D01*
X128240698Y-187971671D01*
X128211368Y-188007409D01*
X128128106Y-188108866D01*
X128026649Y-188192128D01*
X127990911Y-188221458D01*
X127990909Y-188221459D01*
X127834387Y-188305123D01*
X127777773Y-188322296D01*
X127664547Y-188356643D01*
X127598362Y-188363162D01*
X127532180Y-188369680D01*
X127443660Y-188369680D01*
X127377478Y-188363162D01*
X127311293Y-188356643D01*
X127198067Y-188322296D01*
X127141453Y-188305123D01*
X126984931Y-188221459D01*
X126984929Y-188221458D01*
X126949191Y-188192128D01*
X126847734Y-188108866D01*
X126764472Y-188007409D01*
X126735142Y-187971671D01*
X126696276Y-187898958D01*
X126651477Y-187815147D01*
X126634304Y-187758533D01*
X126599957Y-187645307D01*
X126582561Y-187468680D01*
X126599957Y-187292053D01*
X126651477Y-187122214D01*
X126651477Y-187122213D01*
X126735141Y-186965691D01*
X126735142Y-186965689D01*
X126764472Y-186929951D01*
X126847734Y-186828494D01*
X126949191Y-186745232D01*
X126984929Y-186715902D01*
X127002833Y-186706332D01*
X127141453Y-186632237D01*
X127198067Y-186615064D01*
X127311293Y-186580717D01*
X127377478Y-186574198D01*
X127443660Y-186567680D01*
X127532180Y-186567680D01*
X127598362Y-186574198D01*
X127598362Y-186574198D01*
G37*
G36*
X125058362Y-186574198D02*
X125124547Y-186580717D01*
X125237773Y-186615064D01*
X125294387Y-186632237D01*
X125433007Y-186706332D01*
X125450911Y-186715902D01*
X125486649Y-186745232D01*
X125588106Y-186828494D01*
X125671368Y-186929951D01*
X125700698Y-186965689D01*
X125700699Y-186965691D01*
X125784363Y-187122213D01*
X125784363Y-187122214D01*
X125835883Y-187292053D01*
X125853279Y-187468680D01*
X125835883Y-187645307D01*
X125801536Y-187758533D01*
X125784363Y-187815147D01*
X125739564Y-187898958D01*
X125700698Y-187971671D01*
X125671368Y-188007409D01*
X125588106Y-188108866D01*
X125486649Y-188192128D01*
X125450911Y-188221458D01*
X125450909Y-188221459D01*
X125294387Y-188305123D01*
X125237773Y-188322296D01*
X125124547Y-188356643D01*
X125058362Y-188363162D01*
X124992180Y-188369680D01*
X124903660Y-188369680D01*
X124837478Y-188363162D01*
X124771293Y-188356643D01*
X124658067Y-188322296D01*
X124601453Y-188305123D01*
X124444931Y-188221459D01*
X124444929Y-188221458D01*
X124409191Y-188192128D01*
X124307734Y-188108866D01*
X124224472Y-188007409D01*
X124195142Y-187971671D01*
X124156276Y-187898958D01*
X124111477Y-187815147D01*
X124094304Y-187758533D01*
X124059957Y-187645307D01*
X124042561Y-187468680D01*
X124059957Y-187292053D01*
X124111477Y-187122214D01*
X124111477Y-187122213D01*
X124195141Y-186965691D01*
X124195142Y-186965689D01*
X124224472Y-186929951D01*
X124307734Y-186828494D01*
X124409191Y-186745232D01*
X124444929Y-186715902D01*
X124462833Y-186706332D01*
X124601453Y-186632237D01*
X124658067Y-186615064D01*
X124771293Y-186580717D01*
X124837478Y-186574198D01*
X124903660Y-186567680D01*
X124992180Y-186567680D01*
X125058362Y-186574198D01*
X125058362Y-186574198D01*
G37*
G36*
X122518362Y-186574198D02*
X122584547Y-186580717D01*
X122697773Y-186615064D01*
X122754387Y-186632237D01*
X122893007Y-186706332D01*
X122910911Y-186715902D01*
X122946649Y-186745232D01*
X123048106Y-186828494D01*
X123131368Y-186929951D01*
X123160698Y-186965689D01*
X123160699Y-186965691D01*
X123244363Y-187122213D01*
X123244363Y-187122214D01*
X123295883Y-187292053D01*
X123313279Y-187468680D01*
X123295883Y-187645307D01*
X123261536Y-187758533D01*
X123244363Y-187815147D01*
X123199564Y-187898958D01*
X123160698Y-187971671D01*
X123131368Y-188007409D01*
X123048106Y-188108866D01*
X122946649Y-188192128D01*
X122910911Y-188221458D01*
X122910909Y-188221459D01*
X122754387Y-188305123D01*
X122697773Y-188322296D01*
X122584547Y-188356643D01*
X122518362Y-188363162D01*
X122452180Y-188369680D01*
X122363660Y-188369680D01*
X122297478Y-188363162D01*
X122231293Y-188356643D01*
X122118067Y-188322296D01*
X122061453Y-188305123D01*
X121904931Y-188221459D01*
X121904929Y-188221458D01*
X121869191Y-188192128D01*
X121767734Y-188108866D01*
X121684472Y-188007409D01*
X121655142Y-187971671D01*
X121616276Y-187898958D01*
X121571477Y-187815147D01*
X121554304Y-187758533D01*
X121519957Y-187645307D01*
X121502561Y-187468680D01*
X121519957Y-187292053D01*
X121571477Y-187122214D01*
X121571477Y-187122213D01*
X121655141Y-186965691D01*
X121655142Y-186965689D01*
X121684472Y-186929951D01*
X121767734Y-186828494D01*
X121869191Y-186745232D01*
X121904929Y-186715902D01*
X121922833Y-186706332D01*
X122061453Y-186632237D01*
X122118067Y-186615064D01*
X122231293Y-186580717D01*
X122297478Y-186574198D01*
X122363660Y-186567680D01*
X122452180Y-186567680D01*
X122518362Y-186574198D01*
X122518362Y-186574198D01*
G37*
G36*
X107278362Y-186574198D02*
X107344547Y-186580717D01*
X107457773Y-186615064D01*
X107514387Y-186632237D01*
X107653007Y-186706332D01*
X107670911Y-186715902D01*
X107706649Y-186745232D01*
X107808106Y-186828494D01*
X107891368Y-186929951D01*
X107920698Y-186965689D01*
X107920699Y-186965691D01*
X108004363Y-187122213D01*
X108004363Y-187122214D01*
X108055883Y-187292053D01*
X108073279Y-187468680D01*
X108055883Y-187645307D01*
X108021536Y-187758533D01*
X108004363Y-187815147D01*
X107959564Y-187898958D01*
X107920698Y-187971671D01*
X107891368Y-188007409D01*
X107808106Y-188108866D01*
X107706649Y-188192128D01*
X107670911Y-188221458D01*
X107670909Y-188221459D01*
X107514387Y-188305123D01*
X107457773Y-188322296D01*
X107344547Y-188356643D01*
X107278362Y-188363162D01*
X107212180Y-188369680D01*
X107123660Y-188369680D01*
X107057478Y-188363162D01*
X106991293Y-188356643D01*
X106878067Y-188322296D01*
X106821453Y-188305123D01*
X106664931Y-188221459D01*
X106664929Y-188221458D01*
X106629191Y-188192128D01*
X106527734Y-188108866D01*
X106444472Y-188007409D01*
X106415142Y-187971671D01*
X106376276Y-187898958D01*
X106331477Y-187815147D01*
X106314304Y-187758533D01*
X106279957Y-187645307D01*
X106262561Y-187468680D01*
X106279957Y-187292053D01*
X106331477Y-187122214D01*
X106331477Y-187122213D01*
X106415141Y-186965691D01*
X106415142Y-186965689D01*
X106444472Y-186929951D01*
X106527734Y-186828494D01*
X106629191Y-186745232D01*
X106664929Y-186715902D01*
X106682833Y-186706332D01*
X106821453Y-186632237D01*
X106878067Y-186615064D01*
X106991293Y-186580717D01*
X107057478Y-186574198D01*
X107123660Y-186567680D01*
X107212180Y-186567680D01*
X107278362Y-186574198D01*
X107278362Y-186574198D01*
G37*
G36*
X130138362Y-186574198D02*
X130204547Y-186580717D01*
X130317773Y-186615064D01*
X130374387Y-186632237D01*
X130513007Y-186706332D01*
X130530911Y-186715902D01*
X130566649Y-186745232D01*
X130668106Y-186828494D01*
X130751368Y-186929951D01*
X130780698Y-186965689D01*
X130780699Y-186965691D01*
X130864363Y-187122213D01*
X130864363Y-187122214D01*
X130915883Y-187292053D01*
X130933279Y-187468680D01*
X130915883Y-187645307D01*
X130881536Y-187758533D01*
X130864363Y-187815147D01*
X130819564Y-187898958D01*
X130780698Y-187971671D01*
X130751368Y-188007409D01*
X130668106Y-188108866D01*
X130566649Y-188192128D01*
X130530911Y-188221458D01*
X130530909Y-188221459D01*
X130374387Y-188305123D01*
X130317773Y-188322296D01*
X130204547Y-188356643D01*
X130138362Y-188363162D01*
X130072180Y-188369680D01*
X129983660Y-188369680D01*
X129917478Y-188363162D01*
X129851293Y-188356643D01*
X129738067Y-188322296D01*
X129681453Y-188305123D01*
X129524931Y-188221459D01*
X129524929Y-188221458D01*
X129489191Y-188192128D01*
X129387734Y-188108866D01*
X129304472Y-188007409D01*
X129275142Y-187971671D01*
X129236276Y-187898958D01*
X129191477Y-187815147D01*
X129174304Y-187758533D01*
X129139957Y-187645307D01*
X129122561Y-187468680D01*
X129139957Y-187292053D01*
X129191477Y-187122214D01*
X129191477Y-187122213D01*
X129275141Y-186965691D01*
X129275142Y-186965689D01*
X129304472Y-186929951D01*
X129387734Y-186828494D01*
X129489191Y-186745232D01*
X129524929Y-186715902D01*
X129542833Y-186706332D01*
X129681453Y-186632237D01*
X129738067Y-186615064D01*
X129851293Y-186580717D01*
X129917478Y-186574198D01*
X129983660Y-186567680D01*
X130072180Y-186567680D01*
X130138362Y-186574198D01*
X130138362Y-186574198D01*
G37*
G36*
X119978362Y-186574198D02*
X120044547Y-186580717D01*
X120157773Y-186615064D01*
X120214387Y-186632237D01*
X120353007Y-186706332D01*
X120370911Y-186715902D01*
X120406649Y-186745232D01*
X120508106Y-186828494D01*
X120591368Y-186929951D01*
X120620698Y-186965689D01*
X120620699Y-186965691D01*
X120704363Y-187122213D01*
X120704363Y-187122214D01*
X120755883Y-187292053D01*
X120773279Y-187468680D01*
X120755883Y-187645307D01*
X120721536Y-187758533D01*
X120704363Y-187815147D01*
X120659564Y-187898958D01*
X120620698Y-187971671D01*
X120591368Y-188007409D01*
X120508106Y-188108866D01*
X120406649Y-188192128D01*
X120370911Y-188221458D01*
X120370909Y-188221459D01*
X120214387Y-188305123D01*
X120157773Y-188322296D01*
X120044547Y-188356643D01*
X119978362Y-188363162D01*
X119912180Y-188369680D01*
X119823660Y-188369680D01*
X119757478Y-188363162D01*
X119691293Y-188356643D01*
X119578067Y-188322296D01*
X119521453Y-188305123D01*
X119364931Y-188221459D01*
X119364929Y-188221458D01*
X119329191Y-188192128D01*
X119227734Y-188108866D01*
X119144472Y-188007409D01*
X119115142Y-187971671D01*
X119076276Y-187898958D01*
X119031477Y-187815147D01*
X119014304Y-187758533D01*
X118979957Y-187645307D01*
X118962561Y-187468680D01*
X118979957Y-187292053D01*
X119031477Y-187122214D01*
X119031477Y-187122213D01*
X119115141Y-186965691D01*
X119115142Y-186965689D01*
X119144472Y-186929951D01*
X119227734Y-186828494D01*
X119329191Y-186745232D01*
X119364929Y-186715902D01*
X119382833Y-186706332D01*
X119521453Y-186632237D01*
X119578067Y-186615064D01*
X119691293Y-186580717D01*
X119757478Y-186574198D01*
X119823660Y-186567680D01*
X119912180Y-186567680D01*
X119978362Y-186574198D01*
X119978362Y-186574198D01*
G37*
G36*
X132678362Y-186574198D02*
X132744547Y-186580717D01*
X132857773Y-186615064D01*
X132914387Y-186632237D01*
X133053007Y-186706332D01*
X133070911Y-186715902D01*
X133106649Y-186745232D01*
X133208106Y-186828494D01*
X133291368Y-186929951D01*
X133320698Y-186965689D01*
X133320699Y-186965691D01*
X133404363Y-187122213D01*
X133404363Y-187122214D01*
X133455883Y-187292053D01*
X133473279Y-187468680D01*
X133455883Y-187645307D01*
X133421536Y-187758533D01*
X133404363Y-187815147D01*
X133359564Y-187898958D01*
X133320698Y-187971671D01*
X133291368Y-188007409D01*
X133208106Y-188108866D01*
X133106649Y-188192128D01*
X133070911Y-188221458D01*
X133070909Y-188221459D01*
X132914387Y-188305123D01*
X132857773Y-188322296D01*
X132744547Y-188356643D01*
X132678362Y-188363162D01*
X132612180Y-188369680D01*
X132523660Y-188369680D01*
X132457478Y-188363162D01*
X132391293Y-188356643D01*
X132278067Y-188322296D01*
X132221453Y-188305123D01*
X132064931Y-188221459D01*
X132064929Y-188221458D01*
X132029191Y-188192128D01*
X131927734Y-188108866D01*
X131844472Y-188007409D01*
X131815142Y-187971671D01*
X131776276Y-187898958D01*
X131731477Y-187815147D01*
X131714304Y-187758533D01*
X131679957Y-187645307D01*
X131662561Y-187468680D01*
X131679957Y-187292053D01*
X131731477Y-187122214D01*
X131731477Y-187122213D01*
X131815141Y-186965691D01*
X131815142Y-186965689D01*
X131844472Y-186929951D01*
X131927734Y-186828494D01*
X132029191Y-186745232D01*
X132064929Y-186715902D01*
X132082833Y-186706332D01*
X132221453Y-186632237D01*
X132278067Y-186615064D01*
X132391293Y-186580717D01*
X132457478Y-186574198D01*
X132523660Y-186567680D01*
X132612180Y-186567680D01*
X132678362Y-186574198D01*
X132678362Y-186574198D01*
G37*
G36*
X117438362Y-186574198D02*
X117504547Y-186580717D01*
X117617773Y-186615064D01*
X117674387Y-186632237D01*
X117813007Y-186706332D01*
X117830911Y-186715902D01*
X117866649Y-186745232D01*
X117968106Y-186828494D01*
X118051368Y-186929951D01*
X118080698Y-186965689D01*
X118080699Y-186965691D01*
X118164363Y-187122213D01*
X118164363Y-187122214D01*
X118215883Y-187292053D01*
X118233279Y-187468680D01*
X118215883Y-187645307D01*
X118181536Y-187758533D01*
X118164363Y-187815147D01*
X118119564Y-187898958D01*
X118080698Y-187971671D01*
X118051368Y-188007409D01*
X117968106Y-188108866D01*
X117866649Y-188192128D01*
X117830911Y-188221458D01*
X117830909Y-188221459D01*
X117674387Y-188305123D01*
X117617773Y-188322296D01*
X117504547Y-188356643D01*
X117438362Y-188363162D01*
X117372180Y-188369680D01*
X117283660Y-188369680D01*
X117217478Y-188363162D01*
X117151293Y-188356643D01*
X117038067Y-188322296D01*
X116981453Y-188305123D01*
X116824931Y-188221459D01*
X116824929Y-188221458D01*
X116789191Y-188192128D01*
X116687734Y-188108866D01*
X116604472Y-188007409D01*
X116575142Y-187971671D01*
X116536276Y-187898958D01*
X116491477Y-187815147D01*
X116474304Y-187758533D01*
X116439957Y-187645307D01*
X116422561Y-187468680D01*
X116439957Y-187292053D01*
X116491477Y-187122214D01*
X116491477Y-187122213D01*
X116575141Y-186965691D01*
X116575142Y-186965689D01*
X116604472Y-186929951D01*
X116687734Y-186828494D01*
X116789191Y-186745232D01*
X116824929Y-186715902D01*
X116842833Y-186706332D01*
X116981453Y-186632237D01*
X117038067Y-186615064D01*
X117151293Y-186580717D01*
X117217478Y-186574198D01*
X117283660Y-186567680D01*
X117372180Y-186567680D01*
X117438362Y-186574198D01*
X117438362Y-186574198D01*
G37*
G36*
X114898362Y-186574198D02*
X114964547Y-186580717D01*
X115077773Y-186615064D01*
X115134387Y-186632237D01*
X115273007Y-186706332D01*
X115290911Y-186715902D01*
X115326649Y-186745232D01*
X115428106Y-186828494D01*
X115511368Y-186929951D01*
X115540698Y-186965689D01*
X115540699Y-186965691D01*
X115624363Y-187122213D01*
X115624363Y-187122214D01*
X115675883Y-187292053D01*
X115693279Y-187468680D01*
X115675883Y-187645307D01*
X115641536Y-187758533D01*
X115624363Y-187815147D01*
X115579564Y-187898958D01*
X115540698Y-187971671D01*
X115511368Y-188007409D01*
X115428106Y-188108866D01*
X115326649Y-188192128D01*
X115290911Y-188221458D01*
X115290909Y-188221459D01*
X115134387Y-188305123D01*
X115077773Y-188322296D01*
X114964547Y-188356643D01*
X114898362Y-188363162D01*
X114832180Y-188369680D01*
X114743660Y-188369680D01*
X114677478Y-188363162D01*
X114611293Y-188356643D01*
X114498067Y-188322296D01*
X114441453Y-188305123D01*
X114284931Y-188221459D01*
X114284929Y-188221458D01*
X114249191Y-188192128D01*
X114147734Y-188108866D01*
X114064472Y-188007409D01*
X114035142Y-187971671D01*
X113996276Y-187898958D01*
X113951477Y-187815147D01*
X113934304Y-187758533D01*
X113899957Y-187645307D01*
X113882561Y-187468680D01*
X113899957Y-187292053D01*
X113951477Y-187122214D01*
X113951477Y-187122213D01*
X114035141Y-186965691D01*
X114035142Y-186965689D01*
X114064472Y-186929951D01*
X114147734Y-186828494D01*
X114249191Y-186745232D01*
X114284929Y-186715902D01*
X114302833Y-186706332D01*
X114441453Y-186632237D01*
X114498067Y-186615064D01*
X114611293Y-186580717D01*
X114677478Y-186574198D01*
X114743660Y-186567680D01*
X114832180Y-186567680D01*
X114898362Y-186574198D01*
X114898362Y-186574198D01*
G37*
G36*
X137752433Y-184825893D02*
X137842657Y-184843839D01*
X137948267Y-184887585D01*
X138097621Y-184949449D01*
X138327089Y-185102774D01*
X138522226Y-185297911D01*
X138675551Y-185527379D01*
X138692735Y-185568865D01*
X138781161Y-185782343D01*
X138835000Y-186053014D01*
X138835000Y-186328986D01*
X138787522Y-186567680D01*
X138781161Y-186599656D01*
X138675551Y-186854621D01*
X138522226Y-187084089D01*
X138327089Y-187279226D01*
X138097621Y-187432551D01*
X137948267Y-187494415D01*
X137842657Y-187538161D01*
X137752433Y-187556107D01*
X137571988Y-187592000D01*
X137296012Y-187592000D01*
X137115567Y-187556107D01*
X137025343Y-187538161D01*
X136919733Y-187494415D01*
X136770379Y-187432551D01*
X136540911Y-187279226D01*
X136345774Y-187084089D01*
X136192449Y-186854621D01*
X136086839Y-186599656D01*
X136080479Y-186567680D01*
X136033000Y-186328986D01*
X136033000Y-186053014D01*
X136086839Y-185782343D01*
X136175265Y-185568865D01*
X136192449Y-185527379D01*
X136345774Y-185297911D01*
X136540911Y-185102774D01*
X136770379Y-184949449D01*
X136919733Y-184887585D01*
X137025343Y-184843839D01*
X137115567Y-184825893D01*
X137296012Y-184790000D01*
X137571988Y-184790000D01*
X137752433Y-184825893D01*
X137752433Y-184825893D01*
G37*
G36*
X79768433Y-184825893D02*
X79858657Y-184843839D01*
X79964267Y-184887585D01*
X80113621Y-184949449D01*
X80343089Y-185102774D01*
X80538226Y-185297911D01*
X80691551Y-185527379D01*
X80708735Y-185568865D01*
X80797161Y-185782343D01*
X80851000Y-186053014D01*
X80851000Y-186328986D01*
X80803522Y-186567680D01*
X80797161Y-186599656D01*
X80691551Y-186854621D01*
X80538226Y-187084089D01*
X80343089Y-187279226D01*
X80113621Y-187432551D01*
X79964267Y-187494415D01*
X79858657Y-187538161D01*
X79768433Y-187556107D01*
X79587988Y-187592000D01*
X79312012Y-187592000D01*
X79131567Y-187556107D01*
X79041343Y-187538161D01*
X78935733Y-187494415D01*
X78786379Y-187432551D01*
X78556911Y-187279226D01*
X78361774Y-187084089D01*
X78208449Y-186854621D01*
X78102839Y-186599656D01*
X78096479Y-186567680D01*
X78049000Y-186328986D01*
X78049000Y-186053014D01*
X78102839Y-185782343D01*
X78191265Y-185568865D01*
X78208449Y-185527379D01*
X78361774Y-185297911D01*
X78556911Y-185102774D01*
X78786379Y-184949449D01*
X78935733Y-184887585D01*
X79041343Y-184843839D01*
X79131567Y-184825893D01*
X79312012Y-184790000D01*
X79587988Y-184790000D01*
X79768433Y-184825893D01*
X79768433Y-184825893D01*
G37*
G36*
X133468920Y-185829680D02*
X131666920Y-185829680D01*
X131666920Y-184027680D01*
X133468920Y-184027680D01*
X133468920Y-185829680D01*
X133468920Y-185829680D01*
G37*
G36*
X130138363Y-184034199D02*
X130204547Y-184040717D01*
X130317773Y-184075064D01*
X130374387Y-184092237D01*
X130513007Y-184166332D01*
X130530911Y-184175902D01*
X130566649Y-184205232D01*
X130668106Y-184288494D01*
X130751368Y-184389951D01*
X130780698Y-184425689D01*
X130780699Y-184425691D01*
X130864363Y-184582213D01*
X130864363Y-184582214D01*
X130915883Y-184752053D01*
X130933279Y-184928680D01*
X130915883Y-185105307D01*
X130881536Y-185218533D01*
X130864363Y-185275147D01*
X130790268Y-185413767D01*
X130780698Y-185431671D01*
X130751368Y-185467409D01*
X130668106Y-185568866D01*
X130566649Y-185652128D01*
X130530911Y-185681458D01*
X130530909Y-185681459D01*
X130374387Y-185765123D01*
X130317773Y-185782296D01*
X130204547Y-185816643D01*
X130138362Y-185823162D01*
X130072180Y-185829680D01*
X129983660Y-185829680D01*
X129917478Y-185823162D01*
X129851293Y-185816643D01*
X129738067Y-185782296D01*
X129681453Y-185765123D01*
X129524931Y-185681459D01*
X129524929Y-185681458D01*
X129489191Y-185652128D01*
X129387734Y-185568866D01*
X129304472Y-185467409D01*
X129275142Y-185431671D01*
X129265572Y-185413767D01*
X129191477Y-185275147D01*
X129174304Y-185218533D01*
X129139957Y-185105307D01*
X129122561Y-184928680D01*
X129139957Y-184752053D01*
X129191477Y-184582214D01*
X129191477Y-184582213D01*
X129275141Y-184425691D01*
X129275142Y-184425689D01*
X129304472Y-184389951D01*
X129387734Y-184288494D01*
X129489191Y-184205232D01*
X129524929Y-184175902D01*
X129542833Y-184166332D01*
X129681453Y-184092237D01*
X129738067Y-184075064D01*
X129851293Y-184040717D01*
X129917477Y-184034199D01*
X129983660Y-184027680D01*
X130072180Y-184027680D01*
X130138363Y-184034199D01*
X130138363Y-184034199D01*
G37*
G36*
X127598363Y-184034199D02*
X127664547Y-184040717D01*
X127777773Y-184075064D01*
X127834387Y-184092237D01*
X127973007Y-184166332D01*
X127990911Y-184175902D01*
X128026649Y-184205232D01*
X128128106Y-184288494D01*
X128211368Y-184389951D01*
X128240698Y-184425689D01*
X128240699Y-184425691D01*
X128324363Y-184582213D01*
X128324363Y-184582214D01*
X128375883Y-184752053D01*
X128393279Y-184928680D01*
X128375883Y-185105307D01*
X128341536Y-185218533D01*
X128324363Y-185275147D01*
X128250268Y-185413767D01*
X128240698Y-185431671D01*
X128211368Y-185467409D01*
X128128106Y-185568866D01*
X128026649Y-185652128D01*
X127990911Y-185681458D01*
X127990909Y-185681459D01*
X127834387Y-185765123D01*
X127777773Y-185782296D01*
X127664547Y-185816643D01*
X127598362Y-185823162D01*
X127532180Y-185829680D01*
X127443660Y-185829680D01*
X127377478Y-185823162D01*
X127311293Y-185816643D01*
X127198067Y-185782296D01*
X127141453Y-185765123D01*
X126984931Y-185681459D01*
X126984929Y-185681458D01*
X126949191Y-185652128D01*
X126847734Y-185568866D01*
X126764472Y-185467409D01*
X126735142Y-185431671D01*
X126725572Y-185413767D01*
X126651477Y-185275147D01*
X126634304Y-185218533D01*
X126599957Y-185105307D01*
X126582561Y-184928680D01*
X126599957Y-184752053D01*
X126651477Y-184582214D01*
X126651477Y-184582213D01*
X126735141Y-184425691D01*
X126735142Y-184425689D01*
X126764472Y-184389951D01*
X126847734Y-184288494D01*
X126949191Y-184205232D01*
X126984929Y-184175902D01*
X127002833Y-184166332D01*
X127141453Y-184092237D01*
X127198067Y-184075064D01*
X127311293Y-184040717D01*
X127377477Y-184034199D01*
X127443660Y-184027680D01*
X127532180Y-184027680D01*
X127598363Y-184034199D01*
X127598363Y-184034199D01*
G37*
G36*
X109818363Y-184034199D02*
X109884547Y-184040717D01*
X109997773Y-184075064D01*
X110054387Y-184092237D01*
X110193007Y-184166332D01*
X110210911Y-184175902D01*
X110246649Y-184205232D01*
X110348106Y-184288494D01*
X110431368Y-184389951D01*
X110460698Y-184425689D01*
X110460699Y-184425691D01*
X110544363Y-184582213D01*
X110544363Y-184582214D01*
X110595883Y-184752053D01*
X110613279Y-184928680D01*
X110595883Y-185105307D01*
X110561536Y-185218533D01*
X110544363Y-185275147D01*
X110470268Y-185413767D01*
X110460698Y-185431671D01*
X110431368Y-185467409D01*
X110348106Y-185568866D01*
X110246649Y-185652128D01*
X110210911Y-185681458D01*
X110210909Y-185681459D01*
X110054387Y-185765123D01*
X109997773Y-185782296D01*
X109884547Y-185816643D01*
X109818362Y-185823162D01*
X109752180Y-185829680D01*
X109663660Y-185829680D01*
X109597478Y-185823162D01*
X109531293Y-185816643D01*
X109418067Y-185782296D01*
X109361453Y-185765123D01*
X109204931Y-185681459D01*
X109204929Y-185681458D01*
X109169191Y-185652128D01*
X109067734Y-185568866D01*
X108984472Y-185467409D01*
X108955142Y-185431671D01*
X108945572Y-185413767D01*
X108871477Y-185275147D01*
X108854304Y-185218533D01*
X108819957Y-185105307D01*
X108802561Y-184928680D01*
X108819957Y-184752053D01*
X108871477Y-184582214D01*
X108871477Y-184582213D01*
X108955141Y-184425691D01*
X108955142Y-184425689D01*
X108984472Y-184389951D01*
X109067734Y-184288494D01*
X109169191Y-184205232D01*
X109204929Y-184175902D01*
X109222833Y-184166332D01*
X109361453Y-184092237D01*
X109418067Y-184075064D01*
X109531293Y-184040717D01*
X109597477Y-184034199D01*
X109663660Y-184027680D01*
X109752180Y-184027680D01*
X109818363Y-184034199D01*
X109818363Y-184034199D01*
G37*
G36*
X107278363Y-184034199D02*
X107344547Y-184040717D01*
X107457773Y-184075064D01*
X107514387Y-184092237D01*
X107653007Y-184166332D01*
X107670911Y-184175902D01*
X107706649Y-184205232D01*
X107808106Y-184288494D01*
X107891368Y-184389951D01*
X107920698Y-184425689D01*
X107920699Y-184425691D01*
X108004363Y-184582213D01*
X108004363Y-184582214D01*
X108055883Y-184752053D01*
X108073279Y-184928680D01*
X108055883Y-185105307D01*
X108021536Y-185218533D01*
X108004363Y-185275147D01*
X107930268Y-185413767D01*
X107920698Y-185431671D01*
X107891368Y-185467409D01*
X107808106Y-185568866D01*
X107706649Y-185652128D01*
X107670911Y-185681458D01*
X107670909Y-185681459D01*
X107514387Y-185765123D01*
X107457773Y-185782296D01*
X107344547Y-185816643D01*
X107278362Y-185823162D01*
X107212180Y-185829680D01*
X107123660Y-185829680D01*
X107057478Y-185823162D01*
X106991293Y-185816643D01*
X106878067Y-185782296D01*
X106821453Y-185765123D01*
X106664931Y-185681459D01*
X106664929Y-185681458D01*
X106629191Y-185652128D01*
X106527734Y-185568866D01*
X106444472Y-185467409D01*
X106415142Y-185431671D01*
X106405572Y-185413767D01*
X106331477Y-185275147D01*
X106314304Y-185218533D01*
X106279957Y-185105307D01*
X106262561Y-184928680D01*
X106279957Y-184752053D01*
X106331477Y-184582214D01*
X106331477Y-184582213D01*
X106415141Y-184425691D01*
X106415142Y-184425689D01*
X106444472Y-184389951D01*
X106527734Y-184288494D01*
X106629191Y-184205232D01*
X106664929Y-184175902D01*
X106682833Y-184166332D01*
X106821453Y-184092237D01*
X106878067Y-184075064D01*
X106991293Y-184040717D01*
X107057477Y-184034199D01*
X107123660Y-184027680D01*
X107212180Y-184027680D01*
X107278363Y-184034199D01*
X107278363Y-184034199D01*
G37*
G36*
X104738363Y-184034199D02*
X104804547Y-184040717D01*
X104917773Y-184075064D01*
X104974387Y-184092237D01*
X105113007Y-184166332D01*
X105130911Y-184175902D01*
X105166649Y-184205232D01*
X105268106Y-184288494D01*
X105351368Y-184389951D01*
X105380698Y-184425689D01*
X105380699Y-184425691D01*
X105464363Y-184582213D01*
X105464363Y-184582214D01*
X105515883Y-184752053D01*
X105533279Y-184928680D01*
X105515883Y-185105307D01*
X105481536Y-185218533D01*
X105464363Y-185275147D01*
X105390268Y-185413767D01*
X105380698Y-185431671D01*
X105351368Y-185467409D01*
X105268106Y-185568866D01*
X105166649Y-185652128D01*
X105130911Y-185681458D01*
X105130909Y-185681459D01*
X104974387Y-185765123D01*
X104917773Y-185782296D01*
X104804547Y-185816643D01*
X104738362Y-185823162D01*
X104672180Y-185829680D01*
X104583660Y-185829680D01*
X104517478Y-185823162D01*
X104451293Y-185816643D01*
X104338067Y-185782296D01*
X104281453Y-185765123D01*
X104124931Y-185681459D01*
X104124929Y-185681458D01*
X104089191Y-185652128D01*
X103987734Y-185568866D01*
X103904472Y-185467409D01*
X103875142Y-185431671D01*
X103865572Y-185413767D01*
X103791477Y-185275147D01*
X103774304Y-185218533D01*
X103739957Y-185105307D01*
X103722561Y-184928680D01*
X103739957Y-184752053D01*
X103791477Y-184582214D01*
X103791477Y-184582213D01*
X103875141Y-184425691D01*
X103875142Y-184425689D01*
X103904472Y-184389951D01*
X103987734Y-184288494D01*
X104089191Y-184205232D01*
X104124929Y-184175902D01*
X104142833Y-184166332D01*
X104281453Y-184092237D01*
X104338067Y-184075064D01*
X104451293Y-184040717D01*
X104517477Y-184034199D01*
X104583660Y-184027680D01*
X104672180Y-184027680D01*
X104738363Y-184034199D01*
X104738363Y-184034199D01*
G37*
G36*
X102198363Y-184034199D02*
X102264547Y-184040717D01*
X102377773Y-184075064D01*
X102434387Y-184092237D01*
X102573007Y-184166332D01*
X102590911Y-184175902D01*
X102626649Y-184205232D01*
X102728106Y-184288494D01*
X102811368Y-184389951D01*
X102840698Y-184425689D01*
X102840699Y-184425691D01*
X102924363Y-184582213D01*
X102924363Y-184582214D01*
X102975883Y-184752053D01*
X102993279Y-184928680D01*
X102975883Y-185105307D01*
X102941536Y-185218533D01*
X102924363Y-185275147D01*
X102850268Y-185413767D01*
X102840698Y-185431671D01*
X102811368Y-185467409D01*
X102728106Y-185568866D01*
X102626649Y-185652128D01*
X102590911Y-185681458D01*
X102590909Y-185681459D01*
X102434387Y-185765123D01*
X102377773Y-185782296D01*
X102264547Y-185816643D01*
X102198362Y-185823162D01*
X102132180Y-185829680D01*
X102043660Y-185829680D01*
X101977478Y-185823162D01*
X101911293Y-185816643D01*
X101798067Y-185782296D01*
X101741453Y-185765123D01*
X101584931Y-185681459D01*
X101584929Y-185681458D01*
X101549191Y-185652128D01*
X101447734Y-185568866D01*
X101364472Y-185467409D01*
X101335142Y-185431671D01*
X101325572Y-185413767D01*
X101251477Y-185275147D01*
X101234304Y-185218533D01*
X101199957Y-185105307D01*
X101182561Y-184928680D01*
X101199957Y-184752053D01*
X101251477Y-184582214D01*
X101251477Y-184582213D01*
X101335141Y-184425691D01*
X101335142Y-184425689D01*
X101364472Y-184389951D01*
X101447734Y-184288494D01*
X101549191Y-184205232D01*
X101584929Y-184175902D01*
X101602833Y-184166332D01*
X101741453Y-184092237D01*
X101798067Y-184075064D01*
X101911293Y-184040717D01*
X101977477Y-184034199D01*
X102043660Y-184027680D01*
X102132180Y-184027680D01*
X102198363Y-184034199D01*
X102198363Y-184034199D01*
G37*
G36*
X99658363Y-184034199D02*
X99724547Y-184040717D01*
X99837773Y-184075064D01*
X99894387Y-184092237D01*
X100033007Y-184166332D01*
X100050911Y-184175902D01*
X100086649Y-184205232D01*
X100188106Y-184288494D01*
X100271368Y-184389951D01*
X100300698Y-184425689D01*
X100300699Y-184425691D01*
X100384363Y-184582213D01*
X100384363Y-184582214D01*
X100435883Y-184752053D01*
X100453279Y-184928680D01*
X100435883Y-185105307D01*
X100401536Y-185218533D01*
X100384363Y-185275147D01*
X100310268Y-185413767D01*
X100300698Y-185431671D01*
X100271368Y-185467409D01*
X100188106Y-185568866D01*
X100086649Y-185652128D01*
X100050911Y-185681458D01*
X100050909Y-185681459D01*
X99894387Y-185765123D01*
X99837773Y-185782296D01*
X99724547Y-185816643D01*
X99658362Y-185823162D01*
X99592180Y-185829680D01*
X99503660Y-185829680D01*
X99437478Y-185823162D01*
X99371293Y-185816643D01*
X99258067Y-185782296D01*
X99201453Y-185765123D01*
X99044931Y-185681459D01*
X99044929Y-185681458D01*
X99009191Y-185652128D01*
X98907734Y-185568866D01*
X98824472Y-185467409D01*
X98795142Y-185431671D01*
X98785572Y-185413767D01*
X98711477Y-185275147D01*
X98694304Y-185218533D01*
X98659957Y-185105307D01*
X98642561Y-184928680D01*
X98659957Y-184752053D01*
X98711477Y-184582214D01*
X98711477Y-184582213D01*
X98795141Y-184425691D01*
X98795142Y-184425689D01*
X98824472Y-184389951D01*
X98907734Y-184288494D01*
X99009191Y-184205232D01*
X99044929Y-184175902D01*
X99062833Y-184166332D01*
X99201453Y-184092237D01*
X99258067Y-184075064D01*
X99371293Y-184040717D01*
X99437477Y-184034199D01*
X99503660Y-184027680D01*
X99592180Y-184027680D01*
X99658363Y-184034199D01*
X99658363Y-184034199D01*
G37*
G36*
X97118363Y-184034199D02*
X97184547Y-184040717D01*
X97297773Y-184075064D01*
X97354387Y-184092237D01*
X97493007Y-184166332D01*
X97510911Y-184175902D01*
X97546649Y-184205232D01*
X97648106Y-184288494D01*
X97731368Y-184389951D01*
X97760698Y-184425689D01*
X97760699Y-184425691D01*
X97844363Y-184582213D01*
X97844363Y-184582214D01*
X97895883Y-184752053D01*
X97913279Y-184928680D01*
X97895883Y-185105307D01*
X97861536Y-185218533D01*
X97844363Y-185275147D01*
X97770268Y-185413767D01*
X97760698Y-185431671D01*
X97731368Y-185467409D01*
X97648106Y-185568866D01*
X97546649Y-185652128D01*
X97510911Y-185681458D01*
X97510909Y-185681459D01*
X97354387Y-185765123D01*
X97297773Y-185782296D01*
X97184547Y-185816643D01*
X97118362Y-185823162D01*
X97052180Y-185829680D01*
X96963660Y-185829680D01*
X96897478Y-185823162D01*
X96831293Y-185816643D01*
X96718067Y-185782296D01*
X96661453Y-185765123D01*
X96504931Y-185681459D01*
X96504929Y-185681458D01*
X96469191Y-185652128D01*
X96367734Y-185568866D01*
X96284472Y-185467409D01*
X96255142Y-185431671D01*
X96245572Y-185413767D01*
X96171477Y-185275147D01*
X96154304Y-185218533D01*
X96119957Y-185105307D01*
X96102561Y-184928680D01*
X96119957Y-184752053D01*
X96171477Y-184582214D01*
X96171477Y-184582213D01*
X96255141Y-184425691D01*
X96255142Y-184425689D01*
X96284472Y-184389951D01*
X96367734Y-184288494D01*
X96469191Y-184205232D01*
X96504929Y-184175902D01*
X96522833Y-184166332D01*
X96661453Y-184092237D01*
X96718067Y-184075064D01*
X96831293Y-184040717D01*
X96897477Y-184034199D01*
X96963660Y-184027680D01*
X97052180Y-184027680D01*
X97118363Y-184034199D01*
X97118363Y-184034199D01*
G37*
G36*
X122518363Y-184034199D02*
X122584547Y-184040717D01*
X122697773Y-184075064D01*
X122754387Y-184092237D01*
X122893007Y-184166332D01*
X122910911Y-184175902D01*
X122946649Y-184205232D01*
X123048106Y-184288494D01*
X123131368Y-184389951D01*
X123160698Y-184425689D01*
X123160699Y-184425691D01*
X123244363Y-184582213D01*
X123244363Y-184582214D01*
X123295883Y-184752053D01*
X123313279Y-184928680D01*
X123295883Y-185105307D01*
X123261536Y-185218533D01*
X123244363Y-185275147D01*
X123170268Y-185413767D01*
X123160698Y-185431671D01*
X123131368Y-185467409D01*
X123048106Y-185568866D01*
X122946649Y-185652128D01*
X122910911Y-185681458D01*
X122910909Y-185681459D01*
X122754387Y-185765123D01*
X122697773Y-185782296D01*
X122584547Y-185816643D01*
X122518362Y-185823162D01*
X122452180Y-185829680D01*
X122363660Y-185829680D01*
X122297478Y-185823162D01*
X122231293Y-185816643D01*
X122118067Y-185782296D01*
X122061453Y-185765123D01*
X121904931Y-185681459D01*
X121904929Y-185681458D01*
X121869191Y-185652128D01*
X121767734Y-185568866D01*
X121684472Y-185467409D01*
X121655142Y-185431671D01*
X121645572Y-185413767D01*
X121571477Y-185275147D01*
X121554304Y-185218533D01*
X121519957Y-185105307D01*
X121502561Y-184928680D01*
X121519957Y-184752053D01*
X121571477Y-184582214D01*
X121571477Y-184582213D01*
X121655141Y-184425691D01*
X121655142Y-184425689D01*
X121684472Y-184389951D01*
X121767734Y-184288494D01*
X121869191Y-184205232D01*
X121904929Y-184175902D01*
X121922833Y-184166332D01*
X122061453Y-184092237D01*
X122118067Y-184075064D01*
X122231293Y-184040717D01*
X122297477Y-184034199D01*
X122363660Y-184027680D01*
X122452180Y-184027680D01*
X122518363Y-184034199D01*
X122518363Y-184034199D01*
G37*
G36*
X125058363Y-184034199D02*
X125124547Y-184040717D01*
X125237773Y-184075064D01*
X125294387Y-184092237D01*
X125433007Y-184166332D01*
X125450911Y-184175902D01*
X125486649Y-184205232D01*
X125588106Y-184288494D01*
X125671368Y-184389951D01*
X125700698Y-184425689D01*
X125700699Y-184425691D01*
X125784363Y-184582213D01*
X125784363Y-184582214D01*
X125835883Y-184752053D01*
X125853279Y-184928680D01*
X125835883Y-185105307D01*
X125801536Y-185218533D01*
X125784363Y-185275147D01*
X125710268Y-185413767D01*
X125700698Y-185431671D01*
X125671368Y-185467409D01*
X125588106Y-185568866D01*
X125486649Y-185652128D01*
X125450911Y-185681458D01*
X125450909Y-185681459D01*
X125294387Y-185765123D01*
X125237773Y-185782296D01*
X125124547Y-185816643D01*
X125058362Y-185823162D01*
X124992180Y-185829680D01*
X124903660Y-185829680D01*
X124837478Y-185823162D01*
X124771293Y-185816643D01*
X124658067Y-185782296D01*
X124601453Y-185765123D01*
X124444931Y-185681459D01*
X124444929Y-185681458D01*
X124409191Y-185652128D01*
X124307734Y-185568866D01*
X124224472Y-185467409D01*
X124195142Y-185431671D01*
X124185572Y-185413767D01*
X124111477Y-185275147D01*
X124094304Y-185218533D01*
X124059957Y-185105307D01*
X124042561Y-184928680D01*
X124059957Y-184752053D01*
X124111477Y-184582214D01*
X124111477Y-184582213D01*
X124195141Y-184425691D01*
X124195142Y-184425689D01*
X124224472Y-184389951D01*
X124307734Y-184288494D01*
X124409191Y-184205232D01*
X124444929Y-184175902D01*
X124462833Y-184166332D01*
X124601453Y-184092237D01*
X124658067Y-184075064D01*
X124771293Y-184040717D01*
X124837477Y-184034199D01*
X124903660Y-184027680D01*
X124992180Y-184027680D01*
X125058363Y-184034199D01*
X125058363Y-184034199D01*
G37*
G36*
X84418363Y-184034199D02*
X84484547Y-184040717D01*
X84597773Y-184075064D01*
X84654387Y-184092237D01*
X84793007Y-184166332D01*
X84810911Y-184175902D01*
X84846649Y-184205232D01*
X84948106Y-184288494D01*
X85031368Y-184389951D01*
X85060698Y-184425689D01*
X85060699Y-184425691D01*
X85144363Y-184582213D01*
X85144363Y-184582214D01*
X85195883Y-184752053D01*
X85213279Y-184928680D01*
X85195883Y-185105307D01*
X85161536Y-185218533D01*
X85144363Y-185275147D01*
X85070268Y-185413767D01*
X85060698Y-185431671D01*
X85031368Y-185467409D01*
X84948106Y-185568866D01*
X84846649Y-185652128D01*
X84810911Y-185681458D01*
X84810909Y-185681459D01*
X84654387Y-185765123D01*
X84597773Y-185782296D01*
X84484547Y-185816643D01*
X84418362Y-185823162D01*
X84352180Y-185829680D01*
X84263660Y-185829680D01*
X84197478Y-185823162D01*
X84131293Y-185816643D01*
X84018067Y-185782296D01*
X83961453Y-185765123D01*
X83804931Y-185681459D01*
X83804929Y-185681458D01*
X83769191Y-185652128D01*
X83667734Y-185568866D01*
X83584472Y-185467409D01*
X83555142Y-185431671D01*
X83545572Y-185413767D01*
X83471477Y-185275147D01*
X83454304Y-185218533D01*
X83419957Y-185105307D01*
X83402561Y-184928680D01*
X83419957Y-184752053D01*
X83471477Y-184582214D01*
X83471477Y-184582213D01*
X83555141Y-184425691D01*
X83555142Y-184425689D01*
X83584472Y-184389951D01*
X83667734Y-184288494D01*
X83769191Y-184205232D01*
X83804929Y-184175902D01*
X83822833Y-184166332D01*
X83961453Y-184092237D01*
X84018067Y-184075064D01*
X84131293Y-184040717D01*
X84197477Y-184034199D01*
X84263660Y-184027680D01*
X84352180Y-184027680D01*
X84418363Y-184034199D01*
X84418363Y-184034199D01*
G37*
G36*
X112358363Y-184034199D02*
X112424547Y-184040717D01*
X112537773Y-184075064D01*
X112594387Y-184092237D01*
X112733007Y-184166332D01*
X112750911Y-184175902D01*
X112786649Y-184205232D01*
X112888106Y-184288494D01*
X112971368Y-184389951D01*
X113000698Y-184425689D01*
X113000699Y-184425691D01*
X113084363Y-184582213D01*
X113084363Y-184582214D01*
X113135883Y-184752053D01*
X113153279Y-184928680D01*
X113135883Y-185105307D01*
X113101536Y-185218533D01*
X113084363Y-185275147D01*
X113010268Y-185413767D01*
X113000698Y-185431671D01*
X112971368Y-185467409D01*
X112888106Y-185568866D01*
X112786649Y-185652128D01*
X112750911Y-185681458D01*
X112750909Y-185681459D01*
X112594387Y-185765123D01*
X112537773Y-185782296D01*
X112424547Y-185816643D01*
X112358362Y-185823162D01*
X112292180Y-185829680D01*
X112203660Y-185829680D01*
X112137478Y-185823162D01*
X112071293Y-185816643D01*
X111958067Y-185782296D01*
X111901453Y-185765123D01*
X111744931Y-185681459D01*
X111744929Y-185681458D01*
X111709191Y-185652128D01*
X111607734Y-185568866D01*
X111524472Y-185467409D01*
X111495142Y-185431671D01*
X111485572Y-185413767D01*
X111411477Y-185275147D01*
X111394304Y-185218533D01*
X111359957Y-185105307D01*
X111342561Y-184928680D01*
X111359957Y-184752053D01*
X111411477Y-184582214D01*
X111411477Y-184582213D01*
X111495141Y-184425691D01*
X111495142Y-184425689D01*
X111524472Y-184389951D01*
X111607734Y-184288494D01*
X111709191Y-184205232D01*
X111744929Y-184175902D01*
X111762833Y-184166332D01*
X111901453Y-184092237D01*
X111958067Y-184075064D01*
X112071293Y-184040717D01*
X112137477Y-184034199D01*
X112203660Y-184027680D01*
X112292180Y-184027680D01*
X112358363Y-184034199D01*
X112358363Y-184034199D01*
G37*
G36*
X114898363Y-184034199D02*
X114964547Y-184040717D01*
X115077773Y-184075064D01*
X115134387Y-184092237D01*
X115273007Y-184166332D01*
X115290911Y-184175902D01*
X115326649Y-184205232D01*
X115428106Y-184288494D01*
X115511368Y-184389951D01*
X115540698Y-184425689D01*
X115540699Y-184425691D01*
X115624363Y-184582213D01*
X115624363Y-184582214D01*
X115675883Y-184752053D01*
X115693279Y-184928680D01*
X115675883Y-185105307D01*
X115641536Y-185218533D01*
X115624363Y-185275147D01*
X115550268Y-185413767D01*
X115540698Y-185431671D01*
X115511368Y-185467409D01*
X115428106Y-185568866D01*
X115326649Y-185652128D01*
X115290911Y-185681458D01*
X115290909Y-185681459D01*
X115134387Y-185765123D01*
X115077773Y-185782296D01*
X114964547Y-185816643D01*
X114898362Y-185823162D01*
X114832180Y-185829680D01*
X114743660Y-185829680D01*
X114677478Y-185823162D01*
X114611293Y-185816643D01*
X114498067Y-185782296D01*
X114441453Y-185765123D01*
X114284931Y-185681459D01*
X114284929Y-185681458D01*
X114249191Y-185652128D01*
X114147734Y-185568866D01*
X114064472Y-185467409D01*
X114035142Y-185431671D01*
X114025572Y-185413767D01*
X113951477Y-185275147D01*
X113934304Y-185218533D01*
X113899957Y-185105307D01*
X113882561Y-184928680D01*
X113899957Y-184752053D01*
X113951477Y-184582214D01*
X113951477Y-184582213D01*
X114035141Y-184425691D01*
X114035142Y-184425689D01*
X114064472Y-184389951D01*
X114147734Y-184288494D01*
X114249191Y-184205232D01*
X114284929Y-184175902D01*
X114302833Y-184166332D01*
X114441453Y-184092237D01*
X114498067Y-184075064D01*
X114611293Y-184040717D01*
X114677477Y-184034199D01*
X114743660Y-184027680D01*
X114832180Y-184027680D01*
X114898363Y-184034199D01*
X114898363Y-184034199D01*
G37*
G36*
X89498363Y-184034199D02*
X89564547Y-184040717D01*
X89677773Y-184075064D01*
X89734387Y-184092237D01*
X89873007Y-184166332D01*
X89890911Y-184175902D01*
X89926649Y-184205232D01*
X90028106Y-184288494D01*
X90111368Y-184389951D01*
X90140698Y-184425689D01*
X90140699Y-184425691D01*
X90224363Y-184582213D01*
X90224363Y-184582214D01*
X90275883Y-184752053D01*
X90293279Y-184928680D01*
X90275883Y-185105307D01*
X90241536Y-185218533D01*
X90224363Y-185275147D01*
X90150268Y-185413767D01*
X90140698Y-185431671D01*
X90111368Y-185467409D01*
X90028106Y-185568866D01*
X89926649Y-185652128D01*
X89890911Y-185681458D01*
X89890909Y-185681459D01*
X89734387Y-185765123D01*
X89677773Y-185782296D01*
X89564547Y-185816643D01*
X89498362Y-185823162D01*
X89432180Y-185829680D01*
X89343660Y-185829680D01*
X89277478Y-185823162D01*
X89211293Y-185816643D01*
X89098067Y-185782296D01*
X89041453Y-185765123D01*
X88884931Y-185681459D01*
X88884929Y-185681458D01*
X88849191Y-185652128D01*
X88747734Y-185568866D01*
X88664472Y-185467409D01*
X88635142Y-185431671D01*
X88625572Y-185413767D01*
X88551477Y-185275147D01*
X88534304Y-185218533D01*
X88499957Y-185105307D01*
X88482561Y-184928680D01*
X88499957Y-184752053D01*
X88551477Y-184582214D01*
X88551477Y-184582213D01*
X88635141Y-184425691D01*
X88635142Y-184425689D01*
X88664472Y-184389951D01*
X88747734Y-184288494D01*
X88849191Y-184205232D01*
X88884929Y-184175902D01*
X88902833Y-184166332D01*
X89041453Y-184092237D01*
X89098067Y-184075064D01*
X89211293Y-184040717D01*
X89277477Y-184034199D01*
X89343660Y-184027680D01*
X89432180Y-184027680D01*
X89498363Y-184034199D01*
X89498363Y-184034199D01*
G37*
G36*
X117438363Y-184034199D02*
X117504547Y-184040717D01*
X117617773Y-184075064D01*
X117674387Y-184092237D01*
X117813007Y-184166332D01*
X117830911Y-184175902D01*
X117866649Y-184205232D01*
X117968106Y-184288494D01*
X118051368Y-184389951D01*
X118080698Y-184425689D01*
X118080699Y-184425691D01*
X118164363Y-184582213D01*
X118164363Y-184582214D01*
X118215883Y-184752053D01*
X118233279Y-184928680D01*
X118215883Y-185105307D01*
X118181536Y-185218533D01*
X118164363Y-185275147D01*
X118090268Y-185413767D01*
X118080698Y-185431671D01*
X118051368Y-185467409D01*
X117968106Y-185568866D01*
X117866649Y-185652128D01*
X117830911Y-185681458D01*
X117830909Y-185681459D01*
X117674387Y-185765123D01*
X117617773Y-185782296D01*
X117504547Y-185816643D01*
X117438362Y-185823162D01*
X117372180Y-185829680D01*
X117283660Y-185829680D01*
X117217478Y-185823162D01*
X117151293Y-185816643D01*
X117038067Y-185782296D01*
X116981453Y-185765123D01*
X116824931Y-185681459D01*
X116824929Y-185681458D01*
X116789191Y-185652128D01*
X116687734Y-185568866D01*
X116604472Y-185467409D01*
X116575142Y-185431671D01*
X116565572Y-185413767D01*
X116491477Y-185275147D01*
X116474304Y-185218533D01*
X116439957Y-185105307D01*
X116422561Y-184928680D01*
X116439957Y-184752053D01*
X116491477Y-184582214D01*
X116491477Y-184582213D01*
X116575141Y-184425691D01*
X116575142Y-184425689D01*
X116604472Y-184389951D01*
X116687734Y-184288494D01*
X116789191Y-184205232D01*
X116824929Y-184175902D01*
X116842833Y-184166332D01*
X116981453Y-184092237D01*
X117038067Y-184075064D01*
X117151293Y-184040717D01*
X117217477Y-184034199D01*
X117283660Y-184027680D01*
X117372180Y-184027680D01*
X117438363Y-184034199D01*
X117438363Y-184034199D01*
G37*
G36*
X92038363Y-184034199D02*
X92104547Y-184040717D01*
X92217773Y-184075064D01*
X92274387Y-184092237D01*
X92413007Y-184166332D01*
X92430911Y-184175902D01*
X92466649Y-184205232D01*
X92568106Y-184288494D01*
X92651368Y-184389951D01*
X92680698Y-184425689D01*
X92680699Y-184425691D01*
X92764363Y-184582213D01*
X92764363Y-184582214D01*
X92815883Y-184752053D01*
X92833279Y-184928680D01*
X92815883Y-185105307D01*
X92781536Y-185218533D01*
X92764363Y-185275147D01*
X92690268Y-185413767D01*
X92680698Y-185431671D01*
X92651368Y-185467409D01*
X92568106Y-185568866D01*
X92466649Y-185652128D01*
X92430911Y-185681458D01*
X92430909Y-185681459D01*
X92274387Y-185765123D01*
X92217773Y-185782296D01*
X92104547Y-185816643D01*
X92038362Y-185823162D01*
X91972180Y-185829680D01*
X91883660Y-185829680D01*
X91817478Y-185823162D01*
X91751293Y-185816643D01*
X91638067Y-185782296D01*
X91581453Y-185765123D01*
X91424931Y-185681459D01*
X91424929Y-185681458D01*
X91389191Y-185652128D01*
X91287734Y-185568866D01*
X91204472Y-185467409D01*
X91175142Y-185431671D01*
X91165572Y-185413767D01*
X91091477Y-185275147D01*
X91074304Y-185218533D01*
X91039957Y-185105307D01*
X91022561Y-184928680D01*
X91039957Y-184752053D01*
X91091477Y-184582214D01*
X91091477Y-184582213D01*
X91175141Y-184425691D01*
X91175142Y-184425689D01*
X91204472Y-184389951D01*
X91287734Y-184288494D01*
X91389191Y-184205232D01*
X91424929Y-184175902D01*
X91442833Y-184166332D01*
X91581453Y-184092237D01*
X91638067Y-184075064D01*
X91751293Y-184040717D01*
X91817477Y-184034199D01*
X91883660Y-184027680D01*
X91972180Y-184027680D01*
X92038363Y-184034199D01*
X92038363Y-184034199D01*
G37*
G36*
X119978363Y-184034199D02*
X120044547Y-184040717D01*
X120157773Y-184075064D01*
X120214387Y-184092237D01*
X120353007Y-184166332D01*
X120370911Y-184175902D01*
X120406649Y-184205232D01*
X120508106Y-184288494D01*
X120591368Y-184389951D01*
X120620698Y-184425689D01*
X120620699Y-184425691D01*
X120704363Y-184582213D01*
X120704363Y-184582214D01*
X120755883Y-184752053D01*
X120773279Y-184928680D01*
X120755883Y-185105307D01*
X120721536Y-185218533D01*
X120704363Y-185275147D01*
X120630268Y-185413767D01*
X120620698Y-185431671D01*
X120591368Y-185467409D01*
X120508106Y-185568866D01*
X120406649Y-185652128D01*
X120370911Y-185681458D01*
X120370909Y-185681459D01*
X120214387Y-185765123D01*
X120157773Y-185782296D01*
X120044547Y-185816643D01*
X119978362Y-185823162D01*
X119912180Y-185829680D01*
X119823660Y-185829680D01*
X119757478Y-185823162D01*
X119691293Y-185816643D01*
X119578067Y-185782296D01*
X119521453Y-185765123D01*
X119364931Y-185681459D01*
X119364929Y-185681458D01*
X119329191Y-185652128D01*
X119227734Y-185568866D01*
X119144472Y-185467409D01*
X119115142Y-185431671D01*
X119105572Y-185413767D01*
X119031477Y-185275147D01*
X119014304Y-185218533D01*
X118979957Y-185105307D01*
X118962561Y-184928680D01*
X118979957Y-184752053D01*
X119031477Y-184582214D01*
X119031477Y-184582213D01*
X119115141Y-184425691D01*
X119115142Y-184425689D01*
X119144472Y-184389951D01*
X119227734Y-184288494D01*
X119329191Y-184205232D01*
X119364929Y-184175902D01*
X119382833Y-184166332D01*
X119521453Y-184092237D01*
X119578067Y-184075064D01*
X119691293Y-184040717D01*
X119757477Y-184034199D01*
X119823660Y-184027680D01*
X119912180Y-184027680D01*
X119978363Y-184034199D01*
X119978363Y-184034199D01*
G37*
G36*
X86958363Y-184034199D02*
X87024547Y-184040717D01*
X87137773Y-184075064D01*
X87194387Y-184092237D01*
X87333007Y-184166332D01*
X87350911Y-184175902D01*
X87386649Y-184205232D01*
X87488106Y-184288494D01*
X87571368Y-184389951D01*
X87600698Y-184425689D01*
X87600699Y-184425691D01*
X87684363Y-184582213D01*
X87684363Y-184582214D01*
X87735883Y-184752053D01*
X87753279Y-184928680D01*
X87735883Y-185105307D01*
X87701536Y-185218533D01*
X87684363Y-185275147D01*
X87610268Y-185413767D01*
X87600698Y-185431671D01*
X87571368Y-185467409D01*
X87488106Y-185568866D01*
X87386649Y-185652128D01*
X87350911Y-185681458D01*
X87350909Y-185681459D01*
X87194387Y-185765123D01*
X87137773Y-185782296D01*
X87024547Y-185816643D01*
X86958362Y-185823162D01*
X86892180Y-185829680D01*
X86803660Y-185829680D01*
X86737478Y-185823162D01*
X86671293Y-185816643D01*
X86558067Y-185782296D01*
X86501453Y-185765123D01*
X86344931Y-185681459D01*
X86344929Y-185681458D01*
X86309191Y-185652128D01*
X86207734Y-185568866D01*
X86124472Y-185467409D01*
X86095142Y-185431671D01*
X86085572Y-185413767D01*
X86011477Y-185275147D01*
X85994304Y-185218533D01*
X85959957Y-185105307D01*
X85942561Y-184928680D01*
X85959957Y-184752053D01*
X86011477Y-184582214D01*
X86011477Y-184582213D01*
X86095141Y-184425691D01*
X86095142Y-184425689D01*
X86124472Y-184389951D01*
X86207734Y-184288494D01*
X86309191Y-184205232D01*
X86344929Y-184175902D01*
X86362833Y-184166332D01*
X86501453Y-184092237D01*
X86558067Y-184075064D01*
X86671293Y-184040717D01*
X86737477Y-184034199D01*
X86803660Y-184027680D01*
X86892180Y-184027680D01*
X86958363Y-184034199D01*
X86958363Y-184034199D01*
G37*
G36*
X94578363Y-184034199D02*
X94644547Y-184040717D01*
X94757773Y-184075064D01*
X94814387Y-184092237D01*
X94953007Y-184166332D01*
X94970911Y-184175902D01*
X95006649Y-184205232D01*
X95108106Y-184288494D01*
X95191368Y-184389951D01*
X95220698Y-184425689D01*
X95220699Y-184425691D01*
X95304363Y-184582213D01*
X95304363Y-184582214D01*
X95355883Y-184752053D01*
X95373279Y-184928680D01*
X95355883Y-185105307D01*
X95321536Y-185218533D01*
X95304363Y-185275147D01*
X95230268Y-185413767D01*
X95220698Y-185431671D01*
X95191368Y-185467409D01*
X95108106Y-185568866D01*
X95006649Y-185652128D01*
X94970911Y-185681458D01*
X94970909Y-185681459D01*
X94814387Y-185765123D01*
X94757773Y-185782296D01*
X94644547Y-185816643D01*
X94578362Y-185823162D01*
X94512180Y-185829680D01*
X94423660Y-185829680D01*
X94357478Y-185823162D01*
X94291293Y-185816643D01*
X94178067Y-185782296D01*
X94121453Y-185765123D01*
X93964931Y-185681459D01*
X93964929Y-185681458D01*
X93929191Y-185652128D01*
X93827734Y-185568866D01*
X93744472Y-185467409D01*
X93715142Y-185431671D01*
X93705572Y-185413767D01*
X93631477Y-185275147D01*
X93614304Y-185218533D01*
X93579957Y-185105307D01*
X93562561Y-184928680D01*
X93579957Y-184752053D01*
X93631477Y-184582214D01*
X93631477Y-184582213D01*
X93715141Y-184425691D01*
X93715142Y-184425689D01*
X93744472Y-184389951D01*
X93827734Y-184288494D01*
X93929191Y-184205232D01*
X93964929Y-184175902D01*
X93982833Y-184166332D01*
X94121453Y-184092237D01*
X94178067Y-184075064D01*
X94291293Y-184040717D01*
X94357477Y-184034199D01*
X94423660Y-184027680D01*
X94512180Y-184027680D01*
X94578363Y-184034199D01*
X94578363Y-184034199D01*
G37*
G36*
X137772433Y-161835893D02*
X137862657Y-161853839D01*
X137968267Y-161897585D01*
X138117621Y-161959449D01*
X138347089Y-162112774D01*
X138542226Y-162307911D01*
X138695551Y-162537379D01*
X138801161Y-162792344D01*
X138844856Y-163012012D01*
X138855000Y-163063014D01*
X138855000Y-163338986D01*
X138811306Y-163558656D01*
X138801161Y-163609656D01*
X138695551Y-163864621D01*
X138542226Y-164094089D01*
X138347089Y-164289226D01*
X138117621Y-164442551D01*
X137985781Y-164497161D01*
X137862657Y-164548161D01*
X137772433Y-164566107D01*
X137591988Y-164602000D01*
X137316012Y-164602000D01*
X137135567Y-164566107D01*
X137045343Y-164548161D01*
X136922219Y-164497161D01*
X136790379Y-164442551D01*
X136560911Y-164289226D01*
X136365774Y-164094089D01*
X136212449Y-163864621D01*
X136106839Y-163609656D01*
X136096695Y-163558656D01*
X136053000Y-163338986D01*
X136053000Y-163063014D01*
X136063145Y-163012012D01*
X136106839Y-162792344D01*
X136212449Y-162537379D01*
X136365774Y-162307911D01*
X136560911Y-162112774D01*
X136790379Y-161959449D01*
X136939733Y-161897585D01*
X137045343Y-161853839D01*
X137135567Y-161835893D01*
X137316012Y-161800000D01*
X137591988Y-161800000D01*
X137772433Y-161835893D01*
X137772433Y-161835893D01*
G37*
G36*
X79768433Y-161784893D02*
X79858657Y-161802839D01*
X79964267Y-161846585D01*
X80113621Y-161908449D01*
X80343089Y-162061774D01*
X80538226Y-162256911D01*
X80691551Y-162486379D01*
X80712675Y-162537378D01*
X80797161Y-162741343D01*
X80815107Y-162831567D01*
X80851000Y-163012012D01*
X80851000Y-163287988D01*
X80797161Y-163558656D01*
X80691551Y-163813621D01*
X80538226Y-164043089D01*
X80343089Y-164238226D01*
X80113621Y-164391551D01*
X79990496Y-164442551D01*
X79858657Y-164497161D01*
X79768433Y-164515107D01*
X79587988Y-164551000D01*
X79312012Y-164551000D01*
X79131567Y-164515107D01*
X79041343Y-164497161D01*
X78909504Y-164442551D01*
X78786379Y-164391551D01*
X78556911Y-164238226D01*
X78361774Y-164043089D01*
X78208449Y-163813621D01*
X78102839Y-163558656D01*
X78049000Y-163287988D01*
X78049000Y-163012012D01*
X78084893Y-162831567D01*
X78102839Y-162741343D01*
X78187325Y-162537378D01*
X78208449Y-162486379D01*
X78361774Y-162256911D01*
X78556911Y-162061774D01*
X78786379Y-161908449D01*
X78935733Y-161846585D01*
X79041343Y-161802839D01*
X79131567Y-161784893D01*
X79312012Y-161749000D01*
X79587988Y-161749000D01*
X79768433Y-161784893D01*
X79768433Y-161784893D01*
G37*
G36*
X137752433Y-135825893D02*
X137842657Y-135843839D01*
X137948267Y-135887585D01*
X138097621Y-135949449D01*
X138327089Y-136102774D01*
X138522226Y-136297911D01*
X138675551Y-136527379D01*
X138781161Y-136782344D01*
X138825612Y-137005814D01*
X138835000Y-137053014D01*
X138835000Y-137328986D01*
X138790550Y-137552457D01*
X138781161Y-137599656D01*
X138675551Y-137854621D01*
X138522226Y-138084089D01*
X138327089Y-138279226D01*
X138097621Y-138432551D01*
X137956607Y-138490961D01*
X137842657Y-138538161D01*
X137752433Y-138556107D01*
X137571988Y-138592000D01*
X137296012Y-138592000D01*
X137115567Y-138556107D01*
X137025343Y-138538161D01*
X136911393Y-138490961D01*
X136770379Y-138432551D01*
X136540911Y-138279226D01*
X136345774Y-138084089D01*
X136192449Y-137854621D01*
X136086839Y-137599656D01*
X136077451Y-137552457D01*
X136033000Y-137328986D01*
X136033000Y-137053014D01*
X136042389Y-137005814D01*
X136086839Y-136782344D01*
X136192449Y-136527379D01*
X136345774Y-136297911D01*
X136540911Y-136102774D01*
X136770379Y-135949449D01*
X136919733Y-135887585D01*
X137025343Y-135843839D01*
X137115567Y-135825893D01*
X137296012Y-135790000D01*
X137571988Y-135790000D01*
X137752433Y-135825893D01*
X137752433Y-135825893D01*
G37*
G36*
X79768433Y-135778693D02*
X79858657Y-135796639D01*
X79964267Y-135840385D01*
X80113621Y-135902249D01*
X80343089Y-136055574D01*
X80538226Y-136250711D01*
X80691551Y-136480179D01*
X80753415Y-136629533D01*
X80797161Y-136735143D01*
X80806550Y-136782344D01*
X80851000Y-137005812D01*
X80851000Y-137281788D01*
X80797161Y-137552456D01*
X80691551Y-137807421D01*
X80538226Y-138036889D01*
X80343089Y-138232026D01*
X80113621Y-138385351D01*
X79999670Y-138432551D01*
X79858657Y-138490961D01*
X79768433Y-138508907D01*
X79587988Y-138544800D01*
X79312012Y-138544800D01*
X79131567Y-138508907D01*
X79041343Y-138490961D01*
X78900330Y-138432551D01*
X78786379Y-138385351D01*
X78556911Y-138232026D01*
X78361774Y-138036889D01*
X78208449Y-137807421D01*
X78102839Y-137552456D01*
X78049000Y-137281788D01*
X78049000Y-137005812D01*
X78093450Y-136782344D01*
X78102839Y-136735143D01*
X78146585Y-136629533D01*
X78208449Y-136480179D01*
X78361774Y-136250711D01*
X78556911Y-136055574D01*
X78786379Y-135902249D01*
X78935733Y-135840385D01*
X79041343Y-135796639D01*
X79131567Y-135778693D01*
X79312012Y-135742800D01*
X79587988Y-135742800D01*
X79768433Y-135778693D01*
X79768433Y-135778693D01*
G37*
G36*
X143279256Y-132032298D02*
X143385579Y-132053447D01*
X143686042Y-132177903D01*
X143952852Y-132356180D01*
X143956454Y-132358587D01*
X144186413Y-132588546D01*
X144367098Y-132858960D01*
X144491553Y-133159422D01*
X144555000Y-133478389D01*
X144555000Y-133803611D01*
X144491553Y-134122578D01*
X144367098Y-134423040D01*
X144186413Y-134693454D01*
X143956454Y-134923413D01*
X143956451Y-134923415D01*
X143686042Y-135104097D01*
X143385579Y-135228553D01*
X143279256Y-135249702D01*
X143066611Y-135292000D01*
X142741389Y-135292000D01*
X142528744Y-135249702D01*
X142422421Y-135228553D01*
X142121958Y-135104097D01*
X141851549Y-134923415D01*
X141851546Y-134923413D01*
X141621587Y-134693454D01*
X141440902Y-134423040D01*
X141316447Y-134122578D01*
X141253000Y-133803611D01*
X141253000Y-133478389D01*
X141316447Y-133159422D01*
X141440902Y-132858960D01*
X141621587Y-132588546D01*
X141851546Y-132358587D01*
X141855148Y-132356180D01*
X142121958Y-132177903D01*
X142422421Y-132053447D01*
X142528744Y-132032298D01*
X142741389Y-131990000D01*
X143066611Y-131990000D01*
X143279256Y-132032298D01*
X143279256Y-132032298D01*
G37*
G36*
X85221400Y-131364600D02*
X83419400Y-131364600D01*
X83419400Y-129562600D01*
X85221400Y-129562600D01*
X85221400Y-131364600D01*
X85221400Y-131364600D01*
G37*
G36*
X86970842Y-129569118D02*
X87037027Y-129575637D01*
X87150253Y-129609984D01*
X87206867Y-129627157D01*
X87345487Y-129701252D01*
X87363391Y-129710822D01*
X87399129Y-129740152D01*
X87500586Y-129823414D01*
X87583848Y-129924871D01*
X87613178Y-129960609D01*
X87613179Y-129960611D01*
X87696843Y-130117133D01*
X87696843Y-130117134D01*
X87748363Y-130286973D01*
X87765759Y-130463600D01*
X87748363Y-130640227D01*
X87714016Y-130753453D01*
X87696843Y-130810067D01*
X87622748Y-130948687D01*
X87613178Y-130966591D01*
X87583848Y-131002329D01*
X87500586Y-131103786D01*
X87399129Y-131187048D01*
X87363391Y-131216378D01*
X87363389Y-131216379D01*
X87206867Y-131300043D01*
X87150253Y-131317216D01*
X87037027Y-131351563D01*
X86970843Y-131358081D01*
X86904660Y-131364600D01*
X86816140Y-131364600D01*
X86749957Y-131358081D01*
X86683773Y-131351563D01*
X86570547Y-131317216D01*
X86513933Y-131300043D01*
X86357411Y-131216379D01*
X86357409Y-131216378D01*
X86321671Y-131187048D01*
X86220214Y-131103786D01*
X86136952Y-131002329D01*
X86107622Y-130966591D01*
X86098052Y-130948687D01*
X86023957Y-130810067D01*
X86006784Y-130753453D01*
X85972437Y-130640227D01*
X85955041Y-130463600D01*
X85972437Y-130286973D01*
X86023957Y-130117134D01*
X86023957Y-130117133D01*
X86107621Y-129960611D01*
X86107622Y-129960609D01*
X86136952Y-129924871D01*
X86220214Y-129823414D01*
X86321671Y-129740152D01*
X86357409Y-129710822D01*
X86375313Y-129701252D01*
X86513933Y-129627157D01*
X86570547Y-129609984D01*
X86683773Y-129575637D01*
X86749958Y-129569118D01*
X86816140Y-129562600D01*
X86904660Y-129562600D01*
X86970842Y-129569118D01*
X86970842Y-129569118D01*
G37*
G36*
X89510842Y-129569118D02*
X89577027Y-129575637D01*
X89690253Y-129609984D01*
X89746867Y-129627157D01*
X89885487Y-129701252D01*
X89903391Y-129710822D01*
X89939129Y-129740152D01*
X90040586Y-129823414D01*
X90123848Y-129924871D01*
X90153178Y-129960609D01*
X90153179Y-129960611D01*
X90236843Y-130117133D01*
X90236843Y-130117134D01*
X90288363Y-130286973D01*
X90305759Y-130463600D01*
X90288363Y-130640227D01*
X90254016Y-130753453D01*
X90236843Y-130810067D01*
X90162748Y-130948687D01*
X90153178Y-130966591D01*
X90123848Y-131002329D01*
X90040586Y-131103786D01*
X89939129Y-131187048D01*
X89903391Y-131216378D01*
X89903389Y-131216379D01*
X89746867Y-131300043D01*
X89690253Y-131317216D01*
X89577027Y-131351563D01*
X89510843Y-131358081D01*
X89444660Y-131364600D01*
X89356140Y-131364600D01*
X89289957Y-131358081D01*
X89223773Y-131351563D01*
X89110547Y-131317216D01*
X89053933Y-131300043D01*
X88897411Y-131216379D01*
X88897409Y-131216378D01*
X88861671Y-131187048D01*
X88760214Y-131103786D01*
X88676952Y-131002329D01*
X88647622Y-130966591D01*
X88638052Y-130948687D01*
X88563957Y-130810067D01*
X88546784Y-130753453D01*
X88512437Y-130640227D01*
X88495041Y-130463600D01*
X88512437Y-130286973D01*
X88563957Y-130117134D01*
X88563957Y-130117133D01*
X88647621Y-129960611D01*
X88647622Y-129960609D01*
X88676952Y-129924871D01*
X88760214Y-129823414D01*
X88861671Y-129740152D01*
X88897409Y-129710822D01*
X88915313Y-129701252D01*
X89053933Y-129627157D01*
X89110547Y-129609984D01*
X89223773Y-129575637D01*
X89289958Y-129569118D01*
X89356140Y-129562600D01*
X89444660Y-129562600D01*
X89510842Y-129569118D01*
X89510842Y-129569118D01*
G37*
G36*
X132724442Y-129566518D02*
X132790627Y-129573037D01*
X132903853Y-129607384D01*
X132960467Y-129624557D01*
X133099087Y-129698652D01*
X133116991Y-129708222D01*
X133152729Y-129737552D01*
X133254186Y-129820814D01*
X133337448Y-129922271D01*
X133366778Y-129958009D01*
X133366779Y-129958011D01*
X133450443Y-130114533D01*
X133451232Y-130117134D01*
X133501963Y-130284373D01*
X133519359Y-130461000D01*
X133501963Y-130637627D01*
X133501174Y-130640227D01*
X133450443Y-130807467D01*
X133449053Y-130810067D01*
X133366778Y-130963991D01*
X133364644Y-130966591D01*
X133254186Y-131101186D01*
X133152729Y-131184448D01*
X133116991Y-131213778D01*
X133116989Y-131213779D01*
X132960467Y-131297443D01*
X132903853Y-131314616D01*
X132790627Y-131348963D01*
X132724443Y-131355481D01*
X132658260Y-131362000D01*
X132569740Y-131362000D01*
X132503557Y-131355481D01*
X132437373Y-131348963D01*
X132324147Y-131314616D01*
X132267533Y-131297443D01*
X132111011Y-131213779D01*
X132111009Y-131213778D01*
X132075271Y-131184448D01*
X131973814Y-131101186D01*
X131863356Y-130966591D01*
X131861222Y-130963991D01*
X131778947Y-130810067D01*
X131777557Y-130807467D01*
X131726826Y-130640227D01*
X131726037Y-130637627D01*
X131708641Y-130461000D01*
X131726037Y-130284373D01*
X131776768Y-130117134D01*
X131777557Y-130114533D01*
X131861221Y-129958011D01*
X131861222Y-129958009D01*
X131890552Y-129922271D01*
X131973814Y-129820814D01*
X132075271Y-129737552D01*
X132111009Y-129708222D01*
X132128913Y-129698652D01*
X132267533Y-129624557D01*
X132324147Y-129607384D01*
X132437373Y-129573037D01*
X132503558Y-129566518D01*
X132569740Y-129560000D01*
X132658260Y-129560000D01*
X132724442Y-129566518D01*
X132724442Y-129566518D01*
G37*
G36*
X130184442Y-129566518D02*
X130250627Y-129573037D01*
X130363853Y-129607384D01*
X130420467Y-129624557D01*
X130559087Y-129698652D01*
X130576991Y-129708222D01*
X130612729Y-129737552D01*
X130714186Y-129820814D01*
X130797448Y-129922271D01*
X130826778Y-129958009D01*
X130826779Y-129958011D01*
X130910443Y-130114533D01*
X130911232Y-130117134D01*
X130961963Y-130284373D01*
X130979359Y-130461000D01*
X130961963Y-130637627D01*
X130961174Y-130640227D01*
X130910443Y-130807467D01*
X130909053Y-130810067D01*
X130826778Y-130963991D01*
X130824644Y-130966591D01*
X130714186Y-131101186D01*
X130612729Y-131184448D01*
X130576991Y-131213778D01*
X130576989Y-131213779D01*
X130420467Y-131297443D01*
X130363853Y-131314616D01*
X130250627Y-131348963D01*
X130184443Y-131355481D01*
X130118260Y-131362000D01*
X130029740Y-131362000D01*
X129963557Y-131355481D01*
X129897373Y-131348963D01*
X129784147Y-131314616D01*
X129727533Y-131297443D01*
X129571011Y-131213779D01*
X129571009Y-131213778D01*
X129535271Y-131184448D01*
X129433814Y-131101186D01*
X129323356Y-130966591D01*
X129321222Y-130963991D01*
X129238947Y-130810067D01*
X129237557Y-130807467D01*
X129186826Y-130640227D01*
X129186037Y-130637627D01*
X129168641Y-130461000D01*
X129186037Y-130284373D01*
X129236768Y-130117134D01*
X129237557Y-130114533D01*
X129321221Y-129958011D01*
X129321222Y-129958009D01*
X129350552Y-129922271D01*
X129433814Y-129820814D01*
X129535271Y-129737552D01*
X129571009Y-129708222D01*
X129588913Y-129698652D01*
X129727533Y-129624557D01*
X129784147Y-129607384D01*
X129897373Y-129573037D01*
X129963558Y-129566518D01*
X130029740Y-129560000D01*
X130118260Y-129560000D01*
X130184442Y-129566518D01*
X130184442Y-129566518D01*
G37*
G36*
X128435000Y-131362000D02*
X126633000Y-131362000D01*
X126633000Y-129560000D01*
X128435000Y-129560000D01*
X128435000Y-131362000D01*
X128435000Y-131362000D01*
G37*
M02*
