G04 #@! TF.GenerationSoftware,KiCad,Pcbnew,(5.0.2)-1*
G04 #@! TF.CreationDate,2019-03-17T11:04:46+01:00*
G04 #@! TF.ProjectId,iC880A_Adapter_V1.1,69433838-3041-45f4-9164-61707465725f,rev?*
G04 #@! TF.SameCoordinates,Original*
G04 #@! TF.FileFunction,Legend,Bot*
G04 #@! TF.FilePolarity,Positive*
%FSLAX46Y46*%
G04 Gerber Fmt 4.6, Leading zero omitted, Abs format (unit mm)*
G04 Created by KiCad (PCBNEW (5.0.2)-1) date 17.03.2019 11:04:46*
%MOMM*%
%LPD*%
G01*
G04 APERTURE LIST*
%ADD10C,0.200000*%
%ADD11C,0.300000*%
%ADD12C,0.120000*%
%ADD13C,0.010000*%
%ADD14C,2.802000*%
%ADD15R,1.802000X1.802000*%
%ADD16O,1.802000X1.802000*%
%ADD17C,3.302000*%
G04 APERTURE END LIST*
D10*
X137434000Y-183191000D02*
X137434000Y-180191000D01*
X137434000Y-166191000D02*
X137434000Y-169191000D01*
X137434000Y-160191000D02*
X137434000Y-157191000D01*
X137434000Y-140191000D02*
X137434000Y-143191000D01*
X79450000Y-160150000D02*
X79450000Y-157150000D01*
X79450000Y-140150000D02*
X79450000Y-143150000D01*
X79450000Y-183150000D02*
X79450000Y-180150000D01*
X79450000Y-166150000D02*
X79450000Y-169150000D01*
X82450000Y-163150000D02*
X85450000Y-163150000D01*
X82434000Y-137191000D02*
X85434000Y-137191000D01*
X134434000Y-137191000D02*
X131434000Y-137191000D01*
X134454000Y-163201000D02*
X131454000Y-163201000D01*
X138661142Y-154956680D02*
X139232571Y-155356680D01*
X138661142Y-155642394D02*
X139861142Y-155642394D01*
X139861142Y-155185251D01*
X139804000Y-155070965D01*
X139746857Y-155013822D01*
X139632571Y-154956680D01*
X139461142Y-154956680D01*
X139346857Y-155013822D01*
X139289714Y-155070965D01*
X139232571Y-155185251D01*
X139232571Y-155642394D01*
X138661142Y-153928108D02*
X139289714Y-153928108D01*
X139404000Y-153985251D01*
X139461142Y-154099537D01*
X139461142Y-154328108D01*
X139404000Y-154442394D01*
X138718285Y-153928108D02*
X138661142Y-154042394D01*
X138661142Y-154328108D01*
X138718285Y-154442394D01*
X138832571Y-154499537D01*
X138946857Y-154499537D01*
X139061142Y-154442394D01*
X139118285Y-154328108D01*
X139118285Y-154042394D01*
X139175428Y-153928108D01*
X138718285Y-153413822D02*
X138661142Y-153299537D01*
X138661142Y-153070965D01*
X138718285Y-152956680D01*
X138832571Y-152899537D01*
X138889714Y-152899537D01*
X139004000Y-152956680D01*
X139061142Y-153070965D01*
X139061142Y-153242394D01*
X139118285Y-153356680D01*
X139232571Y-153413822D01*
X139289714Y-153413822D01*
X139404000Y-153356680D01*
X139461142Y-153242394D01*
X139461142Y-153070965D01*
X139404000Y-152956680D01*
X139461142Y-152385251D02*
X138261142Y-152385251D01*
X139404000Y-152385251D02*
X139461142Y-152270965D01*
X139461142Y-152042394D01*
X139404000Y-151928108D01*
X139346857Y-151870965D01*
X139232571Y-151813822D01*
X138889714Y-151813822D01*
X138775428Y-151870965D01*
X138718285Y-151928108D01*
X138661142Y-152042394D01*
X138661142Y-152270965D01*
X138718285Y-152385251D01*
X138661142Y-151299537D02*
X139861142Y-151299537D01*
X139404000Y-151299537D02*
X139461142Y-151185251D01*
X139461142Y-150956680D01*
X139404000Y-150842394D01*
X139346857Y-150785251D01*
X139232571Y-150728108D01*
X138889714Y-150728108D01*
X138775428Y-150785251D01*
X138718285Y-150842394D01*
X138661142Y-150956680D01*
X138661142Y-151185251D01*
X138718285Y-151299537D01*
X138718285Y-149756680D02*
X138661142Y-149870965D01*
X138661142Y-150099537D01*
X138718285Y-150213822D01*
X138832571Y-150270965D01*
X139289714Y-150270965D01*
X139404000Y-150213822D01*
X139461142Y-150099537D01*
X139461142Y-149870965D01*
X139404000Y-149756680D01*
X139289714Y-149699537D01*
X139175428Y-149699537D01*
X139061142Y-150270965D01*
X138661142Y-149185251D02*
X139461142Y-149185251D01*
X139232571Y-149185251D02*
X139346857Y-149128108D01*
X139404000Y-149070965D01*
X139461142Y-148956680D01*
X139461142Y-148842394D01*
X138661142Y-148442394D02*
X139461142Y-148442394D01*
X139232571Y-148442394D02*
X139346857Y-148385251D01*
X139404000Y-148328108D01*
X139461142Y-148213822D01*
X139461142Y-148099537D01*
X139461142Y-147813822D02*
X138661142Y-147528108D01*
X139461142Y-147242394D02*
X138661142Y-147528108D01*
X138375428Y-147642394D01*
X138318285Y-147699537D01*
X138261142Y-147813822D01*
X138661142Y-145870965D02*
X139861142Y-145870965D01*
X139861142Y-145413822D01*
X139804000Y-145299537D01*
X139746857Y-145242394D01*
X139632571Y-145185251D01*
X139461142Y-145185251D01*
X139346857Y-145242394D01*
X139289714Y-145299537D01*
X139232571Y-145413822D01*
X139232571Y-145870965D01*
X138661142Y-144670965D02*
X139461142Y-144670965D01*
X139861142Y-144670965D02*
X139804000Y-144728108D01*
X139746857Y-144670965D01*
X139804000Y-144613822D01*
X139861142Y-144670965D01*
X139746857Y-144670965D01*
X138661142Y-179456680D02*
X139232571Y-179856680D01*
X138661142Y-180142394D02*
X139861142Y-180142394D01*
X139861142Y-179685251D01*
X139804000Y-179570965D01*
X139746857Y-179513822D01*
X139632571Y-179456680D01*
X139461142Y-179456680D01*
X139346857Y-179513822D01*
X139289714Y-179570965D01*
X139232571Y-179685251D01*
X139232571Y-180142394D01*
X138661142Y-178428108D02*
X139289714Y-178428108D01*
X139404000Y-178485251D01*
X139461142Y-178599537D01*
X139461142Y-178828108D01*
X139404000Y-178942394D01*
X138718285Y-178428108D02*
X138661142Y-178542394D01*
X138661142Y-178828108D01*
X138718285Y-178942394D01*
X138832571Y-178999537D01*
X138946857Y-178999537D01*
X139061142Y-178942394D01*
X139118285Y-178828108D01*
X139118285Y-178542394D01*
X139175428Y-178428108D01*
X138718285Y-177913822D02*
X138661142Y-177799537D01*
X138661142Y-177570965D01*
X138718285Y-177456680D01*
X138832571Y-177399537D01*
X138889714Y-177399537D01*
X139004000Y-177456680D01*
X139061142Y-177570965D01*
X139061142Y-177742394D01*
X139118285Y-177856680D01*
X139232571Y-177913822D01*
X139289714Y-177913822D01*
X139404000Y-177856680D01*
X139461142Y-177742394D01*
X139461142Y-177570965D01*
X139404000Y-177456680D01*
X139461142Y-176885251D02*
X138261142Y-176885251D01*
X139404000Y-176885251D02*
X139461142Y-176770965D01*
X139461142Y-176542394D01*
X139404000Y-176428108D01*
X139346857Y-176370965D01*
X139232571Y-176313822D01*
X138889714Y-176313822D01*
X138775428Y-176370965D01*
X138718285Y-176428108D01*
X138661142Y-176542394D01*
X138661142Y-176770965D01*
X138718285Y-176885251D01*
X138661142Y-175799537D02*
X139861142Y-175799537D01*
X139404000Y-175799537D02*
X139461142Y-175685251D01*
X139461142Y-175456680D01*
X139404000Y-175342394D01*
X139346857Y-175285251D01*
X139232571Y-175228108D01*
X138889714Y-175228108D01*
X138775428Y-175285251D01*
X138718285Y-175342394D01*
X138661142Y-175456680D01*
X138661142Y-175685251D01*
X138718285Y-175799537D01*
X138718285Y-174256680D02*
X138661142Y-174370965D01*
X138661142Y-174599537D01*
X138718285Y-174713822D01*
X138832571Y-174770965D01*
X139289714Y-174770965D01*
X139404000Y-174713822D01*
X139461142Y-174599537D01*
X139461142Y-174370965D01*
X139404000Y-174256680D01*
X139289714Y-174199537D01*
X139175428Y-174199537D01*
X139061142Y-174770965D01*
X138661142Y-173685251D02*
X139461142Y-173685251D01*
X139232571Y-173685251D02*
X139346857Y-173628108D01*
X139404000Y-173570965D01*
X139461142Y-173456680D01*
X139461142Y-173342394D01*
X138661142Y-172942394D02*
X139461142Y-172942394D01*
X139232571Y-172942394D02*
X139346857Y-172885251D01*
X139404000Y-172828108D01*
X139461142Y-172713822D01*
X139461142Y-172599537D01*
X139461142Y-172313822D02*
X138661142Y-172028108D01*
X139461142Y-171742394D02*
X138661142Y-172028108D01*
X138375428Y-172142394D01*
X138318285Y-172199537D01*
X138261142Y-172313822D01*
X138661142Y-170370965D02*
X139861142Y-170370965D01*
X139861142Y-169913822D01*
X139804000Y-169799537D01*
X139746857Y-169742394D01*
X139632571Y-169685251D01*
X139461142Y-169685251D01*
X139346857Y-169742394D01*
X139289714Y-169799537D01*
X139232571Y-169913822D01*
X139232571Y-170370965D01*
X138661142Y-169170965D02*
X139461142Y-169170965D01*
X139861142Y-169170965D02*
X139804000Y-169228108D01*
X139746857Y-169170965D01*
X139804000Y-169113822D01*
X139861142Y-169170965D01*
X139746857Y-169170965D01*
X137861142Y-176485251D02*
X137861142Y-175685251D01*
X136661142Y-176485251D01*
X136661142Y-175685251D01*
X136718285Y-174770965D02*
X136661142Y-174885251D01*
X136661142Y-175113822D01*
X136718285Y-175228108D01*
X136832571Y-175285251D01*
X137289714Y-175285251D01*
X137404000Y-175228108D01*
X137461142Y-175113822D01*
X137461142Y-174885251D01*
X137404000Y-174770965D01*
X137289714Y-174713822D01*
X137175428Y-174713822D01*
X137061142Y-175285251D01*
X136661142Y-174199537D02*
X137461142Y-174199537D01*
X137232571Y-174199537D02*
X137346857Y-174142394D01*
X137404000Y-174085251D01*
X137461142Y-173970965D01*
X137461142Y-173856680D01*
X136661142Y-173285251D02*
X136718285Y-173399537D01*
X136775428Y-173456680D01*
X136889714Y-173513822D01*
X137232571Y-173513822D01*
X137346857Y-173456680D01*
X137404000Y-173399537D01*
X137461142Y-173285251D01*
X137461142Y-173113822D01*
X137404000Y-172999537D01*
X137346857Y-172942394D01*
X137232571Y-172885251D01*
X136889714Y-172885251D01*
X136775428Y-172942394D01*
X136718285Y-172999537D01*
X136661142Y-173113822D01*
X136661142Y-173285251D01*
D11*
X124478142Y-147000571D02*
X124335285Y-147000571D01*
X124192428Y-147072000D01*
X124121000Y-147143428D01*
X124049571Y-147286285D01*
X123978142Y-147572000D01*
X123978142Y-147929142D01*
X124049571Y-148214857D01*
X124121000Y-148357714D01*
X124192428Y-148429142D01*
X124335285Y-148500571D01*
X124478142Y-148500571D01*
X124621000Y-148429142D01*
X124692428Y-148357714D01*
X124763857Y-148214857D01*
X124835285Y-147929142D01*
X124835285Y-147572000D01*
X124763857Y-147286285D01*
X124692428Y-147143428D01*
X124621000Y-147072000D01*
X124478142Y-147000571D01*
X123478142Y-147000571D02*
X122478142Y-147000571D01*
X123121000Y-148500571D01*
X119621000Y-147500571D02*
X120763857Y-147929142D01*
X119621000Y-148357714D01*
X118906714Y-147929142D02*
X117763857Y-147929142D01*
X117049571Y-147500571D02*
X115906714Y-147929142D01*
X117049571Y-148357714D01*
X114192428Y-147000571D02*
X113263857Y-147000571D01*
X113763857Y-147572000D01*
X113549571Y-147572000D01*
X113406714Y-147643428D01*
X113335285Y-147714857D01*
X113263857Y-147857714D01*
X113263857Y-148214857D01*
X113335285Y-148357714D01*
X113406714Y-148429142D01*
X113549571Y-148500571D01*
X113978142Y-148500571D01*
X114121000Y-148429142D01*
X114192428Y-148357714D01*
X112406714Y-147643428D02*
X112549571Y-147572000D01*
X112621000Y-147500571D01*
X112692428Y-147357714D01*
X112692428Y-147286285D01*
X112621000Y-147143428D01*
X112549571Y-147072000D01*
X112406714Y-147000571D01*
X112121000Y-147000571D01*
X111978142Y-147072000D01*
X111906714Y-147143428D01*
X111835285Y-147286285D01*
X111835285Y-147357714D01*
X111906714Y-147500571D01*
X111978142Y-147572000D01*
X112121000Y-147643428D01*
X112406714Y-147643428D01*
X112549571Y-147714857D01*
X112621000Y-147786285D01*
X112692428Y-147929142D01*
X112692428Y-148214857D01*
X112621000Y-148357714D01*
X112549571Y-148429142D01*
X112406714Y-148500571D01*
X112121000Y-148500571D01*
X111978142Y-148429142D01*
X111906714Y-148357714D01*
X111835285Y-148214857D01*
X111835285Y-147929142D01*
X111906714Y-147786285D01*
X111978142Y-147714857D01*
X112121000Y-147643428D01*
X110049571Y-148357714D02*
X109978142Y-148429142D01*
X110049571Y-148500571D01*
X110121000Y-148429142D01*
X110049571Y-148357714D01*
X110049571Y-148500571D01*
X109335285Y-148357714D02*
X109263857Y-148429142D01*
X109335285Y-148500571D01*
X109406714Y-148429142D01*
X109335285Y-148357714D01*
X109335285Y-148500571D01*
X108621000Y-148357714D02*
X108549571Y-148429142D01*
X108621000Y-148500571D01*
X108692428Y-148429142D01*
X108621000Y-148357714D01*
X108621000Y-148500571D01*
X105978142Y-147072000D02*
X106121000Y-147000571D01*
X106335285Y-147000571D01*
X106549571Y-147072000D01*
X106692428Y-147214857D01*
X106763857Y-147357714D01*
X106835285Y-147643428D01*
X106835285Y-147857714D01*
X106763857Y-148143428D01*
X106692428Y-148286285D01*
X106549571Y-148429142D01*
X106335285Y-148500571D01*
X106192428Y-148500571D01*
X105978142Y-148429142D01*
X105906714Y-148357714D01*
X105906714Y-147857714D01*
X106192428Y-147857714D01*
X105263857Y-148500571D02*
X105263857Y-147000571D01*
X104692428Y-147000571D01*
X104549571Y-147072000D01*
X104478142Y-147143428D01*
X104406714Y-147286285D01*
X104406714Y-147500571D01*
X104478142Y-147643428D01*
X104549571Y-147714857D01*
X104692428Y-147786285D01*
X105263857Y-147786285D01*
X103763857Y-148500571D02*
X103763857Y-147000571D01*
X102763857Y-147000571D02*
X102478142Y-147000571D01*
X102335285Y-147072000D01*
X102192428Y-147214857D01*
X102121000Y-147500571D01*
X102121000Y-148000571D01*
X102192428Y-148286285D01*
X102335285Y-148429142D01*
X102478142Y-148500571D01*
X102763857Y-148500571D01*
X102906714Y-148429142D01*
X103049571Y-148286285D01*
X103121000Y-148000571D01*
X103121000Y-147500571D01*
X103049571Y-147214857D01*
X102906714Y-147072000D01*
X102763857Y-147000571D01*
X101549571Y-147143428D02*
X101478142Y-147072000D01*
X101335285Y-147000571D01*
X100978142Y-147000571D01*
X100835285Y-147072000D01*
X100763857Y-147143428D01*
X100692428Y-147286285D01*
X100692428Y-147429142D01*
X100763857Y-147643428D01*
X101621000Y-148500571D01*
X100692428Y-148500571D01*
X99763857Y-147000571D02*
X99621000Y-147000571D01*
X99478142Y-147072000D01*
X99406714Y-147143428D01*
X99335285Y-147286285D01*
X99263857Y-147572000D01*
X99263857Y-147929142D01*
X99335285Y-148214857D01*
X99406714Y-148357714D01*
X99478142Y-148429142D01*
X99621000Y-148500571D01*
X99763857Y-148500571D01*
X99906714Y-148429142D01*
X99978142Y-148357714D01*
X100049571Y-148214857D01*
X100121000Y-147929142D01*
X100121000Y-147572000D01*
X100049571Y-147286285D01*
X99978142Y-147143428D01*
X99906714Y-147072000D01*
X99763857Y-147000571D01*
X124478142Y-149550571D02*
X124335285Y-149550571D01*
X124192428Y-149622000D01*
X124121000Y-149693428D01*
X124049571Y-149836285D01*
X123978142Y-150122000D01*
X123978142Y-150479142D01*
X124049571Y-150764857D01*
X124121000Y-150907714D01*
X124192428Y-150979142D01*
X124335285Y-151050571D01*
X124478142Y-151050571D01*
X124621000Y-150979142D01*
X124692428Y-150907714D01*
X124763857Y-150764857D01*
X124835285Y-150479142D01*
X124835285Y-150122000D01*
X124763857Y-149836285D01*
X124692428Y-149693428D01*
X124621000Y-149622000D01*
X124478142Y-149550571D01*
X123121000Y-150193428D02*
X123263857Y-150122000D01*
X123335285Y-150050571D01*
X123406714Y-149907714D01*
X123406714Y-149836285D01*
X123335285Y-149693428D01*
X123263857Y-149622000D01*
X123121000Y-149550571D01*
X122835285Y-149550571D01*
X122692428Y-149622000D01*
X122621000Y-149693428D01*
X122549571Y-149836285D01*
X122549571Y-149907714D01*
X122621000Y-150050571D01*
X122692428Y-150122000D01*
X122835285Y-150193428D01*
X123121000Y-150193428D01*
X123263857Y-150264857D01*
X123335285Y-150336285D01*
X123406714Y-150479142D01*
X123406714Y-150764857D01*
X123335285Y-150907714D01*
X123263857Y-150979142D01*
X123121000Y-151050571D01*
X122835285Y-151050571D01*
X122692428Y-150979142D01*
X122621000Y-150907714D01*
X122549571Y-150764857D01*
X122549571Y-150479142D01*
X122621000Y-150336285D01*
X122692428Y-150264857D01*
X122835285Y-150193428D01*
X119621000Y-150050571D02*
X120763857Y-150479142D01*
X119621000Y-150907714D01*
X118906714Y-150479142D02*
X117763857Y-150479142D01*
X117049571Y-150050571D02*
X115906714Y-150479142D01*
X117049571Y-150907714D01*
X114192428Y-149550571D02*
X113263857Y-149550571D01*
X113763857Y-150122000D01*
X113549571Y-150122000D01*
X113406714Y-150193428D01*
X113335285Y-150264857D01*
X113263857Y-150407714D01*
X113263857Y-150764857D01*
X113335285Y-150907714D01*
X113406714Y-150979142D01*
X113549571Y-151050571D01*
X113978142Y-151050571D01*
X114121000Y-150979142D01*
X114192428Y-150907714D01*
X111978142Y-149550571D02*
X112263857Y-149550571D01*
X112406714Y-149622000D01*
X112478142Y-149693428D01*
X112621000Y-149907714D01*
X112692428Y-150193428D01*
X112692428Y-150764857D01*
X112621000Y-150907714D01*
X112549571Y-150979142D01*
X112406714Y-151050571D01*
X112121000Y-151050571D01*
X111978142Y-150979142D01*
X111906714Y-150907714D01*
X111835285Y-150764857D01*
X111835285Y-150407714D01*
X111906714Y-150264857D01*
X111978142Y-150193428D01*
X112121000Y-150122000D01*
X112406714Y-150122000D01*
X112549571Y-150193428D01*
X112621000Y-150264857D01*
X112692428Y-150407714D01*
X110049571Y-150907714D02*
X109978142Y-150979142D01*
X110049571Y-151050571D01*
X110121000Y-150979142D01*
X110049571Y-150907714D01*
X110049571Y-151050571D01*
X109335285Y-150907714D02*
X109263857Y-150979142D01*
X109335285Y-151050571D01*
X109406714Y-150979142D01*
X109335285Y-150907714D01*
X109335285Y-151050571D01*
X108621000Y-150907714D02*
X108549571Y-150979142D01*
X108621000Y-151050571D01*
X108692428Y-150979142D01*
X108621000Y-150907714D01*
X108621000Y-151050571D01*
X105978142Y-149622000D02*
X106121000Y-149550571D01*
X106335285Y-149550571D01*
X106549571Y-149622000D01*
X106692428Y-149764857D01*
X106763857Y-149907714D01*
X106835285Y-150193428D01*
X106835285Y-150407714D01*
X106763857Y-150693428D01*
X106692428Y-150836285D01*
X106549571Y-150979142D01*
X106335285Y-151050571D01*
X106192428Y-151050571D01*
X105978142Y-150979142D01*
X105906714Y-150907714D01*
X105906714Y-150407714D01*
X106192428Y-150407714D01*
X105263857Y-151050571D02*
X105263857Y-149550571D01*
X104692428Y-149550571D01*
X104549571Y-149622000D01*
X104478142Y-149693428D01*
X104406714Y-149836285D01*
X104406714Y-150050571D01*
X104478142Y-150193428D01*
X104549571Y-150264857D01*
X104692428Y-150336285D01*
X105263857Y-150336285D01*
X103763857Y-151050571D02*
X103763857Y-149550571D01*
X102763857Y-149550571D02*
X102478142Y-149550571D01*
X102335285Y-149622000D01*
X102192428Y-149764857D01*
X102121000Y-150050571D01*
X102121000Y-150550571D01*
X102192428Y-150836285D01*
X102335285Y-150979142D01*
X102478142Y-151050571D01*
X102763857Y-151050571D01*
X102906714Y-150979142D01*
X103049571Y-150836285D01*
X103121000Y-150550571D01*
X103121000Y-150050571D01*
X103049571Y-149764857D01*
X102906714Y-149622000D01*
X102763857Y-149550571D01*
X100692428Y-151050571D02*
X101549571Y-151050571D01*
X101121000Y-151050571D02*
X101121000Y-149550571D01*
X101263857Y-149764857D01*
X101406714Y-149907714D01*
X101549571Y-149979142D01*
X99406714Y-149550571D02*
X99692428Y-149550571D01*
X99835285Y-149622000D01*
X99906714Y-149693428D01*
X100049571Y-149907714D01*
X100121000Y-150193428D01*
X100121000Y-150764857D01*
X100049571Y-150907714D01*
X99978142Y-150979142D01*
X99835285Y-151050571D01*
X99549571Y-151050571D01*
X99406714Y-150979142D01*
X99335285Y-150907714D01*
X99263857Y-150764857D01*
X99263857Y-150407714D01*
X99335285Y-150264857D01*
X99406714Y-150193428D01*
X99549571Y-150122000D01*
X99835285Y-150122000D01*
X99978142Y-150193428D01*
X100049571Y-150264857D01*
X100121000Y-150407714D01*
X124478142Y-152100571D02*
X124335285Y-152100571D01*
X124192428Y-152172000D01*
X124121000Y-152243428D01*
X124049571Y-152386285D01*
X123978142Y-152672000D01*
X123978142Y-153029142D01*
X124049571Y-153314857D01*
X124121000Y-153457714D01*
X124192428Y-153529142D01*
X124335285Y-153600571D01*
X124478142Y-153600571D01*
X124621000Y-153529142D01*
X124692428Y-153457714D01*
X124763857Y-153314857D01*
X124835285Y-153029142D01*
X124835285Y-152672000D01*
X124763857Y-152386285D01*
X124692428Y-152243428D01*
X124621000Y-152172000D01*
X124478142Y-152100571D01*
X123263857Y-153600571D02*
X122978142Y-153600571D01*
X122835285Y-153529142D01*
X122763857Y-153457714D01*
X122621000Y-153243428D01*
X122549571Y-152957714D01*
X122549571Y-152386285D01*
X122621000Y-152243428D01*
X122692428Y-152172000D01*
X122835285Y-152100571D01*
X123121000Y-152100571D01*
X123263857Y-152172000D01*
X123335285Y-152243428D01*
X123406714Y-152386285D01*
X123406714Y-152743428D01*
X123335285Y-152886285D01*
X123263857Y-152957714D01*
X123121000Y-153029142D01*
X122835285Y-153029142D01*
X122692428Y-152957714D01*
X122621000Y-152886285D01*
X122549571Y-152743428D01*
X119621000Y-152600571D02*
X120763857Y-153029142D01*
X119621000Y-153457714D01*
X118906714Y-153029142D02*
X117763857Y-153029142D01*
X117049571Y-152600571D02*
X115906714Y-153029142D01*
X117049571Y-153457714D01*
X114192428Y-152100571D02*
X113263857Y-152100571D01*
X113763857Y-152672000D01*
X113549571Y-152672000D01*
X113406714Y-152743428D01*
X113335285Y-152814857D01*
X113263857Y-152957714D01*
X113263857Y-153314857D01*
X113335285Y-153457714D01*
X113406714Y-153529142D01*
X113549571Y-153600571D01*
X113978142Y-153600571D01*
X114121000Y-153529142D01*
X114192428Y-153457714D01*
X112692428Y-152243428D02*
X112621000Y-152172000D01*
X112478142Y-152100571D01*
X112121000Y-152100571D01*
X111978142Y-152172000D01*
X111906714Y-152243428D01*
X111835285Y-152386285D01*
X111835285Y-152529142D01*
X111906714Y-152743428D01*
X112763857Y-153600571D01*
X111835285Y-153600571D01*
X110049571Y-153457714D02*
X109978142Y-153529142D01*
X110049571Y-153600571D01*
X110121000Y-153529142D01*
X110049571Y-153457714D01*
X110049571Y-153600571D01*
X109335285Y-153457714D02*
X109263857Y-153529142D01*
X109335285Y-153600571D01*
X109406714Y-153529142D01*
X109335285Y-153457714D01*
X109335285Y-153600571D01*
X108621000Y-153457714D02*
X108549571Y-153529142D01*
X108621000Y-153600571D01*
X108692428Y-153529142D01*
X108621000Y-153457714D01*
X108621000Y-153600571D01*
X105978142Y-152172000D02*
X106121000Y-152100571D01*
X106335285Y-152100571D01*
X106549571Y-152172000D01*
X106692428Y-152314857D01*
X106763857Y-152457714D01*
X106835285Y-152743428D01*
X106835285Y-152957714D01*
X106763857Y-153243428D01*
X106692428Y-153386285D01*
X106549571Y-153529142D01*
X106335285Y-153600571D01*
X106192428Y-153600571D01*
X105978142Y-153529142D01*
X105906714Y-153457714D01*
X105906714Y-152957714D01*
X106192428Y-152957714D01*
X105263857Y-153600571D02*
X105263857Y-152100571D01*
X104692428Y-152100571D01*
X104549571Y-152172000D01*
X104478142Y-152243428D01*
X104406714Y-152386285D01*
X104406714Y-152600571D01*
X104478142Y-152743428D01*
X104549571Y-152814857D01*
X104692428Y-152886285D01*
X105263857Y-152886285D01*
X103763857Y-153600571D02*
X103763857Y-152100571D01*
X102763857Y-152100571D02*
X102478142Y-152100571D01*
X102335285Y-152172000D01*
X102192428Y-152314857D01*
X102121000Y-152600571D01*
X102121000Y-153100571D01*
X102192428Y-153386285D01*
X102335285Y-153529142D01*
X102478142Y-153600571D01*
X102763857Y-153600571D01*
X102906714Y-153529142D01*
X103049571Y-153386285D01*
X103121000Y-153100571D01*
X103121000Y-152600571D01*
X103049571Y-152314857D01*
X102906714Y-152172000D01*
X102763857Y-152100571D01*
X100692428Y-153600571D02*
X101549571Y-153600571D01*
X101121000Y-153600571D02*
X101121000Y-152100571D01*
X101263857Y-152314857D01*
X101406714Y-152457714D01*
X101549571Y-152529142D01*
X100121000Y-152243428D02*
X100049571Y-152172000D01*
X99906714Y-152100571D01*
X99549571Y-152100571D01*
X99406714Y-152172000D01*
X99335285Y-152243428D01*
X99263857Y-152386285D01*
X99263857Y-152529142D01*
X99335285Y-152743428D01*
X100192428Y-153600571D01*
X99263857Y-153600571D01*
X123978142Y-156150571D02*
X124835285Y-156150571D01*
X124406714Y-156150571D02*
X124406714Y-154650571D01*
X124549571Y-154864857D01*
X124692428Y-155007714D01*
X124835285Y-155079142D01*
X123049571Y-154650571D02*
X122906714Y-154650571D01*
X122763857Y-154722000D01*
X122692428Y-154793428D01*
X122621000Y-154936285D01*
X122549571Y-155222000D01*
X122549571Y-155579142D01*
X122621000Y-155864857D01*
X122692428Y-156007714D01*
X122763857Y-156079142D01*
X122906714Y-156150571D01*
X123049571Y-156150571D01*
X123192428Y-156079142D01*
X123263857Y-156007714D01*
X123335285Y-155864857D01*
X123406714Y-155579142D01*
X123406714Y-155222000D01*
X123335285Y-154936285D01*
X123263857Y-154793428D01*
X123192428Y-154722000D01*
X123049571Y-154650571D01*
X119621000Y-155150571D02*
X120763857Y-155579142D01*
X119621000Y-156007714D01*
X118906714Y-155579142D02*
X117763857Y-155579142D01*
X117049571Y-155150571D02*
X115906714Y-155579142D01*
X117049571Y-156007714D01*
X114192428Y-154650571D02*
X113263857Y-154650571D01*
X113763857Y-155222000D01*
X113549571Y-155222000D01*
X113406714Y-155293428D01*
X113335285Y-155364857D01*
X113263857Y-155507714D01*
X113263857Y-155864857D01*
X113335285Y-156007714D01*
X113406714Y-156079142D01*
X113549571Y-156150571D01*
X113978142Y-156150571D01*
X114121000Y-156079142D01*
X114192428Y-156007714D01*
X111835285Y-156150571D02*
X112692428Y-156150571D01*
X112263857Y-156150571D02*
X112263857Y-154650571D01*
X112406714Y-154864857D01*
X112549571Y-155007714D01*
X112692428Y-155079142D01*
X110049571Y-156007714D02*
X109978142Y-156079142D01*
X110049571Y-156150571D01*
X110121000Y-156079142D01*
X110049571Y-156007714D01*
X110049571Y-156150571D01*
X109335285Y-156007714D02*
X109263857Y-156079142D01*
X109335285Y-156150571D01*
X109406714Y-156079142D01*
X109335285Y-156007714D01*
X109335285Y-156150571D01*
X108621000Y-156007714D02*
X108549571Y-156079142D01*
X108621000Y-156150571D01*
X108692428Y-156079142D01*
X108621000Y-156007714D01*
X108621000Y-156150571D01*
X105978142Y-154722000D02*
X106121000Y-154650571D01*
X106335285Y-154650571D01*
X106549571Y-154722000D01*
X106692428Y-154864857D01*
X106763857Y-155007714D01*
X106835285Y-155293428D01*
X106835285Y-155507714D01*
X106763857Y-155793428D01*
X106692428Y-155936285D01*
X106549571Y-156079142D01*
X106335285Y-156150571D01*
X106192428Y-156150571D01*
X105978142Y-156079142D01*
X105906714Y-156007714D01*
X105906714Y-155507714D01*
X106192428Y-155507714D01*
X105263857Y-156150571D02*
X105263857Y-154650571D01*
X104692428Y-154650571D01*
X104549571Y-154722000D01*
X104478142Y-154793428D01*
X104406714Y-154936285D01*
X104406714Y-155150571D01*
X104478142Y-155293428D01*
X104549571Y-155364857D01*
X104692428Y-155436285D01*
X105263857Y-155436285D01*
X103763857Y-156150571D02*
X103763857Y-154650571D01*
X102763857Y-154650571D02*
X102478142Y-154650571D01*
X102335285Y-154722000D01*
X102192428Y-154864857D01*
X102121000Y-155150571D01*
X102121000Y-155650571D01*
X102192428Y-155936285D01*
X102335285Y-156079142D01*
X102478142Y-156150571D01*
X102763857Y-156150571D01*
X102906714Y-156079142D01*
X103049571Y-155936285D01*
X103121000Y-155650571D01*
X103121000Y-155150571D01*
X103049571Y-154864857D01*
X102906714Y-154722000D01*
X102763857Y-154650571D01*
X100835285Y-154650571D02*
X101121000Y-154650571D01*
X101263857Y-154722000D01*
X101335285Y-154793428D01*
X101478142Y-155007714D01*
X101549571Y-155293428D01*
X101549571Y-155864857D01*
X101478142Y-156007714D01*
X101406714Y-156079142D01*
X101263857Y-156150571D01*
X100978142Y-156150571D01*
X100835285Y-156079142D01*
X100763857Y-156007714D01*
X100692428Y-155864857D01*
X100692428Y-155507714D01*
X100763857Y-155364857D01*
X100835285Y-155293428D01*
X100978142Y-155222000D01*
X101263857Y-155222000D01*
X101406714Y-155293428D01*
X101478142Y-155364857D01*
X101549571Y-155507714D01*
X123978142Y-158700571D02*
X124835285Y-158700571D01*
X124406714Y-158700571D02*
X124406714Y-157200571D01*
X124549571Y-157414857D01*
X124692428Y-157557714D01*
X124835285Y-157629142D01*
X122549571Y-158700571D02*
X123406714Y-158700571D01*
X122978142Y-158700571D02*
X122978142Y-157200571D01*
X123121000Y-157414857D01*
X123263857Y-157557714D01*
X123406714Y-157629142D01*
X119621000Y-157700571D02*
X120763857Y-158129142D01*
X119621000Y-158557714D01*
X118906714Y-158129142D02*
X117763857Y-158129142D01*
X117049571Y-157700571D02*
X115906714Y-158129142D01*
X117049571Y-158557714D01*
X114121000Y-157343428D02*
X114049571Y-157272000D01*
X113906714Y-157200571D01*
X113549571Y-157200571D01*
X113406714Y-157272000D01*
X113335285Y-157343428D01*
X113263857Y-157486285D01*
X113263857Y-157629142D01*
X113335285Y-157843428D01*
X114192428Y-158700571D01*
X113263857Y-158700571D01*
X112549571Y-158700571D02*
X112263857Y-158700571D01*
X112121000Y-158629142D01*
X112049571Y-158557714D01*
X111906714Y-158343428D01*
X111835285Y-158057714D01*
X111835285Y-157486285D01*
X111906714Y-157343428D01*
X111978142Y-157272000D01*
X112121000Y-157200571D01*
X112406714Y-157200571D01*
X112549571Y-157272000D01*
X112621000Y-157343428D01*
X112692428Y-157486285D01*
X112692428Y-157843428D01*
X112621000Y-157986285D01*
X112549571Y-158057714D01*
X112406714Y-158129142D01*
X112121000Y-158129142D01*
X111978142Y-158057714D01*
X111906714Y-157986285D01*
X111835285Y-157843428D01*
X110049571Y-158557714D02*
X109978142Y-158629142D01*
X110049571Y-158700571D01*
X110121000Y-158629142D01*
X110049571Y-158557714D01*
X110049571Y-158700571D01*
X109335285Y-158557714D02*
X109263857Y-158629142D01*
X109335285Y-158700571D01*
X109406714Y-158629142D01*
X109335285Y-158557714D01*
X109335285Y-158700571D01*
X108621000Y-158557714D02*
X108549571Y-158629142D01*
X108621000Y-158700571D01*
X108692428Y-158629142D01*
X108621000Y-158557714D01*
X108621000Y-158700571D01*
X105978142Y-157272000D02*
X106121000Y-157200571D01*
X106335285Y-157200571D01*
X106549571Y-157272000D01*
X106692428Y-157414857D01*
X106763857Y-157557714D01*
X106835285Y-157843428D01*
X106835285Y-158057714D01*
X106763857Y-158343428D01*
X106692428Y-158486285D01*
X106549571Y-158629142D01*
X106335285Y-158700571D01*
X106192428Y-158700571D01*
X105978142Y-158629142D01*
X105906714Y-158557714D01*
X105906714Y-158057714D01*
X106192428Y-158057714D01*
X105263857Y-158700571D02*
X105263857Y-157200571D01*
X104692428Y-157200571D01*
X104549571Y-157272000D01*
X104478142Y-157343428D01*
X104406714Y-157486285D01*
X104406714Y-157700571D01*
X104478142Y-157843428D01*
X104549571Y-157914857D01*
X104692428Y-157986285D01*
X105263857Y-157986285D01*
X103763857Y-158700571D02*
X103763857Y-157200571D01*
X102763857Y-157200571D02*
X102478142Y-157200571D01*
X102335285Y-157272000D01*
X102192428Y-157414857D01*
X102121000Y-157700571D01*
X102121000Y-158200571D01*
X102192428Y-158486285D01*
X102335285Y-158629142D01*
X102478142Y-158700571D01*
X102763857Y-158700571D01*
X102906714Y-158629142D01*
X103049571Y-158486285D01*
X103121000Y-158200571D01*
X103121000Y-157700571D01*
X103049571Y-157414857D01*
X102906714Y-157272000D01*
X102763857Y-157200571D01*
X100763857Y-157200571D02*
X101478142Y-157200571D01*
X101549571Y-157914857D01*
X101478142Y-157843428D01*
X101335285Y-157772000D01*
X100978142Y-157772000D01*
X100835285Y-157843428D01*
X100763857Y-157914857D01*
X100692428Y-158057714D01*
X100692428Y-158414857D01*
X100763857Y-158557714D01*
X100835285Y-158629142D01*
X100978142Y-158700571D01*
X101335285Y-158700571D01*
X101478142Y-158629142D01*
X101549571Y-158557714D01*
X123978142Y-161250571D02*
X124835285Y-161250571D01*
X124406714Y-161250571D02*
X124406714Y-159750571D01*
X124549571Y-159964857D01*
X124692428Y-160107714D01*
X124835285Y-160179142D01*
X123478142Y-159750571D02*
X122549571Y-159750571D01*
X123049571Y-160322000D01*
X122835285Y-160322000D01*
X122692428Y-160393428D01*
X122621000Y-160464857D01*
X122549571Y-160607714D01*
X122549571Y-160964857D01*
X122621000Y-161107714D01*
X122692428Y-161179142D01*
X122835285Y-161250571D01*
X123263857Y-161250571D01*
X123406714Y-161179142D01*
X123478142Y-161107714D01*
X119621000Y-160250571D02*
X120763857Y-160679142D01*
X119621000Y-161107714D01*
X118906714Y-160679142D02*
X117763857Y-160679142D01*
X117049571Y-160250571D02*
X115906714Y-160679142D01*
X117049571Y-161107714D01*
X114121000Y-159893428D02*
X114049571Y-159822000D01*
X113906714Y-159750571D01*
X113549571Y-159750571D01*
X113406714Y-159822000D01*
X113335285Y-159893428D01*
X113263857Y-160036285D01*
X113263857Y-160179142D01*
X113335285Y-160393428D01*
X114192428Y-161250571D01*
X113263857Y-161250571D01*
X112692428Y-159893428D02*
X112621000Y-159822000D01*
X112478142Y-159750571D01*
X112121000Y-159750571D01*
X111978142Y-159822000D01*
X111906714Y-159893428D01*
X111835285Y-160036285D01*
X111835285Y-160179142D01*
X111906714Y-160393428D01*
X112763857Y-161250571D01*
X111835285Y-161250571D01*
X110049571Y-161107714D02*
X109978142Y-161179142D01*
X110049571Y-161250571D01*
X110121000Y-161179142D01*
X110049571Y-161107714D01*
X110049571Y-161250571D01*
X109335285Y-161107714D02*
X109263857Y-161179142D01*
X109335285Y-161250571D01*
X109406714Y-161179142D01*
X109335285Y-161107714D01*
X109335285Y-161250571D01*
X108621000Y-161107714D02*
X108549571Y-161179142D01*
X108621000Y-161250571D01*
X108692428Y-161179142D01*
X108621000Y-161107714D01*
X108621000Y-161250571D01*
X105978142Y-159822000D02*
X106121000Y-159750571D01*
X106335285Y-159750571D01*
X106549571Y-159822000D01*
X106692428Y-159964857D01*
X106763857Y-160107714D01*
X106835285Y-160393428D01*
X106835285Y-160607714D01*
X106763857Y-160893428D01*
X106692428Y-161036285D01*
X106549571Y-161179142D01*
X106335285Y-161250571D01*
X106192428Y-161250571D01*
X105978142Y-161179142D01*
X105906714Y-161107714D01*
X105906714Y-160607714D01*
X106192428Y-160607714D01*
X105263857Y-161250571D02*
X105263857Y-159750571D01*
X104692428Y-159750571D01*
X104549571Y-159822000D01*
X104478142Y-159893428D01*
X104406714Y-160036285D01*
X104406714Y-160250571D01*
X104478142Y-160393428D01*
X104549571Y-160464857D01*
X104692428Y-160536285D01*
X105263857Y-160536285D01*
X103763857Y-161250571D02*
X103763857Y-159750571D01*
X102763857Y-159750571D02*
X102478142Y-159750571D01*
X102335285Y-159822000D01*
X102192428Y-159964857D01*
X102121000Y-160250571D01*
X102121000Y-160750571D01*
X102192428Y-161036285D01*
X102335285Y-161179142D01*
X102478142Y-161250571D01*
X102763857Y-161250571D01*
X102906714Y-161179142D01*
X103049571Y-161036285D01*
X103121000Y-160750571D01*
X103121000Y-160250571D01*
X103049571Y-159964857D01*
X102906714Y-159822000D01*
X102763857Y-159750571D01*
X101549571Y-159893428D02*
X101478142Y-159822000D01*
X101335285Y-159750571D01*
X100978142Y-159750571D01*
X100835285Y-159822000D01*
X100763857Y-159893428D01*
X100692428Y-160036285D01*
X100692428Y-160179142D01*
X100763857Y-160393428D01*
X101621000Y-161250571D01*
X100692428Y-161250571D01*
X99335285Y-159750571D02*
X100049571Y-159750571D01*
X100121000Y-160464857D01*
X100049571Y-160393428D01*
X99906714Y-160322000D01*
X99549571Y-160322000D01*
X99406714Y-160393428D01*
X99335285Y-160464857D01*
X99263857Y-160607714D01*
X99263857Y-160964857D01*
X99335285Y-161107714D01*
X99406714Y-161179142D01*
X99549571Y-161250571D01*
X99906714Y-161250571D01*
X100049571Y-161179142D01*
X100121000Y-161107714D01*
X98621000Y-160679142D02*
X97478142Y-160679142D01*
X95906714Y-161250571D02*
X96406714Y-160536285D01*
X96763857Y-161250571D02*
X96763857Y-159750571D01*
X96192428Y-159750571D01*
X96049571Y-159822000D01*
X95978142Y-159893428D01*
X95906714Y-160036285D01*
X95906714Y-160250571D01*
X95978142Y-160393428D01*
X96049571Y-160464857D01*
X96192428Y-160536285D01*
X96763857Y-160536285D01*
X94692428Y-161179142D02*
X94835285Y-161250571D01*
X95121000Y-161250571D01*
X95263857Y-161179142D01*
X95335285Y-161036285D01*
X95335285Y-160464857D01*
X95263857Y-160322000D01*
X95121000Y-160250571D01*
X94835285Y-160250571D01*
X94692428Y-160322000D01*
X94621000Y-160464857D01*
X94621000Y-160607714D01*
X95335285Y-160750571D01*
X94049571Y-161179142D02*
X93906714Y-161250571D01*
X93621000Y-161250571D01*
X93478142Y-161179142D01*
X93406714Y-161036285D01*
X93406714Y-160964857D01*
X93478142Y-160822000D01*
X93621000Y-160750571D01*
X93835285Y-160750571D01*
X93978142Y-160679142D01*
X94049571Y-160536285D01*
X94049571Y-160464857D01*
X93978142Y-160322000D01*
X93835285Y-160250571D01*
X93621000Y-160250571D01*
X93478142Y-160322000D01*
X92192428Y-161179142D02*
X92335285Y-161250571D01*
X92621000Y-161250571D01*
X92763857Y-161179142D01*
X92835285Y-161036285D01*
X92835285Y-160464857D01*
X92763857Y-160322000D01*
X92621000Y-160250571D01*
X92335285Y-160250571D01*
X92192428Y-160322000D01*
X92121000Y-160464857D01*
X92121000Y-160607714D01*
X92835285Y-160750571D01*
X91692428Y-160250571D02*
X91121000Y-160250571D01*
X91478142Y-159750571D02*
X91478142Y-161036285D01*
X91406714Y-161179142D01*
X91263857Y-161250571D01*
X91121000Y-161250571D01*
X123978142Y-163800571D02*
X124835285Y-163800571D01*
X124406714Y-163800571D02*
X124406714Y-162300571D01*
X124549571Y-162514857D01*
X124692428Y-162657714D01*
X124835285Y-162729142D01*
X122692428Y-162800571D02*
X122692428Y-163800571D01*
X123049571Y-162229142D02*
X123406714Y-163300571D01*
X122478142Y-163300571D01*
X119621000Y-162800571D02*
X120763857Y-163229142D01*
X119621000Y-163657714D01*
X118906714Y-163229142D02*
X117763857Y-163229142D01*
X117049571Y-162800571D02*
X115906714Y-163229142D01*
X117049571Y-163657714D01*
X114121000Y-162443428D02*
X114049571Y-162372000D01*
X113906714Y-162300571D01*
X113549571Y-162300571D01*
X113406714Y-162372000D01*
X113335285Y-162443428D01*
X113263857Y-162586285D01*
X113263857Y-162729142D01*
X113335285Y-162943428D01*
X114192428Y-163800571D01*
X113263857Y-163800571D01*
X112763857Y-162300571D02*
X111835285Y-162300571D01*
X112335285Y-162872000D01*
X112121000Y-162872000D01*
X111978142Y-162943428D01*
X111906714Y-163014857D01*
X111835285Y-163157714D01*
X111835285Y-163514857D01*
X111906714Y-163657714D01*
X111978142Y-163729142D01*
X112121000Y-163800571D01*
X112549571Y-163800571D01*
X112692428Y-163729142D01*
X112763857Y-163657714D01*
X110049571Y-163657714D02*
X109978142Y-163729142D01*
X110049571Y-163800571D01*
X110121000Y-163729142D01*
X110049571Y-163657714D01*
X110049571Y-163800571D01*
X109335285Y-163657714D02*
X109263857Y-163729142D01*
X109335285Y-163800571D01*
X109406714Y-163729142D01*
X109335285Y-163657714D01*
X109335285Y-163800571D01*
X108621000Y-163657714D02*
X108549571Y-163729142D01*
X108621000Y-163800571D01*
X108692428Y-163729142D01*
X108621000Y-163657714D01*
X108621000Y-163800571D01*
X105978142Y-162372000D02*
X106121000Y-162300571D01*
X106335285Y-162300571D01*
X106549571Y-162372000D01*
X106692428Y-162514857D01*
X106763857Y-162657714D01*
X106835285Y-162943428D01*
X106835285Y-163157714D01*
X106763857Y-163443428D01*
X106692428Y-163586285D01*
X106549571Y-163729142D01*
X106335285Y-163800571D01*
X106192428Y-163800571D01*
X105978142Y-163729142D01*
X105906714Y-163657714D01*
X105906714Y-163157714D01*
X106192428Y-163157714D01*
X105263857Y-163800571D02*
X105263857Y-162300571D01*
X104692428Y-162300571D01*
X104549571Y-162372000D01*
X104478142Y-162443428D01*
X104406714Y-162586285D01*
X104406714Y-162800571D01*
X104478142Y-162943428D01*
X104549571Y-163014857D01*
X104692428Y-163086285D01*
X105263857Y-163086285D01*
X103763857Y-163800571D02*
X103763857Y-162300571D01*
X102763857Y-162300571D02*
X102478142Y-162300571D01*
X102335285Y-162372000D01*
X102192428Y-162514857D01*
X102121000Y-162800571D01*
X102121000Y-163300571D01*
X102192428Y-163586285D01*
X102335285Y-163729142D01*
X102478142Y-163800571D01*
X102763857Y-163800571D01*
X102906714Y-163729142D01*
X103049571Y-163586285D01*
X103121000Y-163300571D01*
X103121000Y-162800571D01*
X103049571Y-162514857D01*
X102906714Y-162372000D01*
X102763857Y-162300571D01*
X100692428Y-163800571D02*
X101549571Y-163800571D01*
X101121000Y-163800571D02*
X101121000Y-162300571D01*
X101263857Y-162514857D01*
X101406714Y-162657714D01*
X101549571Y-162729142D01*
X99263857Y-163800571D02*
X100121000Y-163800571D01*
X99692428Y-163800571D02*
X99692428Y-162300571D01*
X99835285Y-162514857D01*
X99978142Y-162657714D01*
X100121000Y-162729142D01*
X98621000Y-163229142D02*
X97478142Y-163229142D01*
X95906714Y-163657714D02*
X95978142Y-163729142D01*
X96192428Y-163800571D01*
X96335285Y-163800571D01*
X96549571Y-163729142D01*
X96692428Y-163586285D01*
X96763857Y-163443428D01*
X96835285Y-163157714D01*
X96835285Y-162943428D01*
X96763857Y-162657714D01*
X96692428Y-162514857D01*
X96549571Y-162372000D01*
X96335285Y-162300571D01*
X96192428Y-162300571D01*
X95978142Y-162372000D01*
X95906714Y-162443428D01*
X94549571Y-163800571D02*
X95263857Y-163800571D01*
X95263857Y-162300571D01*
X94049571Y-163800571D02*
X94049571Y-162300571D01*
X93192428Y-163800571D02*
X93835285Y-162943428D01*
X93192428Y-162300571D02*
X94049571Y-163157714D01*
X123978142Y-166350571D02*
X124835285Y-166350571D01*
X124406714Y-166350571D02*
X124406714Y-164850571D01*
X124549571Y-165064857D01*
X124692428Y-165207714D01*
X124835285Y-165279142D01*
X122621000Y-164850571D02*
X123335285Y-164850571D01*
X123406714Y-165564857D01*
X123335285Y-165493428D01*
X123192428Y-165422000D01*
X122835285Y-165422000D01*
X122692428Y-165493428D01*
X122621000Y-165564857D01*
X122549571Y-165707714D01*
X122549571Y-166064857D01*
X122621000Y-166207714D01*
X122692428Y-166279142D01*
X122835285Y-166350571D01*
X123192428Y-166350571D01*
X123335285Y-166279142D01*
X123406714Y-166207714D01*
X119621000Y-165350571D02*
X120763857Y-165779142D01*
X119621000Y-166207714D01*
X118906714Y-165779142D02*
X117763857Y-165779142D01*
X117049571Y-165350571D02*
X115906714Y-165779142D01*
X117049571Y-166207714D01*
X114120999Y-164993428D02*
X114049571Y-164922000D01*
X113906714Y-164850571D01*
X113549571Y-164850571D01*
X113406714Y-164922000D01*
X113335285Y-164993428D01*
X113263857Y-165136285D01*
X113263857Y-165279142D01*
X113335285Y-165493428D01*
X114192428Y-166350571D01*
X113263857Y-166350571D01*
X111835285Y-166350571D02*
X112692428Y-166350571D01*
X112263857Y-166350571D02*
X112263857Y-164850571D01*
X112406714Y-165064857D01*
X112549571Y-165207714D01*
X112692428Y-165279142D01*
X110049571Y-166207714D02*
X109978142Y-166279142D01*
X110049571Y-166350571D01*
X110120999Y-166279142D01*
X110049571Y-166207714D01*
X110049571Y-166350571D01*
X109335285Y-166207714D02*
X109263857Y-166279142D01*
X109335285Y-166350571D01*
X109406714Y-166279142D01*
X109335285Y-166207714D01*
X109335285Y-166350571D01*
X108620999Y-166207714D02*
X108549571Y-166279142D01*
X108620999Y-166350571D01*
X108692428Y-166279142D01*
X108620999Y-166207714D01*
X108620999Y-166350571D01*
X105978142Y-164922000D02*
X106120999Y-164850571D01*
X106335285Y-164850571D01*
X106549571Y-164922000D01*
X106692428Y-165064857D01*
X106763857Y-165207714D01*
X106835285Y-165493428D01*
X106835285Y-165707714D01*
X106763857Y-165993428D01*
X106692428Y-166136285D01*
X106549571Y-166279142D01*
X106335285Y-166350571D01*
X106192428Y-166350571D01*
X105978142Y-166279142D01*
X105906714Y-166207714D01*
X105906714Y-165707714D01*
X106192428Y-165707714D01*
X105263857Y-166350571D02*
X105263857Y-164850571D01*
X104692428Y-164850571D01*
X104549571Y-164922000D01*
X104478142Y-164993428D01*
X104406714Y-165136285D01*
X104406714Y-165350571D01*
X104478142Y-165493428D01*
X104549571Y-165564857D01*
X104692428Y-165636285D01*
X105263857Y-165636285D01*
X103763857Y-166350571D02*
X103763857Y-164850571D01*
X102763857Y-164850571D02*
X102478142Y-164850571D01*
X102335285Y-164922000D01*
X102192428Y-165064857D01*
X102120999Y-165350571D01*
X102120999Y-165850571D01*
X102192428Y-166136285D01*
X102335285Y-166279142D01*
X102478142Y-166350571D01*
X102763857Y-166350571D01*
X102906714Y-166279142D01*
X103049571Y-166136285D01*
X103120999Y-165850571D01*
X103120999Y-165350571D01*
X103049571Y-165064857D01*
X102906714Y-164922000D01*
X102763857Y-164850571D01*
X101406714Y-166350571D02*
X101120999Y-166350571D01*
X100978142Y-166279142D01*
X100906714Y-166207714D01*
X100763857Y-165993428D01*
X100692428Y-165707714D01*
X100692428Y-165136285D01*
X100763857Y-164993428D01*
X100835285Y-164922000D01*
X100978142Y-164850571D01*
X101263857Y-164850571D01*
X101406714Y-164922000D01*
X101478142Y-164993428D01*
X101549571Y-165136285D01*
X101549571Y-165493428D01*
X101478142Y-165636285D01*
X101406714Y-165707714D01*
X101263857Y-165779142D01*
X100978142Y-165779142D01*
X100835285Y-165707714D01*
X100763857Y-165636285D01*
X100692428Y-165493428D01*
X100049571Y-165779142D02*
X98906714Y-165779142D01*
X98192428Y-166350571D02*
X98192428Y-164850571D01*
X97692428Y-165922000D01*
X97192428Y-164850571D01*
X97192428Y-166350571D01*
X96478142Y-166350571D02*
X96478142Y-164850571D01*
X95835285Y-166279142D02*
X95620999Y-166350571D01*
X95263857Y-166350571D01*
X95120999Y-166279142D01*
X95049571Y-166207714D01*
X94978142Y-166064857D01*
X94978142Y-165922000D01*
X95049571Y-165779142D01*
X95120999Y-165707714D01*
X95263857Y-165636285D01*
X95549571Y-165564857D01*
X95692428Y-165493428D01*
X95763857Y-165422000D01*
X95835285Y-165279142D01*
X95835285Y-165136285D01*
X95763857Y-164993428D01*
X95692428Y-164922000D01*
X95549571Y-164850571D01*
X95192428Y-164850571D01*
X94978142Y-164922000D01*
X94049571Y-164850571D02*
X93763857Y-164850571D01*
X93620999Y-164922000D01*
X93478142Y-165064857D01*
X93406714Y-165350571D01*
X93406714Y-165850571D01*
X93478142Y-166136285D01*
X93620999Y-166279142D01*
X93763857Y-166350571D01*
X94049571Y-166350571D01*
X94192428Y-166279142D01*
X94335285Y-166136285D01*
X94406714Y-165850571D01*
X94406714Y-165350571D01*
X94335285Y-165064857D01*
X94192428Y-164922000D01*
X94049571Y-164850571D01*
X123978142Y-168900571D02*
X124835285Y-168900571D01*
X124406714Y-168900571D02*
X124406714Y-167400571D01*
X124549571Y-167614857D01*
X124692428Y-167757714D01*
X124835285Y-167829142D01*
X122692428Y-167400571D02*
X122978142Y-167400571D01*
X123121000Y-167472000D01*
X123192428Y-167543428D01*
X123335285Y-167757714D01*
X123406714Y-168043428D01*
X123406714Y-168614857D01*
X123335285Y-168757714D01*
X123263857Y-168829142D01*
X123121000Y-168900571D01*
X122835285Y-168900571D01*
X122692428Y-168829142D01*
X122621000Y-168757714D01*
X122549571Y-168614857D01*
X122549571Y-168257714D01*
X122621000Y-168114857D01*
X122692428Y-168043428D01*
X122835285Y-167972000D01*
X123121000Y-167972000D01*
X123263857Y-168043428D01*
X123335285Y-168114857D01*
X123406714Y-168257714D01*
X119621000Y-167900571D02*
X120763857Y-168329142D01*
X119621000Y-168757714D01*
X118906714Y-168329142D02*
X117763857Y-168329142D01*
X117049571Y-167900571D02*
X115906714Y-168329142D01*
X117049571Y-168757714D01*
X113263857Y-168900571D02*
X114121000Y-168900571D01*
X113692428Y-168900571D02*
X113692428Y-167400571D01*
X113835285Y-167614857D01*
X113978142Y-167757714D01*
X114121000Y-167829142D01*
X112549571Y-168900571D02*
X112263857Y-168900571D01*
X112121000Y-168829142D01*
X112049571Y-168757714D01*
X111906714Y-168543428D01*
X111835285Y-168257714D01*
X111835285Y-167686285D01*
X111906714Y-167543428D01*
X111978142Y-167472000D01*
X112121000Y-167400571D01*
X112406714Y-167400571D01*
X112549571Y-167472000D01*
X112621000Y-167543428D01*
X112692428Y-167686285D01*
X112692428Y-168043428D01*
X112621000Y-168186285D01*
X112549571Y-168257714D01*
X112406714Y-168329142D01*
X112121000Y-168329142D01*
X111978142Y-168257714D01*
X111906714Y-168186285D01*
X111835285Y-168043428D01*
X110049571Y-168757714D02*
X109978142Y-168829142D01*
X110049571Y-168900571D01*
X110121000Y-168829142D01*
X110049571Y-168757714D01*
X110049571Y-168900571D01*
X109335285Y-168757714D02*
X109263857Y-168829142D01*
X109335285Y-168900571D01*
X109406714Y-168829142D01*
X109335285Y-168757714D01*
X109335285Y-168900571D01*
X108621000Y-168757714D02*
X108549571Y-168829142D01*
X108621000Y-168900571D01*
X108692428Y-168829142D01*
X108621000Y-168757714D01*
X108621000Y-168900571D01*
X105978142Y-167472000D02*
X106121000Y-167400571D01*
X106335285Y-167400571D01*
X106549571Y-167472000D01*
X106692428Y-167614857D01*
X106763857Y-167757714D01*
X106835285Y-168043428D01*
X106835285Y-168257714D01*
X106763857Y-168543428D01*
X106692428Y-168686285D01*
X106549571Y-168829142D01*
X106335285Y-168900571D01*
X106192428Y-168900571D01*
X105978142Y-168829142D01*
X105906714Y-168757714D01*
X105906714Y-168257714D01*
X106192428Y-168257714D01*
X105263857Y-168900571D02*
X105263857Y-167400571D01*
X104692428Y-167400571D01*
X104549571Y-167472000D01*
X104478142Y-167543428D01*
X104406714Y-167686285D01*
X104406714Y-167900571D01*
X104478142Y-168043428D01*
X104549571Y-168114857D01*
X104692428Y-168186285D01*
X105263857Y-168186285D01*
X103763857Y-168900571D02*
X103763857Y-167400571D01*
X102763857Y-167400571D02*
X102478142Y-167400571D01*
X102335285Y-167472000D01*
X102192428Y-167614857D01*
X102121000Y-167900571D01*
X102121000Y-168400571D01*
X102192428Y-168686285D01*
X102335285Y-168829142D01*
X102478142Y-168900571D01*
X102763857Y-168900571D01*
X102906714Y-168829142D01*
X103049571Y-168686285D01*
X103121000Y-168400571D01*
X103121000Y-167900571D01*
X103049571Y-167614857D01*
X102906714Y-167472000D01*
X102763857Y-167400571D01*
X100692428Y-168900571D02*
X101549571Y-168900571D01*
X101121000Y-168900571D02*
X101121000Y-167400571D01*
X101263857Y-167614857D01*
X101406714Y-167757714D01*
X101549571Y-167829142D01*
X99763857Y-167400571D02*
X99621000Y-167400571D01*
X99478142Y-167472000D01*
X99406714Y-167543428D01*
X99335285Y-167686285D01*
X99263857Y-167972000D01*
X99263857Y-168329142D01*
X99335285Y-168614857D01*
X99406714Y-168757714D01*
X99478142Y-168829142D01*
X99621000Y-168900571D01*
X99763857Y-168900571D01*
X99906714Y-168829142D01*
X99978142Y-168757714D01*
X100049571Y-168614857D01*
X100121000Y-168329142D01*
X100121000Y-167972000D01*
X100049571Y-167686285D01*
X99978142Y-167543428D01*
X99906714Y-167472000D01*
X99763857Y-167400571D01*
X98621000Y-168329142D02*
X97478142Y-168329142D01*
X96763857Y-168900571D02*
X96763857Y-167400571D01*
X96263857Y-168472000D01*
X95763857Y-167400571D01*
X95763857Y-168900571D01*
X94763857Y-167400571D02*
X94478142Y-167400571D01*
X94335285Y-167472000D01*
X94192428Y-167614857D01*
X94121000Y-167900571D01*
X94121000Y-168400571D01*
X94192428Y-168686285D01*
X94335285Y-168829142D01*
X94478142Y-168900571D01*
X94763857Y-168900571D01*
X94906714Y-168829142D01*
X95049571Y-168686285D01*
X95121000Y-168400571D01*
X95121000Y-167900571D01*
X95049571Y-167614857D01*
X94906714Y-167472000D01*
X94763857Y-167400571D01*
X93549571Y-168829142D02*
X93335285Y-168900571D01*
X92978142Y-168900571D01*
X92835285Y-168829142D01*
X92763857Y-168757714D01*
X92692428Y-168614857D01*
X92692428Y-168472000D01*
X92763857Y-168329142D01*
X92835285Y-168257714D01*
X92978142Y-168186285D01*
X93263857Y-168114857D01*
X93406714Y-168043428D01*
X93478142Y-167972000D01*
X93549571Y-167829142D01*
X93549571Y-167686285D01*
X93478142Y-167543428D01*
X93406714Y-167472000D01*
X93263857Y-167400571D01*
X92906714Y-167400571D01*
X92692428Y-167472000D01*
X92049571Y-168900571D02*
X92049571Y-167400571D01*
X123978142Y-171450571D02*
X124835285Y-171450571D01*
X124406714Y-171450571D02*
X124406714Y-169950571D01*
X124549571Y-170164857D01*
X124692428Y-170307714D01*
X124835285Y-170379142D01*
X123478142Y-169950571D02*
X122478142Y-169950571D01*
X123121000Y-171450571D01*
X119621000Y-170450571D02*
X120763857Y-170879142D01*
X119621000Y-171307714D01*
X118906714Y-170879142D02*
X117763857Y-170879142D01*
X117049571Y-170450571D02*
X115906714Y-170879142D01*
X117049571Y-171307714D01*
X114121000Y-170093428D02*
X114049571Y-170022000D01*
X113906714Y-169950571D01*
X113549571Y-169950571D01*
X113406714Y-170022000D01*
X113335285Y-170093428D01*
X113263857Y-170236285D01*
X113263857Y-170379142D01*
X113335285Y-170593428D01*
X114192428Y-171450571D01*
X113263857Y-171450571D01*
X111978142Y-170450571D02*
X111978142Y-171450571D01*
X112335285Y-169879142D02*
X112692428Y-170950571D01*
X111763857Y-170950571D01*
X110049571Y-171307714D02*
X109978142Y-171379142D01*
X110049571Y-171450571D01*
X110121000Y-171379142D01*
X110049571Y-171307714D01*
X110049571Y-171450571D01*
X109335285Y-171307714D02*
X109263857Y-171379142D01*
X109335285Y-171450571D01*
X109406714Y-171379142D01*
X109335285Y-171307714D01*
X109335285Y-171450571D01*
X108621000Y-171307714D02*
X108549571Y-171379142D01*
X108621000Y-171450571D01*
X108692428Y-171379142D01*
X108621000Y-171307714D01*
X108621000Y-171450571D01*
X105978142Y-170022000D02*
X106121000Y-169950571D01*
X106335285Y-169950571D01*
X106549571Y-170022000D01*
X106692428Y-170164857D01*
X106763857Y-170307714D01*
X106835285Y-170593428D01*
X106835285Y-170807714D01*
X106763857Y-171093428D01*
X106692428Y-171236285D01*
X106549571Y-171379142D01*
X106335285Y-171450571D01*
X106192428Y-171450571D01*
X105978142Y-171379142D01*
X105906714Y-171307714D01*
X105906714Y-170807714D01*
X106192428Y-170807714D01*
X105263857Y-171450571D02*
X105263857Y-169950571D01*
X104692428Y-169950571D01*
X104549571Y-170022000D01*
X104478142Y-170093428D01*
X104406714Y-170236285D01*
X104406714Y-170450571D01*
X104478142Y-170593428D01*
X104549571Y-170664857D01*
X104692428Y-170736285D01*
X105263857Y-170736285D01*
X103763857Y-171450571D02*
X103763857Y-169950571D01*
X102763857Y-169950571D02*
X102478142Y-169950571D01*
X102335285Y-170022000D01*
X102192428Y-170164857D01*
X102121000Y-170450571D01*
X102121000Y-170950571D01*
X102192428Y-171236285D01*
X102335285Y-171379142D01*
X102478142Y-171450571D01*
X102763857Y-171450571D01*
X102906714Y-171379142D01*
X103049571Y-171236285D01*
X103121000Y-170950571D01*
X103121000Y-170450571D01*
X103049571Y-170164857D01*
X102906714Y-170022000D01*
X102763857Y-169950571D01*
X101263857Y-170593428D02*
X101406714Y-170522000D01*
X101478142Y-170450571D01*
X101549571Y-170307714D01*
X101549571Y-170236285D01*
X101478142Y-170093428D01*
X101406714Y-170022000D01*
X101263857Y-169950571D01*
X100978142Y-169950571D01*
X100835285Y-170022000D01*
X100763857Y-170093428D01*
X100692428Y-170236285D01*
X100692428Y-170307714D01*
X100763857Y-170450571D01*
X100835285Y-170522000D01*
X100978142Y-170593428D01*
X101263857Y-170593428D01*
X101406714Y-170664857D01*
X101478142Y-170736285D01*
X101549571Y-170879142D01*
X101549571Y-171164857D01*
X101478142Y-171307714D01*
X101406714Y-171379142D01*
X101263857Y-171450571D01*
X100978142Y-171450571D01*
X100835285Y-171379142D01*
X100763857Y-171307714D01*
X100692428Y-171164857D01*
X100692428Y-170879142D01*
X100763857Y-170736285D01*
X100835285Y-170664857D01*
X100978142Y-170593428D01*
X100049571Y-170879142D02*
X98906714Y-170879142D01*
X98192428Y-171450571D02*
X98192428Y-169950571D01*
X97335285Y-171450571D01*
X97335285Y-169950571D01*
X96692428Y-171379142D02*
X96478142Y-171450571D01*
X96121000Y-171450571D01*
X95978142Y-171379142D01*
X95906714Y-171307714D01*
X95835285Y-171164857D01*
X95835285Y-171022000D01*
X95906714Y-170879142D01*
X95978142Y-170807714D01*
X96121000Y-170736285D01*
X96406714Y-170664857D01*
X96549571Y-170593428D01*
X96621000Y-170522000D01*
X96692428Y-170379142D01*
X96692428Y-170236285D01*
X96621000Y-170093428D01*
X96549571Y-170022000D01*
X96406714Y-169950571D01*
X96049571Y-169950571D01*
X95835285Y-170022000D01*
X95263857Y-171379142D02*
X95049571Y-171450571D01*
X94692428Y-171450571D01*
X94549571Y-171379142D01*
X94478142Y-171307714D01*
X94406714Y-171164857D01*
X94406714Y-171022000D01*
X94478142Y-170879142D01*
X94549571Y-170807714D01*
X94692428Y-170736285D01*
X94978142Y-170664857D01*
X95121000Y-170593428D01*
X95192428Y-170522000D01*
X95263857Y-170379142D01*
X95263857Y-170236285D01*
X95192428Y-170093428D01*
X95121000Y-170022000D01*
X94978142Y-169950571D01*
X94621000Y-169950571D01*
X94406714Y-170022000D01*
X124835285Y-172643428D02*
X124763857Y-172572000D01*
X124621000Y-172500571D01*
X124263857Y-172500571D01*
X124121000Y-172572000D01*
X124049571Y-172643428D01*
X123978142Y-172786285D01*
X123978142Y-172929142D01*
X124049571Y-173143428D01*
X124906714Y-174000571D01*
X123978142Y-174000571D01*
X122549571Y-174000571D02*
X123406714Y-174000571D01*
X122978142Y-174000571D02*
X122978142Y-172500571D01*
X123121000Y-172714857D01*
X123263857Y-172857714D01*
X123406714Y-172929142D01*
X119621000Y-173000571D02*
X120763857Y-173429142D01*
X119621000Y-173857714D01*
X118906714Y-173429142D02*
X117763857Y-173429142D01*
X117049571Y-173000571D02*
X115906714Y-173429142D01*
X117049571Y-173857714D01*
X113763857Y-172500571D02*
X113621000Y-172500571D01*
X113478142Y-172572000D01*
X113406714Y-172643428D01*
X113335285Y-172786285D01*
X113263857Y-173072000D01*
X113263857Y-173429142D01*
X113335285Y-173714857D01*
X113406714Y-173857714D01*
X113478142Y-173929142D01*
X113621000Y-174000571D01*
X113763857Y-174000571D01*
X113906714Y-173929142D01*
X113978142Y-173857714D01*
X114049571Y-173714857D01*
X114121000Y-173429142D01*
X114121000Y-173072000D01*
X114049571Y-172786285D01*
X113978142Y-172643428D01*
X113906714Y-172572000D01*
X113763857Y-172500571D01*
X112692428Y-172643428D02*
X112621000Y-172572000D01*
X112478142Y-172500571D01*
X112121000Y-172500571D01*
X111978142Y-172572000D01*
X111906714Y-172643428D01*
X111835285Y-172786285D01*
X111835285Y-172929142D01*
X111906714Y-173143428D01*
X112763857Y-174000571D01*
X111835285Y-174000571D01*
X110049571Y-173857714D02*
X109978142Y-173929142D01*
X110049571Y-174000571D01*
X110121000Y-173929142D01*
X110049571Y-173857714D01*
X110049571Y-174000571D01*
X109335285Y-173857714D02*
X109263857Y-173929142D01*
X109335285Y-174000571D01*
X109406714Y-173929142D01*
X109335285Y-173857714D01*
X109335285Y-174000571D01*
X108621000Y-173857714D02*
X108549571Y-173929142D01*
X108621000Y-174000571D01*
X108692428Y-173929142D01*
X108621000Y-173857714D01*
X108621000Y-174000571D01*
X106049571Y-172500571D02*
X106763857Y-172500571D01*
X106835285Y-173214857D01*
X106763857Y-173143428D01*
X106621000Y-173072000D01*
X106263857Y-173072000D01*
X106121000Y-173143428D01*
X106049571Y-173214857D01*
X105978142Y-173357714D01*
X105978142Y-173714857D01*
X106049571Y-173857714D01*
X106121000Y-173929142D01*
X106263857Y-174000571D01*
X106621000Y-174000571D01*
X106763857Y-173929142D01*
X106835285Y-173857714D01*
X105549571Y-172500571D02*
X105049571Y-174000571D01*
X104549571Y-172500571D01*
X129843857Y-144369571D02*
X129843857Y-143369571D01*
X129843857Y-142869571D02*
X129915285Y-142941000D01*
X129843857Y-143012428D01*
X129772428Y-142941000D01*
X129843857Y-142869571D01*
X129843857Y-143012428D01*
X128272428Y-144226714D02*
X128343857Y-144298142D01*
X128558142Y-144369571D01*
X128701000Y-144369571D01*
X128915285Y-144298142D01*
X129058142Y-144155285D01*
X129129571Y-144012428D01*
X129201000Y-143726714D01*
X129201000Y-143512428D01*
X129129571Y-143226714D01*
X129058142Y-143083857D01*
X128915285Y-142941000D01*
X128701000Y-142869571D01*
X128558142Y-142869571D01*
X128343857Y-142941000D01*
X128272428Y-143012428D01*
X127415285Y-143512428D02*
X127558142Y-143441000D01*
X127629571Y-143369571D01*
X127701000Y-143226714D01*
X127701000Y-143155285D01*
X127629571Y-143012428D01*
X127558142Y-142941000D01*
X127415285Y-142869571D01*
X127129571Y-142869571D01*
X126986714Y-142941000D01*
X126915285Y-143012428D01*
X126843857Y-143155285D01*
X126843857Y-143226714D01*
X126915285Y-143369571D01*
X126986714Y-143441000D01*
X127129571Y-143512428D01*
X127415285Y-143512428D01*
X127558142Y-143583857D01*
X127629571Y-143655285D01*
X127701000Y-143798142D01*
X127701000Y-144083857D01*
X127629571Y-144226714D01*
X127558142Y-144298142D01*
X127415285Y-144369571D01*
X127129571Y-144369571D01*
X126986714Y-144298142D01*
X126915285Y-144226714D01*
X126843857Y-144083857D01*
X126843857Y-143798142D01*
X126915285Y-143655285D01*
X126986714Y-143583857D01*
X127129571Y-143512428D01*
X125986714Y-143512428D02*
X126129571Y-143441000D01*
X126201000Y-143369571D01*
X126272428Y-143226714D01*
X126272428Y-143155285D01*
X126201000Y-143012428D01*
X126129571Y-142941000D01*
X125986714Y-142869571D01*
X125701000Y-142869571D01*
X125558142Y-142941000D01*
X125486714Y-143012428D01*
X125415285Y-143155285D01*
X125415285Y-143226714D01*
X125486714Y-143369571D01*
X125558142Y-143441000D01*
X125701000Y-143512428D01*
X125986714Y-143512428D01*
X126129571Y-143583857D01*
X126201000Y-143655285D01*
X126272428Y-143798142D01*
X126272428Y-144083857D01*
X126201000Y-144226714D01*
X126129571Y-144298142D01*
X125986714Y-144369571D01*
X125701000Y-144369571D01*
X125558142Y-144298142D01*
X125486714Y-144226714D01*
X125415285Y-144083857D01*
X125415285Y-143798142D01*
X125486714Y-143655285D01*
X125558142Y-143583857D01*
X125701000Y-143512428D01*
X124486714Y-142869571D02*
X124343857Y-142869571D01*
X124201000Y-142941000D01*
X124129571Y-143012428D01*
X124058142Y-143155285D01*
X123986714Y-143441000D01*
X123986714Y-143798142D01*
X124058142Y-144083857D01*
X124129571Y-144226714D01*
X124201000Y-144298142D01*
X124343857Y-144369571D01*
X124486714Y-144369571D01*
X124629571Y-144298142D01*
X124701000Y-144226714D01*
X124772428Y-144083857D01*
X124843857Y-143798142D01*
X124843857Y-143441000D01*
X124772428Y-143155285D01*
X124701000Y-143012428D01*
X124629571Y-142941000D01*
X124486714Y-142869571D01*
X123415285Y-143941000D02*
X122701000Y-143941000D01*
X123558142Y-144369571D02*
X123058142Y-142869571D01*
X122558142Y-144369571D01*
X113201000Y-144369571D02*
X113701000Y-143655285D01*
X114058142Y-144369571D02*
X114058142Y-142869571D01*
X113486714Y-142869571D01*
X113343857Y-142941000D01*
X113272428Y-143012428D01*
X113201000Y-143155285D01*
X113201000Y-143369571D01*
X113272428Y-143512428D01*
X113343857Y-143583857D01*
X113486714Y-143655285D01*
X114058142Y-143655285D01*
X111915285Y-144369571D02*
X111915285Y-143583857D01*
X111986714Y-143441000D01*
X112129571Y-143369571D01*
X112415285Y-143369571D01*
X112558142Y-143441000D01*
X111915285Y-144298142D02*
X112058142Y-144369571D01*
X112415285Y-144369571D01*
X112558142Y-144298142D01*
X112629571Y-144155285D01*
X112629571Y-144012428D01*
X112558142Y-143869571D01*
X112415285Y-143798142D01*
X112058142Y-143798142D01*
X111915285Y-143726714D01*
X111272428Y-144298142D02*
X111129571Y-144369571D01*
X110843857Y-144369571D01*
X110701000Y-144298142D01*
X110629571Y-144155285D01*
X110629571Y-144083857D01*
X110701000Y-143941000D01*
X110843857Y-143869571D01*
X111058142Y-143869571D01*
X111201000Y-143798142D01*
X111272428Y-143655285D01*
X111272428Y-143583857D01*
X111201000Y-143441000D01*
X111058142Y-143369571D01*
X110843857Y-143369571D01*
X110701000Y-143441000D01*
X109986714Y-143369571D02*
X109986714Y-144869571D01*
X109986714Y-143441000D02*
X109843857Y-143369571D01*
X109558142Y-143369571D01*
X109415285Y-143441000D01*
X109343857Y-143512428D01*
X109272428Y-143655285D01*
X109272428Y-144083857D01*
X109343857Y-144226714D01*
X109415285Y-144298142D01*
X109558142Y-144369571D01*
X109843857Y-144369571D01*
X109986714Y-144298142D01*
X108629571Y-144369571D02*
X108629571Y-142869571D01*
X108629571Y-143441000D02*
X108486714Y-143369571D01*
X108201000Y-143369571D01*
X108058142Y-143441000D01*
X107986714Y-143512428D01*
X107915285Y-143655285D01*
X107915285Y-144083857D01*
X107986714Y-144226714D01*
X108058142Y-144298142D01*
X108201000Y-144369571D01*
X108486714Y-144369571D01*
X108629571Y-144298142D01*
X106701000Y-144298142D02*
X106843857Y-144369571D01*
X107129571Y-144369571D01*
X107272428Y-144298142D01*
X107343857Y-144155285D01*
X107343857Y-143583857D01*
X107272428Y-143441000D01*
X107129571Y-143369571D01*
X106843857Y-143369571D01*
X106701000Y-143441000D01*
X106629571Y-143583857D01*
X106629571Y-143726714D01*
X107343857Y-143869571D01*
X105986714Y-144369571D02*
X105986714Y-143369571D01*
X105986714Y-143655285D02*
X105915285Y-143512428D01*
X105843857Y-143441000D01*
X105701000Y-143369571D01*
X105558142Y-143369571D01*
X105058142Y-144369571D02*
X105058142Y-143369571D01*
X105058142Y-143655285D02*
X104986714Y-143512428D01*
X104915285Y-143441000D01*
X104772428Y-143369571D01*
X104629571Y-143369571D01*
X104272428Y-143369571D02*
X103915285Y-144369571D01*
X103558142Y-143369571D02*
X103915285Y-144369571D01*
X104058142Y-144726714D01*
X104129571Y-144798142D01*
X104272428Y-144869571D01*
X121648285Y-140369571D02*
X121648285Y-138869571D01*
X121076857Y-138869571D01*
X120934000Y-138941000D01*
X120862571Y-139012428D01*
X120791142Y-139155285D01*
X120791142Y-139369571D01*
X120862571Y-139512428D01*
X120934000Y-139583857D01*
X121076857Y-139655285D01*
X121648285Y-139655285D01*
X120148285Y-140369571D02*
X120148285Y-139369571D01*
X120148285Y-138869571D02*
X120219714Y-138941000D01*
X120148285Y-139012428D01*
X120076857Y-138941000D01*
X120148285Y-138869571D01*
X120148285Y-139012428D01*
X119434000Y-139369571D02*
X119434000Y-140369571D01*
X119434000Y-139512428D02*
X119362571Y-139441000D01*
X119219714Y-139369571D01*
X119005428Y-139369571D01*
X118862571Y-139441000D01*
X118791142Y-139583857D01*
X118791142Y-140369571D01*
X117862571Y-140369571D02*
X118005428Y-140298142D01*
X118076857Y-140226714D01*
X118148285Y-140083857D01*
X118148285Y-139655285D01*
X118076857Y-139512428D01*
X118005428Y-139441000D01*
X117862571Y-139369571D01*
X117648285Y-139369571D01*
X117505428Y-139441000D01*
X117434000Y-139512428D01*
X117362571Y-139655285D01*
X117362571Y-140083857D01*
X117434000Y-140226714D01*
X117505428Y-140298142D01*
X117648285Y-140369571D01*
X117862571Y-140369571D01*
X116076857Y-139369571D02*
X116076857Y-140369571D01*
X116719714Y-139369571D02*
X116719714Y-140155285D01*
X116648285Y-140298142D01*
X116505428Y-140369571D01*
X116291142Y-140369571D01*
X116148285Y-140298142D01*
X116076857Y-140226714D01*
X115576857Y-139369571D02*
X115005428Y-139369571D01*
X115362571Y-138869571D02*
X115362571Y-140155285D01*
X115291142Y-140298142D01*
X115148285Y-140369571D01*
X115005428Y-140369571D01*
D10*
X133528285Y-132918142D02*
X133471142Y-132861000D01*
X133356857Y-132803857D01*
X133071142Y-132803857D01*
X132956857Y-132861000D01*
X132899714Y-132918142D01*
X132842571Y-133032428D01*
X132842571Y-133146714D01*
X132899714Y-133318142D01*
X133585428Y-134003857D01*
X132842571Y-134003857D01*
X131814000Y-132803857D02*
X132042571Y-132803857D01*
X132156857Y-132861000D01*
X132214000Y-132918142D01*
X132328285Y-133089571D01*
X132385428Y-133318142D01*
X132385428Y-133775285D01*
X132328285Y-133889571D01*
X132271142Y-133946714D01*
X132156857Y-134003857D01*
X131928285Y-134003857D01*
X131814000Y-133946714D01*
X131756857Y-133889571D01*
X131699714Y-133775285D01*
X131699714Y-133489571D01*
X131756857Y-133375285D01*
X131814000Y-133318142D01*
X131928285Y-133261000D01*
X132156857Y-133261000D01*
X132271142Y-133318142D01*
X132328285Y-133375285D01*
X132385428Y-133489571D01*
X128516285Y-132918142D02*
X128459142Y-132861000D01*
X128344857Y-132803857D01*
X128059142Y-132803857D01*
X127944857Y-132861000D01*
X127887714Y-132918142D01*
X127830571Y-133032428D01*
X127830571Y-133146714D01*
X127887714Y-133318142D01*
X128573428Y-134003857D01*
X127830571Y-134003857D01*
X126802000Y-133203857D02*
X126802000Y-134003857D01*
X127087714Y-132746714D02*
X127373428Y-133603857D01*
X126630571Y-133603857D01*
X90314685Y-132920742D02*
X90257542Y-132863600D01*
X90143257Y-132806457D01*
X89857542Y-132806457D01*
X89743257Y-132863600D01*
X89686114Y-132920742D01*
X89628971Y-133035028D01*
X89628971Y-133149314D01*
X89686114Y-133320742D01*
X90371828Y-134006457D01*
X89628971Y-134006457D01*
X89228971Y-132806457D02*
X88486114Y-132806457D01*
X88886114Y-133263600D01*
X88714685Y-133263600D01*
X88600400Y-133320742D01*
X88543257Y-133377885D01*
X88486114Y-133492171D01*
X88486114Y-133777885D01*
X88543257Y-133892171D01*
X88600400Y-133949314D01*
X88714685Y-134006457D01*
X89057542Y-134006457D01*
X89171828Y-133949314D01*
X89228971Y-133892171D01*
X85145785Y-132920742D02*
X85088642Y-132863600D01*
X84974357Y-132806457D01*
X84688642Y-132806457D01*
X84574357Y-132863600D01*
X84517214Y-132920742D01*
X84460071Y-133035028D01*
X84460071Y-133149314D01*
X84517214Y-133320742D01*
X85202928Y-134006457D01*
X84460071Y-134006457D01*
X83317214Y-134006457D02*
X84002928Y-134006457D01*
X83660071Y-134006457D02*
X83660071Y-132806457D01*
X83774357Y-132977885D01*
X83888642Y-133092171D01*
X84002928Y-133149314D01*
X134182205Y-191287142D02*
X134125062Y-191230000D01*
X134010777Y-191172857D01*
X133725062Y-191172857D01*
X133610777Y-191230000D01*
X133553634Y-191287142D01*
X133496491Y-191401428D01*
X133496491Y-191515714D01*
X133553634Y-191687142D01*
X134239348Y-192372857D01*
X133496491Y-192372857D01*
X132753634Y-191172857D02*
X132639348Y-191172857D01*
X132525062Y-191230000D01*
X132467920Y-191287142D01*
X132410777Y-191401428D01*
X132353634Y-191630000D01*
X132353634Y-191915714D01*
X132410777Y-192144285D01*
X132467920Y-192258571D01*
X132525062Y-192315714D01*
X132639348Y-192372857D01*
X132753634Y-192372857D01*
X132867920Y-192315714D01*
X132925062Y-192258571D01*
X132982205Y-192144285D01*
X133039348Y-191915714D01*
X133039348Y-191630000D01*
X132982205Y-191401428D01*
X132925062Y-191287142D01*
X132867920Y-191230000D01*
X132753634Y-191172857D01*
X78925062Y-192329537D02*
X79610777Y-192329537D01*
X79267920Y-192329537D02*
X79267920Y-191129537D01*
X79382205Y-191300965D01*
X79496491Y-191415251D01*
X79610777Y-191472394D01*
X82150777Y-187921537D02*
X82150777Y-188721537D01*
X82436491Y-187464394D02*
X82722205Y-188321537D01*
X81979348Y-188321537D01*
X81293634Y-187521537D02*
X81179348Y-187521537D01*
X81065062Y-187578680D01*
X81007920Y-187635822D01*
X80950777Y-187750108D01*
X80893634Y-187978680D01*
X80893634Y-188264394D01*
X80950777Y-188492965D01*
X81007920Y-188607251D01*
X81065062Y-188664394D01*
X81179348Y-188721537D01*
X81293634Y-188721537D01*
X81407920Y-188664394D01*
X81465062Y-188607251D01*
X81522205Y-188492965D01*
X81579348Y-188264394D01*
X81579348Y-187978680D01*
X81522205Y-187750108D01*
X81465062Y-187635822D01*
X81407920Y-187578680D01*
X81293634Y-187521537D01*
X82779348Y-183521537D02*
X82036491Y-183521537D01*
X82436491Y-183978680D01*
X82265062Y-183978680D01*
X82150777Y-184035822D01*
X82093634Y-184092965D01*
X82036491Y-184207251D01*
X82036491Y-184492965D01*
X82093634Y-184607251D01*
X82150777Y-184664394D01*
X82265062Y-184721537D01*
X82607920Y-184721537D01*
X82722205Y-184664394D01*
X82779348Y-184607251D01*
X81465062Y-184721537D02*
X81236491Y-184721537D01*
X81122205Y-184664394D01*
X81065062Y-184607251D01*
X80950777Y-184435822D01*
X80893634Y-184207251D01*
X80893634Y-183750108D01*
X80950777Y-183635822D01*
X81007920Y-183578680D01*
X81122205Y-183521537D01*
X81350777Y-183521537D01*
X81465062Y-183578680D01*
X81522205Y-183635822D01*
X81579348Y-183750108D01*
X81579348Y-184035822D01*
X81522205Y-184150108D01*
X81465062Y-184207251D01*
X81350777Y-184264394D01*
X81122205Y-184264394D01*
X81007920Y-184207251D01*
X80950777Y-184150108D01*
X80893634Y-184035822D01*
X135160777Y-187635822D02*
X135103634Y-187578680D01*
X134989348Y-187521537D01*
X134703634Y-187521537D01*
X134589348Y-187578680D01*
X134532205Y-187635822D01*
X134475062Y-187750108D01*
X134475062Y-187864394D01*
X134532205Y-188035822D01*
X135217920Y-188721537D01*
X134475062Y-188721537D01*
X134475062Y-184971537D02*
X135160777Y-184971537D01*
X134817920Y-184971537D02*
X134817920Y-183771537D01*
X134932205Y-183942965D01*
X135046491Y-184057251D01*
X135160777Y-184114394D01*
D12*
G04 #@! TO.C,J1*
X133897920Y-188798680D02*
X133897920Y-186198680D01*
X133897920Y-188798680D02*
X82977920Y-188798680D01*
X82977920Y-188798680D02*
X82977920Y-183598680D01*
X131297920Y-183598680D02*
X82977920Y-183598680D01*
X131297920Y-186198680D02*
X131297920Y-183598680D01*
X133897920Y-186198680D02*
X131297920Y-186198680D01*
X133897920Y-183598680D02*
X132567920Y-183598680D01*
X133897920Y-184928680D02*
X133897920Y-183598680D01*
D13*
G04 #@! TO.C,REF\002A\002A*
G36*
X85974106Y-176125611D02*
X85890285Y-176570235D01*
X85581000Y-176697733D01*
X85271714Y-176825231D01*
X84900674Y-176572926D01*
X84796763Y-176502676D01*
X84702833Y-176439952D01*
X84623268Y-176387618D01*
X84562450Y-176348537D01*
X84524763Y-176325573D01*
X84514499Y-176320622D01*
X84496010Y-176333356D01*
X84456500Y-176368562D01*
X84400398Y-176421742D01*
X84332133Y-176488398D01*
X84256134Y-176564034D01*
X84176828Y-176644152D01*
X84098645Y-176724254D01*
X84026013Y-176799844D01*
X83963361Y-176866425D01*
X83915117Y-176919498D01*
X83885710Y-176954567D01*
X83878679Y-176966303D01*
X83888797Y-176987940D01*
X83917161Y-177035342D01*
X83960791Y-177103873D01*
X84016702Y-177188895D01*
X84081914Y-177285773D01*
X84119701Y-177341030D01*
X84188577Y-177441928D01*
X84249780Y-177532979D01*
X84300342Y-177609650D01*
X84337292Y-177667408D01*
X84357662Y-177701723D01*
X84360723Y-177708934D01*
X84353784Y-177729428D01*
X84334869Y-177777193D01*
X84306833Y-177845512D01*
X84272529Y-177927669D01*
X84234811Y-178016950D01*
X84196533Y-178106638D01*
X84160550Y-178190018D01*
X84129714Y-178260374D01*
X84106881Y-178310990D01*
X84094903Y-178335151D01*
X84094196Y-178336102D01*
X84075389Y-178340716D01*
X84025302Y-178351008D01*
X83949127Y-178365967D01*
X83852055Y-178384581D01*
X83739277Y-178405839D01*
X83673478Y-178418098D01*
X83552970Y-178441042D01*
X83444123Y-178462875D01*
X83352444Y-178482402D01*
X83283439Y-178498428D01*
X83242616Y-178509759D01*
X83234409Y-178513354D01*
X83226372Y-178537686D01*
X83219887Y-178592639D01*
X83214950Y-178671788D01*
X83211556Y-178768706D01*
X83209702Y-178876967D01*
X83209382Y-178990145D01*
X83210593Y-179101815D01*
X83213330Y-179205548D01*
X83217589Y-179294921D01*
X83223365Y-179363506D01*
X83230653Y-179404877D01*
X83235025Y-179413490D01*
X83261156Y-179423813D01*
X83316527Y-179438572D01*
X83393813Y-179456032D01*
X83485690Y-179474460D01*
X83517762Y-179480421D01*
X83672396Y-179508746D01*
X83794545Y-179531556D01*
X83888247Y-179549760D01*
X83957536Y-179564263D01*
X84006449Y-179575972D01*
X84039023Y-179585795D01*
X84059292Y-179594636D01*
X84071294Y-179603404D01*
X84072973Y-179605137D01*
X84089736Y-179633051D01*
X84115306Y-179687375D01*
X84147132Y-179761457D01*
X84182660Y-179848645D01*
X84219337Y-179942288D01*
X84254609Y-180035732D01*
X84285924Y-180122327D01*
X84310727Y-180195420D01*
X84326466Y-180248358D01*
X84330588Y-180274491D01*
X84330244Y-180275406D01*
X84316279Y-180296766D01*
X84284598Y-180343764D01*
X84238529Y-180411507D01*
X84181402Y-180495103D01*
X84116547Y-180589662D01*
X84098077Y-180616534D01*
X84032221Y-180713955D01*
X83974270Y-180802843D01*
X83927382Y-180878092D01*
X83894713Y-180934600D01*
X83879420Y-180967261D01*
X83878679Y-180971273D01*
X83891528Y-180992364D01*
X83927032Y-181034144D01*
X83980627Y-181092125D01*
X84047749Y-181161815D01*
X84123833Y-181238725D01*
X84204316Y-181318363D01*
X84284633Y-181396241D01*
X84360221Y-181467866D01*
X84426515Y-181528750D01*
X84478951Y-181574401D01*
X84512965Y-181600330D01*
X84522375Y-181604563D01*
X84544277Y-181594592D01*
X84589120Y-181567700D01*
X84649599Y-181528416D01*
X84696131Y-181496797D01*
X84780445Y-181438778D01*
X84880294Y-181370464D01*
X84980447Y-181302259D01*
X85034293Y-181265755D01*
X85216549Y-181142480D01*
X85369539Y-181225200D01*
X85439238Y-181261439D01*
X85498506Y-181289606D01*
X85538609Y-181305671D01*
X85548817Y-181307906D01*
X85561091Y-181291402D01*
X85585307Y-181244762D01*
X85619657Y-181172289D01*
X85662332Y-181078286D01*
X85711526Y-180967054D01*
X85765430Y-180842895D01*
X85822236Y-180710112D01*
X85880138Y-180573007D01*
X85937327Y-180435882D01*
X85991996Y-180303038D01*
X86042336Y-180178778D01*
X86086540Y-180067405D01*
X86122801Y-179973219D01*
X86149311Y-179900524D01*
X86164262Y-179853621D01*
X86166666Y-179837513D01*
X86147609Y-179816966D01*
X86105884Y-179783613D01*
X86050214Y-179744382D01*
X86045542Y-179741279D01*
X85901656Y-179626103D01*
X85785637Y-179491733D01*
X85698490Y-179342464D01*
X85641221Y-179182593D01*
X85614834Y-179016417D01*
X85620335Y-178848232D01*
X85658730Y-178682335D01*
X85731025Y-178523022D01*
X85752294Y-178488167D01*
X85862924Y-178347417D01*
X85993618Y-178234394D01*
X86139856Y-178149683D01*
X86297112Y-178093874D01*
X86460863Y-178067554D01*
X86626587Y-178071310D01*
X86789758Y-178105730D01*
X86945855Y-178171403D01*
X87090353Y-178268915D01*
X87135051Y-178308493D01*
X87248808Y-178432383D01*
X87331702Y-178562804D01*
X87388564Y-178708995D01*
X87420233Y-178853768D01*
X87428051Y-179016540D01*
X87401982Y-179180120D01*
X87344675Y-179338978D01*
X87258776Y-179487586D01*
X87146934Y-179620415D01*
X87011797Y-179731936D01*
X86994037Y-179743691D01*
X86937770Y-179782188D01*
X86894997Y-179815543D01*
X86874548Y-179836840D01*
X86874251Y-179837513D01*
X86878641Y-179860551D01*
X86896044Y-179912837D01*
X86924652Y-179990070D01*
X86962655Y-180087948D01*
X87008246Y-180202171D01*
X87059617Y-180328438D01*
X87114958Y-180462447D01*
X87172462Y-180599898D01*
X87230319Y-180736488D01*
X87286722Y-180867917D01*
X87339862Y-180989885D01*
X87387930Y-181098089D01*
X87429119Y-181188229D01*
X87461619Y-181256003D01*
X87483623Y-181297110D01*
X87492484Y-181307906D01*
X87519560Y-181299499D01*
X87570223Y-181276952D01*
X87635737Y-181244293D01*
X87671761Y-181225200D01*
X87824752Y-181142480D01*
X88007008Y-181265755D01*
X88100045Y-181328908D01*
X88201905Y-181398407D01*
X88297358Y-181463845D01*
X88345170Y-181496797D01*
X88412415Y-181541953D01*
X88469356Y-181577737D01*
X88508566Y-181599618D01*
X88521301Y-181604243D01*
X88539837Y-181591765D01*
X88580861Y-181556932D01*
X88640395Y-181503358D01*
X88714462Y-181434663D01*
X88799085Y-181354461D01*
X88852605Y-181302966D01*
X88946239Y-181210966D01*
X89027161Y-181128679D01*
X89092097Y-181059625D01*
X89137778Y-181007324D01*
X89160931Y-180975296D01*
X89163152Y-180968796D01*
X89152844Y-180944074D01*
X89124359Y-180894085D01*
X89080857Y-180823892D01*
X89025497Y-180738555D01*
X88961440Y-180643136D01*
X88943223Y-180616534D01*
X88876847Y-180519847D01*
X88817298Y-180432797D01*
X88767904Y-180360275D01*
X88731995Y-180307173D01*
X88712901Y-180278383D01*
X88711056Y-180275406D01*
X88713815Y-180252462D01*
X88728458Y-180202016D01*
X88752433Y-180130721D01*
X88783186Y-180045227D01*
X88818164Y-179952187D01*
X88854813Y-179858254D01*
X88890581Y-179770079D01*
X88922914Y-179694314D01*
X88949258Y-179637611D01*
X88967062Y-179606623D01*
X88968327Y-179605137D01*
X88979214Y-179596281D01*
X88997602Y-179587523D01*
X89027526Y-179577957D01*
X89073023Y-179566676D01*
X89138129Y-179552773D01*
X89226881Y-179535343D01*
X89343313Y-179513478D01*
X89491462Y-179486271D01*
X89523538Y-179480421D01*
X89618606Y-179462054D01*
X89701485Y-179444085D01*
X89764850Y-179428249D01*
X89801378Y-179416280D01*
X89806276Y-179413490D01*
X89814347Y-179388752D01*
X89820907Y-179333470D01*
X89825953Y-179254069D01*
X89829479Y-179156976D01*
X89831481Y-179048618D01*
X89831956Y-178935420D01*
X89830897Y-178823808D01*
X89828302Y-178720209D01*
X89824166Y-178631048D01*
X89818483Y-178562752D01*
X89811251Y-178521746D01*
X89806891Y-178513354D01*
X89782618Y-178504888D01*
X89727346Y-178491115D01*
X89646582Y-178473230D01*
X89545832Y-178452428D01*
X89430603Y-178429903D01*
X89367822Y-178418098D01*
X89248707Y-178395831D01*
X89142485Y-178375659D01*
X89054347Y-178358595D01*
X88989486Y-178345649D01*
X88953094Y-178337835D01*
X88947104Y-178336102D01*
X88936981Y-178316570D01*
X88915582Y-178269523D01*
X88885759Y-178201683D01*
X88850365Y-178119771D01*
X88812252Y-178030508D01*
X88774273Y-177940615D01*
X88739280Y-177856815D01*
X88710126Y-177785827D01*
X88689663Y-177734374D01*
X88680743Y-177709177D01*
X88680577Y-177708076D01*
X88690689Y-177688199D01*
X88719037Y-177642457D01*
X88762643Y-177575397D01*
X88818526Y-177491564D01*
X88883707Y-177395506D01*
X88921599Y-177340330D01*
X88990645Y-177239161D01*
X89051970Y-177147310D01*
X89102583Y-177069424D01*
X89139491Y-177010149D01*
X89159702Y-176974131D01*
X89162621Y-176966057D01*
X89150073Y-176947264D01*
X89115383Y-176907137D01*
X89062983Y-176850173D01*
X88997304Y-176780865D01*
X88922776Y-176703711D01*
X88843833Y-176623205D01*
X88764903Y-176543843D01*
X88690420Y-176470120D01*
X88624814Y-176406532D01*
X88572516Y-176357574D01*
X88537959Y-176327741D01*
X88526398Y-176320622D01*
X88507574Y-176330633D01*
X88462551Y-176358758D01*
X88395707Y-176402134D01*
X88311419Y-176457898D01*
X88214064Y-176523186D01*
X88140627Y-176572926D01*
X87769587Y-176825231D01*
X87151015Y-176570235D01*
X87067195Y-176125611D01*
X86983374Y-175680987D01*
X86057926Y-175680987D01*
X85974106Y-176125611D01*
X85974106Y-176125611D01*
G37*
X85974106Y-176125611D02*
X85890285Y-176570235D01*
X85581000Y-176697733D01*
X85271714Y-176825231D01*
X84900674Y-176572926D01*
X84796763Y-176502676D01*
X84702833Y-176439952D01*
X84623268Y-176387618D01*
X84562450Y-176348537D01*
X84524763Y-176325573D01*
X84514499Y-176320622D01*
X84496010Y-176333356D01*
X84456500Y-176368562D01*
X84400398Y-176421742D01*
X84332133Y-176488398D01*
X84256134Y-176564034D01*
X84176828Y-176644152D01*
X84098645Y-176724254D01*
X84026013Y-176799844D01*
X83963361Y-176866425D01*
X83915117Y-176919498D01*
X83885710Y-176954567D01*
X83878679Y-176966303D01*
X83888797Y-176987940D01*
X83917161Y-177035342D01*
X83960791Y-177103873D01*
X84016702Y-177188895D01*
X84081914Y-177285773D01*
X84119701Y-177341030D01*
X84188577Y-177441928D01*
X84249780Y-177532979D01*
X84300342Y-177609650D01*
X84337292Y-177667408D01*
X84357662Y-177701723D01*
X84360723Y-177708934D01*
X84353784Y-177729428D01*
X84334869Y-177777193D01*
X84306833Y-177845512D01*
X84272529Y-177927669D01*
X84234811Y-178016950D01*
X84196533Y-178106638D01*
X84160550Y-178190018D01*
X84129714Y-178260374D01*
X84106881Y-178310990D01*
X84094903Y-178335151D01*
X84094196Y-178336102D01*
X84075389Y-178340716D01*
X84025302Y-178351008D01*
X83949127Y-178365967D01*
X83852055Y-178384581D01*
X83739277Y-178405839D01*
X83673478Y-178418098D01*
X83552970Y-178441042D01*
X83444123Y-178462875D01*
X83352444Y-178482402D01*
X83283439Y-178498428D01*
X83242616Y-178509759D01*
X83234409Y-178513354D01*
X83226372Y-178537686D01*
X83219887Y-178592639D01*
X83214950Y-178671788D01*
X83211556Y-178768706D01*
X83209702Y-178876967D01*
X83209382Y-178990145D01*
X83210593Y-179101815D01*
X83213330Y-179205548D01*
X83217589Y-179294921D01*
X83223365Y-179363506D01*
X83230653Y-179404877D01*
X83235025Y-179413490D01*
X83261156Y-179423813D01*
X83316527Y-179438572D01*
X83393813Y-179456032D01*
X83485690Y-179474460D01*
X83517762Y-179480421D01*
X83672396Y-179508746D01*
X83794545Y-179531556D01*
X83888247Y-179549760D01*
X83957536Y-179564263D01*
X84006449Y-179575972D01*
X84039023Y-179585795D01*
X84059292Y-179594636D01*
X84071294Y-179603404D01*
X84072973Y-179605137D01*
X84089736Y-179633051D01*
X84115306Y-179687375D01*
X84147132Y-179761457D01*
X84182660Y-179848645D01*
X84219337Y-179942288D01*
X84254609Y-180035732D01*
X84285924Y-180122327D01*
X84310727Y-180195420D01*
X84326466Y-180248358D01*
X84330588Y-180274491D01*
X84330244Y-180275406D01*
X84316279Y-180296766D01*
X84284598Y-180343764D01*
X84238529Y-180411507D01*
X84181402Y-180495103D01*
X84116547Y-180589662D01*
X84098077Y-180616534D01*
X84032221Y-180713955D01*
X83974270Y-180802843D01*
X83927382Y-180878092D01*
X83894713Y-180934600D01*
X83879420Y-180967261D01*
X83878679Y-180971273D01*
X83891528Y-180992364D01*
X83927032Y-181034144D01*
X83980627Y-181092125D01*
X84047749Y-181161815D01*
X84123833Y-181238725D01*
X84204316Y-181318363D01*
X84284633Y-181396241D01*
X84360221Y-181467866D01*
X84426515Y-181528750D01*
X84478951Y-181574401D01*
X84512965Y-181600330D01*
X84522375Y-181604563D01*
X84544277Y-181594592D01*
X84589120Y-181567700D01*
X84649599Y-181528416D01*
X84696131Y-181496797D01*
X84780445Y-181438778D01*
X84880294Y-181370464D01*
X84980447Y-181302259D01*
X85034293Y-181265755D01*
X85216549Y-181142480D01*
X85369539Y-181225200D01*
X85439238Y-181261439D01*
X85498506Y-181289606D01*
X85538609Y-181305671D01*
X85548817Y-181307906D01*
X85561091Y-181291402D01*
X85585307Y-181244762D01*
X85619657Y-181172289D01*
X85662332Y-181078286D01*
X85711526Y-180967054D01*
X85765430Y-180842895D01*
X85822236Y-180710112D01*
X85880138Y-180573007D01*
X85937327Y-180435882D01*
X85991996Y-180303038D01*
X86042336Y-180178778D01*
X86086540Y-180067405D01*
X86122801Y-179973219D01*
X86149311Y-179900524D01*
X86164262Y-179853621D01*
X86166666Y-179837513D01*
X86147609Y-179816966D01*
X86105884Y-179783613D01*
X86050214Y-179744382D01*
X86045542Y-179741279D01*
X85901656Y-179626103D01*
X85785637Y-179491733D01*
X85698490Y-179342464D01*
X85641221Y-179182593D01*
X85614834Y-179016417D01*
X85620335Y-178848232D01*
X85658730Y-178682335D01*
X85731025Y-178523022D01*
X85752294Y-178488167D01*
X85862924Y-178347417D01*
X85993618Y-178234394D01*
X86139856Y-178149683D01*
X86297112Y-178093874D01*
X86460863Y-178067554D01*
X86626587Y-178071310D01*
X86789758Y-178105730D01*
X86945855Y-178171403D01*
X87090353Y-178268915D01*
X87135051Y-178308493D01*
X87248808Y-178432383D01*
X87331702Y-178562804D01*
X87388564Y-178708995D01*
X87420233Y-178853768D01*
X87428051Y-179016540D01*
X87401982Y-179180120D01*
X87344675Y-179338978D01*
X87258776Y-179487586D01*
X87146934Y-179620415D01*
X87011797Y-179731936D01*
X86994037Y-179743691D01*
X86937770Y-179782188D01*
X86894997Y-179815543D01*
X86874548Y-179836840D01*
X86874251Y-179837513D01*
X86878641Y-179860551D01*
X86896044Y-179912837D01*
X86924652Y-179990070D01*
X86962655Y-180087948D01*
X87008246Y-180202171D01*
X87059617Y-180328438D01*
X87114958Y-180462447D01*
X87172462Y-180599898D01*
X87230319Y-180736488D01*
X87286722Y-180867917D01*
X87339862Y-180989885D01*
X87387930Y-181098089D01*
X87429119Y-181188229D01*
X87461619Y-181256003D01*
X87483623Y-181297110D01*
X87492484Y-181307906D01*
X87519560Y-181299499D01*
X87570223Y-181276952D01*
X87635737Y-181244293D01*
X87671761Y-181225200D01*
X87824752Y-181142480D01*
X88007008Y-181265755D01*
X88100045Y-181328908D01*
X88201905Y-181398407D01*
X88297358Y-181463845D01*
X88345170Y-181496797D01*
X88412415Y-181541953D01*
X88469356Y-181577737D01*
X88508566Y-181599618D01*
X88521301Y-181604243D01*
X88539837Y-181591765D01*
X88580861Y-181556932D01*
X88640395Y-181503358D01*
X88714462Y-181434663D01*
X88799085Y-181354461D01*
X88852605Y-181302966D01*
X88946239Y-181210966D01*
X89027161Y-181128679D01*
X89092097Y-181059625D01*
X89137778Y-181007324D01*
X89160931Y-180975296D01*
X89163152Y-180968796D01*
X89152844Y-180944074D01*
X89124359Y-180894085D01*
X89080857Y-180823892D01*
X89025497Y-180738555D01*
X88961440Y-180643136D01*
X88943223Y-180616534D01*
X88876847Y-180519847D01*
X88817298Y-180432797D01*
X88767904Y-180360275D01*
X88731995Y-180307173D01*
X88712901Y-180278383D01*
X88711056Y-180275406D01*
X88713815Y-180252462D01*
X88728458Y-180202016D01*
X88752433Y-180130721D01*
X88783186Y-180045227D01*
X88818164Y-179952187D01*
X88854813Y-179858254D01*
X88890581Y-179770079D01*
X88922914Y-179694314D01*
X88949258Y-179637611D01*
X88967062Y-179606623D01*
X88968327Y-179605137D01*
X88979214Y-179596281D01*
X88997602Y-179587523D01*
X89027526Y-179577957D01*
X89073023Y-179566676D01*
X89138129Y-179552773D01*
X89226881Y-179535343D01*
X89343313Y-179513478D01*
X89491462Y-179486271D01*
X89523538Y-179480421D01*
X89618606Y-179462054D01*
X89701485Y-179444085D01*
X89764850Y-179428249D01*
X89801378Y-179416280D01*
X89806276Y-179413490D01*
X89814347Y-179388752D01*
X89820907Y-179333470D01*
X89825953Y-179254069D01*
X89829479Y-179156976D01*
X89831481Y-179048618D01*
X89831956Y-178935420D01*
X89830897Y-178823808D01*
X89828302Y-178720209D01*
X89824166Y-178631048D01*
X89818483Y-178562752D01*
X89811251Y-178521746D01*
X89806891Y-178513354D01*
X89782618Y-178504888D01*
X89727346Y-178491115D01*
X89646582Y-178473230D01*
X89545832Y-178452428D01*
X89430603Y-178429903D01*
X89367822Y-178418098D01*
X89248707Y-178395831D01*
X89142485Y-178375659D01*
X89054347Y-178358595D01*
X88989486Y-178345649D01*
X88953094Y-178337835D01*
X88947104Y-178336102D01*
X88936981Y-178316570D01*
X88915582Y-178269523D01*
X88885759Y-178201683D01*
X88850365Y-178119771D01*
X88812252Y-178030508D01*
X88774273Y-177940615D01*
X88739280Y-177856815D01*
X88710126Y-177785827D01*
X88689663Y-177734374D01*
X88680743Y-177709177D01*
X88680577Y-177708076D01*
X88690689Y-177688199D01*
X88719037Y-177642457D01*
X88762643Y-177575397D01*
X88818526Y-177491564D01*
X88883707Y-177395506D01*
X88921599Y-177340330D01*
X88990645Y-177239161D01*
X89051970Y-177147310D01*
X89102583Y-177069424D01*
X89139491Y-177010149D01*
X89159702Y-176974131D01*
X89162621Y-176966057D01*
X89150073Y-176947264D01*
X89115383Y-176907137D01*
X89062983Y-176850173D01*
X88997304Y-176780865D01*
X88922776Y-176703711D01*
X88843833Y-176623205D01*
X88764903Y-176543843D01*
X88690420Y-176470120D01*
X88624814Y-176406532D01*
X88572516Y-176357574D01*
X88537959Y-176327741D01*
X88526398Y-176320622D01*
X88507574Y-176330633D01*
X88462551Y-176358758D01*
X88395707Y-176402134D01*
X88311419Y-176457898D01*
X88214064Y-176523186D01*
X88140627Y-176572926D01*
X87769587Y-176825231D01*
X87151015Y-176570235D01*
X87067195Y-176125611D01*
X86983374Y-175680987D01*
X86057926Y-175680987D01*
X85974106Y-176125611D01*
G04 #@! TD*
%LPC*%
D14*
G04 #@! TO.C,REF\002A\002A*
X79450000Y-186191000D03*
G04 #@! TD*
G04 #@! TO.C,REF\002A\002A*
X79450000Y-163150000D03*
G04 #@! TD*
G04 #@! TO.C,REF\002A\002A*
X79450000Y-137143800D03*
G04 #@! TD*
D15*
G04 #@! TO.C,J1*
X132567920Y-184928680D03*
D16*
X132567920Y-187468680D03*
X130027920Y-184928680D03*
X130027920Y-187468680D03*
X127487920Y-184928680D03*
X127487920Y-187468680D03*
X124947920Y-184928680D03*
X124947920Y-187468680D03*
X122407920Y-184928680D03*
X122407920Y-187468680D03*
X119867920Y-184928680D03*
X119867920Y-187468680D03*
X117327920Y-184928680D03*
X117327920Y-187468680D03*
X114787920Y-184928680D03*
X114787920Y-187468680D03*
X112247920Y-184928680D03*
X112247920Y-187468680D03*
X109707920Y-184928680D03*
X109707920Y-187468680D03*
X107167920Y-184928680D03*
X107167920Y-187468680D03*
X104627920Y-184928680D03*
X104627920Y-187468680D03*
X102087920Y-184928680D03*
X102087920Y-187468680D03*
X99547920Y-184928680D03*
X99547920Y-187468680D03*
X97007920Y-184928680D03*
X97007920Y-187468680D03*
X94467920Y-184928680D03*
X94467920Y-187468680D03*
X91927920Y-184928680D03*
X91927920Y-187468680D03*
X89387920Y-184928680D03*
X89387920Y-187468680D03*
X86847920Y-184928680D03*
X86847920Y-187468680D03*
X84307920Y-184928680D03*
X84307920Y-187468680D03*
G04 #@! TD*
G04 #@! TO.C,J2*
X130027920Y-191786680D03*
X127487920Y-191786680D03*
X124947920Y-191786680D03*
X122407920Y-191786680D03*
X119867920Y-191786680D03*
X117327920Y-191786680D03*
X114787920Y-191786680D03*
X112247920Y-191786680D03*
X109707920Y-191786680D03*
X107167920Y-191786680D03*
X104627920Y-191786680D03*
X102087920Y-191786680D03*
X99547920Y-191786680D03*
X97007920Y-191786680D03*
X94467920Y-191786680D03*
X91927920Y-191786680D03*
X89387920Y-191786680D03*
X86847920Y-191786680D03*
X84307920Y-191786680D03*
D15*
X81767920Y-191786680D03*
G04 #@! TD*
G04 #@! TO.C,J3*
X84320400Y-130463600D03*
D16*
X86860400Y-130463600D03*
X89400400Y-130463600D03*
G04 #@! TD*
G04 #@! TO.C,J4*
X132614000Y-130461000D03*
X130074000Y-130461000D03*
D15*
X127534000Y-130461000D03*
G04 #@! TD*
D14*
G04 #@! TO.C,REF\002A\002A*
X137434000Y-186191000D03*
G04 #@! TD*
G04 #@! TO.C,REF\002A\002A*
X137434000Y-137191000D03*
G04 #@! TD*
G04 #@! TO.C,REF\002A\002A*
X137454000Y-163201000D03*
G04 #@! TD*
D17*
G04 #@! TO.C,REF\002A\002A*
X142914000Y-188681000D03*
G04 #@! TD*
G04 #@! TO.C,REF\002A\002A*
X142904000Y-133641000D03*
G04 #@! TD*
M02*
