G04 #@! TF.GenerationSoftware,KiCad,Pcbnew,(5.0.2)-1*
G04 #@! TF.CreationDate,2019-03-17T11:04:46+01:00*
G04 #@! TF.ProjectId,iC880A_Adapter_V1.1,69433838-3041-45f4-9164-61707465725f,rev?*
G04 #@! TF.SameCoordinates,Original*
G04 #@! TF.FileFunction,Copper,L2,Bot*
G04 #@! TF.FilePolarity,Positive*
%FSLAX46Y46*%
G04 Gerber Fmt 4.6, Leading zero omitted, Abs format (unit mm)*
G04 Created by KiCad (PCBNEW (5.0.2)-1) date 17.03.2019 11:04:46*
%MOMM*%
%LPD*%
G01*
G04 APERTURE LIST*
G04 #@! TA.AperFunction,ComponentPad*
%ADD10R,1.700000X1.700000*%
G04 #@! TD*
G04 #@! TA.AperFunction,ComponentPad*
%ADD11O,1.700000X1.700000*%
G04 #@! TD*
G04 #@! TA.AperFunction,Conductor*
%ADD12C,0.500000*%
G04 #@! TD*
G04 #@! TA.AperFunction,Conductor*
%ADD13C,0.250000*%
G04 #@! TD*
G04 #@! TA.AperFunction,Conductor*
%ADD14C,0.254000*%
G04 #@! TD*
G04 APERTURE END LIST*
D10*
G04 #@! TO.P,J1,1*
G04 #@! TO.N,N/C*
X132567920Y-184928680D03*
D11*
G04 #@! TO.P,J1,2*
G04 #@! TO.N,+5V*
X132567920Y-187468680D03*
G04 #@! TO.P,J1,3*
G04 #@! TO.N,N/C*
X130027920Y-184928680D03*
G04 #@! TO.P,J1,4*
G04 #@! TO.N,+5V*
X130027920Y-187468680D03*
G04 #@! TO.P,J1,5*
G04 #@! TO.N,N/C*
X127487920Y-184928680D03*
G04 #@! TO.P,J1,6*
G04 #@! TO.N,GND*
X127487920Y-187468680D03*
G04 #@! TO.P,J1,7*
G04 #@! TO.N,N/C*
X124947920Y-184928680D03*
G04 #@! TO.P,J1,8*
X124947920Y-187468680D03*
G04 #@! TO.P,J1,9*
G04 #@! TO.N,GND*
X122407920Y-184928680D03*
G04 #@! TO.P,J1,10*
G04 #@! TO.N,N/C*
X122407920Y-187468680D03*
G04 #@! TO.P,J1,11*
X119867920Y-184928680D03*
G04 #@! TO.P,J1,12*
X119867920Y-187468680D03*
G04 #@! TO.P,J1,13*
X117327920Y-184928680D03*
G04 #@! TO.P,J1,14*
G04 #@! TO.N,GND*
X117327920Y-187468680D03*
G04 #@! TO.P,J1,15*
G04 #@! TO.N,N/C*
X114787920Y-184928680D03*
G04 #@! TO.P,J1,16*
X114787920Y-187468680D03*
G04 #@! TO.P,J1,17*
X112247920Y-184928680D03*
G04 #@! TO.P,J1,18*
X112247920Y-187468680D03*
G04 #@! TO.P,J1,19*
G04 #@! TO.N,GPIO10_SPI0_MOSI*
X109707920Y-184928680D03*
G04 #@! TO.P,J1,20*
G04 #@! TO.N,GND*
X109707920Y-187468680D03*
G04 #@! TO.P,J1,21*
G04 #@! TO.N,GPIO9_SPI0_MISO*
X107167920Y-184928680D03*
G04 #@! TO.P,J1,22*
G04 #@! TO.N,GPIO25*
X107167920Y-187468680D03*
G04 #@! TO.P,J1,23*
G04 #@! TO.N,GPIO11_SPI0_SCLK*
X104627920Y-184928680D03*
G04 #@! TO.P,J1,24*
G04 #@! TO.N,GPIO8_SPI0_CS0*
X104627920Y-187468680D03*
G04 #@! TO.P,J1,25*
G04 #@! TO.N,GND*
X102087920Y-184928680D03*
G04 #@! TO.P,J1,26*
G04 #@! TO.N,N/C*
X102087920Y-187468680D03*
G04 #@! TO.P,J1,27*
X99547920Y-184928680D03*
G04 #@! TO.P,J1,28*
X99547920Y-187468680D03*
G04 #@! TO.P,J1,29*
G04 #@! TO.N,GPIO5*
X97007920Y-184928680D03*
G04 #@! TO.P,J1,30*
G04 #@! TO.N,GND*
X97007920Y-187468680D03*
G04 #@! TO.P,J1,31*
G04 #@! TO.N,GPIO6*
X94467920Y-184928680D03*
G04 #@! TO.P,J1,32*
G04 #@! TO.N,GPIO12*
X94467920Y-187468680D03*
G04 #@! TO.P,J1,33*
G04 #@! TO.N,N/C*
X91927920Y-184928680D03*
G04 #@! TO.P,J1,34*
G04 #@! TO.N,GND*
X91927920Y-187468680D03*
G04 #@! TO.P,J1,35*
G04 #@! TO.N,N/C*
X89387920Y-184928680D03*
G04 #@! TO.P,J1,36*
G04 #@! TO.N,GPIO16*
X89387920Y-187468680D03*
G04 #@! TO.P,J1,37*
G04 #@! TO.N,N/C*
X86847920Y-184928680D03*
G04 #@! TO.P,J1,38*
G04 #@! TO.N,GPIO20*
X86847920Y-187468680D03*
G04 #@! TO.P,J1,39*
G04 #@! TO.N,GND*
X84307920Y-184928680D03*
G04 #@! TO.P,J1,40*
G04 #@! TO.N,N/C*
X84307920Y-187468680D03*
G04 #@! TD*
G04 #@! TO.P,J2,20*
G04 #@! TO.N,GND*
X130027920Y-191786680D03*
G04 #@! TO.P,J2,19*
G04 #@! TO.N,N/C*
X127487920Y-191786680D03*
G04 #@! TO.P,J2,18*
X124947920Y-191786680D03*
G04 #@! TO.P,J2,17*
G04 #@! TO.N,GPIO8_SPI0_CS0*
X122407920Y-191786680D03*
G04 #@! TO.P,J2,16*
G04 #@! TO.N,GPIO10_SPI0_MOSI*
X119867920Y-191786680D03*
G04 #@! TO.P,J2,15*
G04 #@! TO.N,GPIO9_SPI0_MISO*
X117327920Y-191786680D03*
G04 #@! TO.P,J2,14*
G04 #@! TO.N,GPIO11_SPI0_SCLK*
X114787920Y-191786680D03*
G04 #@! TO.P,J2,13*
G04 #@! TO.N,GPIO25*
X112247920Y-191786680D03*
G04 #@! TO.P,J2,12*
G04 #@! TO.N,GND*
X109707920Y-191786680D03*
G04 #@! TO.P,J2,11*
G04 #@! TO.N,GPIO5*
X107167920Y-191786680D03*
G04 #@! TO.P,J2,10*
G04 #@! TO.N,GPIO6*
X104627920Y-191786680D03*
G04 #@! TO.P,J2,9*
G04 #@! TO.N,GPIO12*
X102087920Y-191786680D03*
G04 #@! TO.P,J2,8*
G04 #@! TO.N,GPIO16*
X99547920Y-191786680D03*
G04 #@! TO.P,J2,7*
G04 #@! TO.N,GPIO20*
X97007920Y-191786680D03*
G04 #@! TO.P,J2,6*
G04 #@! TO.N,N/C*
X94467920Y-191786680D03*
G04 #@! TO.P,J2,5*
X91927920Y-191786680D03*
G04 #@! TO.P,J2,4*
X89387920Y-191786680D03*
G04 #@! TO.P,J2,3*
X86847920Y-191786680D03*
G04 #@! TO.P,J2,2*
X84307920Y-191786680D03*
D10*
G04 #@! TO.P,J2,1*
G04 #@! TO.N,GND*
X81767920Y-191786680D03*
G04 #@! TD*
G04 #@! TO.P,J3,1*
G04 #@! TO.N,+5V*
X84320400Y-130463600D03*
D11*
G04 #@! TO.P,J3,2*
G04 #@! TO.N,GND*
X86860400Y-130463600D03*
G04 #@! TO.P,J3,3*
G04 #@! TO.N,N/C*
X89400400Y-130463600D03*
G04 #@! TD*
G04 #@! TO.P,J4,3*
G04 #@! TO.N,N/C*
X132614000Y-130461000D03*
G04 #@! TO.P,J4,2*
X130074000Y-130461000D03*
D10*
G04 #@! TO.P,J4,1*
G04 #@! TO.N,GND*
X127534000Y-130461000D03*
G04 #@! TD*
D12*
G04 #@! TO.N,+5V*
X130027920Y-187468680D02*
X132567920Y-187468680D01*
X134026320Y-187468680D02*
X132567920Y-187468680D01*
X84320400Y-167947160D02*
X95122240Y-178749000D01*
X84320400Y-130463600D02*
X84320400Y-167947160D01*
X95122240Y-178749000D02*
X131042000Y-178749000D01*
X131042000Y-178749000D02*
X134434600Y-182141600D01*
X134434600Y-182141600D02*
X134434600Y-187060400D01*
X134434600Y-187060400D02*
X134026320Y-187468680D01*
D13*
G04 #@! TO.N,GND*
X90657700Y-186198460D02*
X90657700Y-182886660D01*
X91927920Y-187468680D02*
X90657700Y-186198460D01*
X90657700Y-182886660D02*
X91610200Y-181934160D01*
X91610200Y-181934160D02*
X101135200Y-181934160D01*
X101135200Y-181934160D02*
X102087920Y-182886880D01*
X102087920Y-182886880D02*
X102087920Y-184928680D01*
G04 #@! TO.N,GPIO25*
X112191680Y-189399080D02*
X112191680Y-191786680D01*
X111752400Y-188959800D02*
X112191680Y-189399080D01*
X107167920Y-187468680D02*
X108298000Y-188959800D01*
X108298000Y-188959800D02*
X111752400Y-188959800D01*
G04 #@! TO.N,GPIO5*
X97299800Y-183270200D02*
X97007920Y-183562080D01*
X97007920Y-183562080D02*
X97007920Y-184928680D01*
X105788840Y-190407600D02*
X102075000Y-190407600D01*
X107167920Y-191786680D02*
X105788840Y-190407600D01*
X102075000Y-190407600D02*
X100805000Y-189137600D01*
X100805000Y-189137600D02*
X100805000Y-183498800D01*
X100805000Y-183498800D02*
X100576400Y-183270200D01*
X100576400Y-183270200D02*
X97299800Y-183270200D01*
G04 #@! TO.N,GPIO12*
X98290400Y-188096200D02*
X98290400Y-186623000D01*
X102087920Y-191786680D02*
X98290400Y-188096200D01*
X98290400Y-186623000D02*
X97884000Y-186216600D01*
X97884000Y-186216600D02*
X95720000Y-186216600D01*
X95720000Y-186216600D02*
X94467920Y-187468680D01*
G04 #@! TO.N,GPIO16*
X89380080Y-189051240D02*
X89387920Y-187468680D01*
X90761840Y-190433000D02*
X89380080Y-189051240D01*
X99547920Y-191786680D02*
X98194240Y-190433000D01*
X98194240Y-190433000D02*
X90761840Y-190433000D01*
G04 #@! TO.N,GPIO10_SPI0_MOSI*
X109707920Y-183689080D02*
X109707920Y-184928680D01*
X110139500Y-183257500D02*
X109707920Y-183689080D01*
X118140500Y-183257500D02*
X110139500Y-183257500D01*
X118585000Y-183702000D02*
X118140500Y-183257500D01*
X119867920Y-191786680D02*
X118585000Y-190503760D01*
X118585000Y-190503760D02*
X118585000Y-183702000D01*
G04 #@! TO.N,GPIO11_SPI0_SCLK*
X113505000Y-190503760D02*
X114787920Y-191786680D01*
X113505000Y-186750000D02*
X113505000Y-190503760D01*
X112946200Y-186191200D02*
X113505000Y-186750000D01*
X104627920Y-184928680D02*
X105890440Y-186191200D01*
X105890440Y-186191200D02*
X112946200Y-186191200D01*
G04 #@! TO.N,GPIO8_SPI0_CS0*
X103357700Y-183689300D02*
X103357700Y-186198460D01*
X104526100Y-182520900D02*
X103357700Y-183689300D01*
X119943900Y-182520900D02*
X104526100Y-182520900D01*
X121150400Y-183727400D02*
X119943900Y-182520900D01*
X122351680Y-191786680D02*
X121150400Y-190585400D01*
X121150400Y-190585400D02*
X121150400Y-183727400D01*
X103357700Y-186198460D02*
X104627920Y-187468680D01*
G04 #@! TD*
D14*
G04 #@! TO.N,GND*
G36*
X145294920Y-193921680D02*
X77264920Y-193921680D01*
X77264920Y-192072430D01*
X80282920Y-192072430D01*
X80282920Y-192762989D01*
X80379593Y-192996378D01*
X80558221Y-193175007D01*
X80791610Y-193271680D01*
X81482170Y-193271680D01*
X81640920Y-193112930D01*
X81640920Y-191913680D01*
X80441670Y-191913680D01*
X80282920Y-192072430D01*
X77264920Y-192072430D01*
X77264920Y-190810371D01*
X80282920Y-190810371D01*
X80282920Y-191500930D01*
X80441670Y-191659680D01*
X81640920Y-191659680D01*
X81640920Y-190460430D01*
X81894920Y-190460430D01*
X81894920Y-191659680D01*
X81914920Y-191659680D01*
X81914920Y-191913680D01*
X81894920Y-191913680D01*
X81894920Y-193112930D01*
X82053670Y-193271680D01*
X82744230Y-193271680D01*
X82977619Y-193175007D01*
X83156247Y-192996378D01*
X83222824Y-192835647D01*
X83237295Y-192857305D01*
X83728502Y-193185519D01*
X84161664Y-193271680D01*
X84454176Y-193271680D01*
X84887338Y-193185519D01*
X85378545Y-192857305D01*
X85577920Y-192558919D01*
X85777295Y-192857305D01*
X86268502Y-193185519D01*
X86701664Y-193271680D01*
X86994176Y-193271680D01*
X87427338Y-193185519D01*
X87918545Y-192857305D01*
X88117920Y-192558919D01*
X88317295Y-192857305D01*
X88808502Y-193185519D01*
X89241664Y-193271680D01*
X89534176Y-193271680D01*
X89967338Y-193185519D01*
X90458545Y-192857305D01*
X90657920Y-192558919D01*
X90857295Y-192857305D01*
X91348502Y-193185519D01*
X91781664Y-193271680D01*
X92074176Y-193271680D01*
X92507338Y-193185519D01*
X92998545Y-192857305D01*
X93197920Y-192558919D01*
X93397295Y-192857305D01*
X93888502Y-193185519D01*
X94321664Y-193271680D01*
X94614176Y-193271680D01*
X95047338Y-193185519D01*
X95538545Y-192857305D01*
X95737920Y-192558919D01*
X95937295Y-192857305D01*
X96428502Y-193185519D01*
X96861664Y-193271680D01*
X97154176Y-193271680D01*
X97587338Y-193185519D01*
X98078545Y-192857305D01*
X98277920Y-192558919D01*
X98477295Y-192857305D01*
X98968502Y-193185519D01*
X99401664Y-193271680D01*
X99694176Y-193271680D01*
X100127338Y-193185519D01*
X100618545Y-192857305D01*
X100817920Y-192558919D01*
X101017295Y-192857305D01*
X101508502Y-193185519D01*
X101941664Y-193271680D01*
X102234176Y-193271680D01*
X102667338Y-193185519D01*
X103158545Y-192857305D01*
X103357920Y-192558919D01*
X103557295Y-192857305D01*
X104048502Y-193185519D01*
X104481664Y-193271680D01*
X104774176Y-193271680D01*
X105207338Y-193185519D01*
X105698545Y-192857305D01*
X105897920Y-192558919D01*
X106097295Y-192857305D01*
X106588502Y-193185519D01*
X107021664Y-193271680D01*
X107314176Y-193271680D01*
X107747338Y-193185519D01*
X108238545Y-192857305D01*
X108451763Y-192538202D01*
X108512737Y-192668038D01*
X108940996Y-193058325D01*
X109351030Y-193228156D01*
X109580920Y-193106835D01*
X109580920Y-191913680D01*
X109560920Y-191913680D01*
X109560920Y-191659680D01*
X109580920Y-191659680D01*
X109580920Y-190466525D01*
X109351030Y-190345204D01*
X108940996Y-190515035D01*
X108512737Y-190905322D01*
X108451763Y-191035158D01*
X108238545Y-190716055D01*
X107747338Y-190387841D01*
X107314176Y-190301680D01*
X107021664Y-190301680D01*
X106801512Y-190345471D01*
X106379171Y-189923130D01*
X106336769Y-189859671D01*
X106085377Y-189691696D01*
X105863692Y-189647600D01*
X105863687Y-189647600D01*
X105788840Y-189632712D01*
X105713993Y-189647600D01*
X102389802Y-189647600D01*
X101634853Y-188892652D01*
X101941664Y-188953680D01*
X102234176Y-188953680D01*
X102667338Y-188867519D01*
X103158545Y-188539305D01*
X103357920Y-188240919D01*
X103557295Y-188539305D01*
X104048502Y-188867519D01*
X104481664Y-188953680D01*
X104774176Y-188953680D01*
X105207338Y-188867519D01*
X105698545Y-188539305D01*
X105897920Y-188240919D01*
X106097295Y-188539305D01*
X106588502Y-188867519D01*
X107021664Y-188953680D01*
X107314176Y-188953680D01*
X107336408Y-188949258D01*
X107678649Y-189400838D01*
X107750071Y-189507729D01*
X107832451Y-189562774D01*
X107906551Y-189628545D01*
X107957039Y-189646021D01*
X108001463Y-189675704D01*
X108098640Y-189695034D01*
X108192266Y-189727441D01*
X108320592Y-189719800D01*
X111431680Y-189719800D01*
X111431680Y-190546080D01*
X111177295Y-190716055D01*
X110964077Y-191035158D01*
X110903103Y-190905322D01*
X110474844Y-190515035D01*
X110064810Y-190345204D01*
X109834920Y-190466525D01*
X109834920Y-191659680D01*
X109854920Y-191659680D01*
X109854920Y-191913680D01*
X109834920Y-191913680D01*
X109834920Y-193106835D01*
X110064810Y-193228156D01*
X110474844Y-193058325D01*
X110903103Y-192668038D01*
X110964077Y-192538202D01*
X111177295Y-192857305D01*
X111668502Y-193185519D01*
X112101664Y-193271680D01*
X112394176Y-193271680D01*
X112827338Y-193185519D01*
X113318545Y-192857305D01*
X113517920Y-192558919D01*
X113717295Y-192857305D01*
X114208502Y-193185519D01*
X114641664Y-193271680D01*
X114934176Y-193271680D01*
X115367338Y-193185519D01*
X115858545Y-192857305D01*
X116057920Y-192558919D01*
X116257295Y-192857305D01*
X116748502Y-193185519D01*
X117181664Y-193271680D01*
X117474176Y-193271680D01*
X117907338Y-193185519D01*
X118398545Y-192857305D01*
X118597920Y-192558919D01*
X118797295Y-192857305D01*
X119288502Y-193185519D01*
X119721664Y-193271680D01*
X120014176Y-193271680D01*
X120447338Y-193185519D01*
X120938545Y-192857305D01*
X121137920Y-192558919D01*
X121337295Y-192857305D01*
X121828502Y-193185519D01*
X122261664Y-193271680D01*
X122554176Y-193271680D01*
X122987338Y-193185519D01*
X123478545Y-192857305D01*
X123677920Y-192558919D01*
X123877295Y-192857305D01*
X124368502Y-193185519D01*
X124801664Y-193271680D01*
X125094176Y-193271680D01*
X125527338Y-193185519D01*
X126018545Y-192857305D01*
X126217920Y-192558919D01*
X126417295Y-192857305D01*
X126908502Y-193185519D01*
X127341664Y-193271680D01*
X127634176Y-193271680D01*
X128067338Y-193185519D01*
X128558545Y-192857305D01*
X128771763Y-192538202D01*
X128832737Y-192668038D01*
X129260996Y-193058325D01*
X129671030Y-193228156D01*
X129900920Y-193106835D01*
X129900920Y-191913680D01*
X130154920Y-191913680D01*
X130154920Y-193106835D01*
X130384810Y-193228156D01*
X130794844Y-193058325D01*
X131223103Y-192668038D01*
X131469406Y-192143572D01*
X131348739Y-191913680D01*
X130154920Y-191913680D01*
X129900920Y-191913680D01*
X129880920Y-191913680D01*
X129880920Y-191659680D01*
X129900920Y-191659680D01*
X129900920Y-190466525D01*
X130154920Y-190466525D01*
X130154920Y-191659680D01*
X131348739Y-191659680D01*
X131469406Y-191429788D01*
X131223103Y-190905322D01*
X130794844Y-190515035D01*
X130384810Y-190345204D01*
X130154920Y-190466525D01*
X129900920Y-190466525D01*
X129671030Y-190345204D01*
X129260996Y-190515035D01*
X128832737Y-190905322D01*
X128771763Y-191035158D01*
X128558545Y-190716055D01*
X128067338Y-190387841D01*
X127634176Y-190301680D01*
X127341664Y-190301680D01*
X126908502Y-190387841D01*
X126417295Y-190716055D01*
X126217920Y-191014441D01*
X126018545Y-190716055D01*
X125527338Y-190387841D01*
X125094176Y-190301680D01*
X124801664Y-190301680D01*
X124368502Y-190387841D01*
X123877295Y-190716055D01*
X123677920Y-191014441D01*
X123478545Y-190716055D01*
X122987338Y-190387841D01*
X122554176Y-190301680D01*
X122261664Y-190301680D01*
X121994603Y-190354802D01*
X121910400Y-190270599D01*
X121910400Y-188883809D01*
X122261664Y-188953680D01*
X122554176Y-188953680D01*
X122987338Y-188867519D01*
X123478545Y-188539305D01*
X123677920Y-188240919D01*
X123877295Y-188539305D01*
X124368502Y-188867519D01*
X124801664Y-188953680D01*
X125094176Y-188953680D01*
X125527338Y-188867519D01*
X126018545Y-188539305D01*
X126231763Y-188220202D01*
X126292737Y-188350038D01*
X126720996Y-188740325D01*
X127131030Y-188910156D01*
X127360920Y-188788835D01*
X127360920Y-187595680D01*
X127340920Y-187595680D01*
X127340920Y-187341680D01*
X127360920Y-187341680D01*
X127360920Y-187321680D01*
X127614920Y-187321680D01*
X127614920Y-187341680D01*
X127634920Y-187341680D01*
X127634920Y-187595680D01*
X127614920Y-187595680D01*
X127614920Y-188788835D01*
X127844810Y-188910156D01*
X128254844Y-188740325D01*
X128683103Y-188350038D01*
X128744077Y-188220202D01*
X128957295Y-188539305D01*
X129448502Y-188867519D01*
X129881664Y-188953680D01*
X130174176Y-188953680D01*
X130607338Y-188867519D01*
X131098545Y-188539305D01*
X131222576Y-188353680D01*
X131373264Y-188353680D01*
X131497295Y-188539305D01*
X131988502Y-188867519D01*
X132421664Y-188953680D01*
X132714176Y-188953680D01*
X133147338Y-188867519D01*
X133638545Y-188539305D01*
X133762576Y-188353680D01*
X133939159Y-188353680D01*
X134026320Y-188371017D01*
X134113481Y-188353680D01*
X134113485Y-188353680D01*
X134371630Y-188302332D01*
X134470257Y-188236431D01*
X140679000Y-188236431D01*
X140679000Y-189125569D01*
X141019259Y-189947026D01*
X141647974Y-190575741D01*
X142469431Y-190916000D01*
X143358569Y-190916000D01*
X144180026Y-190575741D01*
X144808741Y-189947026D01*
X145149000Y-189125569D01*
X145149000Y-188236431D01*
X144808741Y-187414974D01*
X144180026Y-186786259D01*
X143358569Y-186446000D01*
X142469431Y-186446000D01*
X141647974Y-186786259D01*
X141019259Y-187414974D01*
X140679000Y-188236431D01*
X134470257Y-188236431D01*
X134664369Y-188106729D01*
X134713745Y-188032833D01*
X134998753Y-187747825D01*
X135072649Y-187698449D01*
X135268252Y-187405710D01*
X135319600Y-187147565D01*
X135319600Y-187147561D01*
X135336937Y-187060401D01*
X135319600Y-186973241D01*
X135319600Y-185796159D01*
X135449000Y-185796159D01*
X135449000Y-186585841D01*
X135751199Y-187315412D01*
X136309588Y-187873801D01*
X137039159Y-188176000D01*
X137828841Y-188176000D01*
X138558412Y-187873801D01*
X139116801Y-187315412D01*
X139419000Y-186585841D01*
X139419000Y-185796159D01*
X139116801Y-185066588D01*
X138558412Y-184508199D01*
X137828841Y-184206000D01*
X137039159Y-184206000D01*
X136309588Y-184508199D01*
X135751199Y-185066588D01*
X135449000Y-185796159D01*
X135319600Y-185796159D01*
X135319600Y-182228761D01*
X135336937Y-182141600D01*
X135319600Y-182054439D01*
X135319600Y-182054435D01*
X135268252Y-181796290D01*
X135072649Y-181503551D01*
X134998756Y-181454177D01*
X131729425Y-178184847D01*
X131680049Y-178110951D01*
X131387310Y-177915348D01*
X131129165Y-177864000D01*
X131129161Y-177864000D01*
X131042000Y-177846663D01*
X130954839Y-177864000D01*
X95488819Y-177864000D01*
X85205400Y-167580582D01*
X85205400Y-162806159D01*
X135469000Y-162806159D01*
X135469000Y-163595841D01*
X135771199Y-164325412D01*
X136329588Y-164883801D01*
X137059159Y-165186000D01*
X137848841Y-165186000D01*
X138578412Y-164883801D01*
X139136801Y-164325412D01*
X139439000Y-163595841D01*
X139439000Y-162806159D01*
X139136801Y-162076588D01*
X138578412Y-161518199D01*
X137848841Y-161216000D01*
X137059159Y-161216000D01*
X136329588Y-161518199D01*
X135771199Y-162076588D01*
X135469000Y-162806159D01*
X85205400Y-162806159D01*
X85205400Y-136796159D01*
X135449000Y-136796159D01*
X135449000Y-137585841D01*
X135751199Y-138315412D01*
X136309588Y-138873801D01*
X137039159Y-139176000D01*
X137828841Y-139176000D01*
X138558412Y-138873801D01*
X139116801Y-138315412D01*
X139419000Y-137585841D01*
X139419000Y-136796159D01*
X139116801Y-136066588D01*
X138558412Y-135508199D01*
X137828841Y-135206000D01*
X137039159Y-135206000D01*
X136309588Y-135508199D01*
X135751199Y-136066588D01*
X135449000Y-136796159D01*
X85205400Y-136796159D01*
X85205400Y-133196431D01*
X140669000Y-133196431D01*
X140669000Y-134085569D01*
X141009259Y-134907026D01*
X141637974Y-135535741D01*
X142459431Y-135876000D01*
X143348569Y-135876000D01*
X144170026Y-135535741D01*
X144798741Y-134907026D01*
X145139000Y-134085569D01*
X145139000Y-133196431D01*
X144798741Y-132374974D01*
X144170026Y-131746259D01*
X143348569Y-131406000D01*
X142459431Y-131406000D01*
X141637974Y-131746259D01*
X141009259Y-132374974D01*
X140669000Y-133196431D01*
X85205400Y-133196431D01*
X85205400Y-131954078D01*
X85418165Y-131911757D01*
X85628209Y-131771409D01*
X85768557Y-131561365D01*
X85789139Y-131457892D01*
X86093476Y-131735245D01*
X86503510Y-131905076D01*
X86733400Y-131783755D01*
X86733400Y-130590600D01*
X86713400Y-130590600D01*
X86713400Y-130336600D01*
X86733400Y-130336600D01*
X86733400Y-129143445D01*
X86987400Y-129143445D01*
X86987400Y-130336600D01*
X87007400Y-130336600D01*
X87007400Y-130590600D01*
X86987400Y-130590600D01*
X86987400Y-131783755D01*
X87217290Y-131905076D01*
X87627324Y-131735245D01*
X88055583Y-131344958D01*
X88116557Y-131215122D01*
X88329775Y-131534225D01*
X88820982Y-131862439D01*
X89254144Y-131948600D01*
X89546656Y-131948600D01*
X89979818Y-131862439D01*
X90471025Y-131534225D01*
X90799239Y-131043018D01*
X90858170Y-130746750D01*
X126049000Y-130746750D01*
X126049000Y-131437309D01*
X126145673Y-131670698D01*
X126324301Y-131849327D01*
X126557690Y-131946000D01*
X127248250Y-131946000D01*
X127407000Y-131787250D01*
X127407000Y-130588000D01*
X126207750Y-130588000D01*
X126049000Y-130746750D01*
X90858170Y-130746750D01*
X90914492Y-130463600D01*
X90799239Y-129884182D01*
X90532308Y-129484691D01*
X126049000Y-129484691D01*
X126049000Y-130175250D01*
X126207750Y-130334000D01*
X127407000Y-130334000D01*
X127407000Y-129134750D01*
X127661000Y-129134750D01*
X127661000Y-130334000D01*
X127681000Y-130334000D01*
X127681000Y-130588000D01*
X127661000Y-130588000D01*
X127661000Y-131787250D01*
X127819750Y-131946000D01*
X128510310Y-131946000D01*
X128743699Y-131849327D01*
X128922327Y-131670698D01*
X128988904Y-131509967D01*
X129003375Y-131531625D01*
X129494582Y-131859839D01*
X129927744Y-131946000D01*
X130220256Y-131946000D01*
X130653418Y-131859839D01*
X131144625Y-131531625D01*
X131344000Y-131233239D01*
X131543375Y-131531625D01*
X132034582Y-131859839D01*
X132467744Y-131946000D01*
X132760256Y-131946000D01*
X133193418Y-131859839D01*
X133684625Y-131531625D01*
X134012839Y-131040418D01*
X134128092Y-130461000D01*
X134012839Y-129881582D01*
X133684625Y-129390375D01*
X133193418Y-129062161D01*
X132760256Y-128976000D01*
X132467744Y-128976000D01*
X132034582Y-129062161D01*
X131543375Y-129390375D01*
X131344000Y-129688761D01*
X131144625Y-129390375D01*
X130653418Y-129062161D01*
X130220256Y-128976000D01*
X129927744Y-128976000D01*
X129494582Y-129062161D01*
X129003375Y-129390375D01*
X128988904Y-129412033D01*
X128922327Y-129251302D01*
X128743699Y-129072673D01*
X128510310Y-128976000D01*
X127819750Y-128976000D01*
X127661000Y-129134750D01*
X127407000Y-129134750D01*
X127248250Y-128976000D01*
X126557690Y-128976000D01*
X126324301Y-129072673D01*
X126145673Y-129251302D01*
X126049000Y-129484691D01*
X90532308Y-129484691D01*
X90471025Y-129392975D01*
X89979818Y-129064761D01*
X89546656Y-128978600D01*
X89254144Y-128978600D01*
X88820982Y-129064761D01*
X88329775Y-129392975D01*
X88116557Y-129712078D01*
X88055583Y-129582242D01*
X87627324Y-129191955D01*
X87217290Y-129022124D01*
X86987400Y-129143445D01*
X86733400Y-129143445D01*
X86503510Y-129022124D01*
X86093476Y-129191955D01*
X85789139Y-129469308D01*
X85768557Y-129365835D01*
X85628209Y-129155791D01*
X85418165Y-129015443D01*
X85170400Y-128966160D01*
X83470400Y-128966160D01*
X83222635Y-129015443D01*
X83012591Y-129155791D01*
X82872243Y-129365835D01*
X82822960Y-129613600D01*
X82822960Y-131313600D01*
X82872243Y-131561365D01*
X83012591Y-131771409D01*
X83222635Y-131911757D01*
X83435400Y-131954078D01*
X83435401Y-167859994D01*
X83418063Y-167947160D01*
X83486748Y-168292469D01*
X83632976Y-168511314D01*
X83632978Y-168511316D01*
X83682352Y-168585209D01*
X83756245Y-168634583D01*
X94434817Y-179313156D01*
X94484191Y-179387049D01*
X94558084Y-179436423D01*
X94558085Y-179436424D01*
X94776930Y-179582652D01*
X95035075Y-179634000D01*
X95035079Y-179634000D01*
X95122240Y-179651337D01*
X95209401Y-179634000D01*
X130675422Y-179634000D01*
X133549600Y-182508179D01*
X133549600Y-183457433D01*
X133417920Y-183431240D01*
X131717920Y-183431240D01*
X131470155Y-183480523D01*
X131260111Y-183620871D01*
X131119763Y-183830915D01*
X131110736Y-183876299D01*
X131098545Y-183858055D01*
X130607338Y-183529841D01*
X130174176Y-183443680D01*
X129881664Y-183443680D01*
X129448502Y-183529841D01*
X128957295Y-183858055D01*
X128757920Y-184156441D01*
X128558545Y-183858055D01*
X128067338Y-183529841D01*
X127634176Y-183443680D01*
X127341664Y-183443680D01*
X126908502Y-183529841D01*
X126417295Y-183858055D01*
X126217920Y-184156441D01*
X126018545Y-183858055D01*
X125527338Y-183529841D01*
X125094176Y-183443680D01*
X124801664Y-183443680D01*
X124368502Y-183529841D01*
X123877295Y-183858055D01*
X123664077Y-184177158D01*
X123603103Y-184047322D01*
X123174844Y-183657035D01*
X122764810Y-183487204D01*
X122534920Y-183608525D01*
X122534920Y-184801680D01*
X122554920Y-184801680D01*
X122554920Y-185055680D01*
X122534920Y-185055680D01*
X122534920Y-185075680D01*
X122280920Y-185075680D01*
X122280920Y-185055680D01*
X122260920Y-185055680D01*
X122260920Y-184801680D01*
X122280920Y-184801680D01*
X122280920Y-183608525D01*
X122051030Y-183487204D01*
X121890719Y-183553603D01*
X121875880Y-183479005D01*
X121866304Y-183430862D01*
X121740729Y-183242927D01*
X121698329Y-183179471D01*
X121634873Y-183137071D01*
X120534231Y-182036430D01*
X120491829Y-181972971D01*
X120240437Y-181804996D01*
X120018752Y-181760900D01*
X120018747Y-181760900D01*
X119943900Y-181746012D01*
X119869053Y-181760900D01*
X104600946Y-181760900D01*
X104526099Y-181746012D01*
X104451252Y-181760900D01*
X104451248Y-181760900D01*
X104229563Y-181804996D01*
X103978171Y-181972971D01*
X103935771Y-182036427D01*
X102873230Y-183098969D01*
X102809771Y-183141371D01*
X102641796Y-183392764D01*
X102609447Y-183555394D01*
X102444810Y-183487204D01*
X102214920Y-183608525D01*
X102214920Y-184801680D01*
X102234920Y-184801680D01*
X102234920Y-185055680D01*
X102214920Y-185055680D01*
X102214920Y-185075680D01*
X101960920Y-185075680D01*
X101960920Y-185055680D01*
X101940920Y-185055680D01*
X101940920Y-184801680D01*
X101960920Y-184801680D01*
X101960920Y-183608525D01*
X101731030Y-183487204D01*
X101568831Y-183554385D01*
X101579888Y-183498799D01*
X101565000Y-183423952D01*
X101565000Y-183423948D01*
X101520904Y-183202263D01*
X101352929Y-182950871D01*
X101289470Y-182908469D01*
X101166731Y-182785730D01*
X101124329Y-182722271D01*
X100872937Y-182554296D01*
X100651252Y-182510200D01*
X100651247Y-182510200D01*
X100576400Y-182495312D01*
X100501553Y-182510200D01*
X97374648Y-182510200D01*
X97299800Y-182495312D01*
X97224952Y-182510200D01*
X97224948Y-182510200D01*
X97003263Y-182554296D01*
X96751871Y-182722271D01*
X96709469Y-182785730D01*
X96523450Y-182971749D01*
X96459991Y-183014151D01*
X96292016Y-183265544D01*
X96247920Y-183487229D01*
X96247920Y-183487233D01*
X96233032Y-183562080D01*
X96247920Y-183636927D01*
X96247920Y-183650502D01*
X95937295Y-183858055D01*
X95737920Y-184156441D01*
X95538545Y-183858055D01*
X95047338Y-183529841D01*
X94614176Y-183443680D01*
X94321664Y-183443680D01*
X93888502Y-183529841D01*
X93397295Y-183858055D01*
X93197920Y-184156441D01*
X92998545Y-183858055D01*
X92507338Y-183529841D01*
X92074176Y-183443680D01*
X91781664Y-183443680D01*
X91348502Y-183529841D01*
X90857295Y-183858055D01*
X90657920Y-184156441D01*
X90458545Y-183858055D01*
X89967338Y-183529841D01*
X89534176Y-183443680D01*
X89241664Y-183443680D01*
X88808502Y-183529841D01*
X88317295Y-183858055D01*
X88117920Y-184156441D01*
X87918545Y-183858055D01*
X87427338Y-183529841D01*
X86994176Y-183443680D01*
X86701664Y-183443680D01*
X86268502Y-183529841D01*
X85777295Y-183858055D01*
X85564077Y-184177158D01*
X85503103Y-184047322D01*
X85074844Y-183657035D01*
X84664810Y-183487204D01*
X84434920Y-183608525D01*
X84434920Y-184801680D01*
X84454920Y-184801680D01*
X84454920Y-185055680D01*
X84434920Y-185055680D01*
X84434920Y-185075680D01*
X84180920Y-185075680D01*
X84180920Y-185055680D01*
X82987101Y-185055680D01*
X82866434Y-185285572D01*
X83112737Y-185810038D01*
X83537706Y-186197327D01*
X83237295Y-186398055D01*
X82909081Y-186889262D01*
X82793828Y-187468680D01*
X82909081Y-188048098D01*
X83237295Y-188539305D01*
X83728502Y-188867519D01*
X84161664Y-188953680D01*
X84454176Y-188953680D01*
X84887338Y-188867519D01*
X85378545Y-188539305D01*
X85577920Y-188240919D01*
X85777295Y-188539305D01*
X86268502Y-188867519D01*
X86701664Y-188953680D01*
X86994176Y-188953680D01*
X87427338Y-188867519D01*
X87918545Y-188539305D01*
X88117920Y-188240919D01*
X88317295Y-188539305D01*
X88621600Y-188742635D01*
X88620451Y-188974527D01*
X88605192Y-189051240D01*
X88634296Y-189197557D01*
X88662716Y-189344226D01*
X88663795Y-189345859D01*
X88664177Y-189347777D01*
X88747141Y-189471942D01*
X88829444Y-189596447D01*
X88894262Y-189640224D01*
X89561068Y-190307029D01*
X89534176Y-190301680D01*
X89241664Y-190301680D01*
X88808502Y-190387841D01*
X88317295Y-190716055D01*
X88117920Y-191014441D01*
X87918545Y-190716055D01*
X87427338Y-190387841D01*
X86994176Y-190301680D01*
X86701664Y-190301680D01*
X86268502Y-190387841D01*
X85777295Y-190716055D01*
X85577920Y-191014441D01*
X85378545Y-190716055D01*
X84887338Y-190387841D01*
X84454176Y-190301680D01*
X84161664Y-190301680D01*
X83728502Y-190387841D01*
X83237295Y-190716055D01*
X83222824Y-190737713D01*
X83156247Y-190576982D01*
X82977619Y-190398353D01*
X82744230Y-190301680D01*
X82053670Y-190301680D01*
X81894920Y-190460430D01*
X81640920Y-190460430D01*
X81482170Y-190301680D01*
X80791610Y-190301680D01*
X80558221Y-190398353D01*
X80379593Y-190576982D01*
X80282920Y-190810371D01*
X77264920Y-190810371D01*
X77264920Y-185796159D01*
X77465000Y-185796159D01*
X77465000Y-186585841D01*
X77767199Y-187315412D01*
X78325588Y-187873801D01*
X79055159Y-188176000D01*
X79844841Y-188176000D01*
X80574412Y-187873801D01*
X81132801Y-187315412D01*
X81435000Y-186585841D01*
X81435000Y-185796159D01*
X81132801Y-185066588D01*
X80638001Y-184571788D01*
X82866434Y-184571788D01*
X82987101Y-184801680D01*
X84180920Y-184801680D01*
X84180920Y-183608525D01*
X83951030Y-183487204D01*
X83540996Y-183657035D01*
X83112737Y-184047322D01*
X82866434Y-184571788D01*
X80638001Y-184571788D01*
X80574412Y-184508199D01*
X79844841Y-184206000D01*
X79055159Y-184206000D01*
X78325588Y-184508199D01*
X77767199Y-185066588D01*
X77465000Y-185796159D01*
X77264920Y-185796159D01*
X77264920Y-162755159D01*
X77465000Y-162755159D01*
X77465000Y-163544841D01*
X77767199Y-164274412D01*
X78325588Y-164832801D01*
X79055159Y-165135000D01*
X79844841Y-165135000D01*
X80574412Y-164832801D01*
X81132801Y-164274412D01*
X81435000Y-163544841D01*
X81435000Y-162755159D01*
X81132801Y-162025588D01*
X80574412Y-161467199D01*
X79844841Y-161165000D01*
X79055159Y-161165000D01*
X78325588Y-161467199D01*
X77767199Y-162025588D01*
X77465000Y-162755159D01*
X77264920Y-162755159D01*
X77264920Y-136748959D01*
X77465000Y-136748959D01*
X77465000Y-137538641D01*
X77767199Y-138268212D01*
X78325588Y-138826601D01*
X79055159Y-139128800D01*
X79844841Y-139128800D01*
X80574412Y-138826601D01*
X81132801Y-138268212D01*
X81435000Y-137538641D01*
X81435000Y-136748959D01*
X81132801Y-136019388D01*
X80574412Y-135460999D01*
X79844841Y-135158800D01*
X79055159Y-135158800D01*
X78325588Y-135460999D01*
X77767199Y-136019388D01*
X77465000Y-136748959D01*
X77264920Y-136748959D01*
X77264920Y-128391680D01*
X145294921Y-128391680D01*
X145294920Y-193921680D01*
X145294920Y-193921680D01*
G37*
X145294920Y-193921680D02*
X77264920Y-193921680D01*
X77264920Y-192072430D01*
X80282920Y-192072430D01*
X80282920Y-192762989D01*
X80379593Y-192996378D01*
X80558221Y-193175007D01*
X80791610Y-193271680D01*
X81482170Y-193271680D01*
X81640920Y-193112930D01*
X81640920Y-191913680D01*
X80441670Y-191913680D01*
X80282920Y-192072430D01*
X77264920Y-192072430D01*
X77264920Y-190810371D01*
X80282920Y-190810371D01*
X80282920Y-191500930D01*
X80441670Y-191659680D01*
X81640920Y-191659680D01*
X81640920Y-190460430D01*
X81894920Y-190460430D01*
X81894920Y-191659680D01*
X81914920Y-191659680D01*
X81914920Y-191913680D01*
X81894920Y-191913680D01*
X81894920Y-193112930D01*
X82053670Y-193271680D01*
X82744230Y-193271680D01*
X82977619Y-193175007D01*
X83156247Y-192996378D01*
X83222824Y-192835647D01*
X83237295Y-192857305D01*
X83728502Y-193185519D01*
X84161664Y-193271680D01*
X84454176Y-193271680D01*
X84887338Y-193185519D01*
X85378545Y-192857305D01*
X85577920Y-192558919D01*
X85777295Y-192857305D01*
X86268502Y-193185519D01*
X86701664Y-193271680D01*
X86994176Y-193271680D01*
X87427338Y-193185519D01*
X87918545Y-192857305D01*
X88117920Y-192558919D01*
X88317295Y-192857305D01*
X88808502Y-193185519D01*
X89241664Y-193271680D01*
X89534176Y-193271680D01*
X89967338Y-193185519D01*
X90458545Y-192857305D01*
X90657920Y-192558919D01*
X90857295Y-192857305D01*
X91348502Y-193185519D01*
X91781664Y-193271680D01*
X92074176Y-193271680D01*
X92507338Y-193185519D01*
X92998545Y-192857305D01*
X93197920Y-192558919D01*
X93397295Y-192857305D01*
X93888502Y-193185519D01*
X94321664Y-193271680D01*
X94614176Y-193271680D01*
X95047338Y-193185519D01*
X95538545Y-192857305D01*
X95737920Y-192558919D01*
X95937295Y-192857305D01*
X96428502Y-193185519D01*
X96861664Y-193271680D01*
X97154176Y-193271680D01*
X97587338Y-193185519D01*
X98078545Y-192857305D01*
X98277920Y-192558919D01*
X98477295Y-192857305D01*
X98968502Y-193185519D01*
X99401664Y-193271680D01*
X99694176Y-193271680D01*
X100127338Y-193185519D01*
X100618545Y-192857305D01*
X100817920Y-192558919D01*
X101017295Y-192857305D01*
X101508502Y-193185519D01*
X101941664Y-193271680D01*
X102234176Y-193271680D01*
X102667338Y-193185519D01*
X103158545Y-192857305D01*
X103357920Y-192558919D01*
X103557295Y-192857305D01*
X104048502Y-193185519D01*
X104481664Y-193271680D01*
X104774176Y-193271680D01*
X105207338Y-193185519D01*
X105698545Y-192857305D01*
X105897920Y-192558919D01*
X106097295Y-192857305D01*
X106588502Y-193185519D01*
X107021664Y-193271680D01*
X107314176Y-193271680D01*
X107747338Y-193185519D01*
X108238545Y-192857305D01*
X108451763Y-192538202D01*
X108512737Y-192668038D01*
X108940996Y-193058325D01*
X109351030Y-193228156D01*
X109580920Y-193106835D01*
X109580920Y-191913680D01*
X109560920Y-191913680D01*
X109560920Y-191659680D01*
X109580920Y-191659680D01*
X109580920Y-190466525D01*
X109351030Y-190345204D01*
X108940996Y-190515035D01*
X108512737Y-190905322D01*
X108451763Y-191035158D01*
X108238545Y-190716055D01*
X107747338Y-190387841D01*
X107314176Y-190301680D01*
X107021664Y-190301680D01*
X106801512Y-190345471D01*
X106379171Y-189923130D01*
X106336769Y-189859671D01*
X106085377Y-189691696D01*
X105863692Y-189647600D01*
X105863687Y-189647600D01*
X105788840Y-189632712D01*
X105713993Y-189647600D01*
X102389802Y-189647600D01*
X101634853Y-188892652D01*
X101941664Y-188953680D01*
X102234176Y-188953680D01*
X102667338Y-188867519D01*
X103158545Y-188539305D01*
X103357920Y-188240919D01*
X103557295Y-188539305D01*
X104048502Y-188867519D01*
X104481664Y-188953680D01*
X104774176Y-188953680D01*
X105207338Y-188867519D01*
X105698545Y-188539305D01*
X105897920Y-188240919D01*
X106097295Y-188539305D01*
X106588502Y-188867519D01*
X107021664Y-188953680D01*
X107314176Y-188953680D01*
X107336408Y-188949258D01*
X107678649Y-189400838D01*
X107750071Y-189507729D01*
X107832451Y-189562774D01*
X107906551Y-189628545D01*
X107957039Y-189646021D01*
X108001463Y-189675704D01*
X108098640Y-189695034D01*
X108192266Y-189727441D01*
X108320592Y-189719800D01*
X111431680Y-189719800D01*
X111431680Y-190546080D01*
X111177295Y-190716055D01*
X110964077Y-191035158D01*
X110903103Y-190905322D01*
X110474844Y-190515035D01*
X110064810Y-190345204D01*
X109834920Y-190466525D01*
X109834920Y-191659680D01*
X109854920Y-191659680D01*
X109854920Y-191913680D01*
X109834920Y-191913680D01*
X109834920Y-193106835D01*
X110064810Y-193228156D01*
X110474844Y-193058325D01*
X110903103Y-192668038D01*
X110964077Y-192538202D01*
X111177295Y-192857305D01*
X111668502Y-193185519D01*
X112101664Y-193271680D01*
X112394176Y-193271680D01*
X112827338Y-193185519D01*
X113318545Y-192857305D01*
X113517920Y-192558919D01*
X113717295Y-192857305D01*
X114208502Y-193185519D01*
X114641664Y-193271680D01*
X114934176Y-193271680D01*
X115367338Y-193185519D01*
X115858545Y-192857305D01*
X116057920Y-192558919D01*
X116257295Y-192857305D01*
X116748502Y-193185519D01*
X117181664Y-193271680D01*
X117474176Y-193271680D01*
X117907338Y-193185519D01*
X118398545Y-192857305D01*
X118597920Y-192558919D01*
X118797295Y-192857305D01*
X119288502Y-193185519D01*
X119721664Y-193271680D01*
X120014176Y-193271680D01*
X120447338Y-193185519D01*
X120938545Y-192857305D01*
X121137920Y-192558919D01*
X121337295Y-192857305D01*
X121828502Y-193185519D01*
X122261664Y-193271680D01*
X122554176Y-193271680D01*
X122987338Y-193185519D01*
X123478545Y-192857305D01*
X123677920Y-192558919D01*
X123877295Y-192857305D01*
X124368502Y-193185519D01*
X124801664Y-193271680D01*
X125094176Y-193271680D01*
X125527338Y-193185519D01*
X126018545Y-192857305D01*
X126217920Y-192558919D01*
X126417295Y-192857305D01*
X126908502Y-193185519D01*
X127341664Y-193271680D01*
X127634176Y-193271680D01*
X128067338Y-193185519D01*
X128558545Y-192857305D01*
X128771763Y-192538202D01*
X128832737Y-192668038D01*
X129260996Y-193058325D01*
X129671030Y-193228156D01*
X129900920Y-193106835D01*
X129900920Y-191913680D01*
X130154920Y-191913680D01*
X130154920Y-193106835D01*
X130384810Y-193228156D01*
X130794844Y-193058325D01*
X131223103Y-192668038D01*
X131469406Y-192143572D01*
X131348739Y-191913680D01*
X130154920Y-191913680D01*
X129900920Y-191913680D01*
X129880920Y-191913680D01*
X129880920Y-191659680D01*
X129900920Y-191659680D01*
X129900920Y-190466525D01*
X130154920Y-190466525D01*
X130154920Y-191659680D01*
X131348739Y-191659680D01*
X131469406Y-191429788D01*
X131223103Y-190905322D01*
X130794844Y-190515035D01*
X130384810Y-190345204D01*
X130154920Y-190466525D01*
X129900920Y-190466525D01*
X129671030Y-190345204D01*
X129260996Y-190515035D01*
X128832737Y-190905322D01*
X128771763Y-191035158D01*
X128558545Y-190716055D01*
X128067338Y-190387841D01*
X127634176Y-190301680D01*
X127341664Y-190301680D01*
X126908502Y-190387841D01*
X126417295Y-190716055D01*
X126217920Y-191014441D01*
X126018545Y-190716055D01*
X125527338Y-190387841D01*
X125094176Y-190301680D01*
X124801664Y-190301680D01*
X124368502Y-190387841D01*
X123877295Y-190716055D01*
X123677920Y-191014441D01*
X123478545Y-190716055D01*
X122987338Y-190387841D01*
X122554176Y-190301680D01*
X122261664Y-190301680D01*
X121994603Y-190354802D01*
X121910400Y-190270599D01*
X121910400Y-188883809D01*
X122261664Y-188953680D01*
X122554176Y-188953680D01*
X122987338Y-188867519D01*
X123478545Y-188539305D01*
X123677920Y-188240919D01*
X123877295Y-188539305D01*
X124368502Y-188867519D01*
X124801664Y-188953680D01*
X125094176Y-188953680D01*
X125527338Y-188867519D01*
X126018545Y-188539305D01*
X126231763Y-188220202D01*
X126292737Y-188350038D01*
X126720996Y-188740325D01*
X127131030Y-188910156D01*
X127360920Y-188788835D01*
X127360920Y-187595680D01*
X127340920Y-187595680D01*
X127340920Y-187341680D01*
X127360920Y-187341680D01*
X127360920Y-187321680D01*
X127614920Y-187321680D01*
X127614920Y-187341680D01*
X127634920Y-187341680D01*
X127634920Y-187595680D01*
X127614920Y-187595680D01*
X127614920Y-188788835D01*
X127844810Y-188910156D01*
X128254844Y-188740325D01*
X128683103Y-188350038D01*
X128744077Y-188220202D01*
X128957295Y-188539305D01*
X129448502Y-188867519D01*
X129881664Y-188953680D01*
X130174176Y-188953680D01*
X130607338Y-188867519D01*
X131098545Y-188539305D01*
X131222576Y-188353680D01*
X131373264Y-188353680D01*
X131497295Y-188539305D01*
X131988502Y-188867519D01*
X132421664Y-188953680D01*
X132714176Y-188953680D01*
X133147338Y-188867519D01*
X133638545Y-188539305D01*
X133762576Y-188353680D01*
X133939159Y-188353680D01*
X134026320Y-188371017D01*
X134113481Y-188353680D01*
X134113485Y-188353680D01*
X134371630Y-188302332D01*
X134470257Y-188236431D01*
X140679000Y-188236431D01*
X140679000Y-189125569D01*
X141019259Y-189947026D01*
X141647974Y-190575741D01*
X142469431Y-190916000D01*
X143358569Y-190916000D01*
X144180026Y-190575741D01*
X144808741Y-189947026D01*
X145149000Y-189125569D01*
X145149000Y-188236431D01*
X144808741Y-187414974D01*
X144180026Y-186786259D01*
X143358569Y-186446000D01*
X142469431Y-186446000D01*
X141647974Y-186786259D01*
X141019259Y-187414974D01*
X140679000Y-188236431D01*
X134470257Y-188236431D01*
X134664369Y-188106729D01*
X134713745Y-188032833D01*
X134998753Y-187747825D01*
X135072649Y-187698449D01*
X135268252Y-187405710D01*
X135319600Y-187147565D01*
X135319600Y-187147561D01*
X135336937Y-187060401D01*
X135319600Y-186973241D01*
X135319600Y-185796159D01*
X135449000Y-185796159D01*
X135449000Y-186585841D01*
X135751199Y-187315412D01*
X136309588Y-187873801D01*
X137039159Y-188176000D01*
X137828841Y-188176000D01*
X138558412Y-187873801D01*
X139116801Y-187315412D01*
X139419000Y-186585841D01*
X139419000Y-185796159D01*
X139116801Y-185066588D01*
X138558412Y-184508199D01*
X137828841Y-184206000D01*
X137039159Y-184206000D01*
X136309588Y-184508199D01*
X135751199Y-185066588D01*
X135449000Y-185796159D01*
X135319600Y-185796159D01*
X135319600Y-182228761D01*
X135336937Y-182141600D01*
X135319600Y-182054439D01*
X135319600Y-182054435D01*
X135268252Y-181796290D01*
X135072649Y-181503551D01*
X134998756Y-181454177D01*
X131729425Y-178184847D01*
X131680049Y-178110951D01*
X131387310Y-177915348D01*
X131129165Y-177864000D01*
X131129161Y-177864000D01*
X131042000Y-177846663D01*
X130954839Y-177864000D01*
X95488819Y-177864000D01*
X85205400Y-167580582D01*
X85205400Y-162806159D01*
X135469000Y-162806159D01*
X135469000Y-163595841D01*
X135771199Y-164325412D01*
X136329588Y-164883801D01*
X137059159Y-165186000D01*
X137848841Y-165186000D01*
X138578412Y-164883801D01*
X139136801Y-164325412D01*
X139439000Y-163595841D01*
X139439000Y-162806159D01*
X139136801Y-162076588D01*
X138578412Y-161518199D01*
X137848841Y-161216000D01*
X137059159Y-161216000D01*
X136329588Y-161518199D01*
X135771199Y-162076588D01*
X135469000Y-162806159D01*
X85205400Y-162806159D01*
X85205400Y-136796159D01*
X135449000Y-136796159D01*
X135449000Y-137585841D01*
X135751199Y-138315412D01*
X136309588Y-138873801D01*
X137039159Y-139176000D01*
X137828841Y-139176000D01*
X138558412Y-138873801D01*
X139116801Y-138315412D01*
X139419000Y-137585841D01*
X139419000Y-136796159D01*
X139116801Y-136066588D01*
X138558412Y-135508199D01*
X137828841Y-135206000D01*
X137039159Y-135206000D01*
X136309588Y-135508199D01*
X135751199Y-136066588D01*
X135449000Y-136796159D01*
X85205400Y-136796159D01*
X85205400Y-133196431D01*
X140669000Y-133196431D01*
X140669000Y-134085569D01*
X141009259Y-134907026D01*
X141637974Y-135535741D01*
X142459431Y-135876000D01*
X143348569Y-135876000D01*
X144170026Y-135535741D01*
X144798741Y-134907026D01*
X145139000Y-134085569D01*
X145139000Y-133196431D01*
X144798741Y-132374974D01*
X144170026Y-131746259D01*
X143348569Y-131406000D01*
X142459431Y-131406000D01*
X141637974Y-131746259D01*
X141009259Y-132374974D01*
X140669000Y-133196431D01*
X85205400Y-133196431D01*
X85205400Y-131954078D01*
X85418165Y-131911757D01*
X85628209Y-131771409D01*
X85768557Y-131561365D01*
X85789139Y-131457892D01*
X86093476Y-131735245D01*
X86503510Y-131905076D01*
X86733400Y-131783755D01*
X86733400Y-130590600D01*
X86713400Y-130590600D01*
X86713400Y-130336600D01*
X86733400Y-130336600D01*
X86733400Y-129143445D01*
X86987400Y-129143445D01*
X86987400Y-130336600D01*
X87007400Y-130336600D01*
X87007400Y-130590600D01*
X86987400Y-130590600D01*
X86987400Y-131783755D01*
X87217290Y-131905076D01*
X87627324Y-131735245D01*
X88055583Y-131344958D01*
X88116557Y-131215122D01*
X88329775Y-131534225D01*
X88820982Y-131862439D01*
X89254144Y-131948600D01*
X89546656Y-131948600D01*
X89979818Y-131862439D01*
X90471025Y-131534225D01*
X90799239Y-131043018D01*
X90858170Y-130746750D01*
X126049000Y-130746750D01*
X126049000Y-131437309D01*
X126145673Y-131670698D01*
X126324301Y-131849327D01*
X126557690Y-131946000D01*
X127248250Y-131946000D01*
X127407000Y-131787250D01*
X127407000Y-130588000D01*
X126207750Y-130588000D01*
X126049000Y-130746750D01*
X90858170Y-130746750D01*
X90914492Y-130463600D01*
X90799239Y-129884182D01*
X90532308Y-129484691D01*
X126049000Y-129484691D01*
X126049000Y-130175250D01*
X126207750Y-130334000D01*
X127407000Y-130334000D01*
X127407000Y-129134750D01*
X127661000Y-129134750D01*
X127661000Y-130334000D01*
X127681000Y-130334000D01*
X127681000Y-130588000D01*
X127661000Y-130588000D01*
X127661000Y-131787250D01*
X127819750Y-131946000D01*
X128510310Y-131946000D01*
X128743699Y-131849327D01*
X128922327Y-131670698D01*
X128988904Y-131509967D01*
X129003375Y-131531625D01*
X129494582Y-131859839D01*
X129927744Y-131946000D01*
X130220256Y-131946000D01*
X130653418Y-131859839D01*
X131144625Y-131531625D01*
X131344000Y-131233239D01*
X131543375Y-131531625D01*
X132034582Y-131859839D01*
X132467744Y-131946000D01*
X132760256Y-131946000D01*
X133193418Y-131859839D01*
X133684625Y-131531625D01*
X134012839Y-131040418D01*
X134128092Y-130461000D01*
X134012839Y-129881582D01*
X133684625Y-129390375D01*
X133193418Y-129062161D01*
X132760256Y-128976000D01*
X132467744Y-128976000D01*
X132034582Y-129062161D01*
X131543375Y-129390375D01*
X131344000Y-129688761D01*
X131144625Y-129390375D01*
X130653418Y-129062161D01*
X130220256Y-128976000D01*
X129927744Y-128976000D01*
X129494582Y-129062161D01*
X129003375Y-129390375D01*
X128988904Y-129412033D01*
X128922327Y-129251302D01*
X128743699Y-129072673D01*
X128510310Y-128976000D01*
X127819750Y-128976000D01*
X127661000Y-129134750D01*
X127407000Y-129134750D01*
X127248250Y-128976000D01*
X126557690Y-128976000D01*
X126324301Y-129072673D01*
X126145673Y-129251302D01*
X126049000Y-129484691D01*
X90532308Y-129484691D01*
X90471025Y-129392975D01*
X89979818Y-129064761D01*
X89546656Y-128978600D01*
X89254144Y-128978600D01*
X88820982Y-129064761D01*
X88329775Y-129392975D01*
X88116557Y-129712078D01*
X88055583Y-129582242D01*
X87627324Y-129191955D01*
X87217290Y-129022124D01*
X86987400Y-129143445D01*
X86733400Y-129143445D01*
X86503510Y-129022124D01*
X86093476Y-129191955D01*
X85789139Y-129469308D01*
X85768557Y-129365835D01*
X85628209Y-129155791D01*
X85418165Y-129015443D01*
X85170400Y-128966160D01*
X83470400Y-128966160D01*
X83222635Y-129015443D01*
X83012591Y-129155791D01*
X82872243Y-129365835D01*
X82822960Y-129613600D01*
X82822960Y-131313600D01*
X82872243Y-131561365D01*
X83012591Y-131771409D01*
X83222635Y-131911757D01*
X83435400Y-131954078D01*
X83435401Y-167859994D01*
X83418063Y-167947160D01*
X83486748Y-168292469D01*
X83632976Y-168511314D01*
X83632978Y-168511316D01*
X83682352Y-168585209D01*
X83756245Y-168634583D01*
X94434817Y-179313156D01*
X94484191Y-179387049D01*
X94558084Y-179436423D01*
X94558085Y-179436424D01*
X94776930Y-179582652D01*
X95035075Y-179634000D01*
X95035079Y-179634000D01*
X95122240Y-179651337D01*
X95209401Y-179634000D01*
X130675422Y-179634000D01*
X133549600Y-182508179D01*
X133549600Y-183457433D01*
X133417920Y-183431240D01*
X131717920Y-183431240D01*
X131470155Y-183480523D01*
X131260111Y-183620871D01*
X131119763Y-183830915D01*
X131110736Y-183876299D01*
X131098545Y-183858055D01*
X130607338Y-183529841D01*
X130174176Y-183443680D01*
X129881664Y-183443680D01*
X129448502Y-183529841D01*
X128957295Y-183858055D01*
X128757920Y-184156441D01*
X128558545Y-183858055D01*
X128067338Y-183529841D01*
X127634176Y-183443680D01*
X127341664Y-183443680D01*
X126908502Y-183529841D01*
X126417295Y-183858055D01*
X126217920Y-184156441D01*
X126018545Y-183858055D01*
X125527338Y-183529841D01*
X125094176Y-183443680D01*
X124801664Y-183443680D01*
X124368502Y-183529841D01*
X123877295Y-183858055D01*
X123664077Y-184177158D01*
X123603103Y-184047322D01*
X123174844Y-183657035D01*
X122764810Y-183487204D01*
X122534920Y-183608525D01*
X122534920Y-184801680D01*
X122554920Y-184801680D01*
X122554920Y-185055680D01*
X122534920Y-185055680D01*
X122534920Y-185075680D01*
X122280920Y-185075680D01*
X122280920Y-185055680D01*
X122260920Y-185055680D01*
X122260920Y-184801680D01*
X122280920Y-184801680D01*
X122280920Y-183608525D01*
X122051030Y-183487204D01*
X121890719Y-183553603D01*
X121875880Y-183479005D01*
X121866304Y-183430862D01*
X121740729Y-183242927D01*
X121698329Y-183179471D01*
X121634873Y-183137071D01*
X120534231Y-182036430D01*
X120491829Y-181972971D01*
X120240437Y-181804996D01*
X120018752Y-181760900D01*
X120018747Y-181760900D01*
X119943900Y-181746012D01*
X119869053Y-181760900D01*
X104600946Y-181760900D01*
X104526099Y-181746012D01*
X104451252Y-181760900D01*
X104451248Y-181760900D01*
X104229563Y-181804996D01*
X103978171Y-181972971D01*
X103935771Y-182036427D01*
X102873230Y-183098969D01*
X102809771Y-183141371D01*
X102641796Y-183392764D01*
X102609447Y-183555394D01*
X102444810Y-183487204D01*
X102214920Y-183608525D01*
X102214920Y-184801680D01*
X102234920Y-184801680D01*
X102234920Y-185055680D01*
X102214920Y-185055680D01*
X102214920Y-185075680D01*
X101960920Y-185075680D01*
X101960920Y-185055680D01*
X101940920Y-185055680D01*
X101940920Y-184801680D01*
X101960920Y-184801680D01*
X101960920Y-183608525D01*
X101731030Y-183487204D01*
X101568831Y-183554385D01*
X101579888Y-183498799D01*
X101565000Y-183423952D01*
X101565000Y-183423948D01*
X101520904Y-183202263D01*
X101352929Y-182950871D01*
X101289470Y-182908469D01*
X101166731Y-182785730D01*
X101124329Y-182722271D01*
X100872937Y-182554296D01*
X100651252Y-182510200D01*
X100651247Y-182510200D01*
X100576400Y-182495312D01*
X100501553Y-182510200D01*
X97374648Y-182510200D01*
X97299800Y-182495312D01*
X97224952Y-182510200D01*
X97224948Y-182510200D01*
X97003263Y-182554296D01*
X96751871Y-182722271D01*
X96709469Y-182785730D01*
X96523450Y-182971749D01*
X96459991Y-183014151D01*
X96292016Y-183265544D01*
X96247920Y-183487229D01*
X96247920Y-183487233D01*
X96233032Y-183562080D01*
X96247920Y-183636927D01*
X96247920Y-183650502D01*
X95937295Y-183858055D01*
X95737920Y-184156441D01*
X95538545Y-183858055D01*
X95047338Y-183529841D01*
X94614176Y-183443680D01*
X94321664Y-183443680D01*
X93888502Y-183529841D01*
X93397295Y-183858055D01*
X93197920Y-184156441D01*
X92998545Y-183858055D01*
X92507338Y-183529841D01*
X92074176Y-183443680D01*
X91781664Y-183443680D01*
X91348502Y-183529841D01*
X90857295Y-183858055D01*
X90657920Y-184156441D01*
X90458545Y-183858055D01*
X89967338Y-183529841D01*
X89534176Y-183443680D01*
X89241664Y-183443680D01*
X88808502Y-183529841D01*
X88317295Y-183858055D01*
X88117920Y-184156441D01*
X87918545Y-183858055D01*
X87427338Y-183529841D01*
X86994176Y-183443680D01*
X86701664Y-183443680D01*
X86268502Y-183529841D01*
X85777295Y-183858055D01*
X85564077Y-184177158D01*
X85503103Y-184047322D01*
X85074844Y-183657035D01*
X84664810Y-183487204D01*
X84434920Y-183608525D01*
X84434920Y-184801680D01*
X84454920Y-184801680D01*
X84454920Y-185055680D01*
X84434920Y-185055680D01*
X84434920Y-185075680D01*
X84180920Y-185075680D01*
X84180920Y-185055680D01*
X82987101Y-185055680D01*
X82866434Y-185285572D01*
X83112737Y-185810038D01*
X83537706Y-186197327D01*
X83237295Y-186398055D01*
X82909081Y-186889262D01*
X82793828Y-187468680D01*
X82909081Y-188048098D01*
X83237295Y-188539305D01*
X83728502Y-188867519D01*
X84161664Y-188953680D01*
X84454176Y-188953680D01*
X84887338Y-188867519D01*
X85378545Y-188539305D01*
X85577920Y-188240919D01*
X85777295Y-188539305D01*
X86268502Y-188867519D01*
X86701664Y-188953680D01*
X86994176Y-188953680D01*
X87427338Y-188867519D01*
X87918545Y-188539305D01*
X88117920Y-188240919D01*
X88317295Y-188539305D01*
X88621600Y-188742635D01*
X88620451Y-188974527D01*
X88605192Y-189051240D01*
X88634296Y-189197557D01*
X88662716Y-189344226D01*
X88663795Y-189345859D01*
X88664177Y-189347777D01*
X88747141Y-189471942D01*
X88829444Y-189596447D01*
X88894262Y-189640224D01*
X89561068Y-190307029D01*
X89534176Y-190301680D01*
X89241664Y-190301680D01*
X88808502Y-190387841D01*
X88317295Y-190716055D01*
X88117920Y-191014441D01*
X87918545Y-190716055D01*
X87427338Y-190387841D01*
X86994176Y-190301680D01*
X86701664Y-190301680D01*
X86268502Y-190387841D01*
X85777295Y-190716055D01*
X85577920Y-191014441D01*
X85378545Y-190716055D01*
X84887338Y-190387841D01*
X84454176Y-190301680D01*
X84161664Y-190301680D01*
X83728502Y-190387841D01*
X83237295Y-190716055D01*
X83222824Y-190737713D01*
X83156247Y-190576982D01*
X82977619Y-190398353D01*
X82744230Y-190301680D01*
X82053670Y-190301680D01*
X81894920Y-190460430D01*
X81640920Y-190460430D01*
X81482170Y-190301680D01*
X80791610Y-190301680D01*
X80558221Y-190398353D01*
X80379593Y-190576982D01*
X80282920Y-190810371D01*
X77264920Y-190810371D01*
X77264920Y-185796159D01*
X77465000Y-185796159D01*
X77465000Y-186585841D01*
X77767199Y-187315412D01*
X78325588Y-187873801D01*
X79055159Y-188176000D01*
X79844841Y-188176000D01*
X80574412Y-187873801D01*
X81132801Y-187315412D01*
X81435000Y-186585841D01*
X81435000Y-185796159D01*
X81132801Y-185066588D01*
X80638001Y-184571788D01*
X82866434Y-184571788D01*
X82987101Y-184801680D01*
X84180920Y-184801680D01*
X84180920Y-183608525D01*
X83951030Y-183487204D01*
X83540996Y-183657035D01*
X83112737Y-184047322D01*
X82866434Y-184571788D01*
X80638001Y-184571788D01*
X80574412Y-184508199D01*
X79844841Y-184206000D01*
X79055159Y-184206000D01*
X78325588Y-184508199D01*
X77767199Y-185066588D01*
X77465000Y-185796159D01*
X77264920Y-185796159D01*
X77264920Y-162755159D01*
X77465000Y-162755159D01*
X77465000Y-163544841D01*
X77767199Y-164274412D01*
X78325588Y-164832801D01*
X79055159Y-165135000D01*
X79844841Y-165135000D01*
X80574412Y-164832801D01*
X81132801Y-164274412D01*
X81435000Y-163544841D01*
X81435000Y-162755159D01*
X81132801Y-162025588D01*
X80574412Y-161467199D01*
X79844841Y-161165000D01*
X79055159Y-161165000D01*
X78325588Y-161467199D01*
X77767199Y-162025588D01*
X77465000Y-162755159D01*
X77264920Y-162755159D01*
X77264920Y-136748959D01*
X77465000Y-136748959D01*
X77465000Y-137538641D01*
X77767199Y-138268212D01*
X78325588Y-138826601D01*
X79055159Y-139128800D01*
X79844841Y-139128800D01*
X80574412Y-138826601D01*
X81132801Y-138268212D01*
X81435000Y-137538641D01*
X81435000Y-136748959D01*
X81132801Y-136019388D01*
X80574412Y-135460999D01*
X79844841Y-135158800D01*
X79055159Y-135158800D01*
X78325588Y-135460999D01*
X77767199Y-136019388D01*
X77465000Y-136748959D01*
X77264920Y-136748959D01*
X77264920Y-128391680D01*
X145294921Y-128391680D01*
X145294920Y-193921680D01*
G36*
X117454920Y-187341680D02*
X117474920Y-187341680D01*
X117474920Y-187595680D01*
X117454920Y-187595680D01*
X117454920Y-188788835D01*
X117684810Y-188910156D01*
X117825000Y-188852091D01*
X117825000Y-190371463D01*
X117474176Y-190301680D01*
X117181664Y-190301680D01*
X116748502Y-190387841D01*
X116257295Y-190716055D01*
X116057920Y-191014441D01*
X115858545Y-190716055D01*
X115367338Y-190387841D01*
X114934176Y-190301680D01*
X114641664Y-190301680D01*
X114421512Y-190345471D01*
X114265000Y-190188959D01*
X114265000Y-188878757D01*
X114641664Y-188953680D01*
X114934176Y-188953680D01*
X115367338Y-188867519D01*
X115858545Y-188539305D01*
X116071763Y-188220202D01*
X116132737Y-188350038D01*
X116560996Y-188740325D01*
X116971030Y-188910156D01*
X117200920Y-188788835D01*
X117200920Y-187595680D01*
X117180920Y-187595680D01*
X117180920Y-187341680D01*
X117200920Y-187341680D01*
X117200920Y-187321680D01*
X117454920Y-187321680D01*
X117454920Y-187341680D01*
X117454920Y-187341680D01*
G37*
X117454920Y-187341680D02*
X117474920Y-187341680D01*
X117474920Y-187595680D01*
X117454920Y-187595680D01*
X117454920Y-188788835D01*
X117684810Y-188910156D01*
X117825000Y-188852091D01*
X117825000Y-190371463D01*
X117474176Y-190301680D01*
X117181664Y-190301680D01*
X116748502Y-190387841D01*
X116257295Y-190716055D01*
X116057920Y-191014441D01*
X115858545Y-190716055D01*
X115367338Y-190387841D01*
X114934176Y-190301680D01*
X114641664Y-190301680D01*
X114421512Y-190345471D01*
X114265000Y-190188959D01*
X114265000Y-188878757D01*
X114641664Y-188953680D01*
X114934176Y-188953680D01*
X115367338Y-188867519D01*
X115858545Y-188539305D01*
X116071763Y-188220202D01*
X116132737Y-188350038D01*
X116560996Y-188740325D01*
X116971030Y-188910156D01*
X117200920Y-188788835D01*
X117200920Y-187595680D01*
X117180920Y-187595680D01*
X117180920Y-187341680D01*
X117200920Y-187341680D01*
X117200920Y-187321680D01*
X117454920Y-187321680D01*
X117454920Y-187341680D01*
G36*
X92054920Y-187341680D02*
X92074920Y-187341680D01*
X92074920Y-187595680D01*
X92054920Y-187595680D01*
X92054920Y-188788835D01*
X92284810Y-188910156D01*
X92694844Y-188740325D01*
X93123103Y-188350038D01*
X93184077Y-188220202D01*
X93397295Y-188539305D01*
X93888502Y-188867519D01*
X94321664Y-188953680D01*
X94614176Y-188953680D01*
X95047338Y-188867519D01*
X95538545Y-188539305D01*
X95751763Y-188220202D01*
X95812737Y-188350038D01*
X96240996Y-188740325D01*
X96651030Y-188910156D01*
X96880920Y-188788835D01*
X96880920Y-187595680D01*
X96860920Y-187595680D01*
X96860920Y-187341680D01*
X96880920Y-187341680D01*
X96880920Y-187321680D01*
X97134920Y-187321680D01*
X97134920Y-187341680D01*
X97154920Y-187341680D01*
X97154920Y-187595680D01*
X97134920Y-187595680D01*
X97134920Y-188788835D01*
X97364810Y-188910156D01*
X97774844Y-188740325D01*
X97820187Y-188699003D01*
X99469348Y-190301680D01*
X99401664Y-190301680D01*
X99181512Y-190345471D01*
X98784571Y-189948530D01*
X98742169Y-189885071D01*
X98490777Y-189717096D01*
X98269092Y-189673000D01*
X98269087Y-189673000D01*
X98194240Y-189658112D01*
X98119393Y-189673000D01*
X91076642Y-189673000D01*
X90149466Y-188745825D01*
X90458545Y-188539305D01*
X90671763Y-188220202D01*
X90732737Y-188350038D01*
X91160996Y-188740325D01*
X91571030Y-188910156D01*
X91800920Y-188788835D01*
X91800920Y-187595680D01*
X91780920Y-187595680D01*
X91780920Y-187341680D01*
X91800920Y-187341680D01*
X91800920Y-187321680D01*
X92054920Y-187321680D01*
X92054920Y-187341680D01*
X92054920Y-187341680D01*
G37*
X92054920Y-187341680D02*
X92074920Y-187341680D01*
X92074920Y-187595680D01*
X92054920Y-187595680D01*
X92054920Y-188788835D01*
X92284810Y-188910156D01*
X92694844Y-188740325D01*
X93123103Y-188350038D01*
X93184077Y-188220202D01*
X93397295Y-188539305D01*
X93888502Y-188867519D01*
X94321664Y-188953680D01*
X94614176Y-188953680D01*
X95047338Y-188867519D01*
X95538545Y-188539305D01*
X95751763Y-188220202D01*
X95812737Y-188350038D01*
X96240996Y-188740325D01*
X96651030Y-188910156D01*
X96880920Y-188788835D01*
X96880920Y-187595680D01*
X96860920Y-187595680D01*
X96860920Y-187341680D01*
X96880920Y-187341680D01*
X96880920Y-187321680D01*
X97134920Y-187321680D01*
X97134920Y-187341680D01*
X97154920Y-187341680D01*
X97154920Y-187595680D01*
X97134920Y-187595680D01*
X97134920Y-188788835D01*
X97364810Y-188910156D01*
X97774844Y-188740325D01*
X97820187Y-188699003D01*
X99469348Y-190301680D01*
X99401664Y-190301680D01*
X99181512Y-190345471D01*
X98784571Y-189948530D01*
X98742169Y-189885071D01*
X98490777Y-189717096D01*
X98269092Y-189673000D01*
X98269087Y-189673000D01*
X98194240Y-189658112D01*
X98119393Y-189673000D01*
X91076642Y-189673000D01*
X90149466Y-188745825D01*
X90458545Y-188539305D01*
X90671763Y-188220202D01*
X90732737Y-188350038D01*
X91160996Y-188740325D01*
X91571030Y-188910156D01*
X91800920Y-188788835D01*
X91800920Y-187595680D01*
X91780920Y-187595680D01*
X91780920Y-187341680D01*
X91800920Y-187341680D01*
X91800920Y-187321680D01*
X92054920Y-187321680D01*
X92054920Y-187341680D01*
G36*
X109834920Y-187341680D02*
X109854920Y-187341680D01*
X109854920Y-187595680D01*
X109834920Y-187595680D01*
X109834920Y-187615680D01*
X109580920Y-187615680D01*
X109580920Y-187595680D01*
X109560920Y-187595680D01*
X109560920Y-187341680D01*
X109580920Y-187341680D01*
X109580920Y-187321680D01*
X109834920Y-187321680D01*
X109834920Y-187341680D01*
X109834920Y-187341680D01*
G37*
X109834920Y-187341680D02*
X109854920Y-187341680D01*
X109854920Y-187595680D01*
X109834920Y-187595680D01*
X109834920Y-187615680D01*
X109580920Y-187615680D01*
X109580920Y-187595680D01*
X109560920Y-187595680D01*
X109560920Y-187341680D01*
X109580920Y-187341680D01*
X109580920Y-187321680D01*
X109834920Y-187321680D01*
X109834920Y-187341680D01*
G36*
X90857295Y-185999305D02*
X91157706Y-186200033D01*
X90732737Y-186587322D01*
X90671763Y-186717158D01*
X90458545Y-186398055D01*
X90160159Y-186198680D01*
X90458545Y-185999305D01*
X90657920Y-185700919D01*
X90857295Y-185999305D01*
X90857295Y-185999305D01*
G37*
X90857295Y-185999305D02*
X91157706Y-186200033D01*
X90732737Y-186587322D01*
X90671763Y-186717158D01*
X90458545Y-186398055D01*
X90160159Y-186198680D01*
X90458545Y-185999305D01*
X90657920Y-185700919D01*
X90857295Y-185999305D01*
G04 #@! TD*
M02*
