G04 #@! TF.GenerationSoftware,KiCad,Pcbnew,(5.0.2)-1*
G04 #@! TF.CreationDate,2019-03-17T11:04:46+01:00*
G04 #@! TF.ProjectId,iC880A_Adapter_V1.1,69433838-3041-45f4-9164-61707465725f,rev?*
G04 #@! TF.SameCoordinates,Original*
G04 #@! TF.FileFunction,Legend,Top*
G04 #@! TF.FilePolarity,Positive*
%FSLAX46Y46*%
G04 Gerber Fmt 4.6, Leading zero omitted, Abs format (unit mm)*
G04 Created by KiCad (PCBNEW (5.0.2)-1) date 17.03.2019 11:04:46*
%MOMM*%
%LPD*%
G01*
G04 APERTURE LIST*
%ADD10C,0.300000*%
%ADD11C,0.200000*%
%ADD12C,0.120000*%
%ADD13C,0.010000*%
%ADD14C,2.802000*%
%ADD15R,1.802000X1.802000*%
%ADD16O,1.802000X1.802000*%
%ADD17C,3.302000*%
G04 APERTURE END LIST*
D10*
X90367777Y-175835251D02*
X90867777Y-177335251D01*
X91367777Y-175835251D01*
X93796348Y-177335251D02*
X92939205Y-177335251D01*
X93367777Y-177335251D02*
X93367777Y-175835251D01*
X93224920Y-176049537D01*
X93082062Y-176192394D01*
X92939205Y-176263822D01*
X94439205Y-177192394D02*
X94510634Y-177263822D01*
X94439205Y-177335251D01*
X94367777Y-177263822D01*
X94439205Y-177192394D01*
X94439205Y-177335251D01*
X95939205Y-177335251D02*
X95082062Y-177335251D01*
X95510634Y-177335251D02*
X95510634Y-175835251D01*
X95367777Y-176049537D01*
X95224920Y-176192394D01*
X95082062Y-176263822D01*
X91439205Y-173335251D02*
X90939205Y-172620965D01*
X90582062Y-173335251D02*
X90582062Y-171835251D01*
X91153491Y-171835251D01*
X91296348Y-171906680D01*
X91367777Y-171978108D01*
X91439205Y-172120965D01*
X91439205Y-172335251D01*
X91367777Y-172478108D01*
X91296348Y-172549537D01*
X91153491Y-172620965D01*
X90582062Y-172620965D01*
X92724920Y-173335251D02*
X92724920Y-172549537D01*
X92653491Y-172406680D01*
X92510634Y-172335251D01*
X92224920Y-172335251D01*
X92082062Y-172406680D01*
X92724920Y-173263822D02*
X92582062Y-173335251D01*
X92224920Y-173335251D01*
X92082062Y-173263822D01*
X92010634Y-173120965D01*
X92010634Y-172978108D01*
X92082062Y-172835251D01*
X92224920Y-172763822D01*
X92582062Y-172763822D01*
X92724920Y-172692394D01*
X93367777Y-173263822D02*
X93510634Y-173335251D01*
X93796348Y-173335251D01*
X93939205Y-173263822D01*
X94010634Y-173120965D01*
X94010634Y-173049537D01*
X93939205Y-172906680D01*
X93796348Y-172835251D01*
X93582062Y-172835251D01*
X93439205Y-172763822D01*
X93367777Y-172620965D01*
X93367777Y-172549537D01*
X93439205Y-172406680D01*
X93582062Y-172335251D01*
X93796348Y-172335251D01*
X93939205Y-172406680D01*
X94653491Y-172335251D02*
X94653491Y-173835251D01*
X94653491Y-172406680D02*
X94796348Y-172335251D01*
X95082062Y-172335251D01*
X95224920Y-172406680D01*
X95296348Y-172478108D01*
X95367777Y-172620965D01*
X95367777Y-173049537D01*
X95296348Y-173192394D01*
X95224920Y-173263822D01*
X95082062Y-173335251D01*
X94796348Y-173335251D01*
X94653491Y-173263822D01*
X96010634Y-173335251D02*
X96010634Y-171835251D01*
X96010634Y-172406680D02*
X96153491Y-172335251D01*
X96439205Y-172335251D01*
X96582062Y-172406680D01*
X96653491Y-172478108D01*
X96724920Y-172620965D01*
X96724920Y-173049537D01*
X96653491Y-173192394D01*
X96582062Y-173263822D01*
X96439205Y-173335251D01*
X96153491Y-173335251D01*
X96010634Y-173263822D01*
X97939205Y-173263822D02*
X97796348Y-173335251D01*
X97510634Y-173335251D01*
X97367777Y-173263822D01*
X97296348Y-173120965D01*
X97296348Y-172549537D01*
X97367777Y-172406680D01*
X97510634Y-172335251D01*
X97796348Y-172335251D01*
X97939205Y-172406680D01*
X98010634Y-172549537D01*
X98010634Y-172692394D01*
X97296348Y-172835251D01*
X98653491Y-173335251D02*
X98653491Y-172335251D01*
X98653491Y-172620965D02*
X98724920Y-172478108D01*
X98796348Y-172406680D01*
X98939205Y-172335251D01*
X99082062Y-172335251D01*
X99582062Y-173335251D02*
X99582062Y-172335251D01*
X99582062Y-172620965D02*
X99653491Y-172478108D01*
X99724920Y-172406680D01*
X99867777Y-172335251D01*
X100010634Y-172335251D01*
X100367777Y-172335251D02*
X100724920Y-173335251D01*
X101082062Y-172335251D02*
X100724920Y-173335251D01*
X100582062Y-173692394D01*
X100510634Y-173763822D01*
X100367777Y-173835251D01*
X102796348Y-173335251D02*
X102796348Y-171835251D01*
X103367777Y-171835251D01*
X103510634Y-171906680D01*
X103582062Y-171978108D01*
X103653491Y-172120965D01*
X103653491Y-172335251D01*
X103582062Y-172478108D01*
X103510634Y-172549537D01*
X103367777Y-172620965D01*
X102796348Y-172620965D01*
X104296348Y-173335251D02*
X104296348Y-172335251D01*
X104296348Y-171835251D02*
X104224920Y-171906680D01*
X104296348Y-171978108D01*
X104367777Y-171906680D01*
X104296348Y-171835251D01*
X104296348Y-171978108D01*
X107224920Y-171763822D02*
X105939205Y-173692394D01*
X108867777Y-173335251D02*
X108867777Y-171835251D01*
X109439205Y-171835251D01*
X109582062Y-171906680D01*
X109653491Y-171978108D01*
X109724920Y-172120965D01*
X109724920Y-172335251D01*
X109653491Y-172478108D01*
X109582062Y-172549537D01*
X109439205Y-172620965D01*
X108867777Y-172620965D01*
X110367777Y-173335251D02*
X110367777Y-172335251D01*
X110367777Y-171835251D02*
X110296348Y-171906680D01*
X110367777Y-171978108D01*
X110439205Y-171906680D01*
X110367777Y-171835251D01*
X110367777Y-171978108D01*
X112082062Y-171835251D02*
X113082062Y-171835251D01*
X112082062Y-173335251D01*
X113082062Y-173335251D01*
X114224920Y-173263822D02*
X114082062Y-173335251D01*
X113796348Y-173335251D01*
X113653491Y-173263822D01*
X113582062Y-173120965D01*
X113582062Y-172549537D01*
X113653491Y-172406680D01*
X113796348Y-172335251D01*
X114082062Y-172335251D01*
X114224920Y-172406680D01*
X114296348Y-172549537D01*
X114296348Y-172692394D01*
X113582062Y-172835251D01*
X114939205Y-173335251D02*
X114939205Y-172335251D01*
X114939205Y-172620965D02*
X115010634Y-172478108D01*
X115082062Y-172406680D01*
X115224920Y-172335251D01*
X115367777Y-172335251D01*
X116082062Y-173335251D02*
X115939205Y-173263822D01*
X115867777Y-173192394D01*
X115796348Y-173049537D01*
X115796348Y-172620965D01*
X115867777Y-172478108D01*
X115939205Y-172406680D01*
X116082062Y-172335251D01*
X116296348Y-172335251D01*
X116439205Y-172406680D01*
X116510634Y-172478108D01*
X116582062Y-172620965D01*
X116582062Y-173049537D01*
X116510634Y-173192394D01*
X116439205Y-173263822D01*
X116296348Y-173335251D01*
X116082062Y-173335251D01*
D11*
X131699714Y-132918142D02*
X131756857Y-132861000D01*
X131871142Y-132803857D01*
X132156857Y-132803857D01*
X132271142Y-132861000D01*
X132328285Y-132918142D01*
X132385428Y-133032428D01*
X132385428Y-133146714D01*
X132328285Y-133318142D01*
X131642571Y-134003857D01*
X132385428Y-134003857D01*
X133414000Y-132803857D02*
X133185428Y-132803857D01*
X133071142Y-132861000D01*
X133014000Y-132918142D01*
X132899714Y-133089571D01*
X132842571Y-133318142D01*
X132842571Y-133775285D01*
X132899714Y-133889571D01*
X132956857Y-133946714D01*
X133071142Y-134003857D01*
X133299714Y-134003857D01*
X133414000Y-133946714D01*
X133471142Y-133889571D01*
X133528285Y-133775285D01*
X133528285Y-133489571D01*
X133471142Y-133375285D01*
X133414000Y-133318142D01*
X133299714Y-133261000D01*
X133071142Y-133261000D01*
X132956857Y-133318142D01*
X132899714Y-133375285D01*
X132842571Y-133489571D01*
X126687714Y-132918142D02*
X126744857Y-132861000D01*
X126859142Y-132803857D01*
X127144857Y-132803857D01*
X127259142Y-132861000D01*
X127316285Y-132918142D01*
X127373428Y-133032428D01*
X127373428Y-133146714D01*
X127316285Y-133318142D01*
X126630571Y-134003857D01*
X127373428Y-134003857D01*
X128402000Y-133203857D02*
X128402000Y-134003857D01*
X128116285Y-132746714D02*
X127830571Y-133603857D01*
X128573428Y-133603857D01*
X88486114Y-132920742D02*
X88543257Y-132863600D01*
X88657542Y-132806457D01*
X88943257Y-132806457D01*
X89057542Y-132863600D01*
X89114685Y-132920742D01*
X89171828Y-133035028D01*
X89171828Y-133149314D01*
X89114685Y-133320742D01*
X88428971Y-134006457D01*
X89171828Y-134006457D01*
X89571828Y-132806457D02*
X90314685Y-132806457D01*
X89914685Y-133263600D01*
X90086114Y-133263600D01*
X90200400Y-133320742D01*
X90257542Y-133377885D01*
X90314685Y-133492171D01*
X90314685Y-133777885D01*
X90257542Y-133892171D01*
X90200400Y-133949314D01*
X90086114Y-134006457D01*
X89743257Y-134006457D01*
X89628971Y-133949314D01*
X89571828Y-133892171D01*
X83379714Y-132920742D02*
X83436857Y-132863600D01*
X83551142Y-132806457D01*
X83836857Y-132806457D01*
X83951142Y-132863600D01*
X84008285Y-132920742D01*
X84065428Y-133035028D01*
X84065428Y-133149314D01*
X84008285Y-133320742D01*
X83322571Y-134006457D01*
X84065428Y-134006457D01*
X85208285Y-134006457D02*
X84522571Y-134006457D01*
X84865428Y-134006457D02*
X84865428Y-132806457D01*
X84751142Y-132977885D01*
X84636857Y-133092171D01*
X84522571Y-133149314D01*
X132353634Y-191287142D02*
X132410777Y-191230000D01*
X132525062Y-191172857D01*
X132810777Y-191172857D01*
X132925062Y-191230000D01*
X132982205Y-191287142D01*
X133039348Y-191401428D01*
X133039348Y-191515714D01*
X132982205Y-191687142D01*
X132296491Y-192372857D01*
X133039348Y-192372857D01*
X133782205Y-191172857D02*
X133896491Y-191172857D01*
X134010777Y-191230000D01*
X134067920Y-191287142D01*
X134125062Y-191401428D01*
X134182205Y-191630000D01*
X134182205Y-191915714D01*
X134125062Y-192144285D01*
X134067920Y-192258571D01*
X134010777Y-192315714D01*
X133896491Y-192372857D01*
X133782205Y-192372857D01*
X133667920Y-192315714D01*
X133610777Y-192258571D01*
X133553634Y-192144285D01*
X133496491Y-191915714D01*
X133496491Y-191630000D01*
X133553634Y-191401428D01*
X133610777Y-191287142D01*
X133667920Y-191230000D01*
X133782205Y-191172857D01*
X79610777Y-192329537D02*
X78925062Y-192329537D01*
X79267920Y-192329537D02*
X79267920Y-191129537D01*
X79153634Y-191300965D01*
X79039348Y-191415251D01*
X78925062Y-191472394D01*
X81465062Y-187921537D02*
X81465062Y-188721537D01*
X81179348Y-187464394D02*
X80893634Y-188321537D01*
X81636491Y-188321537D01*
X82322205Y-187521537D02*
X82436491Y-187521537D01*
X82550777Y-187578680D01*
X82607920Y-187635822D01*
X82665062Y-187750108D01*
X82722205Y-187978680D01*
X82722205Y-188264394D01*
X82665062Y-188492965D01*
X82607920Y-188607251D01*
X82550777Y-188664394D01*
X82436491Y-188721537D01*
X82322205Y-188721537D01*
X82207920Y-188664394D01*
X82150777Y-188607251D01*
X82093634Y-188492965D01*
X82036491Y-188264394D01*
X82036491Y-187978680D01*
X82093634Y-187750108D01*
X82150777Y-187635822D01*
X82207920Y-187578680D01*
X82322205Y-187521537D01*
X80836491Y-183521537D02*
X81579348Y-183521537D01*
X81179348Y-183978680D01*
X81350777Y-183978680D01*
X81465062Y-184035822D01*
X81522205Y-184092965D01*
X81579348Y-184207251D01*
X81579348Y-184492965D01*
X81522205Y-184607251D01*
X81465062Y-184664394D01*
X81350777Y-184721537D01*
X81007920Y-184721537D01*
X80893634Y-184664394D01*
X80836491Y-184607251D01*
X82150777Y-184721537D02*
X82379348Y-184721537D01*
X82493634Y-184664394D01*
X82550777Y-184607251D01*
X82665062Y-184435822D01*
X82722205Y-184207251D01*
X82722205Y-183750108D01*
X82665062Y-183635822D01*
X82607920Y-183578680D01*
X82493634Y-183521537D01*
X82265062Y-183521537D01*
X82150777Y-183578680D01*
X82093634Y-183635822D01*
X82036491Y-183750108D01*
X82036491Y-184035822D01*
X82093634Y-184150108D01*
X82150777Y-184207251D01*
X82265062Y-184264394D01*
X82493634Y-184264394D01*
X82607920Y-184207251D01*
X82665062Y-184150108D01*
X82722205Y-184035822D01*
X134475062Y-187635822D02*
X134532205Y-187578680D01*
X134646491Y-187521537D01*
X134932205Y-187521537D01*
X135046491Y-187578680D01*
X135103634Y-187635822D01*
X135160777Y-187750108D01*
X135160777Y-187864394D01*
X135103634Y-188035822D01*
X134417920Y-188721537D01*
X135160777Y-188721537D01*
D10*
X90701110Y-169561441D02*
X90701110Y-168228108D01*
X90701110Y-167561441D02*
X90605872Y-167656680D01*
X90701110Y-167751918D01*
X90796348Y-167656680D01*
X90701110Y-167561441D01*
X90701110Y-167751918D01*
X92796348Y-169370965D02*
X92701110Y-169466203D01*
X92415396Y-169561441D01*
X92224920Y-169561441D01*
X91939205Y-169466203D01*
X91748729Y-169275727D01*
X91653491Y-169085251D01*
X91558253Y-168704299D01*
X91558253Y-168418584D01*
X91653491Y-168037632D01*
X91748729Y-167847156D01*
X91939205Y-167656680D01*
X92224920Y-167561441D01*
X92415396Y-167561441D01*
X92701110Y-167656680D01*
X92796348Y-167751918D01*
X93939205Y-168418584D02*
X93748729Y-168323346D01*
X93653491Y-168228108D01*
X93558253Y-168037632D01*
X93558253Y-167942394D01*
X93653491Y-167751918D01*
X93748729Y-167656680D01*
X93939205Y-167561441D01*
X94320158Y-167561441D01*
X94510634Y-167656680D01*
X94605872Y-167751918D01*
X94701110Y-167942394D01*
X94701110Y-168037632D01*
X94605872Y-168228108D01*
X94510634Y-168323346D01*
X94320158Y-168418584D01*
X93939205Y-168418584D01*
X93748729Y-168513822D01*
X93653491Y-168609060D01*
X93558253Y-168799537D01*
X93558253Y-169180489D01*
X93653491Y-169370965D01*
X93748729Y-169466203D01*
X93939205Y-169561441D01*
X94320158Y-169561441D01*
X94510634Y-169466203D01*
X94605872Y-169370965D01*
X94701110Y-169180489D01*
X94701110Y-168799537D01*
X94605872Y-168609060D01*
X94510634Y-168513822D01*
X94320158Y-168418584D01*
X95843967Y-168418584D02*
X95653491Y-168323346D01*
X95558253Y-168228108D01*
X95463015Y-168037632D01*
X95463015Y-167942394D01*
X95558253Y-167751918D01*
X95653491Y-167656680D01*
X95843967Y-167561441D01*
X96224920Y-167561441D01*
X96415396Y-167656680D01*
X96510634Y-167751918D01*
X96605872Y-167942394D01*
X96605872Y-168037632D01*
X96510634Y-168228108D01*
X96415396Y-168323346D01*
X96224920Y-168418584D01*
X95843967Y-168418584D01*
X95653491Y-168513822D01*
X95558253Y-168609060D01*
X95463015Y-168799537D01*
X95463015Y-169180489D01*
X95558253Y-169370965D01*
X95653491Y-169466203D01*
X95843967Y-169561441D01*
X96224920Y-169561441D01*
X96415396Y-169466203D01*
X96510634Y-169370965D01*
X96605872Y-169180489D01*
X96605872Y-168799537D01*
X96510634Y-168609060D01*
X96415396Y-168513822D01*
X96224920Y-168418584D01*
X97843967Y-167561441D02*
X98034443Y-167561441D01*
X98224920Y-167656680D01*
X98320158Y-167751918D01*
X98415396Y-167942394D01*
X98510634Y-168323346D01*
X98510634Y-168799537D01*
X98415396Y-169180489D01*
X98320158Y-169370965D01*
X98224920Y-169466203D01*
X98034443Y-169561441D01*
X97843967Y-169561441D01*
X97653491Y-169466203D01*
X97558253Y-169370965D01*
X97463015Y-169180489D01*
X97367777Y-168799537D01*
X97367777Y-168323346D01*
X97463015Y-167942394D01*
X97558253Y-167751918D01*
X97653491Y-167656680D01*
X97843967Y-167561441D01*
X99272539Y-168990013D02*
X100224920Y-168990013D01*
X99082062Y-169561441D02*
X99748729Y-167561441D01*
X100415396Y-169561441D01*
X102605872Y-168799537D02*
X104129681Y-168799537D01*
X106510634Y-168990013D02*
X107463015Y-168990013D01*
X106320158Y-169561441D02*
X106986824Y-167561441D01*
X107653491Y-169561441D01*
X109177300Y-169561441D02*
X109177300Y-167561441D01*
X109177300Y-169466203D02*
X108986824Y-169561441D01*
X108605872Y-169561441D01*
X108415396Y-169466203D01*
X108320158Y-169370965D01*
X108224920Y-169180489D01*
X108224920Y-168609060D01*
X108320158Y-168418584D01*
X108415396Y-168323346D01*
X108605872Y-168228108D01*
X108986824Y-168228108D01*
X109177300Y-168323346D01*
X110986824Y-169561441D02*
X110986824Y-168513822D01*
X110891586Y-168323346D01*
X110701110Y-168228108D01*
X110320158Y-168228108D01*
X110129681Y-168323346D01*
X110986824Y-169466203D02*
X110796348Y-169561441D01*
X110320158Y-169561441D01*
X110129681Y-169466203D01*
X110034443Y-169275727D01*
X110034443Y-169085251D01*
X110129681Y-168894775D01*
X110320158Y-168799537D01*
X110796348Y-168799537D01*
X110986824Y-168704299D01*
X111939205Y-168228108D02*
X111939205Y-170228108D01*
X111939205Y-168323346D02*
X112129681Y-168228108D01*
X112510634Y-168228108D01*
X112701110Y-168323346D01*
X112796348Y-168418584D01*
X112891586Y-168609060D01*
X112891586Y-169180489D01*
X112796348Y-169370965D01*
X112701110Y-169466203D01*
X112510634Y-169561441D01*
X112129681Y-169561441D01*
X111939205Y-169466203D01*
X113463015Y-168228108D02*
X114224920Y-168228108D01*
X113748729Y-167561441D02*
X113748729Y-169275727D01*
X113843967Y-169466203D01*
X114034443Y-169561441D01*
X114224920Y-169561441D01*
X115653491Y-169466203D02*
X115463015Y-169561441D01*
X115082062Y-169561441D01*
X114891586Y-169466203D01*
X114796348Y-169275727D01*
X114796348Y-168513822D01*
X114891586Y-168323346D01*
X115082062Y-168228108D01*
X115463015Y-168228108D01*
X115653491Y-168323346D01*
X115748729Y-168513822D01*
X115748729Y-168704299D01*
X114796348Y-168894775D01*
X116605872Y-169561441D02*
X116605872Y-168228108D01*
X116605872Y-168609060D02*
X116701110Y-168418584D01*
X116796348Y-168323346D01*
X116986824Y-168228108D01*
X117177300Y-168228108D01*
X101292971Y-158063761D02*
X101292971Y-156063761D01*
X102150114Y-158063761D02*
X102150114Y-157016142D01*
X102054876Y-156825666D01*
X101864400Y-156730428D01*
X101578685Y-156730428D01*
X101388209Y-156825666D01*
X101292971Y-156920904D01*
X102816780Y-156730428D02*
X103578685Y-156730428D01*
X103102495Y-156063761D02*
X103102495Y-157778047D01*
X103197733Y-157968523D01*
X103388209Y-158063761D01*
X103578685Y-158063761D01*
X103959638Y-156730428D02*
X104721542Y-156730428D01*
X104245352Y-156063761D02*
X104245352Y-157778047D01*
X104340590Y-157968523D01*
X104531066Y-158063761D01*
X104721542Y-158063761D01*
X105388209Y-156730428D02*
X105388209Y-158730428D01*
X105388209Y-156825666D02*
X105578685Y-156730428D01*
X105959638Y-156730428D01*
X106150114Y-156825666D01*
X106245352Y-156920904D01*
X106340590Y-157111380D01*
X106340590Y-157682809D01*
X106245352Y-157873285D01*
X106150114Y-157968523D01*
X105959638Y-158063761D01*
X105578685Y-158063761D01*
X105388209Y-157968523D01*
X107102495Y-157968523D02*
X107292971Y-158063761D01*
X107673923Y-158063761D01*
X107864400Y-157968523D01*
X107959638Y-157778047D01*
X107959638Y-157682809D01*
X107864400Y-157492333D01*
X107673923Y-157397095D01*
X107388209Y-157397095D01*
X107197733Y-157301857D01*
X107102495Y-157111380D01*
X107102495Y-157016142D01*
X107197733Y-156825666D01*
X107388209Y-156730428D01*
X107673923Y-156730428D01*
X107864400Y-156825666D01*
X108816780Y-157873285D02*
X108912019Y-157968523D01*
X108816780Y-158063761D01*
X108721542Y-157968523D01*
X108816780Y-157873285D01*
X108816780Y-158063761D01*
X108816780Y-156825666D02*
X108912019Y-156920904D01*
X108816780Y-157016142D01*
X108721542Y-156920904D01*
X108816780Y-156825666D01*
X108816780Y-157016142D01*
X111197733Y-155968523D02*
X109483447Y-158539952D01*
X113292971Y-155968523D02*
X111578685Y-158539952D01*
X114245352Y-158063761D02*
X114054876Y-157968523D01*
X113959638Y-157873285D01*
X113864400Y-157682809D01*
X113864400Y-157111380D01*
X113959638Y-156920904D01*
X114054876Y-156825666D01*
X114245352Y-156730428D01*
X114531066Y-156730428D01*
X114721542Y-156825666D01*
X114816780Y-156920904D01*
X114912019Y-157111380D01*
X114912019Y-157682809D01*
X114816780Y-157873285D01*
X114721542Y-157968523D01*
X114531066Y-158063761D01*
X114245352Y-158063761D01*
X115769161Y-156730428D02*
X115769161Y-158730428D01*
X115769161Y-156825666D02*
X115959638Y-156730428D01*
X116340590Y-156730428D01*
X116531066Y-156825666D01*
X116626304Y-156920904D01*
X116721542Y-157111380D01*
X116721542Y-157682809D01*
X116626304Y-157873285D01*
X116531066Y-157968523D01*
X116340590Y-158063761D01*
X115959638Y-158063761D01*
X115769161Y-157968523D01*
X118340590Y-157968523D02*
X118150114Y-158063761D01*
X117769161Y-158063761D01*
X117578685Y-157968523D01*
X117483447Y-157778047D01*
X117483447Y-157016142D01*
X117578685Y-156825666D01*
X117769161Y-156730428D01*
X118150114Y-156730428D01*
X118340590Y-156825666D01*
X118435828Y-157016142D01*
X118435828Y-157206619D01*
X117483447Y-157397095D01*
X119292971Y-156730428D02*
X119292971Y-158063761D01*
X119292971Y-156920904D02*
X119388209Y-156825666D01*
X119578685Y-156730428D01*
X119864400Y-156730428D01*
X120054876Y-156825666D01*
X120150114Y-157016142D01*
X120150114Y-158063761D01*
X121102495Y-158063761D02*
X121102495Y-156730428D01*
X121102495Y-156063761D02*
X121007257Y-156159000D01*
X121102495Y-156254238D01*
X121197733Y-156159000D01*
X121102495Y-156063761D01*
X121102495Y-156254238D01*
X122340590Y-158063761D02*
X122150114Y-157968523D01*
X122054876Y-157873285D01*
X121959638Y-157682809D01*
X121959638Y-157111380D01*
X122054876Y-156920904D01*
X122150114Y-156825666D01*
X122340590Y-156730428D01*
X122626304Y-156730428D01*
X122816780Y-156825666D01*
X122912019Y-156920904D01*
X123007257Y-157111380D01*
X123007257Y-157682809D01*
X122912019Y-157873285D01*
X122816780Y-157968523D01*
X122626304Y-158063761D01*
X122340590Y-158063761D01*
X123578685Y-156730428D02*
X124340590Y-156730428D01*
X123864400Y-156063761D02*
X123864400Y-157778047D01*
X123959638Y-157968523D01*
X124150114Y-158063761D01*
X124340590Y-158063761D01*
X125007257Y-157873285D02*
X125102495Y-157968523D01*
X125007257Y-158063761D01*
X124912019Y-157968523D01*
X125007257Y-157873285D01*
X125007257Y-158063761D01*
X125959638Y-156730428D02*
X125959638Y-158063761D01*
X125959638Y-156920904D02*
X126054876Y-156825666D01*
X126245352Y-156730428D01*
X126531066Y-156730428D01*
X126721542Y-156825666D01*
X126816780Y-157016142D01*
X126816780Y-158063761D01*
X128531066Y-157968523D02*
X128340590Y-158063761D01*
X127959638Y-158063761D01*
X127769161Y-157968523D01*
X127673923Y-157778047D01*
X127673923Y-157016142D01*
X127769161Y-156825666D01*
X127959638Y-156730428D01*
X128340590Y-156730428D01*
X128531066Y-156825666D01*
X128626304Y-157016142D01*
X128626304Y-157206619D01*
X127673923Y-157397095D01*
X129197733Y-156730428D02*
X129959638Y-156730428D01*
X129483447Y-156063761D02*
X129483447Y-157778047D01*
X129578685Y-157968523D01*
X129769161Y-158063761D01*
X129959638Y-158063761D01*
X130435828Y-156730428D02*
X130816780Y-158063761D01*
X131197733Y-157111380D01*
X131578685Y-158063761D01*
X131959638Y-156730428D01*
X133007257Y-158063761D02*
X132816780Y-157968523D01*
X132721542Y-157873285D01*
X132626304Y-157682809D01*
X132626304Y-157111380D01*
X132721542Y-156920904D01*
X132816780Y-156825666D01*
X133007257Y-156730428D01*
X133292971Y-156730428D01*
X133483447Y-156825666D01*
X133578685Y-156920904D01*
X133673923Y-157111380D01*
X133673923Y-157682809D01*
X133578685Y-157873285D01*
X133483447Y-157968523D01*
X133292971Y-158063761D01*
X133007257Y-158063761D01*
X134531066Y-158063761D02*
X134531066Y-156730428D01*
X134531066Y-157111380D02*
X134626304Y-156920904D01*
X134721542Y-156825666D01*
X134912019Y-156730428D01*
X135102495Y-156730428D01*
X135769161Y-158063761D02*
X135769161Y-156063761D01*
X135959638Y-157301857D02*
X136531066Y-158063761D01*
X136531066Y-156730428D02*
X135769161Y-157492333D01*
D11*
X135160777Y-184971537D02*
X134475062Y-184971537D01*
X134817920Y-184971537D02*
X134817920Y-183771537D01*
X134703634Y-183942965D01*
X134589348Y-184057251D01*
X134475062Y-184114394D01*
D12*
G04 #@! TO.C,J2*
X80437920Y-191786680D02*
X80437920Y-190456680D01*
X80437920Y-190456680D02*
X81767920Y-190456680D01*
X83037920Y-190456680D02*
X131357920Y-190456680D01*
X131357920Y-193116680D02*
X131357920Y-190456680D01*
X83037920Y-193116680D02*
X131357920Y-193116680D01*
X83037920Y-193116680D02*
X83037920Y-190456680D01*
G04 #@! TO.C,J3*
X85590400Y-131793600D02*
X85590400Y-129133600D01*
X85590400Y-131793600D02*
X90730400Y-131793600D01*
X90730400Y-131793600D02*
X90730400Y-129133600D01*
X85590400Y-129133600D02*
X90730400Y-129133600D01*
X82990400Y-129133600D02*
X84320400Y-129133600D01*
X82990400Y-130463600D02*
X82990400Y-129133600D01*
G04 #@! TO.C,J4*
X126204000Y-130461000D02*
X126204000Y-129131000D01*
X126204000Y-129131000D02*
X127534000Y-129131000D01*
X128804000Y-129131000D02*
X133944000Y-129131000D01*
X133944000Y-131791000D02*
X133944000Y-129131000D01*
X128804000Y-131791000D02*
X133944000Y-131791000D01*
X128804000Y-131791000D02*
X128804000Y-129131000D01*
D13*
G04 #@! TO.C,G\002A\002A\002A*
G36*
X110045731Y-142638287D02*
X110252439Y-142728757D01*
X110415792Y-142884108D01*
X110508783Y-143099742D01*
X110520500Y-143220750D01*
X110464678Y-143463958D01*
X110317496Y-143656226D01*
X110109381Y-143782632D01*
X109870758Y-143828254D01*
X109632054Y-143778168D01*
X109520428Y-143711230D01*
X109371258Y-143522242D01*
X109303725Y-143270721D01*
X109325500Y-143017220D01*
X109435551Y-142802165D01*
X109610279Y-142670391D01*
X109822675Y-142617298D01*
X110045731Y-142638287D01*
X110045731Y-142638287D01*
G37*
X110045731Y-142638287D02*
X110252439Y-142728757D01*
X110415792Y-142884108D01*
X110508783Y-143099742D01*
X110520500Y-143220750D01*
X110464678Y-143463958D01*
X110317496Y-143656226D01*
X110109381Y-143782632D01*
X109870758Y-143828254D01*
X109632054Y-143778168D01*
X109520428Y-143711230D01*
X109371258Y-143522242D01*
X109303725Y-143270721D01*
X109325500Y-143017220D01*
X109435551Y-142802165D01*
X109610279Y-142670391D01*
X109822675Y-142617298D01*
X110045731Y-142638287D01*
G36*
X118267500Y-145030500D02*
X117442000Y-145030500D01*
X117442000Y-148205500D01*
X116362500Y-148205500D01*
X116362500Y-145030500D01*
X115537000Y-145030500D01*
X115537000Y-144141500D01*
X118267500Y-144141500D01*
X118267500Y-145030500D01*
X118267500Y-145030500D01*
G37*
X118267500Y-145030500D02*
X117442000Y-145030500D01*
X117442000Y-148205500D01*
X116362500Y-148205500D01*
X116362500Y-145030500D01*
X115537000Y-145030500D01*
X115537000Y-144141500D01*
X118267500Y-144141500D01*
X118267500Y-145030500D01*
G36*
X110393500Y-148205500D02*
X109314000Y-148205500D01*
X109314000Y-144141500D01*
X110393500Y-144141500D01*
X110393500Y-148205500D01*
X110393500Y-148205500D01*
G37*
X110393500Y-148205500D02*
X109314000Y-148205500D01*
X109314000Y-144141500D01*
X110393500Y-144141500D01*
X110393500Y-148205500D01*
G36*
X105102061Y-144154902D02*
X105652623Y-144173250D01*
X106578436Y-145360784D01*
X107504250Y-146548319D01*
X107521496Y-145344909D01*
X107538742Y-144141500D01*
X108615500Y-144141500D01*
X108615500Y-148205500D01*
X107567750Y-148201444D01*
X106615250Y-146958830D01*
X105662750Y-145716215D01*
X105645532Y-146960857D01*
X105628315Y-148205500D01*
X104551500Y-148205500D01*
X104551500Y-144136555D01*
X105102061Y-144154902D01*
X105102061Y-144154902D01*
G37*
X105102061Y-144154902D02*
X105652623Y-144173250D01*
X106578436Y-145360784D01*
X107504250Y-146548319D01*
X107521496Y-145344909D01*
X107538742Y-144141500D01*
X108615500Y-144141500D01*
X108615500Y-148205500D01*
X107567750Y-148201444D01*
X106615250Y-146958830D01*
X105662750Y-145716215D01*
X105645532Y-146960857D01*
X105628315Y-148205500D01*
X104551500Y-148205500D01*
X104551500Y-144136555D01*
X105102061Y-144154902D01*
G36*
X103916500Y-145030500D02*
X102710000Y-145030500D01*
X102710000Y-145729000D01*
X103853000Y-145729000D01*
X103853000Y-146618000D01*
X102710000Y-146618000D01*
X102710000Y-147316500D01*
X103916500Y-147316500D01*
X103916500Y-148205500D01*
X101630500Y-148205500D01*
X101630500Y-144141500D01*
X103916500Y-144141500D01*
X103916500Y-145030500D01*
X103916500Y-145030500D01*
G37*
X103916500Y-145030500D02*
X102710000Y-145030500D01*
X102710000Y-145729000D01*
X103853000Y-145729000D01*
X103853000Y-146618000D01*
X102710000Y-146618000D01*
X102710000Y-147316500D01*
X103916500Y-147316500D01*
X103916500Y-148205500D01*
X101630500Y-148205500D01*
X101630500Y-144141500D01*
X103916500Y-144141500D01*
X103916500Y-145030500D01*
G36*
X99169875Y-144151091D02*
X99568930Y-144159914D01*
X99863754Y-144169987D01*
X100077101Y-144184562D01*
X100231725Y-144206886D01*
X100350379Y-144240210D01*
X100455817Y-144287783D01*
X100566982Y-144350614D01*
X100850024Y-144571976D01*
X101035389Y-144853280D01*
X101131320Y-145210467D01*
X101149497Y-145476611D01*
X101137343Y-145766933D01*
X101083536Y-145999627D01*
X100993011Y-146204373D01*
X100829187Y-146450225D01*
X100615159Y-146628635D01*
X100330250Y-146749988D01*
X99953782Y-146824670D01*
X99709625Y-146848912D01*
X99154000Y-146890735D01*
X99154000Y-148205500D01*
X98074500Y-148205500D01*
X98074500Y-145983000D01*
X99154000Y-145983000D01*
X99471500Y-145983000D01*
X99711596Y-145963060D01*
X99869833Y-145895638D01*
X99916000Y-145856000D01*
X100013826Y-145684378D01*
X100044325Y-145467842D01*
X100006849Y-145260055D01*
X99924708Y-145133631D01*
X99793683Y-145063744D01*
X99593681Y-145006546D01*
X99480208Y-144987944D01*
X99154000Y-144949310D01*
X99154000Y-145983000D01*
X98074500Y-145983000D01*
X98074500Y-144128933D01*
X99169875Y-144151091D01*
X99169875Y-144151091D01*
G37*
X99169875Y-144151091D02*
X99568930Y-144159914D01*
X99863754Y-144169987D01*
X100077101Y-144184562D01*
X100231725Y-144206886D01*
X100350379Y-144240210D01*
X100455817Y-144287783D01*
X100566982Y-144350614D01*
X100850024Y-144571976D01*
X101035389Y-144853280D01*
X101131320Y-145210467D01*
X101149497Y-145476611D01*
X101137343Y-145766933D01*
X101083536Y-145999627D01*
X100993011Y-146204373D01*
X100829187Y-146450225D01*
X100615159Y-146628635D01*
X100330250Y-146749988D01*
X99953782Y-146824670D01*
X99709625Y-146848912D01*
X99154000Y-146890735D01*
X99154000Y-148205500D01*
X98074500Y-148205500D01*
X98074500Y-145983000D01*
X99154000Y-145983000D01*
X99471500Y-145983000D01*
X99711596Y-145963060D01*
X99869833Y-145895638D01*
X99916000Y-145856000D01*
X100013826Y-145684378D01*
X100044325Y-145467842D01*
X100006849Y-145260055D01*
X99924708Y-145133631D01*
X99793683Y-145063744D01*
X99593681Y-145006546D01*
X99480208Y-144987944D01*
X99154000Y-144949310D01*
X99154000Y-145983000D01*
X98074500Y-145983000D01*
X98074500Y-144128933D01*
X99169875Y-144151091D01*
G36*
X113378399Y-144049915D02*
X113831845Y-144148541D01*
X114257895Y-144333567D01*
X114639533Y-144604788D01*
X114959742Y-144961998D01*
X115171412Y-145334206D01*
X115291090Y-145749587D01*
X115310848Y-146205824D01*
X115236276Y-146673080D01*
X115072962Y-147121523D01*
X114826496Y-147521317D01*
X114743042Y-147620818D01*
X114390568Y-147922644D01*
X113961042Y-148145098D01*
X113482785Y-148279695D01*
X112984118Y-148317956D01*
X112574327Y-148270327D01*
X112102576Y-148107287D01*
X111677836Y-147838090D01*
X111323104Y-147481291D01*
X111061376Y-147055440D01*
X111057302Y-147046464D01*
X110911343Y-146589717D01*
X110873521Y-146205504D01*
X111945300Y-146205504D01*
X112029975Y-146554850D01*
X112231264Y-146885393D01*
X112277672Y-146939228D01*
X112567858Y-147177134D01*
X112894204Y-147295737D01*
X113244288Y-147292180D01*
X113490297Y-147218219D01*
X113830789Y-147017996D01*
X114066199Y-146746673D01*
X114195259Y-146406143D01*
X114221642Y-146128317D01*
X114166948Y-145785571D01*
X114016999Y-145499643D01*
X113793000Y-145276688D01*
X113516154Y-145122861D01*
X113207662Y-145044316D01*
X112888729Y-145047208D01*
X112580557Y-145137692D01*
X112304349Y-145321922D01*
X112133104Y-145522073D01*
X111979067Y-145855274D01*
X111945300Y-146205504D01*
X110873521Y-146205504D01*
X110864016Y-146108949D01*
X110915770Y-145640283D01*
X111035335Y-145284113D01*
X111295809Y-144860007D01*
X111630986Y-144523539D01*
X112023850Y-144274502D01*
X112457385Y-144112689D01*
X112914573Y-144037896D01*
X113378399Y-144049915D01*
X113378399Y-144049915D01*
G37*
X113378399Y-144049915D02*
X113831845Y-144148541D01*
X114257895Y-144333567D01*
X114639533Y-144604788D01*
X114959742Y-144961998D01*
X115171412Y-145334206D01*
X115291090Y-145749587D01*
X115310848Y-146205824D01*
X115236276Y-146673080D01*
X115072962Y-147121523D01*
X114826496Y-147521317D01*
X114743042Y-147620818D01*
X114390568Y-147922644D01*
X113961042Y-148145098D01*
X113482785Y-148279695D01*
X112984118Y-148317956D01*
X112574327Y-148270327D01*
X112102576Y-148107287D01*
X111677836Y-147838090D01*
X111323104Y-147481291D01*
X111061376Y-147055440D01*
X111057302Y-147046464D01*
X110911343Y-146589717D01*
X110873521Y-146205504D01*
X111945300Y-146205504D01*
X112029975Y-146554850D01*
X112231264Y-146885393D01*
X112277672Y-146939228D01*
X112567858Y-147177134D01*
X112894204Y-147295737D01*
X113244288Y-147292180D01*
X113490297Y-147218219D01*
X113830789Y-147017996D01*
X114066199Y-146746673D01*
X114195259Y-146406143D01*
X114221642Y-146128317D01*
X114166948Y-145785571D01*
X114016999Y-145499643D01*
X113793000Y-145276688D01*
X113516154Y-145122861D01*
X113207662Y-145044316D01*
X112888729Y-145047208D01*
X112580557Y-145137692D01*
X112304349Y-145321922D01*
X112133104Y-145522073D01*
X111979067Y-145855274D01*
X111945300Y-146205504D01*
X110873521Y-146205504D01*
X110864016Y-146108949D01*
X110915770Y-145640283D01*
X111035335Y-145284113D01*
X111295809Y-144860007D01*
X111630986Y-144523539D01*
X112023850Y-144274502D01*
X112457385Y-144112689D01*
X112914573Y-144037896D01*
X113378399Y-144049915D01*
G36*
X95651753Y-144051818D02*
X95875684Y-144071421D01*
X96058730Y-144113638D01*
X96243832Y-144185901D01*
X96304120Y-144213582D01*
X96772140Y-144497494D01*
X97145420Y-144865635D01*
X97348182Y-145169974D01*
X97437251Y-145342462D01*
X97492498Y-145494426D01*
X97521850Y-145665840D01*
X97533231Y-145896677D01*
X97534750Y-146110963D01*
X97530953Y-146407669D01*
X97513540Y-146621888D01*
X97473473Y-146798047D01*
X97401717Y-146980577D01*
X97325213Y-147141177D01*
X97053153Y-147568531D01*
X96703059Y-147897219D01*
X96267152Y-148134374D01*
X96223174Y-148151575D01*
X95858949Y-148252151D01*
X95455860Y-148302724D01*
X95066054Y-148299781D01*
X94772500Y-148249294D01*
X94255125Y-148044475D01*
X93831821Y-147755496D01*
X93499108Y-147379519D01*
X93317989Y-147062500D01*
X93233781Y-146862810D01*
X93183702Y-146674243D01*
X93159582Y-146451134D01*
X93153251Y-146147815D01*
X93153250Y-146141750D01*
X93156151Y-145979097D01*
X94213113Y-145979097D01*
X94222720Y-146310631D01*
X94326796Y-146634777D01*
X94514708Y-146921690D01*
X94775824Y-147141530D01*
X94846685Y-147180246D01*
X95191778Y-147297506D01*
X95525816Y-147294349D01*
X95772340Y-147218828D01*
X96100345Y-147018657D01*
X96333581Y-146738461D01*
X96462937Y-146391982D01*
X96487000Y-146141126D01*
X96446618Y-145821345D01*
X96314255Y-145549907D01*
X96078851Y-145297058D01*
X95780623Y-145112678D01*
X95449112Y-145035658D01*
X95109607Y-145060669D01*
X94787397Y-145182384D01*
X94507769Y-145395475D01*
X94308608Y-145670015D01*
X94213113Y-145979097D01*
X93156151Y-145979097D01*
X93158558Y-145844169D01*
X93180285Y-145627773D01*
X93227132Y-145446981D01*
X93307801Y-145256212D01*
X93331745Y-145206760D01*
X93602987Y-144797376D01*
X93980197Y-144454757D01*
X94391500Y-144214109D01*
X94582961Y-144132248D01*
X94762765Y-144082223D01*
X94973564Y-144056567D01*
X95258010Y-144047815D01*
X95344000Y-144047397D01*
X95651753Y-144051818D01*
X95651753Y-144051818D01*
G37*
X95651753Y-144051818D02*
X95875684Y-144071421D01*
X96058730Y-144113638D01*
X96243832Y-144185901D01*
X96304120Y-144213582D01*
X96772140Y-144497494D01*
X97145420Y-144865635D01*
X97348182Y-145169974D01*
X97437251Y-145342462D01*
X97492498Y-145494426D01*
X97521850Y-145665840D01*
X97533231Y-145896677D01*
X97534750Y-146110963D01*
X97530953Y-146407669D01*
X97513540Y-146621888D01*
X97473473Y-146798047D01*
X97401717Y-146980577D01*
X97325213Y-147141177D01*
X97053153Y-147568531D01*
X96703059Y-147897219D01*
X96267152Y-148134374D01*
X96223174Y-148151575D01*
X95858949Y-148252151D01*
X95455860Y-148302724D01*
X95066054Y-148299781D01*
X94772500Y-148249294D01*
X94255125Y-148044475D01*
X93831821Y-147755496D01*
X93499108Y-147379519D01*
X93317989Y-147062500D01*
X93233781Y-146862810D01*
X93183702Y-146674243D01*
X93159582Y-146451134D01*
X93153251Y-146147815D01*
X93153250Y-146141750D01*
X93156151Y-145979097D01*
X94213113Y-145979097D01*
X94222720Y-146310631D01*
X94326796Y-146634777D01*
X94514708Y-146921690D01*
X94775824Y-147141530D01*
X94846685Y-147180246D01*
X95191778Y-147297506D01*
X95525816Y-147294349D01*
X95772340Y-147218828D01*
X96100345Y-147018657D01*
X96333581Y-146738461D01*
X96462937Y-146391982D01*
X96487000Y-146141126D01*
X96446618Y-145821345D01*
X96314255Y-145549907D01*
X96078851Y-145297058D01*
X95780623Y-145112678D01*
X95449112Y-145035658D01*
X95109607Y-145060669D01*
X94787397Y-145182384D01*
X94507769Y-145395475D01*
X94308608Y-145670015D01*
X94213113Y-145979097D01*
X93156151Y-145979097D01*
X93158558Y-145844169D01*
X93180285Y-145627773D01*
X93227132Y-145446981D01*
X93307801Y-145256212D01*
X93331745Y-145206760D01*
X93602987Y-144797376D01*
X93980197Y-144454757D01*
X94391500Y-144214109D01*
X94582961Y-144132248D01*
X94762765Y-144082223D01*
X94973564Y-144056567D01*
X95258010Y-144047815D01*
X95344000Y-144047397D01*
X95651753Y-144051818D01*
G36*
X95867875Y-142679759D02*
X96167354Y-142721334D01*
X96470255Y-142749085D01*
X96716073Y-142757629D01*
X96737729Y-142757144D01*
X97040979Y-142773098D01*
X97240276Y-142848616D01*
X97347749Y-142991745D01*
X97376000Y-143180622D01*
X97326438Y-143423711D01*
X97186326Y-143585917D01*
X96968521Y-143653529D01*
X96931500Y-143654666D01*
X96749646Y-143614468D01*
X96590188Y-143514653D01*
X96496418Y-143386387D01*
X96487000Y-143334668D01*
X96427622Y-143235428D01*
X96265133Y-143150355D01*
X96022997Y-143083247D01*
X95724677Y-143037899D01*
X95393639Y-143018109D01*
X95053346Y-143027674D01*
X94786940Y-143059564D01*
X94163867Y-143223688D01*
X93611892Y-143488867D01*
X93138293Y-143846356D01*
X92750347Y-144287411D01*
X92455332Y-144803287D01*
X92260525Y-145385240D01*
X92173204Y-146024524D01*
X92169000Y-146205249D01*
X92226599Y-146860372D01*
X92395955Y-147463707D01*
X92671899Y-148006707D01*
X93049265Y-148480824D01*
X93522887Y-148877510D01*
X93926915Y-149113519D01*
X94140245Y-149215157D01*
X94284120Y-149264798D01*
X94401470Y-149269588D01*
X94535228Y-149236674D01*
X94579865Y-149222204D01*
X94753622Y-149173570D01*
X94868451Y-149178556D01*
X94983058Y-149242909D01*
X95012700Y-149264584D01*
X95156770Y-149438151D01*
X95212072Y-149652050D01*
X95173681Y-149862734D01*
X95093617Y-149979882D01*
X94899351Y-150091066D01*
X94657399Y-150085336D01*
X94539959Y-150047086D01*
X94411917Y-149947942D01*
X94360570Y-149859084D01*
X94270643Y-149749526D01*
X94072528Y-149621530D01*
X93906488Y-149539642D01*
X93318435Y-149207415D01*
X92816000Y-148790006D01*
X92404413Y-148300550D01*
X92088900Y-147752180D01*
X91874691Y-147158032D01*
X91767014Y-146531241D01*
X91771095Y-145884941D01*
X91892165Y-145232268D01*
X92030124Y-144825551D01*
X92328479Y-144245732D01*
X92719784Y-143742260D01*
X93190067Y-143322948D01*
X93725359Y-142995605D01*
X94311689Y-142768044D01*
X94935086Y-142648076D01*
X95581580Y-142643511D01*
X95867875Y-142679759D01*
X95867875Y-142679759D01*
G37*
X95867875Y-142679759D02*
X96167354Y-142721334D01*
X96470255Y-142749085D01*
X96716073Y-142757629D01*
X96737729Y-142757144D01*
X97040979Y-142773098D01*
X97240276Y-142848616D01*
X97347749Y-142991745D01*
X97376000Y-143180622D01*
X97326438Y-143423711D01*
X97186326Y-143585917D01*
X96968521Y-143653529D01*
X96931500Y-143654666D01*
X96749646Y-143614468D01*
X96590188Y-143514653D01*
X96496418Y-143386387D01*
X96487000Y-143334668D01*
X96427622Y-143235428D01*
X96265133Y-143150355D01*
X96022997Y-143083247D01*
X95724677Y-143037899D01*
X95393639Y-143018109D01*
X95053346Y-143027674D01*
X94786940Y-143059564D01*
X94163867Y-143223688D01*
X93611892Y-143488867D01*
X93138293Y-143846356D01*
X92750347Y-144287411D01*
X92455332Y-144803287D01*
X92260525Y-145385240D01*
X92173204Y-146024524D01*
X92169000Y-146205249D01*
X92226599Y-146860372D01*
X92395955Y-147463707D01*
X92671899Y-148006707D01*
X93049265Y-148480824D01*
X93522887Y-148877510D01*
X93926915Y-149113519D01*
X94140245Y-149215157D01*
X94284120Y-149264798D01*
X94401470Y-149269588D01*
X94535228Y-149236674D01*
X94579865Y-149222204D01*
X94753622Y-149173570D01*
X94868451Y-149178556D01*
X94983058Y-149242909D01*
X95012700Y-149264584D01*
X95156770Y-149438151D01*
X95212072Y-149652050D01*
X95173681Y-149862734D01*
X95093617Y-149979882D01*
X94899351Y-150091066D01*
X94657399Y-150085336D01*
X94539959Y-150047086D01*
X94411917Y-149947942D01*
X94360570Y-149859084D01*
X94270643Y-149749526D01*
X94072528Y-149621530D01*
X93906488Y-149539642D01*
X93318435Y-149207415D01*
X92816000Y-148790006D01*
X92404413Y-148300550D01*
X92088900Y-147752180D01*
X91874691Y-147158032D01*
X91767014Y-146531241D01*
X91771095Y-145884941D01*
X91892165Y-145232268D01*
X92030124Y-144825551D01*
X92328479Y-144245732D01*
X92719784Y-143742260D01*
X93190067Y-143322948D01*
X93725359Y-142995605D01*
X94311689Y-142768044D01*
X94935086Y-142648076D01*
X95581580Y-142643511D01*
X95867875Y-142679759D01*
G36*
X94301435Y-141444794D02*
X94379941Y-141506268D01*
X94532612Y-141699033D01*
X94579824Y-141907115D01*
X94536905Y-142106592D01*
X94419183Y-142273542D01*
X94241985Y-142384041D01*
X94020639Y-142414167D01*
X93828462Y-142367005D01*
X93723739Y-142334806D01*
X93620213Y-142341319D01*
X93483555Y-142396111D01*
X93279437Y-142508752D01*
X93242319Y-142530387D01*
X93017805Y-142682299D01*
X92750139Y-142894182D01*
X92481283Y-143131750D01*
X92348027Y-143261024D01*
X92073007Y-143555590D01*
X91863661Y-143826474D01*
X91683169Y-144124988D01*
X91570525Y-144344574D01*
X91355678Y-144820631D01*
X91211568Y-145243383D01*
X91127364Y-145656865D01*
X91092236Y-146105116D01*
X91089500Y-146300500D01*
X91111422Y-146804736D01*
X91184902Y-147254097D01*
X91321511Y-147697060D01*
X91532818Y-148182103D01*
X91544173Y-148205500D01*
X91692558Y-148487246D01*
X91850097Y-148728426D01*
X92045302Y-148967196D01*
X92306688Y-149241717D01*
X92353167Y-149288139D01*
X92833719Y-149717570D01*
X93315536Y-150042817D01*
X93830985Y-150282830D01*
X94303202Y-150429778D01*
X94637335Y-150496369D01*
X95000903Y-150537262D01*
X95372619Y-150553768D01*
X95731198Y-150547201D01*
X96055352Y-150518870D01*
X96323794Y-150470090D01*
X96515239Y-150402171D01*
X96608399Y-150316425D01*
X96614000Y-150287349D01*
X96666580Y-150139278D01*
X96797331Y-149983014D01*
X96965765Y-149855637D01*
X97131398Y-149794229D01*
X97153749Y-149793000D01*
X97334254Y-149847208D01*
X97510993Y-149983198D01*
X97644014Y-150161016D01*
X97693500Y-150332750D01*
X97642016Y-150504148D01*
X97513433Y-150678028D01*
X97346552Y-150814171D01*
X97180176Y-150872358D01*
X97172763Y-150872500D01*
X96998413Y-150835594D01*
X96897972Y-150784746D01*
X96809486Y-150740086D01*
X96695306Y-150729225D01*
X96518559Y-150752072D01*
X96359967Y-150783422D01*
X95987391Y-150836359D01*
X95544614Y-150860997D01*
X95082515Y-150857440D01*
X94651972Y-150825794D01*
X94359750Y-150779303D01*
X93639729Y-150562402D01*
X92989960Y-150247647D01*
X92414920Y-149845823D01*
X91919083Y-149367713D01*
X91506924Y-148824104D01*
X91182921Y-148225779D01*
X90951547Y-147583523D01*
X90817278Y-146908121D01*
X90784590Y-146210358D01*
X90857958Y-145501017D01*
X91041858Y-144790885D01*
X91340764Y-144090745D01*
X91479732Y-143839227D01*
X91679316Y-143553089D01*
X91953927Y-143231016D01*
X92272635Y-142903558D01*
X92604513Y-142601263D01*
X92918632Y-142354684D01*
X93101849Y-142236934D01*
X93320692Y-142103480D01*
X93449292Y-141994349D01*
X93514083Y-141883699D01*
X93531321Y-141817027D01*
X93632358Y-141579189D01*
X93828374Y-141424798D01*
X93987233Y-141374378D01*
X94148113Y-141370575D01*
X94301435Y-141444794D01*
X94301435Y-141444794D01*
G37*
X94301435Y-141444794D02*
X94379941Y-141506268D01*
X94532612Y-141699033D01*
X94579824Y-141907115D01*
X94536905Y-142106592D01*
X94419183Y-142273542D01*
X94241985Y-142384041D01*
X94020639Y-142414167D01*
X93828462Y-142367005D01*
X93723739Y-142334806D01*
X93620213Y-142341319D01*
X93483555Y-142396111D01*
X93279437Y-142508752D01*
X93242319Y-142530387D01*
X93017805Y-142682299D01*
X92750139Y-142894182D01*
X92481283Y-143131750D01*
X92348027Y-143261024D01*
X92073007Y-143555590D01*
X91863661Y-143826474D01*
X91683169Y-144124988D01*
X91570525Y-144344574D01*
X91355678Y-144820631D01*
X91211568Y-145243383D01*
X91127364Y-145656865D01*
X91092236Y-146105116D01*
X91089500Y-146300500D01*
X91111422Y-146804736D01*
X91184902Y-147254097D01*
X91321511Y-147697060D01*
X91532818Y-148182103D01*
X91544173Y-148205500D01*
X91692558Y-148487246D01*
X91850097Y-148728426D01*
X92045302Y-148967196D01*
X92306688Y-149241717D01*
X92353167Y-149288139D01*
X92833719Y-149717570D01*
X93315536Y-150042817D01*
X93830985Y-150282830D01*
X94303202Y-150429778D01*
X94637335Y-150496369D01*
X95000903Y-150537262D01*
X95372619Y-150553768D01*
X95731198Y-150547201D01*
X96055352Y-150518870D01*
X96323794Y-150470090D01*
X96515239Y-150402171D01*
X96608399Y-150316425D01*
X96614000Y-150287349D01*
X96666580Y-150139278D01*
X96797331Y-149983014D01*
X96965765Y-149855637D01*
X97131398Y-149794229D01*
X97153749Y-149793000D01*
X97334254Y-149847208D01*
X97510993Y-149983198D01*
X97644014Y-150161016D01*
X97693500Y-150332750D01*
X97642016Y-150504148D01*
X97513433Y-150678028D01*
X97346552Y-150814171D01*
X97180176Y-150872358D01*
X97172763Y-150872500D01*
X96998413Y-150835594D01*
X96897972Y-150784746D01*
X96809486Y-150740086D01*
X96695306Y-150729225D01*
X96518559Y-150752072D01*
X96359967Y-150783422D01*
X95987391Y-150836359D01*
X95544614Y-150860997D01*
X95082515Y-150857440D01*
X94651972Y-150825794D01*
X94359750Y-150779303D01*
X93639729Y-150562402D01*
X92989960Y-150247647D01*
X92414920Y-149845823D01*
X91919083Y-149367713D01*
X91506924Y-148824104D01*
X91182921Y-148225779D01*
X90951547Y-147583523D01*
X90817278Y-146908121D01*
X90784590Y-146210358D01*
X90857958Y-145501017D01*
X91041858Y-144790885D01*
X91340764Y-144090745D01*
X91479732Y-143839227D01*
X91679316Y-143553089D01*
X91953927Y-143231016D01*
X92272635Y-142903558D01*
X92604513Y-142601263D01*
X92918632Y-142354684D01*
X93101849Y-142236934D01*
X93320692Y-142103480D01*
X93449292Y-141994349D01*
X93514083Y-141883699D01*
X93531321Y-141817027D01*
X93632358Y-141579189D01*
X93828374Y-141424798D01*
X93987233Y-141374378D01*
X94148113Y-141370575D01*
X94301435Y-141444794D01*
G36*
X96099364Y-140405439D02*
X96218280Y-140461253D01*
X96369797Y-140606075D01*
X96424328Y-140789918D01*
X96383010Y-140974275D01*
X96246981Y-141120642D01*
X96198014Y-141146920D01*
X96065424Y-141190410D01*
X95951378Y-141169871D01*
X95812509Y-141072456D01*
X95744003Y-141012423D01*
X95673037Y-140956640D01*
X95593217Y-140924364D01*
X95476702Y-140913642D01*
X95295652Y-140922518D01*
X95022229Y-140949037D01*
X94950253Y-140956688D01*
X94443928Y-141021546D01*
X94020104Y-141104153D01*
X93634392Y-141217000D01*
X93242402Y-141372578D01*
X92899250Y-141533838D01*
X92187726Y-141951063D01*
X91569174Y-142452341D01*
X91047716Y-143030980D01*
X90627473Y-143680291D01*
X90312567Y-144393580D01*
X90107120Y-145164157D01*
X90015253Y-145985330D01*
X90010444Y-146223802D01*
X90060716Y-147067241D01*
X90215460Y-147843341D01*
X90478929Y-148562772D01*
X90855377Y-149236201D01*
X91349057Y-149874299D01*
X91553588Y-150094625D01*
X91772126Y-150313059D01*
X91931294Y-150451390D01*
X92054232Y-150526058D01*
X92164084Y-150553503D01*
X92201639Y-150555000D01*
X92417112Y-150607994D01*
X92562944Y-150750616D01*
X92613500Y-150947033D01*
X92560099Y-151131261D01*
X92425430Y-151258292D01*
X92247791Y-151313326D01*
X92065479Y-151281565D01*
X91956591Y-151200874D01*
X91873158Y-151057960D01*
X91851500Y-150955931D01*
X91807473Y-150853400D01*
X91686560Y-150686834D01*
X91505513Y-150477995D01*
X91390972Y-150357682D01*
X90827538Y-149701064D01*
X90369524Y-148992643D01*
X90020190Y-148243708D01*
X89782795Y-147465552D01*
X89660601Y-146669466D01*
X89656865Y-145866741D01*
X89774848Y-145068669D01*
X89815791Y-144901205D01*
X90086556Y-144109553D01*
X90463327Y-143378583D01*
X90936723Y-142715924D01*
X91497361Y-142129207D01*
X92135859Y-141626062D01*
X92842837Y-141214119D01*
X93608911Y-140901006D01*
X94424699Y-140694355D01*
X95090000Y-140611946D01*
X95381508Y-140580707D01*
X95640431Y-140532874D01*
X95822383Y-140476894D01*
X95837729Y-140469631D01*
X95989216Y-140404668D01*
X96099364Y-140405439D01*
X96099364Y-140405439D01*
G37*
X96099364Y-140405439D02*
X96218280Y-140461253D01*
X96369797Y-140606075D01*
X96424328Y-140789918D01*
X96383010Y-140974275D01*
X96246981Y-141120642D01*
X96198014Y-141146920D01*
X96065424Y-141190410D01*
X95951378Y-141169871D01*
X95812509Y-141072456D01*
X95744003Y-141012423D01*
X95673037Y-140956640D01*
X95593217Y-140924364D01*
X95476702Y-140913642D01*
X95295652Y-140922518D01*
X95022229Y-140949037D01*
X94950253Y-140956688D01*
X94443928Y-141021546D01*
X94020104Y-141104153D01*
X93634392Y-141217000D01*
X93242402Y-141372578D01*
X92899250Y-141533838D01*
X92187726Y-141951063D01*
X91569174Y-142452341D01*
X91047716Y-143030980D01*
X90627473Y-143680291D01*
X90312567Y-144393580D01*
X90107120Y-145164157D01*
X90015253Y-145985330D01*
X90010444Y-146223802D01*
X90060716Y-147067241D01*
X90215460Y-147843341D01*
X90478929Y-148562772D01*
X90855377Y-149236201D01*
X91349057Y-149874299D01*
X91553588Y-150094625D01*
X91772126Y-150313059D01*
X91931294Y-150451390D01*
X92054232Y-150526058D01*
X92164084Y-150553503D01*
X92201639Y-150555000D01*
X92417112Y-150607994D01*
X92562944Y-150750616D01*
X92613500Y-150947033D01*
X92560099Y-151131261D01*
X92425430Y-151258292D01*
X92247791Y-151313326D01*
X92065479Y-151281565D01*
X91956591Y-151200874D01*
X91873158Y-151057960D01*
X91851500Y-150955931D01*
X91807473Y-150853400D01*
X91686560Y-150686834D01*
X91505513Y-150477995D01*
X91390972Y-150357682D01*
X90827538Y-149701064D01*
X90369524Y-148992643D01*
X90020190Y-148243708D01*
X89782795Y-147465552D01*
X89660601Y-146669466D01*
X89656865Y-145866741D01*
X89774848Y-145068669D01*
X89815791Y-144901205D01*
X90086556Y-144109553D01*
X90463327Y-143378583D01*
X90936723Y-142715924D01*
X91497361Y-142129207D01*
X92135859Y-141626062D01*
X92842837Y-141214119D01*
X93608911Y-140901006D01*
X94424699Y-140694355D01*
X95090000Y-140611946D01*
X95381508Y-140580707D01*
X95640431Y-140532874D01*
X95822383Y-140476894D01*
X95837729Y-140469631D01*
X95989216Y-140404668D01*
X96099364Y-140405439D01*
G36*
X95919805Y-139328354D02*
X96430154Y-139374655D01*
X96816454Y-139448332D01*
X97255399Y-139561389D01*
X97707297Y-139701071D01*
X98132455Y-139854621D01*
X98491181Y-140009283D01*
X98631663Y-140082162D01*
X98839920Y-140188881D01*
X98978245Y-140228762D01*
X99078784Y-140210523D01*
X99087863Y-140205910D01*
X99267615Y-140146550D01*
X99431145Y-140187370D01*
X99603384Y-140326615D01*
X99752919Y-140538499D01*
X99775692Y-140750564D01*
X99671898Y-140966369D01*
X99640299Y-141005292D01*
X99456060Y-141136200D01*
X99243020Y-141167328D01*
X99034885Y-141109451D01*
X98865357Y-140973343D01*
X98768140Y-140769779D01*
X98760588Y-140724058D01*
X98727146Y-140624822D01*
X98636855Y-140532901D01*
X98465860Y-140428367D01*
X98313919Y-140350970D01*
X97554464Y-140044250D01*
X96733598Y-139833558D01*
X95876973Y-139722462D01*
X95010244Y-139714532D01*
X94288320Y-139790988D01*
X93393232Y-139996202D01*
X92556634Y-140308272D01*
X91785728Y-140720420D01*
X91087718Y-141225873D01*
X90469808Y-141817855D01*
X89939199Y-142489589D01*
X89503096Y-143234301D01*
X89168701Y-144045215D01*
X88966639Y-144796762D01*
X88911692Y-145171368D01*
X88878595Y-145629858D01*
X88867334Y-146131013D01*
X88877893Y-146633612D01*
X88910260Y-147096438D01*
X88964420Y-147478269D01*
X88967557Y-147493802D01*
X89186954Y-148316237D01*
X89497201Y-149069663D01*
X89908310Y-149772314D01*
X90430293Y-150442427D01*
X90805161Y-150840750D01*
X91466374Y-151434002D01*
X92149450Y-151909858D01*
X92872928Y-152277879D01*
X93655348Y-152547624D01*
X94444308Y-152717397D01*
X94645072Y-152744785D01*
X94766795Y-152736724D01*
X94854967Y-152682671D01*
X94926383Y-152605681D01*
X95107971Y-152470548D01*
X95305542Y-152439562D01*
X95495651Y-152496145D01*
X95654854Y-152623718D01*
X95759707Y-152805705D01*
X95786766Y-153025526D01*
X95749054Y-153187405D01*
X95660052Y-153292602D01*
X95503155Y-153395828D01*
X95333754Y-153464610D01*
X95256775Y-153476000D01*
X95149223Y-153437480D01*
X95005700Y-153342741D01*
X94980656Y-153322362D01*
X94779342Y-153206175D01*
X94501378Y-153116992D01*
X94417348Y-153099687D01*
X93471178Y-152866348D01*
X92580762Y-152522402D01*
X91753435Y-152073398D01*
X90996529Y-151524888D01*
X90317380Y-150882420D01*
X89723322Y-150151546D01*
X89221688Y-149337815D01*
X89082804Y-149062750D01*
X88837787Y-148513109D01*
X88662080Y-148015962D01*
X88544260Y-147525769D01*
X88472904Y-146996987D01*
X88441135Y-146504679D01*
X88442828Y-145706872D01*
X88523417Y-144978528D01*
X88690016Y-144284338D01*
X88949743Y-143588994D01*
X89090180Y-143284250D01*
X89511680Y-142544231D01*
X90036430Y-141837590D01*
X90640764Y-141193079D01*
X91213256Y-140704963D01*
X91594107Y-140448080D01*
X92058806Y-140185264D01*
X92566798Y-139936151D01*
X93077530Y-139720373D01*
X93550450Y-139557567D01*
X93629500Y-139535110D01*
X94134727Y-139428357D01*
X94716030Y-139356528D01*
X95326643Y-139322300D01*
X95919805Y-139328354D01*
X95919805Y-139328354D01*
G37*
X95919805Y-139328354D02*
X96430154Y-139374655D01*
X96816454Y-139448332D01*
X97255399Y-139561389D01*
X97707297Y-139701071D01*
X98132455Y-139854621D01*
X98491181Y-140009283D01*
X98631663Y-140082162D01*
X98839920Y-140188881D01*
X98978245Y-140228762D01*
X99078784Y-140210523D01*
X99087863Y-140205910D01*
X99267615Y-140146550D01*
X99431145Y-140187370D01*
X99603384Y-140326615D01*
X99752919Y-140538499D01*
X99775692Y-140750564D01*
X99671898Y-140966369D01*
X99640299Y-141005292D01*
X99456060Y-141136200D01*
X99243020Y-141167328D01*
X99034885Y-141109451D01*
X98865357Y-140973343D01*
X98768140Y-140769779D01*
X98760588Y-140724058D01*
X98727146Y-140624822D01*
X98636855Y-140532901D01*
X98465860Y-140428367D01*
X98313919Y-140350970D01*
X97554464Y-140044250D01*
X96733598Y-139833558D01*
X95876973Y-139722462D01*
X95010244Y-139714532D01*
X94288320Y-139790988D01*
X93393232Y-139996202D01*
X92556634Y-140308272D01*
X91785728Y-140720420D01*
X91087718Y-141225873D01*
X90469808Y-141817855D01*
X89939199Y-142489589D01*
X89503096Y-143234301D01*
X89168701Y-144045215D01*
X88966639Y-144796762D01*
X88911692Y-145171368D01*
X88878595Y-145629858D01*
X88867334Y-146131013D01*
X88877893Y-146633612D01*
X88910260Y-147096438D01*
X88964420Y-147478269D01*
X88967557Y-147493802D01*
X89186954Y-148316237D01*
X89497201Y-149069663D01*
X89908310Y-149772314D01*
X90430293Y-150442427D01*
X90805161Y-150840750D01*
X91466374Y-151434002D01*
X92149450Y-151909858D01*
X92872928Y-152277879D01*
X93655348Y-152547624D01*
X94444308Y-152717397D01*
X94645072Y-152744785D01*
X94766795Y-152736724D01*
X94854967Y-152682671D01*
X94926383Y-152605681D01*
X95107971Y-152470548D01*
X95305542Y-152439562D01*
X95495651Y-152496145D01*
X95654854Y-152623718D01*
X95759707Y-152805705D01*
X95786766Y-153025526D01*
X95749054Y-153187405D01*
X95660052Y-153292602D01*
X95503155Y-153395828D01*
X95333754Y-153464610D01*
X95256775Y-153476000D01*
X95149223Y-153437480D01*
X95005700Y-153342741D01*
X94980656Y-153322362D01*
X94779342Y-153206175D01*
X94501378Y-153116992D01*
X94417348Y-153099687D01*
X93471178Y-152866348D01*
X92580762Y-152522402D01*
X91753435Y-152073398D01*
X90996529Y-151524888D01*
X90317380Y-150882420D01*
X89723322Y-150151546D01*
X89221688Y-149337815D01*
X89082804Y-149062750D01*
X88837787Y-148513109D01*
X88662080Y-148015962D01*
X88544260Y-147525769D01*
X88472904Y-146996987D01*
X88441135Y-146504679D01*
X88442828Y-145706872D01*
X88523417Y-144978528D01*
X88690016Y-144284338D01*
X88949743Y-143588994D01*
X89090180Y-143284250D01*
X89511680Y-142544231D01*
X90036430Y-141837590D01*
X90640764Y-141193079D01*
X91213256Y-140704963D01*
X91594107Y-140448080D01*
X92058806Y-140185264D01*
X92566798Y-139936151D01*
X93077530Y-139720373D01*
X93550450Y-139557567D01*
X93629500Y-139535110D01*
X94134727Y-139428357D01*
X94716030Y-139356528D01*
X95326643Y-139322300D01*
X95919805Y-139328354D01*
G36*
X96257612Y-137613944D02*
X96834008Y-137682949D01*
X97051701Y-137723092D01*
X97344293Y-137777345D01*
X97607413Y-137813666D01*
X97805982Y-137827870D01*
X97886498Y-137822701D01*
X98147692Y-137822434D01*
X98378572Y-137923181D01*
X98556507Y-138100147D01*
X98658863Y-138328533D01*
X98663007Y-138583544D01*
X98644530Y-138653202D01*
X98513720Y-138888514D01*
X98316017Y-139054789D01*
X98085468Y-139124415D01*
X98062783Y-139124999D01*
X97845251Y-139089146D01*
X97643908Y-138997489D01*
X97504117Y-138873883D01*
X97473699Y-138815218D01*
X97380988Y-138718647D01*
X97180107Y-138634623D01*
X96889376Y-138564290D01*
X96527113Y-138508789D01*
X96111634Y-138469262D01*
X95661258Y-138446851D01*
X95194304Y-138442698D01*
X94729088Y-138457944D01*
X94283930Y-138493733D01*
X93877146Y-138551205D01*
X93724750Y-138581512D01*
X92740862Y-138857251D01*
X91829345Y-139237188D01*
X90989050Y-139721962D01*
X90218828Y-140312213D01*
X89669907Y-140842046D01*
X89027315Y-141612743D01*
X88496721Y-142433154D01*
X88078010Y-143293707D01*
X87771067Y-144184825D01*
X87575775Y-145096936D01*
X87492020Y-146020465D01*
X87519687Y-146945837D01*
X87658660Y-147863478D01*
X87908824Y-148763814D01*
X88270063Y-149637270D01*
X88742262Y-150474273D01*
X89325306Y-151265247D01*
X89801770Y-151788882D01*
X90276111Y-152238044D01*
X90743693Y-152612467D01*
X91247368Y-152943000D01*
X91829990Y-153260490D01*
X91883250Y-153287226D01*
X92773558Y-153662820D01*
X93691553Y-153919387D01*
X94626349Y-154058904D01*
X95567064Y-154083347D01*
X96502812Y-153994692D01*
X97422710Y-153794913D01*
X98315872Y-153485986D01*
X99171415Y-153069888D01*
X99978455Y-152548593D01*
X100726106Y-151924077D01*
X101022801Y-151628315D01*
X101542336Y-151082380D01*
X101538793Y-150718346D01*
X101543766Y-150502115D01*
X101576129Y-150363383D01*
X101654125Y-150252976D01*
X101742626Y-150168906D01*
X101995409Y-150015954D01*
X102263943Y-149973567D01*
X102520695Y-150034184D01*
X102738133Y-150190244D01*
X102888723Y-150434187D01*
X102907164Y-150488704D01*
X102946381Y-150672345D01*
X102925454Y-150826110D01*
X102861067Y-150976921D01*
X102755801Y-151146122D01*
X102640919Y-151266585D01*
X102611968Y-151284748D01*
X102526920Y-151349078D01*
X102370068Y-151488611D01*
X102158227Y-151687579D01*
X101908212Y-151930215D01*
X101659468Y-152177918D01*
X100971780Y-152824752D01*
X100292384Y-153364901D01*
X99596723Y-153814360D01*
X98860240Y-154189121D01*
X98118213Y-154484256D01*
X97318900Y-154718178D01*
X96471406Y-154879028D01*
X95616189Y-154961772D01*
X94793708Y-154961373D01*
X94482385Y-154936747D01*
X93617915Y-154794436D01*
X92734519Y-154552068D01*
X91871137Y-154222637D01*
X91066711Y-153819135D01*
X90977798Y-153767422D01*
X90078856Y-153166949D01*
X89275231Y-152486053D01*
X88570318Y-151729440D01*
X87967510Y-150901814D01*
X87470203Y-150007881D01*
X87081792Y-149052346D01*
X86805672Y-148039914D01*
X86789836Y-147963071D01*
X86733731Y-147584882D01*
X86695606Y-147118909D01*
X86675459Y-146599305D01*
X86673282Y-146060223D01*
X86689071Y-145535817D01*
X86722821Y-145060239D01*
X86774526Y-144667645D01*
X86790355Y-144586000D01*
X87070691Y-143532064D01*
X87450822Y-142553156D01*
X87929373Y-141651661D01*
X88504970Y-140829967D01*
X89176239Y-140090459D01*
X89597250Y-139709905D01*
X90436475Y-139071739D01*
X91301478Y-138552208D01*
X92209123Y-138143258D01*
X93176271Y-137836839D01*
X93820000Y-137693520D01*
X94359407Y-137619466D01*
X94975411Y-137581792D01*
X95623113Y-137580088D01*
X96257612Y-137613944D01*
X96257612Y-137613944D01*
G37*
X96257612Y-137613944D02*
X96834008Y-137682949D01*
X97051701Y-137723092D01*
X97344293Y-137777345D01*
X97607413Y-137813666D01*
X97805982Y-137827870D01*
X97886498Y-137822701D01*
X98147692Y-137822434D01*
X98378572Y-137923181D01*
X98556507Y-138100147D01*
X98658863Y-138328533D01*
X98663007Y-138583544D01*
X98644530Y-138653202D01*
X98513720Y-138888514D01*
X98316017Y-139054789D01*
X98085468Y-139124415D01*
X98062783Y-139124999D01*
X97845251Y-139089146D01*
X97643908Y-138997489D01*
X97504117Y-138873883D01*
X97473699Y-138815218D01*
X97380988Y-138718647D01*
X97180107Y-138634623D01*
X96889376Y-138564290D01*
X96527113Y-138508789D01*
X96111634Y-138469262D01*
X95661258Y-138446851D01*
X95194304Y-138442698D01*
X94729088Y-138457944D01*
X94283930Y-138493733D01*
X93877146Y-138551205D01*
X93724750Y-138581512D01*
X92740862Y-138857251D01*
X91829345Y-139237188D01*
X90989050Y-139721962D01*
X90218828Y-140312213D01*
X89669907Y-140842046D01*
X89027315Y-141612743D01*
X88496721Y-142433154D01*
X88078010Y-143293707D01*
X87771067Y-144184825D01*
X87575775Y-145096936D01*
X87492020Y-146020465D01*
X87519687Y-146945837D01*
X87658660Y-147863478D01*
X87908824Y-148763814D01*
X88270063Y-149637270D01*
X88742262Y-150474273D01*
X89325306Y-151265247D01*
X89801770Y-151788882D01*
X90276111Y-152238044D01*
X90743693Y-152612467D01*
X91247368Y-152943000D01*
X91829990Y-153260490D01*
X91883250Y-153287226D01*
X92773558Y-153662820D01*
X93691553Y-153919387D01*
X94626349Y-154058904D01*
X95567064Y-154083347D01*
X96502812Y-153994692D01*
X97422710Y-153794913D01*
X98315872Y-153485986D01*
X99171415Y-153069888D01*
X99978455Y-152548593D01*
X100726106Y-151924077D01*
X101022801Y-151628315D01*
X101542336Y-151082380D01*
X101538793Y-150718346D01*
X101543766Y-150502115D01*
X101576129Y-150363383D01*
X101654125Y-150252976D01*
X101742626Y-150168906D01*
X101995409Y-150015954D01*
X102263943Y-149973567D01*
X102520695Y-150034184D01*
X102738133Y-150190244D01*
X102888723Y-150434187D01*
X102907164Y-150488704D01*
X102946381Y-150672345D01*
X102925454Y-150826110D01*
X102861067Y-150976921D01*
X102755801Y-151146122D01*
X102640919Y-151266585D01*
X102611968Y-151284748D01*
X102526920Y-151349078D01*
X102370068Y-151488611D01*
X102158227Y-151687579D01*
X101908212Y-151930215D01*
X101659468Y-152177918D01*
X100971780Y-152824752D01*
X100292384Y-153364901D01*
X99596723Y-153814360D01*
X98860240Y-154189121D01*
X98118213Y-154484256D01*
X97318900Y-154718178D01*
X96471406Y-154879028D01*
X95616189Y-154961772D01*
X94793708Y-154961373D01*
X94482385Y-154936747D01*
X93617915Y-154794436D01*
X92734519Y-154552068D01*
X91871137Y-154222637D01*
X91066711Y-153819135D01*
X90977798Y-153767422D01*
X90078856Y-153166949D01*
X89275231Y-152486053D01*
X88570318Y-151729440D01*
X87967510Y-150901814D01*
X87470203Y-150007881D01*
X87081792Y-149052346D01*
X86805672Y-148039914D01*
X86789836Y-147963071D01*
X86733731Y-147584882D01*
X86695606Y-147118909D01*
X86675459Y-146599305D01*
X86673282Y-146060223D01*
X86689071Y-145535817D01*
X86722821Y-145060239D01*
X86774526Y-144667645D01*
X86790355Y-144586000D01*
X87070691Y-143532064D01*
X87450822Y-142553156D01*
X87929373Y-141651661D01*
X88504970Y-140829967D01*
X89176239Y-140090459D01*
X89597250Y-139709905D01*
X90436475Y-139071739D01*
X91301478Y-138552208D01*
X92209123Y-138143258D01*
X93176271Y-137836839D01*
X93820000Y-137693520D01*
X94359407Y-137619466D01*
X94975411Y-137581792D01*
X95623113Y-137580088D01*
X96257612Y-137613944D01*
G04 #@! TD*
%LPC*%
D14*
G04 #@! TO.C,REF\002A\002A*
X79450000Y-186191000D03*
G04 #@! TD*
G04 #@! TO.C,REF\002A\002A*
X79450000Y-163150000D03*
G04 #@! TD*
G04 #@! TO.C,REF\002A\002A*
X79450000Y-137143800D03*
G04 #@! TD*
D15*
G04 #@! TO.C,J1*
X132567920Y-184928680D03*
D16*
X132567920Y-187468680D03*
X130027920Y-184928680D03*
X130027920Y-187468680D03*
X127487920Y-184928680D03*
X127487920Y-187468680D03*
X124947920Y-184928680D03*
X124947920Y-187468680D03*
X122407920Y-184928680D03*
X122407920Y-187468680D03*
X119867920Y-184928680D03*
X119867920Y-187468680D03*
X117327920Y-184928680D03*
X117327920Y-187468680D03*
X114787920Y-184928680D03*
X114787920Y-187468680D03*
X112247920Y-184928680D03*
X112247920Y-187468680D03*
X109707920Y-184928680D03*
X109707920Y-187468680D03*
X107167920Y-184928680D03*
X107167920Y-187468680D03*
X104627920Y-184928680D03*
X104627920Y-187468680D03*
X102087920Y-184928680D03*
X102087920Y-187468680D03*
X99547920Y-184928680D03*
X99547920Y-187468680D03*
X97007920Y-184928680D03*
X97007920Y-187468680D03*
X94467920Y-184928680D03*
X94467920Y-187468680D03*
X91927920Y-184928680D03*
X91927920Y-187468680D03*
X89387920Y-184928680D03*
X89387920Y-187468680D03*
X86847920Y-184928680D03*
X86847920Y-187468680D03*
X84307920Y-184928680D03*
X84307920Y-187468680D03*
G04 #@! TD*
G04 #@! TO.C,J2*
X130027920Y-191786680D03*
X127487920Y-191786680D03*
X124947920Y-191786680D03*
X122407920Y-191786680D03*
X119867920Y-191786680D03*
X117327920Y-191786680D03*
X114787920Y-191786680D03*
X112247920Y-191786680D03*
X109707920Y-191786680D03*
X107167920Y-191786680D03*
X104627920Y-191786680D03*
X102087920Y-191786680D03*
X99547920Y-191786680D03*
X97007920Y-191786680D03*
X94467920Y-191786680D03*
X91927920Y-191786680D03*
X89387920Y-191786680D03*
X86847920Y-191786680D03*
X84307920Y-191786680D03*
D15*
X81767920Y-191786680D03*
G04 #@! TD*
G04 #@! TO.C,J3*
X84320400Y-130463600D03*
D16*
X86860400Y-130463600D03*
X89400400Y-130463600D03*
G04 #@! TD*
G04 #@! TO.C,J4*
X132614000Y-130461000D03*
X130074000Y-130461000D03*
D15*
X127534000Y-130461000D03*
G04 #@! TD*
D14*
G04 #@! TO.C,REF\002A\002A*
X137434000Y-186191000D03*
G04 #@! TD*
G04 #@! TO.C,REF\002A\002A*
X137434000Y-137191000D03*
G04 #@! TD*
G04 #@! TO.C,REF\002A\002A*
X137454000Y-163201000D03*
G04 #@! TD*
D17*
G04 #@! TO.C,REF\002A\002A*
X142914000Y-188681000D03*
G04 #@! TD*
G04 #@! TO.C,REF\002A\002A*
X142904000Y-133641000D03*
G04 #@! TD*
M02*
